<svg fill="none" height="64" viewBox="0 0 295 64" width="295" xmlns="http://www.w3.org/2000/svg"><g fill="#fff"><path d="m.857544 38.9658h10.553956c3.8449 0 6.9324 1.1069 9.2626 3.3206 2.34 2.2137 3.5051 5.1265 3.5051 8.7383 0 3.6119-1.1651 6.5246-3.5051 8.7384-2.3399 2.2137-5.4274 3.3302-9.2626 3.3302h-10.553956zm10.553956 22.5061c2.6992 0 4.8643-.9515 6.5149-2.8642 1.6409-1.9031 2.4662-4.4372 2.4662-7.583s-.8253-5.6799-2.4662-7.5829c-1.6408-1.903-3.8157-2.8642-6.5149-2.8642h-6.90328v20.8846h6.90328z"/><path d="m30.9855 38.9658h4.2915l9.9908 20.1273 9.8452-20.1273h4.34v24.1275h-3.6215v-21.4477l-10.5249 20.6807h-1.9904l-10.9035-20.7487v21.5157h-1.4272z"/><path d="m88.4935 40.8398c2.204 1.4175 3.3011 3.2234 3.3011 5.4274h-3.9031c0-1.8156-.7476-3.3108-2.2526-4.4857-1.5049-1.1748-3.3982-1.7573-5.709-1.7573-3.0002 0-5.3789 1-7.1266 3.0001s-2.6312 4.6605-2.6312 8.0005c0 3.3399.8738 5.9712 2.6312 7.981 1.7477 2.0098 4.1264 3.0196 7.1266 3.0196 2.3302 0 4.2526-.602 5.777-1.806 1.5243-1.2039 2.2914-2.7477 2.2914-4.6313h3.8643c0 2.272-1.1069 4.1362-3.3206 5.5828-2.2137 1.4467-5.0488 2.1749-8.4956 2.1749-4.2527 0-7.6218-1.1166-10.1171-3.3594-2.4855-2.2428-3.738-5.2236-3.738-8.9422 0-3.7187 1.2428-6.6994 3.738-8.9423 2.4856-2.2428 5.8644-3.3593 10.1171-3.3593 3.4274 0 6.2431.7087 8.4471 2.1166"/><path d="m109.262 38.9658h4.33l10.078 20.1273 9.923-20.1273h4.379v24.1275h-3.661v-21.4477l-10.612 20.6807h-2l-10.991-20.7487v21.5157h-1.446z"/><path d="m142.972 63.0933 12.379-24.1275h2.195l12.34 24.1275h-4.126l-3.428-7.0974h-13.719l-3.466 7.0974h-2.155zm18.652-8.4179-6.166-12.0006-6.204 12.0006z"/><path d="m175.44 38.9658h10.544c3.835 0 6.923 1.1069 9.263 3.3206s3.505 5.1265 3.505 8.7383c0 3.6119-1.165 6.5246-3.505 8.7384-2.34 2.2137-5.418 3.3302-9.263 3.3302h-10.544zm10.554 22.5061c2.689 0 4.864-.9515 6.505-2.8642 1.651-1.9031 2.466-4.4372 2.466-7.583s-.825-5.6799-2.466-7.5829-3.816-2.8642-6.505-2.8642h-6.904v20.8846h6.904z"/><path d="m205.189 63.0933v-24.1372h19.681v1.6214h-15.875v9.3792h14.544v1.6214h-14.544v9.8937h15.875v1.6215z"/><path d="m235.142 38.9658h-3.515v24.1275h3.515z"/><path d="m243.55 38.9658h9.758c2.923 0 5.263.6408 7.03 1.9322 1.767 1.2816 2.65 2.9904 2.65 5.0973 0 1.6118-.524 2.9711-1.582 4.0876-1.059 1.1166-2.894 1.903-4.758 2.3594l7.787 10.651h-3.894l-7.582-10.6219h-5.894v10.6219h-3.515zm9.486 11.8842c1.903 0 3.428-.0874 4.564-1.0195s1.708-2.2137 1.708-3.8449c0-1.6311-.563-2.9419-1.708-3.9322-1.136-.9904-2.651-1.8642-4.535-1.8642h-6v10.651h5.962z"/><path d="m267.299 63.0933 12.399-24.1275h2.204l12.36 24.1275h-4.136l-3.437-7.0974h-13.758l-3.476 7.0974h-2.165zm18.7-8.4179-6.185-12.0006-6.223 12.0006h12.399z"/><path d="m147.564 4.23578c46.411 0 81.461 16.60282 82.034 16.90382s.874-.3495.466-.5631c0 0-34.312-19.50594-82.5-19.50594-48.1866 0-82.4991 19.50594-82.4991 19.50594-.4078.2136-.1068.8641.466.5631.5729-.301 35.6231-16.90382 82.0331-16.90382z"/></g></svg>