<svg width="20" height="24" viewBox="0 0 20 24" fill="none" xmlns="http://www.w3.org/2000/svg">
<g clip-path="url(#clip0_51_314)">
<path d="M9.75 2.25C7.82164 2.25 5.93657 2.82183 4.33319 3.89317C2.72982 4.96451 1.48013 6.48726 0.742179 8.26884C0.00422452 10.0504 -0.188858 12.0108 0.187348 13.9021C0.563554 15.7934 1.49215 17.5307 2.85571 18.8943C4.21928 20.2579 5.95656 21.1865 7.84787 21.5627C9.73919 21.9389 11.6996 21.7458 13.4812 21.0078C15.2627 20.2699 16.7855 19.0202 17.8568 17.4168C18.9282 15.8134 19.5 13.9284 19.5 12C19.4973 9.41498 18.4692 6.93661 16.6413 5.10872C14.8134 3.28084 12.335 2.25273 9.75 2.25ZM10.5 20.2153V14.25H12.75C12.9489 14.25 13.1397 14.171 13.2803 14.0303C13.421 13.8897 13.5 13.6989 13.5 13.5C13.5 13.3011 13.421 13.1103 13.2803 12.9697C13.1397 12.829 12.9489 12.75 12.75 12.75H10.5V10.5C10.5 10.1022 10.658 9.72064 10.9393 9.43934C11.2206 9.15804 11.6022 9 12 9H13.5C13.6989 9 13.8897 8.92098 14.0303 8.78033C14.171 8.63968 14.25 8.44891 14.25 8.25C14.25 8.05109 14.171 7.86032 14.0303 7.71967C13.8897 7.57902 13.6989 7.5 13.5 7.5H12C11.2044 7.5 10.4413 7.81607 9.87868 8.37868C9.31608 8.94129 9 9.70435 9 10.5V12.75H6.75C6.55109 12.75 6.36033 12.829 6.21967 12.9697C6.07902 13.1103 6 13.3011 6 13.5C6 13.6989 6.07902 13.8897 6.21967 14.0303C6.36033 14.171 6.55109 14.25 6.75 14.25H9V20.2153C6.88575 20.0223 4.92728 19.0217 3.53198 17.4215C2.13667 15.8214 1.41195 13.7449 1.50855 11.6241C1.60515 9.50324 2.51564 7.50127 4.05064 6.0346C5.58563 4.56793 7.62696 3.74947 9.75 3.74947C11.8731 3.74947 13.9144 4.56793 15.4494 6.0346C16.9844 7.50127 17.8949 9.50324 17.9915 11.6241C18.0881 13.7449 17.3633 15.8214 15.968 17.4215C14.5727 19.0217 12.6143 20.0223 10.5 20.2153Z" fill="#333333"/>
</g>
<defs>
<clipPath id="clip0_51_314">
<rect width="19.5" height="24" fill="white"/>
</clipPath>
</defs>
</svg>
