<svg width="20" height="24" viewBox="0 0 20 24" fill="none" xmlns="http://www.w3.org/2000/svg">
<g clip-path="url(#clip0_51_316)">
<path d="M10.25 7.5C9.35998 7.5 8.48995 7.76392 7.74993 8.25839C7.00991 8.75285 6.43314 9.45566 6.09254 10.2779C5.75195 11.1002 5.66283 12.005 5.83647 12.8779C6.0101 13.7508 6.43868 14.5526 7.06802 15.182C7.69736 15.8113 8.49918 16.2399 9.37209 16.4135C10.245 16.5872 11.1498 16.4981 11.9721 16.1575C12.7943 15.8169 13.4971 15.2401 13.9916 14.5001C14.4861 13.76 14.75 12.89 14.75 12C14.7488 10.8069 14.2743 9.66303 13.4306 8.81939C12.587 7.97575 11.4431 7.50124 10.25 7.5ZM10.25 15C9.65666 15 9.07664 14.8241 8.58329 14.4944C8.08994 14.1648 7.70542 13.6962 7.47836 13.1481C7.2513 12.5999 7.19189 11.9967 7.30764 11.4147C7.4234 10.8328 7.70912 10.2982 8.12868 9.87868C8.54824 9.45912 9.08279 9.1734 9.66473 9.05764C10.2467 8.94189 10.8499 9.0013 11.3981 9.22836C11.9462 9.45542 12.4148 9.83994 12.7444 10.3333C13.0741 10.8266 13.25 11.4067 13.25 12C13.25 12.7956 12.9339 13.5587 12.3713 14.1213C11.8087 14.6839 11.0456 15 10.25 15ZM14.75 2.25H5.75C4.35807 2.25149 3.02358 2.80509 2.03933 3.78933C1.05509 4.77358 0.501489 6.10807 0.5 7.5V16.5C0.501489 17.8919 1.05509 19.2264 2.03933 20.2107C3.02358 21.1949 4.35807 21.7485 5.75 21.75H14.75C16.1419 21.7485 17.4764 21.1949 18.4607 20.2107C19.4449 19.2264 19.9985 17.8919 20 16.5V7.5C19.9985 6.10807 19.4449 4.77358 18.4607 3.78933C17.4764 2.80509 16.1419 2.25149 14.75 2.25ZM18.5 16.5C18.5 17.4946 18.1049 18.4484 17.4016 19.1516C16.6984 19.8549 15.7446 20.25 14.75 20.25H5.75C4.75544 20.25 3.80161 19.8549 3.09835 19.1516C2.39509 18.4484 2 17.4946 2 16.5V7.5C2 6.50544 2.39509 5.55161 3.09835 4.84835C3.80161 4.14509 4.75544 3.75 5.75 3.75H14.75C15.7446 3.75 16.6984 4.14509 17.4016 4.84835C18.1049 5.55161 18.5 6.50544 18.5 7.5V16.5ZM16.25 7.125C16.25 7.3475 16.184 7.56501 16.0604 7.75002C15.9368 7.93502 15.7611 8.07922 15.5555 8.16436C15.35 8.24951 15.1238 8.27179 14.9055 8.22838C14.6873 8.18498 14.4868 8.07783 14.3295 7.9205C14.1722 7.76316 14.065 7.56271 14.0216 7.34448C13.9782 7.12625 14.0005 6.90005 14.0856 6.69448C14.1708 6.48891 14.315 6.31321 14.5 6.1896C14.685 6.06598 14.9025 6 15.125 6C15.4234 6 15.7095 6.11853 15.9205 6.3295C16.1315 6.54048 16.25 6.82663 16.25 7.125Z" fill="#333333"/>
</g>
<defs>
<clipPath id="clip0_51_316">
<rect width="19.5" height="24" fill="white" transform="translate(0.5)"/>
</clipPath>
</defs>
</svg>
