<svg width="21" height="24" viewBox="0 0 21 24" fill="none" xmlns="http://www.w3.org/2000/svg">
<path d="M13.9163 11.3756L9.41625 8.37563C9.30327 8.30025 9.17195 8.25697 9.03629 8.2504C8.90064 8.24382 8.76575 8.27421 8.64601 8.33831C8.52628 8.40241 8.4262 8.49783 8.35645 8.61436C8.2867 8.7309 8.24991 8.86419 8.25 9V15C8.24991 15.1358 8.2867 15.2691 8.35645 15.3856C8.4262 15.5022 8.52628 15.5976 8.64601 15.6617C8.76575 15.7258 8.90064 15.7562 9.03629 15.7496C9.17195 15.743 9.30327 15.6998 9.41625 15.6244L13.9163 12.6244C14.0191 12.5559 14.1035 12.4631 14.1618 12.3542C14.2202 12.2452 14.2507 12.1236 14.2507 12C14.2507 11.8764 14.2202 11.7548 14.1618 11.6458C14.1035 11.5369 14.0191 11.4441 13.9163 11.3756ZM9.75 13.5984V10.4063L12.1481 12L9.75 13.5984ZM20.4684 6.5175C20.3801 6.17189 20.2109 5.85224 19.9747 5.58491C19.7385 5.31758 19.4421 5.11024 19.11 4.98C15.8962 3.73875 10.7812 3.75 10.5 3.75C10.2188 3.75 5.10375 3.73875 1.89 4.98C1.5579 5.11024 1.26153 5.31758 1.02534 5.58491C0.789145 5.85224 0.619899 6.17189 0.531563 6.5175C0.28875 7.45313 0 9.16313 0 12C0 14.8369 0.28875 16.5469 0.531563 17.4825C0.619767 17.8283 0.788954 18.1481 1.02515 18.4156C1.26136 18.6831 1.5578 18.8906 1.89 19.0209C4.96875 20.2088 9.7875 20.25 10.4381 20.25H10.5619C11.2125 20.25 16.0341 20.2088 19.11 19.0209C19.4422 18.8906 19.7386 18.6831 19.9748 18.4156C20.211 18.1481 20.3802 17.8283 20.4684 17.4825C20.7113 16.545 21 14.8369 21 12C21 9.16313 20.7113 7.45313 20.4684 6.5175ZM19.0163 17.1113C18.9877 17.2263 18.9323 17.3329 18.8545 17.4224C18.7768 17.5118 18.679 17.5816 18.5691 17.6259C15.6019 18.7716 10.5553 18.7509 10.5066 18.7509H10.5C10.4494 18.7509 5.40656 18.7697 2.4375 17.6259C2.3276 17.5816 2.22977 17.5118 2.15204 17.4224C2.07431 17.3329 2.01888 17.2263 1.99031 17.1113C1.7625 16.2553 1.5 14.6784 1.5 12C1.5 9.32157 1.7625 7.74469 1.98375 6.89344C2.01179 6.77774 2.06697 6.67037 2.14473 6.58022C2.2225 6.49007 2.3206 6.41972 2.43094 6.375C5.29219 5.26969 10.0866 5.25 10.4794 5.25H10.5047C10.5553 5.25 15.6028 5.23313 18.5672 6.375C18.6771 6.41936 18.7749 6.48913 18.8526 6.57859C18.9304 6.66806 18.9858 6.77467 19.0144 6.88969C19.2375 7.74469 19.5 9.32157 19.5 12C19.5 14.6784 19.2375 16.2553 19.0163 17.1066V17.1113Z" fill="#333333"/>
</svg>
