<svg width="184" height="39" viewBox="0 0 184 39" fill="none" xmlns="http://www.w3.org/2000/svg">
<path d="M0.744507 23.592H7.32371C9.72056 23.592 11.6453 24.276 13.0979 25.644C14.5566 27.012 15.2829 28.812 15.2829 31.044C15.2829 33.276 14.5566 35.076 13.0979 36.444C11.6392 37.812 9.7145 38.502 7.32371 38.502H0.744507V23.592ZM7.32371 37.5C9.00635 37.5 10.3561 36.912 11.385 35.73C12.4079 34.554 12.9224 32.988 12.9224 31.044C12.9224 29.1 12.4079 27.534 11.385 26.358C10.3621 25.182 9.00635 24.588 7.32371 24.588H3.02029V37.494H7.32371V37.5Z" fill="white"/>
<path d="M19.5258 23.592H22.2011L28.4292 36.03L34.5666 23.592H37.2721V38.502H35.0145V25.248L28.4534 38.028H27.2127L20.4156 25.206V38.502H19.5258V23.592Z" fill="white"/>
<path d="M55.3756 24.75C56.7495 25.626 57.4334 26.742 57.4334 28.104H55.0003C55.0003 26.982 54.5342 26.058 53.5961 25.332C52.6579 24.606 51.4777 24.246 50.0371 24.246C48.1669 24.246 46.684 24.864 45.5945 26.1C44.505 27.336 43.9542 28.98 43.9542 31.044C43.9542 33.108 44.499 34.734 45.5945 35.976C46.684 37.218 48.1669 37.842 50.0371 37.842C51.4898 37.842 52.6882 37.47 53.6384 36.726C54.5887 35.982 55.0669 35.028 55.0669 33.864H57.4758C57.4758 35.268 56.7858 36.42 55.4058 37.314C54.0258 38.208 52.2584 38.658 50.1098 38.658C47.4587 38.658 45.3584 37.968 43.8029 36.582C42.2534 35.196 41.4727 33.354 41.4727 31.056C41.4727 28.758 42.2474 26.916 43.8029 25.53C45.3524 24.144 47.4587 23.454 50.1098 23.454C52.2463 23.454 54.0016 23.892 55.3756 24.762" fill="white"/>
<path d="M68.3221 23.592H71.0216L77.3042 36.03L83.49 23.592H86.2198V38.502H83.9379V25.248L77.3224 38.028H76.0756L69.224 25.206V38.502H68.3221V23.592Z" fill="white"/>
<path d="M89.3369 38.502L97.054 23.592H98.4219L106.115 38.502H103.542L101.406 34.116H92.8534L90.6926 38.502H89.349H89.3369ZM100.964 33.3L97.1205 25.884L93.2529 33.3H100.964Z" fill="white"/>
<path d="M109.577 23.592H116.15C118.541 23.592 120.466 24.276 121.924 25.644C123.383 27.012 124.109 28.812 124.109 31.044C124.109 33.276 123.383 35.076 121.924 36.444C120.466 37.812 118.547 38.502 116.15 38.502H109.577V23.592ZM116.156 37.5C117.833 37.5 119.188 36.912 120.211 35.73C121.24 34.554 121.749 32.988 121.749 31.044C121.749 29.1 121.234 27.534 120.211 26.358C119.188 25.182 117.833 24.588 116.156 24.588H111.853V37.494H116.156V37.5Z" fill="white"/>
<path d="M128.122 38.502V23.586H140.391V24.588H130.495V30.384H139.562V31.386H130.495V37.5H140.391V38.502H128.122Z" fill="white"/>
<path d="M146.795 23.592H144.603V38.502H146.795V23.592Z" fill="white"/>
<path d="M152.036 23.592H158.119C159.941 23.592 161.399 23.988 162.501 24.786C163.603 25.578 164.153 26.634 164.153 27.936C164.153 28.932 163.827 29.772 163.167 30.462C162.507 31.152 161.363 31.638 160.201 31.92L165.055 38.502H162.628L157.901 31.938H154.227V38.502H152.036V23.592ZM157.949 30.936C159.136 30.936 160.086 30.882 160.794 30.306C161.502 29.73 161.859 28.938 161.859 27.93C161.859 26.922 161.508 26.112 160.794 25.5C160.086 24.888 159.142 24.348 157.968 24.348H154.227V30.93H157.943L157.949 30.936Z" fill="white"/>
<path d="M166.841 38.502L174.57 23.592H175.944L183.649 38.502H181.071L178.928 34.116H170.351L168.185 38.502H166.835H166.841ZM178.498 33.3L174.643 25.884L170.763 33.3H178.492H178.498Z" fill="white"/>
<path d="M92.1998 2.13001C121.131 2.13001 142.981 12.39 143.338 12.576C143.696 12.762 143.883 12.36 143.629 12.228C143.629 12.228 122.239 0.174011 92.1998 0.174011C62.1606 0.174011 40.7706 12.228 40.7706 12.228C40.5163 12.36 40.704 12.762 41.0611 12.576C41.4182 12.39 63.2682 2.13001 92.1998 2.13001Z" fill="white"/>
</svg>
