<svg width="131" height="44" viewBox="0 0 131 44" fill="none" xmlns="http://www.w3.org/2000/svg">
<path d="M1.49148 8L3.58967 11.5391C3.74134 11.5644 3.69078 11.5138 3.71606 11.438C4.39861 10.3004 4.98003 9.08701 5.73841 8H7.1035L7.20461 8.10112V14.067L7.07822 14.1682C6.72431 14.1682 6.244 14.2946 5.96593 14.067V9.99707L3.56439 13.8143L1.23869 9.99707V14.067L1.11229 14.1682C0.75838 14.1682 0.278073 14.2946 0 14.067V8H1.4662H1.49148Z" fill="white"/>
<path d="M14.2857 14.1991L13.7296 12.834H10.9741C10.7466 12.9098 10.6202 14.0221 10.3169 14.1991H9.20459L11.6061 8.00564C11.9348 8.08147 12.9712 7.87924 13.1482 8.13203L15.4233 14.0474L15.3475 14.1991H14.2605H14.2857ZM13.2493 11.747L12.3898 9.16849C12.3898 9.16849 12.2381 9.32016 12.2128 9.37072C11.8842 10.0533 11.6567 11.0139 11.3786 11.747H13.2493Z" fill="white"/>
<path d="M17.4992 14.1682C17.4992 14.1682 17.4233 14.0165 17.4233 13.9912V8.10112L17.5245 8H20.6844C20.9372 8 21.7967 8.35391 22.0242 8.50559C23.9201 9.69372 23.7179 12.9295 21.645 13.8395C21.4428 13.9154 20.7097 14.1682 20.5327 14.1682H17.4739H17.4992ZM18.7379 13.0306H20.5074C20.5074 13.0306 21.0383 12.8536 21.1394 12.8031C22.4792 12.1205 22.4034 9.82011 20.9624 9.26397C20.7855 9.18813 20.2546 9.06173 20.0777 9.06173H18.7379V13.0053V13.0306Z" fill="white"/>
<path d="M26.5696 9.06173V10.5785H29.5273V11.5897H26.5696V13.0306H29.8307C30.0076 13.2834 30.0076 13.9406 29.8307 14.1934H25.3309V8H29.8307C30.0076 8.22751 30.0076 8.83422 29.8307 9.08701H26.5696V9.06173Z" fill="white"/>
<path d="M33.2021 8V14.067L33.0757 14.1682C32.7218 14.1682 32.2415 14.2946 31.9634 14.067V8H33.1768H33.2021Z" fill="white"/>
<path d="M40.2073 14.1934H38.817L37.1233 11.8677H36.4154V14.0923L36.3143 14.1934H35.202V8H38.2608C38.2608 8 38.8675 8.20224 38.9687 8.22751C40.1821 8.80894 40.3085 10.6038 39.2467 11.4127C39.095 11.5391 38.5642 11.7161 38.5895 11.8425L40.1568 13.9406L40.2326 14.1934H40.2073ZM36.3902 10.806H37.9322C37.9322 10.806 38.2861 10.6543 38.3367 10.6291C38.7411 10.351 38.7664 9.5926 38.3619 9.31453C38.2355 9.23869 37.7805 9.08701 37.6541 9.08701H36.3902V10.806Z" fill="white"/>
<path d="M48.4007 14.1934H47.2884L46.707 12.8284H44.0021L43.3448 14.1934H42.2325L44.6341 8L46.1508 8.07584L48.426 14.1934H48.4007ZM46.2267 11.7413L45.3672 9.16285C45.3672 9.16285 45.2155 9.28925 45.1902 9.36508C44.8616 10.0729 44.6341 10.983 44.356 11.7413H46.2267Z" fill="white"/>
<path d="M80.8371 8L84.3762 34.9478C83.4661 35.1753 82.5814 35.4534 81.6713 35.5798C75.6548 36.4645 70.0428 33.2541 67.3632 27.8948C65.6695 31.2823 62.7118 33.9872 59.0463 35.1247C56.215 36.0095 53.232 35.8831 50.426 34.9478L53.864 8H80.8118H80.8371ZM71.5848 10.6543H63.1668C64.8858 12.1205 66.4026 13.7637 67.3632 15.8366C68.3744 13.789 69.8406 12.1205 71.5596 10.6543M65.897 20.4374C65.4167 15.6344 61.372 11.3874 56.5436 10.806C57.0745 15.6596 61.0433 19.7549 65.897 20.4374ZM78.1827 10.7807C73.3544 11.3622 69.335 15.6091 68.8294 20.4122C73.6577 19.7296 77.6772 15.6344 78.1827 10.7807ZM53.3837 32.9254C54.8246 33.0518 56.2656 33.0771 57.6812 32.7232C61.7006 31.712 64.9869 28.2235 65.7959 24.1535C65.8211 23.9513 65.9728 23.3951 65.9475 23.2434C65.9475 23.1676 65.9475 23.1171 65.8464 23.0918C61.5489 22.662 57.757 19.9824 55.583 16.3169L53.3837 32.9254ZM81.3679 32.9254L79.1686 16.3169C77.298 19.4515 74.1886 21.9289 70.6242 22.7884C70.0681 22.9148 69.5119 22.9654 68.9558 23.0665C68.8799 23.0665 68.8041 23.0665 68.8041 23.1676C69.335 27.6168 72.6213 31.5351 76.9693 32.6726C78.4103 33.0518 79.8765 33.0518 81.3679 32.9002" fill="white"/>
<path d="M87.2357 14.1702H86.3762V8.10318L86.5026 8.00206C86.5026 8.00206 86.629 8.00206 86.7049 8.00206C86.8818 8.00206 87.1346 7.97678 87.2357 8.10318V14.1702Z" fill="white"/>
<path d="M91.1278 8.04573C92.2148 7.89406 93.4029 8.09629 94.0855 9.00635L93.4788 9.53722C93.0237 8.65244 90.5211 8.42492 90.2936 9.46138C90.0155 10.7001 91.9114 10.5989 92.6698 10.8012C93.6052 11.0287 94.3383 11.5596 94.313 12.6213C94.2624 14.77 90.9508 14.8712 89.6363 13.7589C89.0296 13.2533 89.1307 13.0763 89.8133 12.7224C90.3441 13.6577 92.139 13.9358 92.9985 13.4555C93.5293 13.1522 93.6304 12.3432 93.2007 11.9388C92.6698 11.4584 91.2036 11.5343 90.4452 11.1804C88.8021 10.422 89.333 8.3238 91.1531 8.07101" fill="white"/>
<path d="M97.1984 13.3866H100.459C100.662 13.5888 100.535 13.9174 100.561 14.1702H96.3136V8.10318L96.44 8.00206C96.44 8.00206 96.5664 8.00206 96.6422 8.00206C96.8192 8.00206 97.072 7.97678 97.1731 8.10318V13.3866H97.1984Z" fill="white"/>
<path d="M108.416 14.1682H107.557L106.975 12.6261H104.068C103.891 12.6514 103.537 13.8901 103.436 14.1429H102.577L104.953 8H106.065L108.391 14.1429L108.416 14.1682ZM106.621 11.8172L105.534 8.80894L104.321 11.8172H106.621Z" fill="white"/>
<path d="M114.865 12.9202V8.1424C115.068 7.94017 115.396 8.06657 115.649 8.04129V14.2347L114.613 14.1589L111.2 9.2547V14.2094H110.416V8.01601C110.795 8.06656 111.301 7.86433 111.579 8.19296L114.891 12.8949L114.865 12.9202Z" fill="white"/>
<path d="M117.649 14.1934V8H120.43C122.806 8 124.121 11.1094 122.73 12.9548C122.351 13.4856 121.315 14.1934 120.657 14.1934H117.674H117.649ZM118.509 13.4098H120.632C120.935 13.4098 121.643 12.9295 121.845 12.6767C122.958 11.3622 122.199 8.80894 120.404 8.80894H118.509V13.4098Z" fill="white"/>
<path d="M126.512 9.12878C126.284 9.35629 126.284 9.78604 126.436 10.0641C126.916 10.9994 130.025 10.2411 130.303 12.1623C130.657 14.665 127.27 14.943 125.778 13.8055C125.172 13.3251 125.096 13.1229 125.804 12.6932C126.057 12.8448 126.132 13.0976 126.385 13.2746C127.245 13.856 129.747 13.9319 129.469 12.4151C129.292 11.4292 127.497 11.5303 126.739 11.2775C126.082 11.05 125.526 10.6203 125.475 9.86188C125.323 7.56146 129.09 7.53618 130.152 9.00238L129.596 9.53325C129.065 9.12878 128.584 8.77487 127.877 8.74959C127.497 8.74959 126.764 8.8507 126.512 9.12878Z" fill="white"/>
</svg>
