<svg width="130" height="28" viewBox="0 0 130 28" fill="none" xmlns="http://www.w3.org/2000/svg">
<path d="M0.525879 16.9379H5.17423C6.86765 16.9379 8.22752 17.4289 9.25384 18.4111C10.2844 19.3933 10.7976 20.6856 10.7976 22.288C10.7976 23.8905 10.2844 25.1828 9.25384 26.1649C8.22325 27.1471 6.86338 27.6425 5.17423 27.6425H0.525879V16.9379ZM5.17423 26.9231C6.36305 26.9231 7.31667 26.5009 8.04364 25.6523C8.76634 24.808 9.12982 23.6837 9.12982 22.288C9.12982 20.8923 8.76634 19.768 8.04364 18.9237C7.32094 18.0794 6.36305 17.6529 5.17423 17.6529H2.13377V26.9188H5.17423V26.9231Z" fill="#D8C49B"/>
<path d="M13.7954 16.9379H15.6855L20.0859 25.8677L24.4221 16.9379H26.3336V27.6425H24.7385V18.1268L20.103 27.3022H19.2263L14.424 18.0966V27.6425H13.7954V16.9379Z" fill="#D8C49B"/>
<path d="M39.124 17.7693C40.0947 18.3982 40.5779 19.1994 40.5779 20.1773H38.8588C38.8588 19.3717 38.5296 18.7083 37.8667 18.1871C37.2039 17.6659 36.37 17.4074 35.3523 17.4074C34.0309 17.4074 32.9832 17.8511 32.2134 18.7385C31.4437 19.6259 31.0546 20.8062 31.0546 22.288C31.0546 23.7699 31.4394 24.9373 32.2134 25.829C32.9832 26.7207 34.0309 27.1687 35.3523 27.1687C36.3786 27.1687 37.2253 26.9016 37.8967 26.3674C38.568 25.8333 38.9059 25.1483 38.9059 24.3126H40.6078C40.6078 25.3206 40.1203 26.1477 39.1453 26.7896C38.1704 27.4314 36.9217 27.7545 35.4036 27.7545C33.5305 27.7545 32.0467 27.2591 30.9476 26.264C29.8529 25.269 29.3013 23.9465 29.3013 22.2967C29.3013 20.6468 29.8486 19.3243 30.9476 18.3293C32.0424 17.3342 33.5305 16.8388 35.4036 16.8388C36.9131 16.8388 38.1532 17.1533 39.124 17.7779" fill="#D8C49B"/>
<path d="M48.271 16.9379H50.1782L54.617 25.8677L58.9874 16.9379H60.9161V27.6425H59.3039V18.1268L54.6299 27.3022H53.749L48.9082 18.0966V27.6425H48.271V16.9379Z" fill="#D8C49B"/>
<path d="M63.1184 27.6425L68.5707 16.9379H69.5372L74.9724 27.6425H73.1549L71.6454 24.4936H65.6029L64.0763 27.6425H63.127H63.1184ZM71.3332 23.9077L68.6177 18.5834L65.8852 23.9077H71.3332Z" fill="#D8C49B"/>
<path d="M77.4185 16.9379H82.0625C83.7517 16.9379 85.1115 17.4289 86.1421 18.4111C87.1727 19.3933 87.6859 20.6856 87.6859 22.288C87.6859 23.8905 87.1727 25.1828 86.1421 26.1649C85.1115 27.1471 83.756 27.6425 82.0625 27.6425H77.4185V16.9379ZM82.0668 26.9231C83.2513 26.9231 84.2092 26.5009 84.9319 25.6523C85.6589 24.808 86.0181 23.6837 86.0181 22.288C86.0181 20.8923 85.6546 19.768 84.9319 18.9237C84.2092 18.0794 83.2513 17.6529 82.0668 17.6529H79.0263V26.9188H82.0668V26.9231Z" fill="#D8C49B"/>
<path d="M90.521 27.6425V16.9336H99.1891V17.653H92.1973V21.8142H98.6032V22.5336H92.1973V26.9231H99.1891V27.6425H90.521Z" fill="#D8C49B"/>
<path d="M103.714 16.9379H102.166V27.6425H103.714V16.9379Z" fill="#D8C49B"/>
<path d="M107.417 16.9379H111.714C113.002 16.9379 114.032 17.2222 114.811 17.7951C115.589 18.3637 115.978 19.1219 115.978 20.0566C115.978 20.7717 115.747 21.3748 115.281 21.8702C114.815 22.3656 114.007 22.7145 113.185 22.9169L116.615 27.6425H114.9L111.56 22.9299H108.965V27.6425H107.417V16.9379ZM111.595 22.2105C112.433 22.2105 113.104 22.1717 113.605 21.7582C114.105 21.3446 114.357 20.776 114.357 20.0523C114.357 19.3286 114.109 18.7471 113.605 18.3077C113.104 17.8683 112.437 17.4806 111.608 17.4806H108.965V22.2062H111.59L111.595 22.2105Z" fill="#D8C49B"/>
<path d="M117.877 27.6425L123.337 16.9379H124.308L129.752 27.6425H127.93L126.416 24.4936H120.357L118.826 27.6425H117.872H117.877ZM126.113 23.9077L123.389 18.5834L120.648 23.9077H126.108H126.113Z" fill="#D8C49B"/>
<path d="M65.1411 1.52925C85.5819 1.52925 101.019 8.8954 101.272 9.02894C101.524 9.16248 101.657 8.87386 101.477 8.77909C101.477 8.77909 86.3645 0.124939 65.1411 0.124939C43.9177 0.124939 28.8052 8.77909 28.8052 8.77909C28.6256 8.87386 28.7582 9.16248 29.0105 9.02894C29.2628 8.8954 44.7003 1.52925 65.1411 1.52925Z" fill="#D8C49B"/>
</svg>
