<svg width="184" height="80" viewBox="0 0 184 80" fill="none" xmlns="http://www.w3.org/2000/svg">
<path d="M26.9749 38.207H31.6529C33.3571 38.207 34.7256 38.699 35.7585 39.6828C36.7956 40.6667 37.3121 41.9613 37.3121 43.5665C37.3121 45.1718 36.7956 46.4664 35.7585 47.4502C34.7213 48.4341 33.3528 48.9304 31.6529 48.9304H26.9749V38.207ZM31.6529 48.2097C32.8493 48.2097 33.809 47.7868 34.5406 46.9367C35.2679 46.0909 35.6337 44.9647 35.6337 43.5665C35.6337 42.1684 35.2679 41.0421 34.5406 40.1964C33.8133 39.3506 32.8493 38.9234 31.6529 38.9234H28.593V48.2054H31.6529V48.2097Z" fill="#D8C49B"/>
<path d="M40.3289 38.207H42.2311L46.6594 47.1525L51.0233 38.207H52.947V48.9304H51.3418V39.398L46.6767 48.5895H45.7944L40.9615 39.3678V48.9304H40.3289V38.207Z" fill="#D8C49B"/>
<path d="M65.8192 39.0399C66.7961 39.6699 67.2824 40.4725 67.2824 41.4521H65.5524C65.5524 40.6451 65.221 39.9806 64.5539 39.4584C63.8869 38.9363 63.0477 38.6774 62.0234 38.6774C60.6936 38.6774 59.6392 39.1219 58.8646 40.0108C58.0899 40.8997 57.6983 42.0821 57.6983 43.5665C57.6983 45.051 58.0856 46.2204 58.8646 47.1137C59.6392 48.0069 60.6936 48.4557 62.0234 48.4557C63.0563 48.4557 63.9084 48.1882 64.5841 47.6531C65.2597 47.118 65.5997 46.4319 65.5997 45.5947H67.3125C67.3125 46.6045 66.8219 47.433 65.8407 48.076C64.8595 48.7189 63.6028 49.0426 62.0751 49.0426C60.1901 49.0426 58.6967 48.5463 57.5907 47.5495C56.489 46.5527 55.9338 45.2279 55.9338 43.5752C55.9338 41.9224 56.4847 40.5977 57.5907 39.6009C58.6924 38.604 60.1901 38.1078 62.0751 38.1078C63.5942 38.1078 64.8423 38.4228 65.8192 39.0485" fill="#D8C49B"/>
<path d="M75.0244 38.207H76.9438L81.4109 47.1525L85.8092 38.207H87.7501V48.9304H86.1277V39.398L81.4239 48.5895H80.5373L75.6656 39.3678V48.9304H75.0244V38.207Z" fill="#D8C49B"/>
<path d="M89.9666 48.9304L95.4536 38.207H96.4262L101.896 48.9304H100.067L98.5479 45.7759H92.4669L90.9306 48.9304H89.9752H89.9666ZM98.2337 45.1891L95.501 39.8555L92.751 45.1891H98.2337Z" fill="#D8C49B"/>
<path d="M104.358 38.207H109.031C110.731 38.207 112.1 38.699 113.137 39.6828C114.174 40.6667 114.691 41.9613 114.691 43.5665C114.691 45.1718 114.174 46.4664 113.137 47.4502C112.1 48.4341 110.736 48.9304 109.031 48.9304H104.358V38.207ZM109.036 48.2097C110.228 48.2097 111.192 47.7868 111.919 46.9367C112.651 46.0909 113.012 44.9647 113.012 43.5665C113.012 42.1684 112.646 41.0421 111.919 40.1964C111.192 39.3506 110.228 38.9234 109.036 38.9234H105.976V48.2054H109.036V48.2097Z" fill="#D8C49B"/>
<path d="M117.544 48.9304V38.2027H126.267V38.9234H119.231V43.0919H125.678V43.8125H119.231V48.2097H126.267V48.9304H117.544Z" fill="#D8C49B"/>
<path d="M130.821 38.207H129.263V48.9304H130.821V38.207Z" fill="#D8C49B"/>
<path d="M134.547 38.207H138.872C140.168 38.207 141.205 38.4918 141.988 39.0658C142.772 39.6354 143.163 40.3949 143.163 41.3313C143.163 42.0476 142.931 42.6517 142.462 43.148C141.993 43.6442 141.179 43.9938 140.353 44.1966L143.804 48.9304H142.079L138.718 44.2095H136.105V48.9304H134.547V38.207ZM138.752 43.4889C139.595 43.4889 140.271 43.45 140.775 43.0358C141.278 42.6215 141.532 42.0519 141.532 41.3269C141.532 40.602 141.282 40.0194 140.775 39.5793C140.271 39.1391 139.6 38.7508 138.765 38.7508H136.105V43.4846H138.748L138.752 43.4889Z" fill="#D8C49B"/>
<path d="M145.074 48.9304L150.57 38.207H151.547L157.025 48.9304H155.192L153.668 45.7759H147.57L146.03 48.9304H145.07H145.074ZM153.363 45.1891L150.621 39.8555L147.863 45.1891H153.359H153.363Z" fill="#D8C49B"/>
<path d="M92.002 22.7715C112.573 22.7715 128.109 30.1505 128.363 30.2843C128.617 30.418 128.75 30.1289 128.57 30.034C128.57 30.034 113.361 21.3647 92.002 21.3647C70.6433 21.3647 55.4344 30.034 55.4344 30.034C55.2537 30.1289 55.3871 30.418 55.641 30.2843C55.8949 30.1505 71.4309 22.7715 92.002 22.7715Z" fill="#D8C49B"/>
</svg>
