<svg width="102" height="88" viewBox="0 0 102 88" fill="none" xmlns="http://www.w3.org/2000/svg">
<path fill-rule="evenodd" clip-rule="evenodd" d="M99.6378 61.9233C98.3119 67.7726 92.6304 68.3396 90.9008 68.5745C89.9537 68.676 89.2732 68.5745 89.3286 68.1844C89.3592 67.7726 89.8692 67.9031 91.4385 67.6189C97.388 66.4343 98.9078 62.8528 98.4459 58.4709C98.2026 55.4085 96.607 51.8748 95.9323 47.1609C94.5218 53.5235 88.4616 55.9435 86.3269 51.334C85.3243 52.9536 84.1382 54.0136 83.1124 54.0136C82.0749 54.0136 81.3492 53.7584 80.8873 51.9995C80.6469 52.4925 79.6998 53.7308 78.4495 54.1426C78.184 54.2458 77.9011 54.2979 77.6161 54.2963C74.7178 54.2963 75.018 51.6414 75.2365 49.9405C75.3546 48.8066 76.3032 46.4518 77.3873 44.6582C74.3127 45.7065 72.1401 47.0898 69.9865 47.9642C71.0108 49.188 71.6214 49.8985 72.3368 50.8453C74.9145 54.1948 78.7002 60.2964 73.1528 66.7416C65.5451 75.5794 44.1032 72.4097 55.9265 56.5641C56.7198 55.5069 57.6348 54.5458 58.6528 53.7004C57.9708 53.9425 57.1621 53.9976 56.4 53.9077C55.991 53.8627 55.5891 53.7672 55.2037 53.6235C53.6111 52.9826 52.2851 50.999 52.2851 48.6529C52.2851 46.9883 53.1054 45.766 53.4231 44.9279C52.3714 44.8611 51.3178 44.8296 50.264 44.8336C50.2582 48.302 50.0964 55.6202 49.9566 57.6487C49.9041 58.2925 49.7671 58.597 49.2834 58.5448C49.04 58.5216 48.8739 58.2679 48.9322 56.8991C49.0109 55.6071 49.04 49.9492 48.7952 44.8757C46.8674 44.967 44.7706 45.2222 43.194 45.8457C42.7626 46.0502 41.9233 46.4156 41.8709 45.8196C41.8272 45.4528 43.3659 44.4189 48.7442 43.8186C48.5417 38.8828 48.7952 34.9504 49.5515 34.3284C50.3893 34.0688 50.5263 34.7648 50.3106 35.6914C49.9318 37.3139 50.1984 41.2086 50.2582 43.4489C50.2582 43.517 50.2626 43.5881 50.2626 43.6693C51.3408 43.5779 52.543 43.5054 53.8865 43.4518C54.3192 43.0994 54.9837 43.169 55.8813 43.807C56.0183 43.9085 56.1829 44.0158 56.4 44.171C57.9942 45.3527 61.3223 48.2919 60.1566 52.3374C60.1158 52.4505 60.0618 52.5549 60.005 52.6549C60.965 51.9739 61.956 51.3372 62.9747 50.7467C62.6862 47.8119 62.9178 42.8993 63.1714 39.9529C63.2486 36.412 68.404 37.5387 71.7452 34.5343C75.1258 31.4893 72.4782 29.1446 68.0645 29.4825C64.6285 29.7391 60.1362 30.5888 56.757 34.817C55.9964 35.7958 55.8638 36.412 55.4325 36.3352C54.838 36.209 55.2693 35.4869 55.8318 34.6111C57.4055 32.1099 62.4151 28.5516 68.7974 28.5516C74.9378 28.5516 76.0452 31.9794 73.0712 34.8649C70.1482 37.7025 66.1964 37.0065 64.8442 39.4773C64.1535 40.7635 66.9439 44.3232 69.4138 47.2928C72.7521 45.8298 75.7072 44.2826 78.2805 43.3749C78.3388 43.3039 78.3971 43.2299 78.4495 43.1618C78.9391 42.6224 79.3734 42.2874 79.7799 42.2874C80.9442 42.2874 81.1598 42.5977 81.2385 43.7055C82.0516 43.9883 82.0749 45.0961 82.0254 45.7921C81.7237 49.2184 81.9132 52.2852 82.9448 52.2852C85.9713 52.1576 85.6755 46.9274 85.8125 46.0792C85.948 45.2251 86.1928 44.7858 86.7334 44.7858C87.2463 44.7858 87.6528 45.1207 87.5669 45.9994C87.4896 46.8477 87.1662 52.5969 90.2233 52.3127C93.7408 51.9778 94.8759 47.2348 94.9269 43.6301C95.0377 41.9046 95.1469 40.3807 95.8201 40.4068C96.5006 40.459 96.9057 41.5668 97.1753 45.6123C97.3122 47.9845 97.8514 50.5075 98.5829 53.5003C98.9894 55.1214 99.7981 57.3616 99.8535 59.7063V60.0934C99.832 60.7082 99.7599 61.3202 99.6378 61.9233ZM56.4 45.663C56.2631 45.5601 56.1013 45.4571 55.9658 45.3527C55.7778 45.2512 55.3422 45.0729 55.0158 45.4296C54.3688 46.127 53.7204 47.5451 53.7204 48.6776C53.7204 50.7627 54.9662 52.2112 56.4 52.623C56.6958 52.6984 56.964 52.7216 57.2641 52.7216C59.052 52.7216 59.1264 51.5399 59.1264 50.6641C59.1264 48.2919 58.1865 46.9535 56.4 45.663ZM64.6883 43.5808C64.2599 46.0038 64.2628 48.65 64.2876 50.0696C65.5218 49.3953 66.9483 48.5152 68.232 47.925C66.9709 46.5433 65.7878 45.093 64.6883 43.5808ZM68.9606 48.5413C67.3038 49.2445 65.5349 50.39 64.3065 51.0498C64.3779 52.1083 64.5455 53.8628 64.6504 54.3949C64.8646 55.494 64.2861 55.6274 63.9189 55.349C63.4133 54.9314 63.2399 52.7825 63.0606 51.5877C60.8458 52.9072 59.8986 53.8367 58.2929 55.4085C44.7094 68.7847 62.8683 75.9158 72.5277 65.9703C77.992 60.3269 73.7182 54.6066 71.4217 51.434C70.6975 50.4234 70.1103 49.7868 68.9606 48.5413ZM79.7508 44.5581C79.2903 44.764 78.859 45.1497 78.4495 45.692C77.1833 47.4161 76.3673 50.5553 76.5086 52.1315C76.615 53.3147 77.616 53.1363 78.4495 52.6245C78.9144 52.3649 79.3442 51.9778 79.5366 51.666C79.911 51.0222 80.2943 50.2001 80.319 48.7283C80.3759 47.287 80.7008 44.271 79.7508 44.5581ZM42.9798 43.7577C40.1922 44.1463 36.784 45.7428 36.7534 53.5017C36.7053 53.8077 36.647 54.9909 35.6984 54.9909C34.8897 54.9909 34.725 54.1426 34.9174 53.3437C35.3196 51.1745 35.2132 46.0226 32.3747 44.403C31.3182 44.3232 30.5605 43.2415 31.2075 43.0095C32.5087 42.7021 36.1064 45.5108 35.9957 48.5007C37.2168 43.8839 41.2749 42.8326 43.194 42.6731C44.2489 42.5702 45.2485 42.6224 45.2485 43.0095C45.2485 43.4735 43.8686 43.6548 42.9798 43.7577ZM29.5901 53.0058C29.0976 53.8845 27.961 54.7589 26.6933 55.1446C25.5567 55.481 24.3385 55.4302 23.3637 54.6298C20.7933 52.4925 22.3932 48.2672 23.7134 46.1009C24.4988 44.8394 25.6398 43.836 26.6933 43.4242C27.3971 43.1386 28.0761 43.1386 28.5584 43.5518C30.4804 42.4948 30.9394 45.4078 31.0472 46.7955C31.1317 48.2136 30.8578 50.7134 29.5901 53.0058ZM28.5336 44.7858C28.0761 44.503 27.3971 44.6089 26.6933 45.0207C25.7184 45.6369 24.6649 46.8477 24.0427 48.55C22.9586 51.4616 23.2034 54.0904 25.5567 54.1426C25.9603 54.1426 26.3392 54.0904 26.6933 53.9889C28.4244 53.3944 29.3453 51.3847 29.7183 49.6317C30.1817 47.5176 30.1015 44.4552 28.5336 44.7858ZM11.8523 46.2952C12.132 48.1541 12.642 50.6235 13.257 52.465C14.0992 54.9923 14.0161 55.3548 13.5848 55.4085C12.645 55.4766 11.2767 50.6249 10.4767 46.1604C9.09832 46.0092 7.72578 45.809 6.36176 45.5601C5.32865 45.3542 5.06053 45.1758 5.16836 44.9148C5.32865 44.5581 6.38799 44.7858 7.68339 44.9917C8.57808 45.1323 9.46402 45.2411 10.3354 45.3237C10.1582 44.153 10.0352 42.9749 9.96673 41.793C6.31513 30.0117 0.761963 25.2137 0.761963 20.2286C0.761963 17.7795 2.57319 16.4165 5.35925 16.4165C10.3368 16.4165 17.6677 24.6888 20.9973 28.9648C24.7859 33.8339 31.2702 47.8235 11.8523 46.2952ZM17.1534 25.8241C14.9662 23.1431 7.63385 15.4363 3.43436 17.7795C-0.754923 20.1503 4.25036 26.365 5.38839 28.6835C6.77413 31.5502 8.85348 35.1259 9.91573 38.4623C10.0032 35.9567 10.4214 34.0065 11.3117 33.9644C12.3666 33.9398 10.688 34.7634 11.6585 44.764C11.6789 44.9598 11.7066 45.1816 11.7357 45.418C22.4034 45.9313 29.6862 41.0361 17.1534 25.8241Z" fill="white"/>
</svg>
