<svg width="269" height="88" viewBox="0 0 269 88" fill="none" xmlns="http://www.w3.org/2000/svg">
<path d="M18.4816 58.5616V58.2288C19.5275 57.9626 20.2453 57.3303 20.6399 56.3367C21.0298 55.3431 21.2247 52.8614 21.2247 48.887V34.7626C21.2247 33.6359 21.0488 32.7991 20.697 32.2667C20.3452 31.7295 19.7604 31.3919 18.9427 31.2541L18.9617 30.7977C19.5845 30.8072 20.2358 30.8214 20.9157 30.8262C21.5955 30.8309 22.5321 30.8357 23.7396 30.8357C24.814 30.8357 26.1024 30.8262 27.6332 30.7977C29.1498 30.7691 30.1291 30.7549 30.5665 30.7549C33.4427 30.7549 35.7865 30.9783 37.6073 31.4252C39.4234 31.8673 41.016 32.59 42.4042 33.5741C44.0919 34.8006 45.366 36.2982 46.236 38.0667C47.106 39.8352 47.5386 41.8367 47.5386 44.0616C47.5386 45.93 47.2486 47.7128 46.6829 49.4147C46.1124 51.1119 45.3089 52.5714 44.2726 53.779C42.7893 55.5095 41.0826 56.7408 39.1429 57.4682C37.208 58.2003 34.5552 58.5664 31.194 58.5664H18.4816V58.5616ZM27.7806 32.4236V48.7634C27.7806 50.6032 27.8044 52.0437 27.8567 53.0896C27.9089 54.1308 27.985 54.9009 28.0896 55.3906C28.256 56.099 28.5935 56.5982 29.1022 56.8739C29.6157 57.1496 30.5189 57.2923 31.8263 57.2923C34.4316 57.2923 36.4568 56.175 37.8878 53.9454C39.3188 51.7157 40.0367 48.5732 40.0367 44.518C40.0367 40.4628 39.3283 37.1539 37.8973 35.1667C36.4711 33.1842 34.2224 32.1906 31.1607 32.1906C30.6711 32.1906 30.1481 32.2096 29.5919 32.2429C29.0404 32.2809 28.4366 32.3332 27.7806 32.4236Z" fill="white"/>
<path d="M48.4037 47.4467C48.4037 43.9334 49.4782 41.1 51.6175 38.9416C53.7569 36.7785 56.576 35.7041 60.0798 35.7041C63.5836 35.7041 66.3219 36.7833 68.447 38.9416C70.5816 41.1 71.6418 43.9097 71.6418 47.3802C71.6418 50.8507 70.5721 53.7031 68.4185 55.8567C66.2696 58.0056 63.441 59.0848 59.9229 59.0848C56.4049 59.0848 53.7711 57.9913 51.6223 55.8044C49.4734 53.6175 48.399 50.8316 48.399 47.4467H48.4037ZM60.0085 57.7916C61.7628 57.7916 63.0987 56.9121 64.0067 55.1484C64.9195 53.3893 65.3711 50.7841 65.3711 47.3421C65.3711 43.9002 64.9195 41.371 64.0067 39.6167C63.0987 37.872 61.7675 36.9972 60.0085 36.9972C58.2495 36.9972 56.9801 37.8815 56.0721 39.6405C55.1736 41.4043 54.7219 43.9572 54.7219 47.2993C54.7219 50.6415 55.1688 53.3466 56.0673 55.1293C56.9611 56.9026 58.2828 57.7916 60.0085 57.7916Z" fill="white"/>
<path d="M212.121 47.4467C212.121 43.9334 213.2 41.1 215.339 38.9416C217.483 36.7785 220.303 35.7041 223.806 35.7041C227.31 35.7041 230.039 36.7833 232.174 38.9416C234.303 41.1 235.368 43.9097 235.368 47.3802C235.368 50.8507 234.294 53.7031 232.145 55.8567C230.001 58.0056 227.167 59.0848 223.654 59.0848C220.141 59.0848 217.502 57.9913 215.354 55.8044C213.205 53.6175 212.125 50.8316 212.125 47.4467H212.121ZM223.73 57.7916C225.475 57.7916 226.816 56.9121 227.724 55.1484C228.636 53.3893 229.093 50.7841 229.093 47.3421C229.093 43.9002 228.641 41.371 227.724 39.6167C226.816 37.872 225.475 36.9972 223.73 36.9972C221.985 36.9972 220.697 37.8815 219.794 39.6405C218.891 41.4043 218.439 43.9572 218.439 47.2993C218.439 50.6415 218.891 53.3466 219.784 55.1293C220.678 56.9026 221.995 57.7916 223.73 57.7916Z" fill="white"/>
<path d="M71.0381 58.6902L71.019 58.2339C72.0079 57.882 72.683 57.2212 73.0395 56.2371C73.3961 55.2578 73.5768 53.0329 73.5768 49.5814V42.6452C73.5768 40.8243 73.4199 39.6596 73.1061 39.1461C72.7971 38.6422 72.2028 38.3522 71.3471 38.2809V37.7817C72.8589 37.5868 74.2566 37.3586 75.5307 37.1019C76.8048 36.8452 77.96 36.5552 78.9917 36.2319V41.1048C79.6715 39.2935 80.6271 37.9386 81.8631 37.0306C83.0992 36.1225 84.6205 35.6709 86.4318 35.6709C88.2431 35.6709 89.5791 36.1511 90.6725 37.1114C91.7659 38.0717 92.441 39.4171 92.7025 41.1476C93.4061 39.3078 94.3664 37.9386 95.593 37.0496C96.8148 36.1558 98.3456 35.7137 100.185 35.7137C102.624 35.7137 104.383 36.5314 105.477 38.1763C106.575 39.8212 107.126 42.493 107.126 46.2012V49.106C107.126 52.857 107.307 55.234 107.678 56.2514C108.049 57.2688 108.743 57.9343 109.755 58.2386L109.741 58.695C109.099 58.657 108.391 58.6237 107.607 58.6047C106.822 58.5857 105.686 58.5714 104.188 58.5714C102.852 58.5714 101.792 58.5857 101.017 58.6047C100.242 58.6237 99.5056 58.657 98.802 58.695V58.2386C99.7766 57.8868 100.452 57.2402 100.832 56.2942C101.208 55.3481 101.393 53.3561 101.393 50.3183V46.5958C101.393 43.5912 101.098 41.3853 100.504 39.9971C99.9097 38.6042 98.9731 37.9053 97.699 37.9053C96.3299 37.9053 95.2222 38.704 94.3617 40.2871C93.5012 41.875 93.0733 43.9763 93.0733 46.5958V49.5861C93.0733 53.0709 93.2587 55.3053 93.6248 56.2942C94.0004 57.2783 94.6802 57.9343 95.669 58.2386L95.65 58.695C94.9987 58.657 94.2904 58.6237 93.5202 58.6047C92.75 58.5857 91.6518 58.5714 90.2161 58.5714C88.9277 58.5714 87.9008 58.5857 87.1402 58.6047C86.3748 58.6237 85.6427 58.657 84.9438 58.695V58.2386C85.9184 57.8868 86.5982 57.2402 86.9738 56.2942C87.3494 55.3481 87.5395 53.3561 87.5395 50.3183V46.5958C87.5395 43.5484 87.2543 41.3473 86.6648 39.9876C86.0705 38.6279 85.1435 37.9481 83.8646 37.9481C82.524 37.9481 81.4258 38.742 80.5748 40.3299C79.719 41.9178 79.2959 44.0096 79.2959 46.5958V49.5861C79.2959 53.0566 79.4766 55.2863 79.8522 56.2752C80.223 57.264 80.9028 57.9153 81.8917 58.2434V58.6998C81.2404 58.6617 80.532 58.6284 79.7713 58.6094C78.9964 58.5904 77.8697 58.5761 76.3864 58.5761C75.0458 58.5761 73.9904 58.5904 73.2249 58.6094C72.45 58.6284 71.7227 58.6617 71.0381 58.6998V58.6902Z" fill="white"/>
<path d="M123.034 30.793C124.108 30.8025 125.216 30.8167 126.352 30.8215C127.488 30.8262 129.019 30.831 130.949 30.831H133.754C136.592 30.831 138.76 30.9166 140.258 31.0735C141.751 31.2351 143.048 31.4966 144.166 31.8579C145.787 32.3903 147.056 33.1985 147.964 34.292C148.877 35.3854 149.333 36.6405 149.333 38.062C149.333 40.3772 148.092 42.2171 145.601 43.591C143.11 44.9649 139.725 45.6495 135.442 45.6495C135.038 45.64 134.558 45.621 134.02 45.5972C133.478 45.5782 132.851 45.5497 132.147 45.5259V48.8918C132.147 52.543 132.352 54.9295 132.77 56.0515C133.179 57.1735 133.954 57.8723 135.095 58.1528L135.071 58.6948C134.22 58.6567 133.331 58.6235 132.404 58.6044C131.467 58.5854 130.222 58.5712 128.648 58.5712C127.075 58.5712 125.953 58.5854 125.064 58.6044C124.189 58.6235 123.343 58.6567 122.549 58.6948V58.1528C123.642 57.9008 124.393 57.2495 124.793 56.1989C125.187 55.1435 125.392 52.7094 125.392 48.8966V34.6866C125.392 33.712 125.211 32.9703 124.85 32.4617C124.488 31.953 123.88 31.5821 123.015 31.3444L123.034 30.8025V30.793ZM132.147 43.8953C132.542 43.9808 132.927 44.0379 133.317 44.0854C133.702 44.1235 134.106 44.1472 134.529 44.1472C136.83 44.1472 138.594 43.6195 139.83 42.5736C141.061 41.523 141.679 40.0207 141.679 38.0715C141.679 36.1223 141.037 34.6723 139.754 33.7262C138.465 32.7802 136.512 32.3048 133.878 32.3048C133.602 32.3048 133.136 32.3285 132.485 32.3666C132.352 32.3666 132.242 32.3761 132.152 32.3903V43.9048L132.147 43.8953Z" fill="white"/>
<path d="M170.023 44.732H154.858L154.839 44.8746C154.796 45.7446 154.782 46.3816 154.782 46.8C154.782 50.0185 155.395 52.5334 156.626 54.3447C157.857 56.1513 159.559 57.0593 161.727 57.0593C163.543 57.0593 165.093 56.3938 166.367 55.0626C167.646 53.7315 168.611 51.7728 169.253 49.1818L170.337 50.2277C169.51 53.1942 168.202 55.4192 166.42 56.9024C164.637 58.3857 162.369 59.1274 159.621 59.1274C156.193 59.1274 153.417 58.0292 151.278 55.8375C149.138 53.6411 148.073 50.7982 148.073 47.2992C148.073 43.8001 149.129 41.0903 151.24 38.9224C153.351 36.7451 156.079 35.6611 159.426 35.6611C162.426 35.6611 164.851 36.4503 166.691 38.0239C168.535 39.5975 169.643 41.832 170.028 44.732H170.023ZM163.139 43.2059C163.082 41.2805 162.702 39.7639 162.008 38.6562C161.314 37.5485 160.391 36.9923 159.265 36.9923C158.138 36.9923 157.178 37.5342 156.422 38.6134C155.656 39.6974 155.148 41.2187 154.9 43.2011H163.139V43.2059Z" fill="white"/>
<path d="M188.455 55.2622C187.661 56.6028 186.715 57.5822 185.621 58.2192C184.523 58.8515 183.211 59.17 181.69 59.17C178.614 59.17 176.113 58.1051 174.178 55.9705C172.258 53.8407 171.292 51.0548 171.292 47.6128C171.292 44.1708 172.258 41.423 174.207 39.1505C176.146 36.8781 178.566 35.7418 181.462 35.7418C182.821 35.7418 184.052 36.0271 185.151 36.5881C186.254 37.1538 187.238 38 188.112 39.1267V33.7784C188.112 31.872 187.975 30.6835 187.68 30.2176C187.39 29.7517 186.848 29.4807 186.054 29.4141V28.953C187.528 28.7153 188.906 28.4681 190.185 28.2113C191.459 27.9546 192.676 27.6741 193.817 27.3604C193.77 28.7676 193.732 30.1272 193.699 31.4346C193.68 32.7467 193.665 33.9971 193.665 35.1999V48.5922C193.665 52.2386 193.846 54.6964 194.202 55.9467C194.559 57.2018 195.21 57.9482 196.147 58.1859V58.6471C195.729 58.6138 195.277 58.5948 194.802 58.5805C194.321 58.571 193.622 58.5615 192.705 58.5615C191.859 58.5615 191.241 58.571 190.837 58.5805C190.447 58.5948 190.081 58.6138 189.762 58.6471C189.491 58.1289 189.244 57.5917 189.035 57.0212C188.816 56.4602 188.621 55.8707 188.455 55.2574V55.2622ZM182.897 37.5008C181.214 37.5008 179.916 38.3661 179.004 40.0918C178.086 41.8176 177.63 44.2897 177.63 47.4892C177.63 50.6887 178.081 53.2369 179.004 54.9579C179.912 56.6789 181.243 57.5441 182.992 57.5441C184.647 57.5441 185.916 56.6789 186.786 54.9579C187.666 53.2417 188.103 50.7505 188.103 47.4892C188.103 44.2279 187.661 41.7653 186.767 40.0633C185.873 38.3518 184.585 37.5008 182.892 37.5008H182.897Z" fill="white"/>
<path d="M196.798 58.69V58.1861C197.782 57.8342 198.462 57.202 198.828 56.2749C199.199 55.3526 199.384 53.3749 199.384 50.3513V42.6354C199.384 40.8146 199.228 39.6498 198.919 39.1506C198.61 38.6467 198.006 38.3567 197.112 38.2711V37.772C198.9 37.5342 200.473 37.287 201.823 37.0256C203.174 36.7688 204.31 36.5026 205.213 36.2221V41.4516C206.05 39.531 207.043 38.081 208.189 37.1159C209.344 36.1461 210.656 35.6611 212.135 35.6611C212.349 35.6611 212.511 35.6611 212.615 35.6706C212.729 35.6801 212.834 35.6897 212.924 35.7039L210.714 42.6782H210.195C209.986 42.4024 209.744 42.1933 209.477 42.0459C209.206 41.8938 208.902 41.8272 208.579 41.8272C207.481 41.8272 206.644 42.3501 206.074 43.4056C205.494 44.4562 205.208 45.9728 205.208 47.9457V49.9947C205.208 53.2418 205.403 55.3431 205.764 56.3082C206.135 57.2733 206.81 57.8961 207.804 58.1861L207.785 58.69C207.134 58.652 206.425 58.6187 205.641 58.5997C204.856 58.5806 203.711 58.5664 202.208 58.5664C200.863 58.5664 199.803 58.5806 199.028 58.5997C198.248 58.6187 197.502 58.652 196.794 58.69H196.798Z" fill="white"/>
<path fill-rule="evenodd" clip-rule="evenodd" d="M253.6 36.1983C253.6 37.6863 253.096 38.9651 252.074 40.0158C251.066 41.076 249.83 41.6037 248.394 41.6037C246.959 41.6037 245.727 41.076 244.705 40.0158C243.688 38.9651 243.179 37.6863 243.179 36.1983C243.179 34.7102 243.688 33.4314 244.705 32.3712C245.727 31.3158 246.954 30.7881 248.394 30.7881C249.835 30.7881 251.066 31.3158 252.074 32.3712C253.096 33.4266 253.6 34.7007 253.6 36.1983ZM253.02 36.1983C253.02 34.8719 252.569 33.7404 251.661 32.7991C250.762 31.8625 249.673 31.3919 248.394 31.3919C247.116 31.3919 246.017 31.8625 245.114 32.7991C244.216 33.7356 243.759 34.8671 243.759 36.1983C243.759 37.5294 244.211 38.6561 245.114 39.5927C246.022 40.534 247.116 40.9951 248.394 40.9951C249.673 40.9951 250.762 40.5292 251.661 39.5927C252.569 38.6561 253.02 37.5199 253.02 36.1983ZM245.994 33.0463H248.656C249.302 33.0463 249.778 33.1842 250.096 33.4694C250.42 33.7546 250.581 34.0969 250.581 34.5105C250.581 34.8814 250.462 35.1999 250.23 35.4566C249.992 35.7133 249.612 35.8987 249.084 36.0081L250.572 37.981C250.767 38.233 250.924 38.3946 251.042 38.485C251.123 38.5373 251.256 38.5753 251.404 38.5991V38.8368H250.163L248.09 36.1269H247.548V37.6292C247.548 38.0333 247.591 38.2901 247.681 38.4042C247.772 38.5087 247.957 38.5705 248.247 38.5943V38.832H245.927V38.5943C246.212 38.5705 246.398 38.504 246.493 38.3899C246.588 38.2758 246.631 38.0286 246.631 37.653V34.173C246.631 33.8355 246.588 33.612 246.493 33.4979C246.398 33.3791 246.231 33.3078 245.989 33.284V33.0415L245.994 33.0463ZM247.553 35.7656C247.719 35.7751 247.833 35.7799 247.929 35.7799C248.494 35.7799 248.908 35.6705 249.169 35.4423C249.431 35.2189 249.559 34.9242 249.559 34.5581C249.559 34.2158 249.45 33.9258 249.212 33.6976C248.979 33.4694 248.661 33.3505 248.252 33.3505C248.057 33.3505 247.829 33.3981 247.553 33.4884V35.7609V35.7656Z" fill="white"/>
</svg>
