<svg width="140" height="88" viewBox="0 0 140 88" fill="none" xmlns="http://www.w3.org/2000/svg">
<path d="M52.2689 48.1019C52.3769 48.1587 52.4771 48.2221 52.5701 48.2932C53.4088 48.0663 54.2764 47.1532 54.2764 45.4697C54.2764 43.3402 53.1077 42.1091 51.624 42.1091C50.3982 42.1091 49.2727 43.1418 49.2727 45.067C49.2727 46.8145 50.2117 48.0806 51.495 48.3358L52.2689 48.1019ZM55.5165 50.303C54.9717 50.3237 54.3982 50.2533 54.0682 50.1615C53.7244 50.0685 52.8641 49.6723 51.5382 48.7462C50.9004 48.7248 49.9321 48.4844 49.2301 47.8544C48.563 47.2527 48.0974 46.3686 48.0974 45.3494C48.0974 43.4178 49.5163 41.72 51.8963 41.72C53.7748 41.72 55.4523 43.0998 55.4523 45.1795C55.4523 46.9987 54.2332 48.2008 52.9355 48.5827C53.5738 48.9937 54.5775 49.6161 55.6029 50.0685L55.5165 50.303Z" fill="white"/>
<path d="M63.8827 42.1856C63.2587 42.2217 62.9869 42.3769 62.9437 42.8014C62.9149 43.0916 62.8789 43.5091 62.8789 44.443V45.2572C62.8789 46.4806 62.678 47.3796 62.0546 48.0161C61.5524 48.5183 60.8217 48.7451 60.0831 48.7451C59.4238 48.7451 58.7998 48.6036 58.3199 48.243C57.6605 47.7615 57.3455 46.9763 57.3455 45.7304V43.2616C57.3455 42.3058 57.2519 42.2566 56.406 42.1856V41.8747H59.2804V42.1856C58.4417 42.2353 58.3481 42.2987 58.3481 43.2616V45.5189C58.3481 47.2238 59.0722 48.1577 60.3771 48.1577C61.8968 48.1577 62.42 46.955 62.42 45.2353V44.443C62.42 43.5091 62.3918 43.0987 62.3342 42.773C62.2766 42.3769 62.033 42.2353 61.2951 42.1856V41.8747H63.8827V42.1856Z" fill="white"/>
<path d="M65.2443 48.6035V48.3062C66.119 48.2429 66.212 48.1789 66.212 47.2871V43.2046C66.212 42.3057 66.119 42.2424 65.2443 42.1855V41.8746H68.1691V42.1855C67.3021 42.2424 67.2085 42.3057 67.2085 43.2046V47.2871C67.2085 48.1789 67.3021 48.2429 68.1691 48.3062V48.6035H65.2443Z" fill="white"/>
<path d="M77.2071 42.186C76.6119 42.215 76.3539 42.3352 76.3035 42.8095C76.2681 43.1411 76.2393 43.6084 76.2393 44.5707V48.71H75.895L71.1853 43.3182H71.1709L71.1637 45.8444C71.1637 46.7996 71.2069 47.2876 71.2357 47.5848C71.2855 48.1225 71.5291 48.2498 72.2682 48.3067V48.604H69.701V48.3067C70.3184 48.2641 70.5907 48.1296 70.6405 47.6133C70.6837 47.2876 70.7263 46.7996 70.7263 45.8444V43.6226C70.7263 42.8652 70.6909 42.8095 70.4972 42.5614C70.2746 42.3062 70.0454 42.2221 69.5438 42.186V41.8751H71.1925L75.7588 46.9838H75.7876V44.5707C75.7876 43.6084 75.7444 43.1411 75.7162 42.8439C75.6658 42.3559 75.415 42.2221 74.6477 42.186V41.8751H77.2071V42.186Z" fill="white"/>
<path d="M84.0889 43.5446C83.9744 43.0276 83.8592 42.7516 83.7236 42.5746C83.5442 42.3347 83.3576 42.2566 82.5405 42.2566H81.8091V47.3019C81.8091 48.1221 81.9021 48.2429 82.9202 48.3062V48.6035H79.7447V48.3062C80.7268 48.2429 80.8198 48.1292 80.8198 47.3019V42.2566H80.1964C79.2641 42.2566 79.0421 42.3555 78.8987 42.5746C78.7625 42.7516 78.6695 43.0566 78.5327 43.5446H78.2106C78.2604 42.8724 78.3108 42.1855 78.3324 41.6123H78.5615C78.7193 41.8746 78.8555 41.8746 79.1711 41.8746H83.5154C83.8088 41.8746 83.9096 41.8107 84.0745 41.6123H84.3037C84.3037 42.0866 84.3613 42.8866 84.4111 43.509L84.0889 43.5446Z" fill="white"/>
<path d="M88.1386 43.1417H88.117C87.7733 43.998 87.4361 44.8821 87.1139 45.7176H89.0776L88.1386 43.1417ZM89.1928 48.6045V48.3072C89.8593 48.2148 89.9523 48.1231 89.8089 47.7056C89.6583 47.2952 89.4652 46.7788 89.2354 46.1843H86.9345C86.7551 46.658 86.6118 47.0619 86.4756 47.4717C86.2464 48.1017 86.3322 48.2219 87.1421 48.3072V48.6045H84.7765V48.3072C85.4724 48.2006 85.6224 48.1302 86.0022 47.2105L88.2532 41.8116L88.6258 41.7199C89.3146 43.552 90.0021 45.3919 90.7125 47.2105C91.0562 48.1231 91.2068 48.2368 91.9022 48.3072V48.6045H89.1928Z" fill="white"/>
<path d="M59.6946 75.5303L59.6892 72.9206L58.3777 75.095H58.1389L56.828 72.936V75.5303H56.3301V71.9482H56.7554L58.2685 74.4655L59.7618 71.9482H60.1866L60.192 75.5303H59.6946Z" fill="white"/>
<path d="M63.7796 74.2251L62.9967 72.4699L62.2143 74.2251H63.7796ZM63.9608 74.6343H62.0325L61.6336 75.5303H61.099L62.7423 71.9482H63.2558L64.9045 75.5303H64.3604L63.9608 74.6343Z" fill="white"/>
<path d="M67.3095 75.0844C68.2064 75.0844 68.7818 74.5425 68.7818 73.7395C68.7818 72.936 68.2064 72.3935 67.3095 72.3935H66.3298V75.0844H67.3095ZM65.8114 71.9482H67.3407C68.507 71.9482 69.3001 72.6754 69.3001 73.7395C69.3001 74.8031 68.507 75.5303 67.3407 75.5303H65.8114V71.9482Z" fill="white"/>
<path d="M73.0946 75.0844V75.5303H70.4608V71.9482H73.022V72.3935H70.9798V73.4932H72.7988V73.9284H70.9798V75.0844H73.0946Z" fill="white"/>
<path d="M74.3022 71.9482H74.8206V75.5303H74.3022V71.9482Z" fill="white"/>
<path d="M78.6882 73.1966C78.6882 72.685 78.3408 72.3936 77.6766 72.3936H76.7959V74.0049H77.6766C78.3408 74.0049 78.6882 73.7083 78.6882 73.1966ZM78.7032 75.5298L77.9208 74.4295C77.8482 74.4349 77.7708 74.4402 77.6928 74.4402H76.7959V75.5298H76.2775V71.9483H77.6928C78.636 71.9483 79.2059 72.4191 79.2059 73.1966C79.2059 73.7497 78.9161 74.1482 78.408 74.3277L79.2689 75.5298H78.7032Z" fill="white"/>
<path d="M82.5446 74.2251L81.7616 72.4699L80.9793 74.2251H82.5446ZM82.7264 74.6343H80.7981L80.3985 75.5303H79.8646L81.5078 71.9482H82.0208L83.6695 75.5303H83.1253L82.7264 74.6343Z" fill="white"/>
<path d="M87.07 20.1599C86.7874 19.6251 86.0225 19.5914 85.8581 18.9584C85.8413 18.8914 85.7261 18.834 85.6241 18.8524C85.3553 18.9021 85.2803 18.7404 85.2491 18.5249C85.2755 18.5101 85.2995 18.484 85.3241 18.484C85.5323 18.4846 85.8233 18.5409 85.8497 18.2791C85.8725 18.0505 85.7663 17.7764 85.4465 17.7189C85.4171 17.713 85.3883 17.7012 85.3607 17.6887C84.8568 17.4578 84.8568 17.4578 84.8796 17.9913C84.8982 18.4213 84.7002 18.5616 84.1596 18.3608C83.9262 18.2738 83.8015 18.3117 83.6011 18.3857C83.3383 18.4834 83.0449 18.4994 82.7071 18.561C82.9579 18.1779 83.1727 17.8303 83.4127 17.5016C83.4739 17.4175 83.5705 17.2665 83.6983 17.3103C84.2298 17.4909 84.7782 17.2683 85.3085 17.3956C85.3673 17.4098 85.4387 17.4365 85.4867 17.4163C85.9475 17.2227 86.2589 17.5129 86.719 17.8214C86.1875 17.7811 86.0159 17.9244 86.0693 18.3532C86.1395 18.9151 86.4905 18.8293 86.911 18.7114C86.8402 19.0016 86.8684 19.2349 86.905 19.4676C86.9284 19.621 86.983 19.7951 87.1444 19.8188C87.4606 19.8656 87.583 20.1036 87.7702 20.3381C87.4786 20.4181 87.1684 20.3464 87.07 20.1599ZM87.2824 22.0625C87.0706 22.0578 86.7388 21.9802 86.7964 21.8026C86.848 21.6439 86.884 21.2898 87.2164 21.2892C87.5056 21.2892 87.4978 21.4775 87.4468 21.6883C87.406 21.8138 87.6286 22.0702 87.2824 22.0625ZM85.8287 24.5751C86.4689 24.3229 86.5319 24.2998 86.9206 24.5686C86.5715 24.4158 86.2145 24.9281 85.8287 24.5751ZM85.5023 20.4743C85.3469 20.3914 85.2941 20.4921 85.2593 20.6301C85.1826 20.9386 84.657 21.2341 84.4632 21.0357C84.1692 20.7355 83.7889 20.9208 83.4907 20.7521C83.4157 20.71 83.3101 20.7224 83.2291 20.6875C82.7095 20.4619 82.7083 20.4595 82.7173 21.0446C82.7203 21.2246 82.7383 21.404 82.7527 21.5829C82.7677 21.7848 82.8241 21.9891 83.0185 22.072C83.2237 22.1591 83.2543 21.9394 83.3647 21.8334C83.853 21.3703 83.865 21.3821 83.9382 20.9569C84.3132 21.8855 83.6443 22.5345 83.5279 23.3511C83.2819 23.1593 83.3797 22.9893 83.3797 22.833C83.3797 22.711 83.3533 22.5623 83.2129 22.554C83.0683 22.5458 82.9591 22.6642 82.9573 22.8134C82.9543 22.9917 82.9699 23.1735 83.0035 23.3487C83.1109 23.9232 82.6315 24.5491 82.0424 24.6977C80.8083 25.0092 79.5478 24.9074 78.3011 25.0086C77.9369 25.0376 77.5859 25.2034 77.2229 25.2763C77.0831 25.3041 76.8648 25.416 76.7898 25.21C76.7082 24.9849 76.9331 24.8908 77.0933 24.831C77.5979 24.6391 78.1049 24.4822 78.6628 24.6586C79.1908 24.8256 79.489 24.6687 79.6761 24.1429C79.7631 23.8965 79.9569 23.8225 80.1603 23.8053C80.3229 23.7923 80.2845 23.977 80.2977 24.0884C80.3193 24.2737 80.3565 24.4532 80.5491 24.5355C80.6541 24.5799 80.7123 24.4881 80.7579 24.4105C80.8725 24.2157 80.9127 23.9267 80.7771 23.8237C80.4405 23.5673 80.7039 23.4956 80.8581 23.3742C80.9535 23.2996 81.0507 23.2256 81.155 23.1646C81.2906 23.0846 81.3746 22.9869 81.2744 22.8383C81.1574 22.6654 81.0273 22.7909 80.9235 22.8584C80.5815 23.0805 80.2497 23.3185 79.9083 23.543C79.7277 23.662 79.5352 23.7307 79.3084 23.5525C79.5124 23.3718 79.6677 23.1764 79.9581 23.1829C80.3133 23.1918 80.3889 22.7939 80.6775 22.6885C81.1154 22.5268 80.8557 22.1893 80.8491 21.9192C80.8455 21.786 80.8203 21.6575 80.8557 21.5201C80.9085 21.3117 80.8593 21.0967 80.6241 21.0553C80.3853 21.0126 80.1891 21.1755 80.1783 21.4052C80.1621 21.7357 79.9479 21.8618 79.7127 22.0081C79.4764 22.1555 79.1386 22.1857 79.0756 22.5529C79.063 22.6251 78.91 22.7163 78.7732 22.6837C78.7894 22.3267 78.55 22.146 78.0347 22.1253C78.2927 21.8405 78.5422 21.5444 78.9166 21.4271C79.5106 21.2406 79.9917 20.8166 80.5167 20.5916C81.152 20.3192 81.9164 19.9917 82.7071 20.257C83.1571 20.4074 83.6251 20.4187 84.0966 20.3275C84.6654 20.2185 85.2833 20.5158 85.8263 20.093C85.7825 20.3032 86.1017 20.7953 85.5023 20.4743ZM85.2455 22.8922C85.0146 22.9709 84.9996 23.1296 85.0422 23.3203C85.1736 23.9089 84.8652 24.2542 84.3876 24.529C83.8057 24.8641 83.2243 25.1661 82.3724 24.8795C83.1319 24.5473 83.2771 23.6667 84.1248 23.5086C84.585 23.4234 84.8628 23.0059 85.212 22.724C85.2983 22.6547 85.3385 22.5653 85.2287 22.4629C85.1022 22.3438 85.0014 22.3462 84.885 22.4741C84.6264 22.7601 84.3732 23.0556 83.9646 23.1823C83.8758 22.8152 84.0786 22.5535 84.1938 22.2716C84.2256 22.1952 84.327 22.072 84.3906 22.1389C84.6924 22.4534 85.1819 22.0033 85.4159 22.3847C85.4861 22.499 85.5095 22.8016 85.2455 22.8922ZM84.7932 25.3183C84.8388 25.4758 84.693 25.5055 84.5568 25.4563C84.4026 25.4012 84.2502 25.342 84.063 25.2727C84.3102 25.0477 84.639 24.9488 84.8412 24.6729C84.8292 24.8997 84.7272 25.0892 84.7932 25.3183ZM84.0552 25.7257C83.7943 25.7358 83.6131 25.5747 83.4007 25.4687C83.4307 25.4208 83.4367 25.3995 83.4445 25.3995C83.6785 25.3953 83.9262 25.358 84.0672 25.6109C84.0828 25.6399 84.0612 25.7251 84.0552 25.7257ZM76.1334 24.2311C76.2678 24.0007 76.344 23.813 76.7034 23.7941C77.0459 23.7745 77.2265 23.4168 77.2601 23.0941C77.2823 22.8945 77.3267 22.7589 77.5175 22.6221C77.6639 23.0663 77.7581 23.4885 77.7995 23.9249C77.8235 24.179 77.7635 24.3205 77.5031 24.3774C77.2415 24.4342 76.8936 24.645 76.749 24.5479C76.5636 24.4241 76.3536 24.3637 76.1334 24.2311ZM74.9959 25.7696C75.3727 25.31 75.7212 24.9168 76.2834 24.7765C75.8472 25.0661 75.6714 25.6636 74.9959 25.7696ZM74.8051 25.1306C74.3299 25.1081 74.1877 25.2289 74.135 25.8258C74.0204 25.8874 73.9238 25.9336 73.8872 25.9389C73.6076 25.9762 73.3376 26.1166 72.995 26.0248C73.679 25.2153 73.8368 24.1618 74.4115 23.3197C74.7763 22.785 75.1657 22.2722 75.3511 21.6421C75.3727 21.5687 75.4003 21.4159 75.5124 21.5171C75.7062 21.6918 75.8064 21.5391 75.8592 21.4224C75.9432 21.2388 76.0452 21.0404 75.9732 20.8243C75.9288 20.6893 75.7734 20.7953 75.6984 20.7177C75.7008 20.5519 75.8526 20.5181 75.951 20.5051C76.4118 20.4423 76.56 20.077 76.7514 19.7465C76.8138 19.637 76.8834 19.5203 76.773 19.4203C76.4544 19.1336 76.6998 18.937 76.9109 18.8227C77.3465 18.5877 77.6189 18.137 78.1253 17.9931C78.3364 17.9327 78.4582 17.7065 78.5074 17.4418C78.6904 17.5703 78.6742 17.7047 78.6142 17.7651C78.2639 18.1198 78.3994 18.4544 78.61 18.8085C78.7036 18.9637 78.8578 19.1739 78.6028 19.303C78.436 19.3865 78.2351 19.6305 78.0251 19.2704C77.9315 19.11 77.6177 18.9903 77.4143 19.1461C77.1905 19.316 77.1779 19.6169 77.1509 19.8857C77.1491 19.9076 77.1785 19.9396 77.2019 19.955C77.7107 20.299 77.7737 20.4483 77.6747 21.0795C77.6711 21.1044 77.6921 21.134 77.7161 21.2015C77.9579 20.986 78.3964 20.9954 78.316 20.4832C78.3004 20.3819 78.571 20.215 78.733 20.1143C78.9484 19.9805 79.1866 19.8827 79.4146 19.7702C79.366 20.1889 79.354 20.2031 78.9508 20.2179C78.673 20.228 78.565 20.4157 78.4792 20.6354C78.2249 21.2815 77.9201 21.8938 77.3153 22.3012C77.3033 22.3095 77.2961 22.329 77.2835 22.3326C76.3092 22.5949 76.2258 23.569 75.7458 24.224C75.6438 24.3631 75.2347 24.9701 75.1897 25.0252C75.1381 25.0862 75.0775 25.1401 75.0217 25.1987C74.9725 25.1342 74.8933 25.1342 74.8051 25.1306ZM71.3541 24.9038C71.4093 24.1506 71.5647 23.5075 71.8221 22.8803C71.9085 22.6677 72.1533 22.8827 72.2511 22.6642C72.3837 22.3681 72.4383 22.0673 72.4587 21.7528C72.4677 21.6119 72.4047 21.5142 72.2427 21.542C72.0423 21.5775 72.0141 21.5 72.0405 21.3188C72.1815 20.3624 72.5127 19.4558 72.7682 18.529C72.8774 18.5983 72.8348 18.7197 72.8678 18.815C72.9602 19.0827 73.0616 19.348 73.4294 19.2604C73.7738 19.1786 73.8182 18.8482 73.6952 18.6563C73.5104 18.3697 73.5842 17.8403 73.0172 17.8386C73.1372 17.5211 73.2572 17.2043 73.3778 16.8875C73.3832 16.8733 73.3946 16.8626 73.4 16.8484C73.5002 16.582 73.5842 16.2243 73.3022 16.1212C73.0088 16.0141 72.9668 16.444 72.9014 16.6193C72.6561 17.2742 72.4587 17.941 72.1497 18.5776C71.6631 19.5813 71.4129 20.6591 71.3188 21.7718C71.2996 22.0039 71.2162 22.2319 71.1388 22.5594C70.7314 20.6757 70.2634 18.9098 70.516 17.0563C70.5832 16.5654 70.6414 16.0756 70.3936 15.5693C70.234 15.243 70.3672 14.8084 70.384 14.4217C70.4086 13.8621 70.453 13.3025 70.3108 12.7435C70.186 12.2526 70.4704 11.9156 70.8994 11.5893C70.7944 12.1779 71.0254 12.599 71.3326 13.0236C71.5845 13.3735 71.8161 13.7519 72.0681 14.0972C72.5409 14.7444 72.2979 15.4089 72.2925 16.0733C72.2907 16.3498 72.0525 16.348 71.8803 16.4114C71.4573 16.5666 71.251 17.0373 71.4267 17.4507C71.5005 17.623 71.5899 17.6579 71.7267 17.5235C72.2025 17.0515 72.6585 16.5654 73.0052 15.9856C73.1456 15.7511 72.935 15.6351 72.8282 15.3852C73.3412 15.5468 73.5824 15.8915 73.8212 16.2284C74.0126 16.4979 74.1829 16.7821 74.4523 16.9888C74.5819 17.0877 74.6101 17.2416 74.6377 17.3879C74.6563 17.4827 74.7217 17.604 74.5921 17.6686C74.5063 17.7112 74.4073 17.6804 74.3359 17.6194C73.9628 17.3003 73.9592 17.6301 73.9682 17.8462C73.988 18.3004 73.928 18.7991 74.4517 19.0673C74.6071 19.1473 74.5375 19.2728 74.4871 19.38C74.1631 20.0716 73.8338 20.7603 73.2224 21.2643C73.1792 21.301 73.1174 21.3543 73.1186 21.3987C73.1336 22.0501 72.6771 22.4942 72.3981 23.0165C72.0741 23.6217 71.9001 24.3051 71.3541 24.9038ZM70.1926 23.2593C69.4553 22.3296 68.8355 21.4449 68.6081 20.3358C68.481 19.7157 68.1996 19.1242 68.439 18.468C68.5074 18.2815 68.5314 18.1696 68.7629 18.2809C68.8613 18.3283 69.0197 18.3401 69.1145 18.2945C69.5003 18.1086 69.5663 18.272 69.6245 18.6261C69.7673 19.4949 69.9467 20.3565 70.162 21.2145C70.3174 21.8328 70.1926 22.5203 70.1926 23.2593ZM68.4468 23.553C68.0562 22.4013 67.3404 21.4425 66.5287 20.5424C66.1351 20.1066 65.9329 19.5795 65.9755 18.9738C66.0523 17.8723 66.0205 16.7572 66.3835 15.6913C66.5311 15.2573 66.7003 14.8297 66.8929 14.3104C66.9607 14.4904 66.9877 14.5697 67.0207 14.6461C67.1275 14.9008 67.2582 14.8575 67.3524 14.6503C67.4886 14.3518 67.629 14.0492 67.7106 13.7336C67.8204 13.3125 67.2168 12.7737 66.8149 12.9389C66.5875 13.0319 66.5461 12.6594 66.3421 12.8169C66.2887 12.7133 66.3097 12.6008 66.3523 12.5119C66.4933 12.2147 66.6253 11.9073 66.8101 11.6373C67.449 10.7076 67.8948 9.68014 68.376 8.65864C68.577 8.87301 68.3574 9.36925 68.7455 9.32662C69.0299 9.29464 69.2153 8.94585 69.1355 8.56034C69.4031 9.13831 69.7847 9.65172 69.8543 10.2889C69.8861 10.5844 69.8429 10.8882 69.8669 11.1855C69.8879 11.4543 69.6947 11.5621 69.5249 11.6693C69.4019 11.7468 69.2141 11.716 69.2705 11.5117C69.3797 11.1156 69.2327 10.8568 68.8955 10.6709C68.7929 10.6134 68.7929 10.5352 68.8235 10.4417C68.8679 10.3049 68.8931 10.1563 68.7173 10.1071C68.571 10.0668 68.4174 10.1622 68.3826 10.2836C68.3142 10.5169 68.1546 10.5814 67.959 10.6863C67.6818 10.8343 67.719 11.1606 67.803 11.4117C67.8834 11.6521 68.04 11.5011 68.199 11.433C68.4372 11.3305 68.5224 11.5544 68.559 11.716C68.6501 12.1181 68.7095 12.5184 69.2207 12.625C69.3401 12.6505 69.3287 12.7914 69.3191 12.8974C69.2873 13.2675 69.2765 13.6465 68.9663 13.9213C68.7983 14.0705 68.7791 14.2642 68.8091 14.459C68.8583 14.7841 68.7587 14.9387 68.4036 14.8848C68.1552 14.8469 67.9224 14.8629 68.0028 15.2134C68.0628 15.4799 67.8834 15.9122 68.4378 15.8601C68.535 15.8512 68.6489 15.7742 68.7275 15.8992C68.7641 15.9578 68.7449 16.0158 68.6993 16.0614C68.6057 16.1544 68.5092 16.1023 68.4054 16.0721C68.16 15.9987 67.9056 15.9696 67.6884 15.8032C67.527 15.6795 67.425 15.7162 67.431 15.9614C67.437 16.2492 67.3962 16.5352 67.6752 16.7353C67.8408 16.8544 67.7574 17.0385 67.7898 17.1937C67.8372 17.4211 67.7388 17.7024 68.1162 17.8001C68.3274 17.8545 68.1342 18.0778 68.1528 18.2916C67.8936 17.9416 67.545 17.787 67.2888 17.5259C67.1095 18.0961 67.374 18.6404 67.3986 19.1982C67.4028 19.2852 67.4538 19.409 67.557 19.3841C68.037 19.2663 67.9494 19.6269 67.935 19.8496C67.827 21.5355 68.6843 22.9342 69.3029 24.404C69.5171 24.9139 69.6689 25.4439 69.7811 25.9875C69.3191 25.1827 68.7491 24.4449 68.4468 23.553ZM65.7458 22.5955C65.9083 22.5594 66.0589 22.5008 66.2185 22.6168C66.5653 22.8703 66.7573 22.7181 66.9049 22.3717C66.9715 22.2153 66.9373 22.0092 67.209 21.8304C67.743 23.2131 68.1666 24.6048 68.7683 25.9312C67.7706 24.8061 66.3661 24.0659 65.7458 22.5955ZM66.8947 25.1276C66.3847 24.7753 65.8777 24.42 65.3624 24.0759C65.2262 23.9847 65.0726 23.8977 64.9142 23.861C63.5583 23.5483 62.2462 23.055 60.8519 22.8892C60.5855 22.8584 60.3293 22.7376 60.0726 22.6452C59.4648 22.4291 58.8637 22.2301 58.1941 22.3349C57.8773 22.3847 57.9097 22.001 57.7435 21.8476C57.6043 21.7185 57.7567 21.6522 57.8395 21.5704C57.9793 21.4337 58.1071 21.2856 58.2403 21.1435C58.3495 21.028 58.4233 20.906 58.5457 21.1636C58.6597 21.4052 58.7941 21.3051 58.8661 21.0955C58.95 20.8515 59.0814 20.6283 59.2824 20.4666C59.3538 20.408 59.5044 20.3032 59.601 20.4435C59.6598 20.5306 59.625 20.6455 59.5326 20.7224C59.4858 20.7603 59.4162 20.7894 59.3982 20.8379C59.3466 20.9735 59.2512 21.1393 59.3862 21.256C59.5356 21.3839 59.5398 21.1263 59.6328 21.1204C60.1314 21.0878 60.1068 20.7023 60.1458 20.3772C60.1986 19.9479 60.5825 20.0865 60.8141 20.0006C61.0427 19.9159 61.0961 20.1202 61.1111 20.3251C61.1249 20.4986 61.1171 20.6899 61.2671 20.8521C61.4459 20.6952 61.5311 20.4767 61.4591 20.2908C61.3283 19.9467 61.5581 19.9763 61.744 19.9805C61.9558 19.9846 62.1682 20.032 62.3344 20.1776C62.6404 20.4453 62.9398 20.7213 63.2433 20.9931C63.5337 21.2542 63.6309 21.5201 63.3099 21.8363C63.1719 21.9731 63.2961 22.7074 63.4575 22.8028C63.5817 22.8762 63.6699 22.8199 63.6903 22.6962C63.7125 22.5653 63.7029 22.4285 63.7053 22.2941C63.7077 22.1241 63.8361 22.0756 63.9639 22.0211C64.0905 21.9672 64.1577 22.0341 64.2303 22.1229C65.012 23.0811 65.9749 23.871 66.7825 24.8043C67.0063 25.0625 67.2978 25.2206 67.5834 25.387C67.7808 25.5019 67.9422 25.6345 68.0964 25.9614C67.626 25.6345 67.2606 25.3799 66.8947 25.1276ZM67.2684 26.2244C67.2756 26.0994 66.9733 26.1634 66.9823 25.9591C67.32 25.9727 67.5372 26.1793 67.725 26.4423C67.5828 26.3511 67.2372 26.7514 67.2684 26.2244ZM67.2792 27.1422C66.7729 27.526 66.4285 28.0642 65.8771 28.4148C65.8897 28.3609 65.9023 28.3059 65.9155 28.2508C65.9569 28.0838 66.1081 27.8967 65.9449 27.7492C65.7788 27.5988 65.615 27.7587 65.4608 27.844C65.252 27.9582 65.2448 27.9221 65.1938 27.6681C65.0966 27.1795 65.3804 27.1073 65.7092 27.0516C66.1687 26.9723 66.6295 26.8538 67.1035 26.9285C67.2216 26.9468 67.4676 27.0001 67.2792 27.1422ZM64.9808 26.858C64.706 26.8213 64.6022 26.9669 64.4342 27.0712C64.3143 27.1464 64.1649 27.2873 64.0563 27.0812C63.9663 26.9107 64.1343 26.8254 64.2567 26.7964C64.8206 26.6637 64.5128 26.1752 64.643 25.869C64.6952 25.7465 64.4678 25.7719 64.3611 25.7352C64.8632 25.098 65.0066 25.0826 65.9545 25.5564C65.807 25.6499 65.6432 25.6713 65.4842 25.6748C65.2388 25.679 65.1476 25.8288 65.1716 26.0224C65.2028 26.2788 65.4182 26.1397 65.5274 26.1124C65.8309 26.0366 66.1519 26.0212 66.4237 25.8205C66.6241 25.6724 66.8041 25.8205 66.9637 25.9514C66.4813 26.0076 66.0451 26.0941 65.7464 26.5767C65.6306 26.7644 65.2274 26.8906 64.9808 26.858ZM63.8589 24.2554C64.7384 24.0357 65.3012 24.5751 65.9923 24.9624C65.6024 25.0578 65.5478 25.0518 65.1236 24.8843C64.8878 24.7907 64.6658 24.635 64.3917 24.7676C64.3143 24.8061 64.2189 24.7871 64.2381 24.6871C64.2927 24.4022 63.9939 24.4034 63.8589 24.2554ZM63.3651 25.6144C63.0339 25.769 62.695 25.9188 62.5234 26.2759C62.5102 26.3031 62.4418 26.3292 62.4118 26.3191C62.2654 26.27 62.3746 26.1788 62.386 26.0739C62.2846 25.8815 62.464 25.8193 62.5864 25.6878C62.8216 25.4356 63.2121 25.3811 63.3729 25.0471C63.3975 24.9956 63.4755 24.9719 63.5277 25.0205C63.5655 25.0566 63.6147 25.1294 63.6015 25.1614C63.5355 25.3177 63.5691 25.5197 63.3651 25.6144ZM63.3987 28.9111C63.3483 29.0218 63.2433 28.9987 63.1665 28.9549C62.9134 28.808 62.6326 28.7571 62.3152 28.7008C62.6818 28.2194 63.007 28.5907 63.3327 28.6831C63.4359 28.7121 63.4371 28.8264 63.3987 28.9111ZM63.5691 24.2637C63.5319 24.452 63.4017 24.3987 63.2835 24.3963C63.1503 24.3939 62.9668 24.3566 62.9008 24.4727C62.6836 24.8564 62.5876 24.51 62.3254 24.4099C62.8252 24.2714 63.1881 24.1944 63.5691 24.2637ZM61.801 24.2518C61.6601 24.3258 61.6265 24.2145 61.5557 24.0949C61.4291 23.8829 61.2923 23.5436 60.9455 23.9344C60.8357 24.0576 60.6353 24.1523 60.3935 23.9575C59.9928 23.6336 59.394 23.8444 59.2686 24.3258C59.2026 24.5811 59.0778 24.7196 58.8331 24.767C58.5889 24.8138 58.4083 24.9577 58.2643 25.1401C58.1341 25.053 58.1419 24.9429 58.1341 24.8393C58.1221 24.6835 58.0855 24.542 57.9115 24.4839C57.7093 24.4158 57.6889 24.5639 57.6493 24.6942C57.6409 24.7196 57.6097 24.7599 57.5935 24.7575C56.7338 24.6509 57.2684 25.2627 57.1742 25.5493C57.17 25.5611 57.1574 25.57 57.1202 25.6138C57.0236 25.4616 56.9342 25.2923 56.699 25.3882C56.5376 25.4545 56.345 25.3912 56.402 25.1987C56.4494 25.0359 56.4776 24.7179 56.723 24.7676C56.9822 24.8197 57.008 24.7161 57.0536 24.542C57.0806 24.4413 57.1328 24.3477 57.1652 24.2483C57.3782 23.6117 57.1178 23.2262 56.3936 23.1492C56.6012 22.894 56.8808 22.9283 57.1382 22.8981C57.284 22.8815 57.3362 22.9591 57.3254 23.0811C57.2996 23.3683 57.5593 23.5507 57.5893 23.829C57.6121 24.0339 58.0243 23.9871 58.2013 23.7621C58.3009 23.6348 58.3195 23.447 58.4959 23.3778C58.5217 23.3843 58.5601 23.3837 58.5703 23.4003C58.6525 23.5317 58.6741 23.7745 58.8739 23.7206C59.0076 23.6839 58.9698 23.4666 58.9668 23.3144C58.9632 23.1202 58.9842 22.9271 58.8643 22.7027C60.3491 23.1918 61.8952 23.3938 63.3909 23.8385C62.8444 23.9463 62.296 23.9901 61.801 24.2518ZM61.9342 27.1097C61.678 27.1612 61.4465 27.221 61.2713 27.4395C61.2209 27.5035 61.0385 27.5473 60.9797 27.5076C60.6893 27.3175 60.5507 27.3181 60.3395 27.6651C60.2112 27.8765 59.8194 27.5994 59.538 27.6018C59.4426 27.6023 59.3496 27.5147 59.25 27.4833C59.0094 27.4063 59.0592 27.2814 59.2014 27.1635C59.5254 26.8935 60.117 26.8823 60.5261 27.131C60.6047 27.1795 60.6791 27.1606 60.7403 27.1286C61.0349 26.9717 61.3211 26.7999 61.4813 26.4914C61.5551 26.3493 61.5863 26.1947 61.4159 26.0976C61.2419 25.9981 61.1663 26.1284 61.1171 26.2623C61.0373 26.4778 60.8867 26.524 60.6857 26.4512C60.4205 26.3552 60.1566 26.4902 59.835 26.4648C60.0624 26.2101 60.3341 26.1107 60.5711 25.9691C60.7925 25.8365 60.9329 25.708 60.6509 25.5102C60.5297 25.4255 60.5225 25.3237 60.6203 25.2579C60.9005 25.0726 61.1189 24.7783 61.5047 24.7368C61.5659 25.2633 60.7193 25.3308 60.9851 25.952C61.2881 25.8471 61.5431 25.6505 61.7314 25.371C61.7914 25.281 61.8574 25.1667 61.9672 25.1975C62.1244 25.2402 62.0626 25.3995 62.0524 25.5019C62.029 25.724 61.9312 25.9188 61.8268 26.1213C61.6984 26.37 61.4033 26.7265 61.999 26.8746C62.1628 26.9148 62.041 27.0883 61.9342 27.1097ZM57.7597 26.7857C57.7261 26.8112 57.6769 26.8503 57.6469 26.8414C57.302 26.7395 56.957 26.6353 56.6162 26.5175C56.5592 26.4979 56.5748 26.4227 56.612 26.37C57.0704 26.6176 57.4862 26.2356 57.9343 26.2812C58.0873 26.2972 58.2475 26.2415 58.5367 26.1983C58.2043 26.4506 57.9829 26.6193 57.7597 26.7857ZM56.2346 27.8333C55.9833 27.8138 56.0133 27.449 55.7001 27.3815C55.5219 27.3442 55.6935 26.63 55.9449 26.3902C56.1596 26.1859 56.3756 26.0165 56.6084 26.3677C56.2202 26.5447 56.1548 26.8088 56.3882 27.2595C56.4698 27.417 56.5496 27.5751 56.8112 27.6947C56.5616 27.7587 56.3942 27.8457 56.2346 27.8333ZM55.0587 25.0743C54.9453 25.1353 54.8277 25.0661 54.7485 24.8706C55.0767 24.8961 55.3533 24.9038 55.6149 24.7451C55.7475 24.6652 56.1344 24.9672 56.1291 25.1205C56.1255 25.223 56.0397 25.2686 55.9713 25.3248C55.8963 25.387 55.8273 25.3663 55.7817 25.2958C55.6023 25.0193 55.3893 24.8955 55.0587 25.0743ZM54.9075 27.7226C54.9351 27.7966 54.9309 27.9257 54.8007 27.9209C54.6658 27.9168 54.6094 27.7865 54.6634 27.6935C54.7509 27.5443 54.6874 27.2885 54.9495 27.2399C55.0647 27.4229 54.8427 27.5532 54.9075 27.7226ZM54.292 26.4879C54.3016 26.2705 54.397 26.1124 54.6334 26.1059C54.8919 26.0982 54.8211 26.325 54.8487 26.463C54.8841 26.6395 54.7839 26.7028 54.5968 26.6578C54.4972 26.6164 54.2806 26.7549 54.292 26.4879ZM54.568 22.0081C54.8331 22.0394 54.8319 22.3083 54.8481 22.4646C54.8619 22.6926 54.8181 22.8069 54.6112 22.8111C54.2806 22.817 54.2716 22.5446 54.244 22.3539C54.2182 22.1721 54.4234 21.9915 54.568 22.0081ZM54.5692 20.7071C54.9831 20.6147 55.1691 20.199 55.0845 19.791C55.0425 19.5872 54.8451 19.6559 54.6676 19.4688C55.1709 19.4741 55.5309 19.3693 55.7925 19.014C55.9125 18.8518 56.0499 18.9921 56.0283 19.1603C55.9821 19.5162 56.1698 19.8679 56.0283 20.2262C55.9917 20.3174 56.0271 20.4305 56.0973 20.5217C56.555 21.1157 57.0068 21.7143 57.4676 22.3059C57.5347 22.393 57.6853 22.4001 57.7225 22.5363C57.6091 22.6452 57.4622 22.605 57.3344 22.6216C57.017 22.663 56.7482 22.6743 56.8346 22.1946C56.8796 21.9406 56.8406 21.6107 56.3828 21.7913C56.2328 21.85 55.8495 21.2992 55.9083 21.1085C56.0415 20.678 55.8813 20.3186 55.6677 19.9603C55.6011 19.849 55.5243 19.8176 55.4073 19.8514C55.3107 19.8792 55.2273 19.9396 55.2465 20.0391C55.4025 20.8438 54.6346 20.8119 54.2296 21.2057C54.2104 20.8746 54.3088 20.7651 54.5692 20.7071ZM54.7353 18.124C54.7641 18.2815 54.5368 18.2211 54.4474 18.1903C54.2824 18.134 54.2224 17.9712 54.346 17.848C54.499 17.6952 54.4918 17.5004 54.565 17.276C54.8631 17.5478 54.6868 17.8563 54.7353 18.124ZM54.7126 15.7008C54.7725 15.6955 54.8277 15.773 54.7971 15.8269C54.6478 16.0958 54.382 16.097 54.0298 16.1295C54.235 15.824 54.4546 15.7233 54.7126 15.7008ZM54.6298 14.4335C54.6724 14.6402 54.8721 14.8712 54.5362 14.9908C54.4642 15.0168 54.37 15.0636 54.3364 14.9819C54.2224 14.7065 54.5296 14.6242 54.6298 14.4335ZM55.7007 10.3298C55.7625 10.3564 55.7583 10.434 55.6983 10.4713C55.5987 10.5317 55.4949 10.5927 55.3851 10.6294C55.3137 10.6537 55.2789 10.5797 55.2927 10.521C55.3347 10.3452 55.2321 10.203 55.1403 10.0313C55.4379 10.0064 55.5213 10.2522 55.7007 10.3298ZM56.216 15.1631C56.0397 15.477 55.6371 15.503 55.2897 15.5978C55.5693 15.3514 55.7571 15.0654 55.8093 14.6455C56.0235 14.8102 56.2766 15.0553 56.216 15.1631ZM56.3606 13.1799C56.5328 13.1011 56.7014 13.0082 56.6078 12.8276C56.3066 12.246 56.6186 12.0181 57.119 11.873C57.3848 12.6523 57.3848 12.6523 57.9751 12.4622C57.7951 12.766 57.5719 13.0265 57.4796 13.3274C57.3596 13.714 57.5701 13.9515 57.9535 13.9823C57.8197 14.4999 57.8221 14.523 58.0543 14.8948C58.2733 14.7989 58.2169 14.4744 58.4791 14.3992C58.7395 15.1116 58.9998 15.8228 59.2596 16.5334C59.2302 16.563 59.1996 16.5926 59.1696 16.6222C58.6843 16.1556 58.0837 15.8796 57.4976 15.58C57.3692 15.5137 57.3674 15.3899 57.3152 15.2863C57.2468 15.1489 57.1556 15.0121 56.9642 15.095C56.8214 15.1578 56.7242 15.1104 56.6618 14.9908C56.5592 14.793 56.7638 14.8208 56.8466 14.7681C57.0818 14.6177 57.2534 14.4116 57.3956 14.1801C57.4496 14.093 57.5018 13.9983 57.4094 13.8929C57.3158 13.7851 57.2258 13.8325 57.1244 13.8722C56.8976 13.9592 56.6192 14.1386 56.7098 13.643C56.7284 13.5394 56.6426 13.4191 56.5148 13.4493C56.327 13.4932 56.1818 13.6199 56.1704 13.8212C56.1626 13.9657 56.207 14.1132 56.2322 14.2849C55.7307 13.7987 55.7733 13.4505 56.3606 13.1799ZM56.2772 9.55105C56.2934 9.47703 56.387 9.464 56.417 9.51197C56.5784 9.76719 57.011 9.68844 57.0746 10.1036C57.1196 10.3985 57.3566 10.633 57.7459 10.6164C57.5114 10.7141 57.383 11.2725 57.014 10.7585C56.966 10.691 56.6702 10.8254 56.4722 10.8159C56.243 10.8053 56.1512 10.7834 56.2778 10.5441C56.3342 10.4375 56.462 10.3173 56.3222 10.1835C56.2022 10.0692 56.1033 10.2427 55.9653 10.2113C55.9401 9.9336 56.2244 9.79206 56.2772 9.55105ZM58.4317 7.7609C58.4071 7.62529 58.5337 7.52166 58.6705 7.46541C58.8061 7.40974 58.8559 7.52344 58.935 7.58384C59.103 7.71116 58.9812 7.80591 58.9104 7.91901C58.8397 8.03271 58.7299 8.17187 58.7485 8.28083C58.8751 9.02402 58.2601 9.07257 57.7777 9.32839C57.7729 9.0702 58.1851 8.7676 57.5515 8.65094C58.1329 8.48277 58.5367 8.35367 58.4317 7.7609ZM59.2236 10.148C59.4444 10.2836 59.5596 10.5862 59.7162 10.813C59.727 10.9367 59.6232 10.9622 59.5596 11.0161C59.4696 11.0919 59.337 11.1239 59.3082 11.2601C59.2872 11.3572 59.3004 11.4993 59.133 11.4371C59.0406 11.4028 58.9212 11.3548 58.9584 11.2157C59.0034 11.0451 58.9098 10.993 58.7683 10.9977C58.3171 11.0161 58.5043 10.8236 58.6447 10.6442C58.6819 10.5968 58.7149 10.5465 58.7533 10.4997C58.8852 10.3375 59.0766 10.0568 59.2236 10.148ZM59.5992 7.02187C59.5848 6.99107 59.5944 6.93067 59.6172 6.9058C59.7906 6.71808 60.6455 6.90935 60.7451 7.15333C60.7709 7.21669 60.7661 7.26703 60.7175 7.31263C60.6557 7.37066 60.5879 7.38546 60.5171 7.32802C60.3935 7.22735 60.2376 7.1782 60.2124 7.37895C60.1398 7.95987 59.6124 7.80473 59.2764 7.99718C59.7636 7.77512 59.7822 7.43284 59.5992 7.02187ZM60.7985 9.56349C60.7847 9.90577 60.7673 10.2469 60.7517 10.5885C60.7283 10.5933 60.7049 10.5974 60.6821 10.6016C60.5909 10.264 60.4817 9.93004 60.4187 9.58717C60.3929 9.44683 60.4781 9.27214 60.6671 9.28161C60.8351 9.29049 60.8027 9.4486 60.7985 9.56349ZM59.0838 12.567C58.9254 12.7216 58.7479 12.8512 58.4731 12.9679C58.5265 12.6327 58.7431 12.5214 58.8864 12.3586C58.941 12.2976 59.0172 12.2058 59.1024 12.3201C59.1606 12.3982 59.1558 12.4965 59.0838 12.567ZM59.5914 10.142C59.5032 9.96084 59.5638 9.87852 59.724 9.86017C59.874 9.84359 60.1002 9.58599 60.1698 9.88681C60.2615 10.2812 60.3095 10.6904 60.3791 11.102C60.1224 10.7644 59.7762 10.521 59.5914 10.142ZM60.4667 12.5072C60.4535 12.6783 60.261 12.6943 60.129 12.7417C60.0438 12.7719 59.9196 12.6244 59.8566 12.7743C59.8056 12.8939 59.7996 13.1023 59.6436 13.0609C59.4432 13.007 59.5806 12.8092 59.5938 12.6783C59.6268 12.3497 59.307 12.217 59.1288 11.8546C59.5644 11.9671 59.8878 12.0512 60.2118 12.1341C60.4085 12.1845 60.4799 12.3443 60.4667 12.5072ZM57.4586 17.9463C57.3494 17.9558 57.2846 17.9161 57.2072 17.8143C57.0026 17.5478 56.7338 17.5815 56.5748 17.8622C56.4224 18.1305 55.8525 18.2199 55.6059 18.0363C55.3953 17.8794 55.5405 17.7722 55.6413 17.6822C55.8009 17.5401 56.0067 17.4086 55.9839 17.1824C55.9371 16.7223 56.2772 16.5381 56.5364 16.2622C56.8112 15.9708 57.0146 15.9614 57.317 16.1929C57.518 16.3469 57.7603 16.454 57.9973 16.5529C58.3603 16.7039 58.6789 16.8591 58.6375 17.3399C58.6219 17.5277 58.7959 17.697 58.965 17.5857C59.3784 17.3157 59.541 17.6763 59.793 17.8605C59.0016 17.7012 58.2325 17.8776 57.4586 17.9463ZM57.8659 20.4169C57.8671 20.5679 58.1035 20.755 57.7555 20.8119C57.4706 20.8581 57.2936 20.7432 57.2096 20.482C57.1922 20.4287 57.2024 20.3606 57.2186 20.305C57.3452 19.8833 57.1952 19.6814 56.7452 19.6287C56.438 19.592 56.4992 19.2835 56.4734 19.0792C56.4458 18.8618 56.6774 18.9074 56.8034 18.8559C56.8694 18.8293 56.966 18.8151 57.0254 18.8429C57.4346 19.0371 57.7927 18.972 58.1317 18.5486C58.1995 19.0087 58.1911 19.2965 57.9181 19.5582C57.6691 19.7975 57.8641 20.1279 57.8659 20.4169ZM58.8721 19.2515C58.6183 19.1911 58.8301 19.0768 58.8961 18.9773C59.1996 18.5207 59.628 18.378 60.1554 18.4592C60.8327 18.5628 61.3589 18.8766 61.6912 19.5493C61.4045 19.486 61.0259 19.7536 60.9809 19.2171C60.9713 19.1088 60.8579 19.0857 60.7673 19.0946C60.2969 19.1425 59.781 19.0904 59.5518 19.6601C59.4864 19.8217 59.322 19.878 59.1168 19.9011C59.196 19.6192 59.2962 19.3522 58.8721 19.2515ZM61.0331 13.7087C61.0685 13.7922 61.1591 13.9047 61.0631 14.0001C60.9563 14.1067 60.8693 13.9799 60.7829 13.9426C60.6071 13.8656 60.3515 13.6643 60.2586 13.8473C60.0978 14.1605 59.6568 14.3003 59.6964 14.703C59.7144 14.8866 59.6826 15.2679 60.1194 14.9689C60.2118 14.9061 60.5075 14.7764 60.6791 14.8646C60.8939 14.9742 61.1117 14.9481 61.3751 14.9706C61.0115 15.2898 60.8927 15.5824 61.3235 15.8992C61.3937 15.9507 61.3829 16.1177 61.3979 16.2326C61.4159 16.3723 61.4627 16.5677 61.5815 16.5624C61.9378 16.5464 62.0002 16.8188 62.1034 17.029C62.7232 18.2933 63.5325 19.4582 64.0989 20.7503C64.1343 20.8302 64.2261 20.9214 64.1475 20.9889C64.0515 21.0718 63.9105 21.0446 63.8157 20.9658C63.4329 20.6484 63.0382 20.3417 62.6842 19.9947C62.059 19.3835 61.5233 18.6948 60.9785 18.015C60.6305 17.581 60.2532 17.17 59.8842 16.7525C59.4822 16.2983 59.4732 15.6635 59.1378 15.1791C59.4588 14.7444 58.8379 14.1996 59.3094 13.7786C59.3688 13.7247 59.4168 13.5589 59.4852 13.6335C59.8956 14.0812 59.9832 13.55 60.1716 13.4103C60.3341 13.2889 60.4373 13.0905 60.6167 12.8631C60.7733 13.1758 60.9161 13.4369 61.0331 13.7087ZM61.0433 11.7534C61.0487 11.0439 61.1099 10.3351 61.1501 9.59724C61.4765 9.69909 61.6103 9.85128 61.5983 10.1604C61.5611 11.099 61.5437 12.0388 61.5317 12.9786C61.5287 13.2296 61.5725 13.4813 61.5947 13.7324C61.5695 13.7389 61.5437 13.7454 61.5185 13.7525C61.3631 13.4511 61.2245 13.1402 61.0493 12.8507C60.8243 12.48 61.0409 12.1169 61.0433 11.7534ZM61.3265 7.63536C61.5377 7.68451 61.6607 7.79466 61.6828 7.97172C61.6954 8.07594 61.5869 8.12983 61.4933 8.10732C61.3079 8.0635 61.2353 7.91072 61.2125 7.74255C61.2011 7.6555 61.2575 7.6022 61.3265 7.63536ZM62.1364 5.93463C62.1544 6.35093 61.9162 6.54872 61.4831 6.61741C61.5893 6.26744 61.8964 6.1342 62.1364 5.93463ZM62.8006 4.24338C63.0621 4.94807 62.5876 5.04637 62.0392 5.07835C62.1418 4.66797 62.371 4.37958 62.8006 4.24338ZM63.1161 5.98674C63.2295 6.01635 63.3417 6.05425 63.4575 6.07261C63.5541 6.08801 63.6393 6.10281 63.6303 6.22421C63.6189 6.36277 63.5163 6.31363 63.4299 6.3456C63.0501 6.48536 62.9008 6.87086 62.6644 7.16399C62.5732 7.2771 62.656 7.56549 62.407 7.50094C62.2006 7.44646 62.3428 7.22143 62.3248 7.07457C62.314 6.98811 62.3344 6.89751 62.3434 6.77907C62.794 6.91054 62.8744 6.82349 63.1161 5.98674ZM63.2745 4.49091C63.3087 4.29135 63.3345 4.0906 63.3825 3.77556C63.4989 4.0675 63.5571 4.23509 63.6339 4.39498C63.6813 4.49446 63.8295 4.57855 63.6675 4.69047C63.5709 4.7568 63.4371 4.86516 63.3567 4.84029C63.1959 4.79055 63.2517 4.62415 63.2745 4.49091ZM63.8043 3.46526C63.8583 3.24734 64.1397 3.20944 64.3479 3.15022C64.505 3.10581 64.4882 3.24023 64.5014 3.34386C64.535 3.60501 64.3965 3.6891 64.1595 3.6891C63.9891 3.69029 63.7605 3.63818 63.8043 3.46526ZM64.6646 4.61941C64.8206 4.70172 65.1182 4.54894 65.1272 4.82075C65.135 5.05821 64.9154 5.05821 64.6124 4.99663C64.5788 4.98419 64.3263 5.11092 64.3161 4.86339C64.3113 4.73725 64.4918 4.52821 64.6646 4.61941ZM65.2262 6.27454C65.1758 6.95377 64.8434 7.38902 64.457 7.76209C64.1589 7.31499 64.1589 7.31499 63.5115 7.68984C63.7353 7.43106 63.7593 7.08345 63.9525 6.71867C64.1685 7.34579 64.3989 7.00943 64.5788 6.78796C64.7474 6.57951 64.9814 6.4895 65.2262 6.27454ZM66.0697 3.50079C66.2299 3.48421 66.2743 3.60561 66.3037 3.72404C66.3499 3.91235 66.3811 4.1054 66.4297 4.29312C66.4591 4.40504 66.4801 4.55368 66.6133 4.575C66.7411 4.59513 66.7657 4.45834 66.8017 4.363C66.8299 4.2872 66.8755 4.22917 66.9613 4.23272C67.0633 4.23686 67.0789 4.32806 67.0771 4.39616C67.0735 4.59928 67.4196 4.80831 67.1257 4.98597C66.8923 5.12631 66.6037 5.32528 66.3247 5.00255C66.2773 4.94807 66.1585 4.9528 66.0427 4.9232C66.2341 4.64724 66.2917 4.41866 65.8549 4.36181C65.759 4.34997 65.6492 4.25877 65.7308 4.13027C66.1249 3.50494 65.6168 3.73529 65.3504 3.73292C65.3246 3.73233 65.3 3.7122 65.2562 3.69266C65.5004 3.47888 65.7962 3.5304 66.0697 3.50079ZM66.1009 2.00851C66.1243 1.81487 66.1159 1.59813 66.4477 1.58865C66.7495 1.57977 66.7447 1.83974 66.7501 1.9333C66.7657 2.21991 66.4147 2.10148 66.3013 2.25367C66.0943 2.26492 66.0895 2.09496 66.1009 2.00851ZM67.2744 3.08686C67.2972 3.17391 67.2966 3.30478 67.1401 3.32254C66.8797 3.35275 66.7417 3.24379 66.7255 2.90329C66.9001 3.10522 67.1743 2.70491 67.2744 3.08686ZM67.3998 5.80672C67.2876 5.86831 67.1149 6.00629 67.0561 5.84699C66.9685 5.61012 67.2882 5.54557 67.3656 5.32291C67.5744 5.53432 67.629 5.67941 67.3998 5.80672ZM67.6332 6.85606C67.485 6.92475 67.3248 6.69202 67.3614 6.60616C67.4442 6.4137 67.5306 6.11347 67.7346 6.09689C67.977 6.07676 67.863 6.40245 67.9404 6.50253C68.0532 6.84954 67.7466 6.80335 67.6332 6.85606ZM65.8999 9.52677C65.6858 9.30885 65.759 9.03408 65.8969 8.81853C65.9965 8.66338 65.9845 8.34597 66.3871 8.47743C66.6223 8.55501 66.6787 8.15411 66.8791 7.97172C67.1119 8.50171 67.4058 8.2684 67.7994 7.92138C67.8192 9.1158 67.1587 9.91583 66.7801 10.9498C66.5257 10.3309 66.2647 9.89866 65.8999 9.52677ZM66.1141 6.68492C66.0109 6.69854 65.5826 6.02524 65.6348 5.94115C65.7254 5.79666 65.8807 5.87423 66.0991 5.84107C66.4039 5.92456 66.5725 6.26151 66.7921 6.5274C66.8737 6.62629 66.8959 6.75302 67.0561 6.79566C67.1635 6.82349 67.2882 6.93008 67.2612 7.05444C67.2348 7.17939 67.0729 7.18176 66.9643 7.21373C66.8449 7.24808 66.6943 7.17287 66.6229 7.34993C66.5623 7.49975 66.4639 7.44113 66.3751 7.36533C66.2863 7.28953 66.2467 7.22558 66.3361 7.10596C66.5359 6.83889 66.5953 6.62274 66.1141 6.68492ZM65.7962 11.9399C65.753 11.8984 65.7176 11.8457 65.6684 11.8132C65.3726 11.616 65.0312 11.4892 65.372 11.0066C65.6786 10.5737 65.351 10.1486 65.108 9.78496C64.8002 9.32721 64.9034 8.77234 64.6868 8.2986C64.6784 8.27965 64.7276 8.23583 64.7444 8.21096C64.8608 8.21451 64.883 8.28971 64.8962 8.36196C65.099 9.44623 65.705 10.3842 66.0349 11.4217C66.0757 11.5496 66.1345 11.6758 66.1471 11.8066C66.1591 11.9251 66.0955 12.0548 65.9809 12.0986C65.8741 12.1389 65.8561 11.9979 65.7962 11.9399ZM65.063 20.3825C64.814 20.3589 64.49 20.3352 64.4013 20.1587C64.1949 19.7501 63.8379 19.4208 63.7407 18.9589C63.7305 18.908 63.7917 18.8115 63.7725 18.7967C63.2565 18.41 63.7533 18.2412 63.9519 18.0346C64.2573 17.7177 64.4085 17.019 64.2279 16.6009C64.2051 16.547 64.1433 16.4801 64.1589 16.444C64.3485 15.9921 64.2093 15.4912 64.3803 14.9706C64.6838 15.3923 64.7846 15.1258 64.859 14.8759C64.9406 14.6047 64.988 14.3246 65.0492 14.0469C65.0876 13.8733 65.072 13.7496 64.8692 13.6536C64.6646 13.5571 64.5092 13.3469 64.5614 13.113C64.6472 12.7257 64.5134 12.3313 64.6364 11.9511C64.6676 11.8552 64.7258 11.7374 64.6232 11.658C64.5176 11.5763 64.4121 11.6491 64.3449 11.7285C64.1259 11.9867 63.7911 11.8179 63.5367 11.9535C63.3795 12.0364 63.1437 12.0536 63.1275 12.2626C63.0795 12.872 62.8576 13.447 62.7874 14.0498C62.7658 14.2393 62.7442 14.4892 62.9728 14.5549C63.2019 14.6207 63.2979 14.3802 63.4041 14.2257C63.5571 14.0036 63.6897 13.7679 63.8307 13.5376C63.8679 13.476 63.8787 13.3818 63.9687 13.3777C64.0839 13.3718 64.1379 13.489 64.1337 13.5548C64.1205 13.7413 64.4816 14.0563 63.9495 14.093C63.8229 14.1019 63.8295 14.3204 63.8037 14.4478C63.6225 15.3319 63.3027 16.1751 63.034 17.0332C63.0118 17.1007 62.9584 17.1593 62.887 17.273C62.4346 16.5411 62.2174 15.8062 62.1544 15.0216C62.1226 14.6248 62.1538 14.2529 62.3896 13.9047C62.5126 13.7223 62.5666 13.4932 62.647 13.2841C62.6848 13.184 62.7142 13.0721 62.608 12.9981C62.5132 12.933 62.4418 13.0082 62.3704 13.0662C62.3068 13.1189 62.2588 13.2332 62.152 13.1758C62.0398 13.1154 62.0638 12.9946 62.0716 12.8915C62.1394 11.9061 62.14 10.9196 62.1388 9.93241C62.1382 9.39531 62.3866 9.2218 62.8972 9.33076C63.2547 9.40656 63.4455 9.17087 63.5871 8.87893C63.7593 8.52481 63.7317 8.08127 64.1199 7.76564C64.2099 8.16654 64.2123 8.5029 63.8835 8.7753C63.7761 8.86413 63.6561 8.97131 63.6873 9.11166C63.7851 9.54099 63.5313 9.77193 63.2325 10.0005C62.9914 10.1841 62.914 10.4281 63.0412 10.7194C63.1521 10.9711 63.3801 11.0179 63.6159 11.0528C63.8697 11.0913 64.1247 11.1209 64.3779 11.163C64.4498 11.1742 64.5278 11.2009 64.5842 11.2435C64.9496 11.5224 65.1554 11.9423 65.5574 12.2111C66.0115 12.5149 65.8525 13.0253 65.798 13.4949C65.7416 13.9817 65.8022 14.4803 65.7824 14.9724C65.7464 15.8678 65.4446 16.7211 65.3648 17.6189C65.264 18.7623 65.4098 19.7868 66.1579 20.6917C66.2437 20.7953 66.3349 20.9096 66.3727 21.0339C66.4507 21.2963 66.4087 21.5574 66.0619 21.5219C65.7188 21.4869 65.3912 21.317 65.021 21.4455C65.141 21.2495 65.3648 21.2453 65.4278 21.0132C65.5298 20.6384 65.4434 20.4193 65.063 20.3825ZM67.6284 4.06158C67.503 4.55723 68.0952 4.74317 68.0724 5.19501C68.0682 5.27199 68.1564 5.30337 68.2422 5.24771C68.6651 4.97412 68.568 5.24771 68.493 5.48517C68.4234 5.70783 68.415 5.9524 68.2452 6.1946C67.4202 4.86102 67.2444 4.28365 67.6284 4.06158ZM68.6579 3.30478C68.7431 3.23135 68.8397 3.28109 68.8637 3.38531C68.9813 3.89755 69.2945 3.88807 69.6851 3.70035C69.7211 3.68377 69.7715 3.69798 69.9521 3.69798C69.5393 3.98104 69.1811 4.07046 68.8127 4.12317C68.6543 4.14626 68.5254 4.04085 68.5374 3.89577C68.5542 3.6968 68.472 3.46408 68.6579 3.30478ZM68.7977 5.84995C68.7041 5.61782 69.0605 4.8474 69.3179 4.7337C69.3299 5.13519 69.0587 5.46267 69.0431 5.84818C69.0401 5.91272 68.9861 5.96661 68.9255 5.95477C68.8769 5.94529 68.8163 5.89555 68.7977 5.84995ZM70.0504 5.54143C69.8813 6.05899 70.1752 6.47707 70.2988 6.95377C70.1356 6.8306 69.973 6.70861 69.8111 6.58425C69.7247 6.51793 69.6281 6.45753 69.5201 6.50431C69.3737 6.56767 69.4235 6.71038 69.4301 6.82053C69.4571 7.30138 69.4607 7.30078 68.9153 7.49679C68.9375 6.89633 69.2165 6.41607 69.5489 5.95536C69.6671 5.79073 69.8567 5.63618 69.6101 5.4224C69.5279 5.35075 69.5675 5.23646 69.6341 5.18257C69.7331 5.10203 69.7799 5.23646 69.8537 5.27021C69.9742 5.32588 70.0858 5.43247 70.0504 5.54143ZM69.6701 9.02224C69.4871 8.5864 69.2345 8.27965 69.6575 7.98119C69.7547 7.9125 69.8483 7.81538 69.9676 7.94389C70.066 8.04988 70.0174 8.14285 69.9221 8.20563C69.6593 8.37795 69.7619 8.66279 69.6701 9.02224ZM69.3821 17.3909C69.3173 17.4092 69.1877 17.3968 69.1733 17.3624C69.0947 17.1765 69.0089 16.9817 68.9897 16.7839C68.9705 16.5754 69.2105 16.6424 69.3293 16.5162C69.3773 16.8017 69.4091 17.0036 69.4445 17.2049C69.4577 17.2807 69.4643 17.3678 69.3821 17.3909ZM69.1685 16.0952C69.2201 14.9132 69.7223 13.762 69.9041 12.5889C69.9479 13.7756 70.1434 14.9701 69.1685 16.0952ZM70.3186 9.77608C70.192 9.51315 69.7967 9.53032 69.8663 9.33372C69.9143 9.19752 70.1176 8.995 70.3432 8.8132C70.3906 9.14837 70.3672 9.41367 70.3186 9.77608ZM70.3912 5.36082C70.4278 5.13105 70.5994 4.89122 70.7896 4.94984C71.2312 5.08605 71.2468 4.75857 71.3805 4.53769C71.4951 4.34997 71.5779 4.13442 71.8395 4.08349C71.9733 4.05744 72.0489 4.06691 72.0237 4.22857C71.9595 4.52288 71.7081 4.68751 71.5317 4.90365C71.3362 5.14289 71.0104 5.26192 70.8976 5.5817C70.8658 5.66934 70.7518 5.73566 70.6864 5.63795C70.6066 5.51596 70.3564 5.57874 70.3912 5.36082ZM70.7326 2.57877C70.6672 2.49824 71.2102 1.99133 71.332 2.03042C71.6367 2.12813 71.5623 2.37506 71.5257 2.59417C71.4321 3.15437 71.1616 3.35275 70.522 3.30715C70.6228 3.04482 71.0002 2.90802 70.7326 2.57877ZM70.4302 6.27099C70.4332 6.17861 70.4956 6.08682 70.5838 6.07142C70.7122 6.04892 70.7086 6.17683 70.7164 6.25263C70.7374 6.46285 70.7422 6.67544 70.753 6.88626C70.5616 6.69735 70.4224 6.51141 70.4302 6.27099ZM71.0236 10.6182C71.0356 11.0866 70.7536 11.2997 70.303 11.1333C70.1992 11.0949 70.1656 10.9954 70.2364 10.9196C70.771 10.3463 70.6774 9.62922 70.702 8.94348C70.7086 8.74569 70.7098 8.58817 71.0152 8.52066C70.8826 8.95177 71.3032 9.33254 71.1376 9.67778C70.9792 10.01 71.0152 10.3037 71.0236 10.6182ZM71.8605 5.23764C71.5125 5.58999 71.5089 5.88074 71.8839 6.1946C71.9613 6.25974 72.0057 6.3379 71.9703 6.4291C71.9313 6.53155 71.8371 6.51141 71.7405 6.50904C71.3554 6.50016 71.3547 6.50549 71.086 6.80158C71.0494 6.5653 71.0254 6.38824 70.9924 6.21296C70.9414 5.93819 70.99 5.7327 71.2708 5.57814C71.6145 5.38865 71.8461 5.05644 72.1641 4.75028C72.1881 5.03275 71.9793 5.11684 71.8605 5.23764ZM72.3219 7.84085C72.4179 8.59232 72.5385 9.34853 72.4383 10.1142C72.4029 10.3919 72.3141 10.6389 72.1335 10.8497C71.7501 11.3003 71.3859 11.7557 71.5821 12.4752C71.182 12.2312 71.2426 11.9304 71.2894 11.6669C71.4549 10.733 71.4813 9.7968 71.4165 8.85347C71.4021 8.64265 71.2534 8.47566 71.263 8.25359C71.272 8.05995 71.332 7.90836 71.4591 7.77097C71.6313 7.79939 71.5383 8.09667 71.7393 8.05403C71.8881 8.02146 71.8935 7.8521 71.9337 7.72419C72.0099 7.48376 72.2691 7.254 71.9361 6.98515C72.4017 7.15155 72.2847 7.55364 72.3219 7.84085ZM72.767 11.7001C72.8636 11.2399 73.0634 10.8728 73.403 10.5418C73.6886 10.2623 74.0384 9.99933 74.0588 9.53447C74.06 9.47999 74.1595 9.43321 74.2483 9.4569C74.3161 9.57059 74.2897 9.68607 74.2381 9.7968C74.0528 10.1959 73.9496 10.6075 73.9502 11.0528C73.9502 11.2139 73.9286 11.5982 73.6118 11.1908C73.4726 11.0114 73.3868 11.1286 73.3526 11.2938C73.3496 11.3086 73.3466 11.3246 73.3502 11.3388C73.5068 11.9938 73.4216 12.6896 73.6928 13.3244C73.7864 13.5429 73.553 14.8232 73.3982 14.9671C73.2974 15.0618 73.226 14.9813 73.1624 14.9369C72.977 14.8042 72.8306 14.639 72.7215 14.4329C72.4899 13.9965 72.2409 13.5684 71.9967 13.1385C71.8011 12.7926 71.9193 11.8901 72.1989 11.6793C72.2847 11.8878 72.1275 12.2674 72.4113 12.2887C72.7239 12.3124 72.7208 11.9174 72.767 11.7001ZM73.5794 3.8857C73.2842 4.17706 72.9554 4.37899 72.5043 4.35115C72.7101 3.79096 73.169 3.89222 73.5794 3.8857ZM73.835 6.67841C73.8452 6.57241 74.0588 6.53036 74.1133 6.74473C74.1727 6.97627 74.2567 7.20544 74.2843 7.44113C74.3029 7.59628 74.4451 7.90125 74.0156 7.77038C73.8584 7.723 73.7708 7.92849 73.7654 8.08364C73.7588 8.28498 73.6376 8.53132 73.8482 8.67345C74.0246 8.79188 74.1133 8.53725 74.3035 8.46974C74.3833 8.76938 74.3287 8.9642 74.0282 9.05125C73.8836 9.0933 73.7354 9.146 73.6112 9.22772C73.3898 9.37399 73.0424 9.5096 72.9122 9.40775C72.7071 9.24667 72.842 8.87775 72.7604 8.60653C72.7509 8.57396 72.782 8.4952 72.8036 8.49165C73.4576 8.38091 73.2806 7.79584 73.4192 7.40737C73.5164 7.13616 73.8074 6.9964 73.835 6.67841ZM74.1325 3.79096C74.1835 3.64351 74.2267 3.46348 74.3311 3.46466C74.5705 3.46348 74.6695 3.51323 74.6467 3.64291C74.6125 3.83478 74.4451 3.88334 74.2783 3.89992C74.2123 3.90702 74.0972 3.89104 74.1325 3.79096ZM75.1141 4.14981C75.4639 4.87878 75.981 5.11269 76.7256 4.84562C77.0993 4.7106 77.1191 4.84503 77.0909 5.13223C77.0321 5.73862 76.8846 5.93108 76.44 5.95062C76.4454 5.90917 76.446 5.8689 76.4568 5.83219C76.503 5.67348 76.7526 5.48872 76.539 5.36851C76.386 5.28265 76.1244 5.35489 75.9372 5.49879C75.7854 5.61604 75.7686 5.86476 75.4951 5.90147C75.5568 5.49998 75.4963 5.15118 75.0181 4.9836C75.0853 5.84166 75.0853 5.84166 74.5789 6.77078C74.3845 6.37225 74.3425 5.96128 74.2813 5.55682C74.2705 5.48695 74.2711 5.37266 74.3119 5.34364C74.7217 5.05821 74.9437 4.64428 75.1141 4.14981ZM75.8784 2.78899C76.0032 2.67115 76.1532 2.67115 76.2714 2.81919C76.4028 2.98264 76.5258 3.15081 76.4502 3.40663C76.2672 3.39301 76.3332 3.00218 76.0836 3.20885C75.9792 3.2953 75.852 3.46348 75.7866 3.29945C75.7386 3.17983 75.732 2.92815 75.8784 2.78899ZM76.9775 7.47074C76.9907 7.63299 77.1119 7.58917 77.2067 7.50864C77.3381 7.39553 77.3807 7.19834 77.5637 7.11188C77.6801 7.44053 77.7887 7.74492 77.8925 8.05107C77.9105 8.10496 77.9333 8.19615 77.9081 8.21865C77.4605 8.6089 77.5493 9.12824 77.5649 9.6233C77.5703 9.79858 77.5091 9.87438 77.3543 9.90339C77.0915 9.95255 76.9841 9.57415 76.704 9.67185C76.7076 9.4113 76.5996 9.13653 76.8342 8.90736C77.0069 8.74036 77.1527 8.54731 77.3207 8.37617C77.4857 8.2074 77.4077 8.00014 77.3771 7.83492C77.3507 7.69043 77.1449 7.74847 77.0135 7.77275C76.8438 7.80413 76.7148 7.8065 76.7136 7.57614C76.713 7.48495 76.6446 7.40974 76.5288 7.42751C76.4316 7.4429 76.3122 7.52522 76.2672 7.36474C76.2294 7.22735 76.3812 7.20544 76.4406 7.12787C76.6872 6.80691 76.9901 6.54161 77.3489 6.24079C77.3381 6.45989 77.2319 6.5724 77.1221 6.65057C76.7952 6.88211 76.9529 7.19182 76.9775 7.47074ZM78.1013 4.86872C78.1313 5.12335 78.1949 5.31522 77.9093 5.37503C77.7737 5.40404 77.5967 5.34127 77.6033 5.28087C77.6285 5.03334 77.8919 5.03156 78.1013 4.86872ZM78.6418 5.69302C78.6706 5.96779 78.6778 6.26329 79.0546 6.27691C78.8434 6.59846 78.6964 6.93423 78.6514 7.32624C78.6238 7.5643 78.4816 7.78992 78.3892 8.0262C77.7437 7.32269 77.8625 6.15137 78.6418 5.69302ZM79.5094 5.5361C79.6588 5.91924 79.5802 6.25441 79.318 6.58188C79.1866 6.4895 79.3342 6.23487 79.1086 6.21177C79.0978 6.21058 79.0828 6.22006 79.075 6.22954C79.0678 6.23783 79.0654 6.24967 79.0618 6.26033C79.0648 5.80376 79.0984 5.75165 79.5094 5.5361ZM79.7745 8.62726C79.7709 8.53014 79.7841 8.43894 79.9083 8.44486C79.9977 8.4496 80.0217 8.52481 80.0367 8.60416C80.0535 8.69239 80.0775 8.78063 80.1141 8.86235C80.1759 8.99737 80.2983 9.21529 80.1639 9.2597C79.9551 9.32958 79.8291 9.57711 79.5586 9.51552C79.4458 9.49006 79.2574 9.1916 79.2004 9.53032C79.153 9.81279 79.2094 10.1705 79.5712 10.1947C79.8549 10.2131 79.9893 10.2581 80.1579 10.5074C80.3049 10.7242 80.5833 10.5098 80.7369 10.3564C80.9931 10.1012 81.0932 10.1882 81.107 10.4897C81.1154 10.6987 81.26 10.8864 81.1958 11.1126C81.0434 11.1837 80.9199 11.0842 80.8395 11.0031C80.3499 10.5068 79.7355 10.7703 79.1968 10.7922C78.9712 10.8011 79.0876 11.237 79.1986 11.478C78.526 11.3033 78.2093 10.7194 78.4624 10.097C78.5272 9.93833 78.5434 9.77963 78.5584 9.61501C78.565 9.54513 78.5806 9.42314 78.6118 9.41603C79.3282 9.25852 78.9316 8.68707 78.9598 8.34301C78.9988 7.87934 78.8998 7.87105 79.3852 7.42514C79.1968 7.89059 79.183 8.25004 79.2838 8.60831C79.3276 8.76464 79.3324 8.97072 79.5544 8.96302C79.7427 8.95591 79.7805 8.79129 79.7745 8.62726ZM79.7445 6.75539C79.7637 6.6867 79.8567 6.68314 79.8903 6.73348C80.0331 6.94192 80.4471 6.51911 80.4999 7.02897C80.5299 7.31796 80.5317 7.90066 81.1706 7.56549C81.2306 7.53469 81.3056 7.56549 81.3044 7.63536C81.2984 8.04574 81.6056 8.36551 81.6338 8.76523C81.638 8.82682 81.6512 8.89018 81.5756 8.90617C81.5378 8.91505 81.4634 8.89847 81.4562 8.87656C81.3722 8.63614 80.9535 8.54376 81.1772 8.15529C81.3002 7.94033 81.068 7.94152 80.9163 7.94092C80.2779 7.97409 80.2797 7.9735 80.1219 7.32743C80.0979 7.22913 80.0655 7.12728 80.0109 7.04378C79.9395 6.93423 79.6821 6.98278 79.7445 6.75539ZM81.1634 6.28283C81.218 6.39712 81.3632 6.66123 81.6212 6.54635C81.8438 6.44746 81.7622 6.24612 81.7502 6.0732C81.7448 5.99918 81.7328 5.92338 81.809 5.86061C81.9656 5.94174 81.8726 6.17979 82.0988 6.255C82.4353 6.36692 82.232 6.69143 82.196 6.87264C82.1594 7.0574 81.9338 6.90817 81.8342 6.82408C81.641 6.66182 81.4556 6.85902 81.2432 6.82349C80.7825 6.74828 80.5773 6.48121 80.3307 6.16262C80.6541 6.01576 80.9391 5.81383 81.1634 6.28283ZM80.1663 18.6469C80.0775 19.0419 79.8525 19.2983 79.6204 19.5713C79.3906 19.1561 79.3936 19.1514 80.1663 18.6469ZM81.716 13.6933C81.773 13.6637 81.7376 13.8964 81.7784 14.0024C81.8456 14.1795 81.7268 14.2452 81.59 14.295C81.182 14.4448 80.7849 14.6313 80.2311 14.7207C80.5683 14.3145 80.9427 14.0966 81.1412 13.7075C81.2588 13.4778 81.5072 13.8005 81.716 13.6933ZM81.7592 10.1497C81.6884 10.4879 81.7394 10.8153 81.6938 11.1493C81.2618 10.4695 81.5438 9.7974 81.7166 9.12113C81.737 9.46519 81.8282 9.82404 81.7592 10.1497ZM82.2434 11.9577L82.5421 12.1797C82.5265 12.2224 82.5097 12.2638 82.4941 12.3053C82.0604 12.2336 82.037 12.7843 81.6224 12.8033C81.6374 12.3674 82.154 12.3082 82.2434 11.9577ZM80.9499 14.8534C81.3152 14.729 81.5924 14.6349 81.8864 14.5348C81.809 14.9582 81.5582 15.0518 80.9499 14.8534ZM82.2698 17.032C82.157 17.0391 82.1186 17.0592 82.0532 16.8863C81.929 16.5589 82.0394 16.3883 82.253 16.2065C82.3064 16.4079 82.3418 16.6157 82.4186 16.8076C82.4893 16.9823 82.4192 17.0219 82.2698 17.032ZM82.4395 15.5723C82.1726 15.7115 82.2212 15.9596 82.2512 16.1947C81.968 16.0306 81.632 16.3634 81.3374 16.0976C81.491 15.9205 81.6734 15.7458 81.4916 15.4852C81.4682 15.4515 81.4886 15.3431 81.5228 15.3218C81.8696 15.1045 82.2638 14.9695 82.5883 14.7053C82.6531 14.6521 82.7521 14.7948 82.7299 14.9185C82.6867 15.1601 82.7197 15.426 82.4395 15.5723ZM82.3268 8.85288C82.5013 8.82504 82.7419 8.98197 82.6393 9.24193C82.6207 9.29108 82.334 9.146 82.2176 9.37162C82.202 9.14363 82.1456 8.8813 82.3268 8.85288ZM82.2524 9.8276C82.3952 10.0769 82.4623 10.3138 82.7689 10.2409C82.9561 10.1971 82.9423 10.3588 82.9459 10.4737C82.9519 10.6661 82.9459 10.8586 82.9507 11.0504C82.9531 11.1677 82.9525 11.2743 82.7845 11.205C82.6993 11.1695 82.5631 11.1783 82.6567 11.0066C82.8463 10.656 82.7635 10.4239 82.3436 10.3161C82.1336 10.2623 82.1666 10.0745 82.2524 9.8276ZM80.3181 11.9079C80.3313 11.8451 80.3937 11.7285 80.4579 11.7729C80.6331 11.8955 80.9289 11.9588 80.8143 12.2798C80.7717 12.2733 80.7207 12.2757 80.6919 12.252C80.5599 12.1436 80.2539 12.2135 80.3181 11.9079ZM80.3649 13.0544C80.6361 13.0253 80.7291 12.8062 80.7009 12.5581C80.6865 12.4338 80.7891 12.3822 80.8191 12.291C81.1586 12.2573 81.3302 12.3467 81.17 12.7293C80.9007 13.3718 80.5569 13.9592 80.0115 14.4176C79.9071 14.5058 79.8237 14.6159 79.6642 14.5763C79.5658 14.552 79.4314 14.61 79.3762 14.4957C79.3258 14.3915 79.4002 14.2932 79.4728 14.2192C79.6875 13.9995 79.7967 13.717 79.9377 13.4559C80.0253 13.2936 79.9359 13.0763 79.7829 13.1515C79.1674 13.4559 79.1932 12.8258 79.1668 12.6529C79.1158 12.3236 79.1974 11.9665 79.1008 11.6219C79.0906 11.5858 79.1638 11.5277 79.1992 11.4792C79.3432 11.9198 79.4512 12.3769 79.645 12.795C79.7661 13.0567 80.0961 13.0834 80.3649 13.0544ZM79.0522 15.5847C79.2466 15.471 79.4278 15.3295 79.6588 15.291C79.7829 15.2709 79.9659 15.1365 80.0151 15.2999C80.0601 15.4503 80.0865 15.6706 79.9659 15.8139C79.8837 15.911 79.7115 15.9809 79.5916 15.8891C78.9484 15.3946 79.1938 16.033 79.0954 16.2859C78.7288 16.0123 78.7198 15.7801 79.0522 15.5847ZM76.4364 11.7137C76.2444 11.6248 76.014 11.5751 76.107 11.308C76.1334 11.2311 76.197 11.1718 76.2792 11.2074C76.524 11.3128 76.392 11.5408 76.4364 11.7137ZM75.8136 8.48217C75.7548 8.41526 75.6678 8.36433 75.6294 8.28853C75.5772 8.18727 75.5982 8.06351 75.7308 8.04692C75.9498 8.01968 76.3332 8.58699 76.269 8.79603C76.1442 9.19575 76.0362 9.59902 76.311 9.99163C76.4124 10.1367 76.3704 10.3126 76.3494 10.4731C76.3374 10.5619 76.251 10.6365 76.1508 10.6241C76.0092 10.6069 76.1196 10.5074 76.116 10.4512C76.1046 10.248 75.999 10.2398 75.8388 10.2925C75.6534 10.3534 75.4639 10.4038 75.2371 10.4707C75.2461 10.1071 75.4951 9.89629 75.603 9.6227C75.6396 9.52796 75.7296 9.43439 75.6024 9.34675C75.4933 9.27154 75.3949 9.33668 75.3115 9.39886C75.2281 9.46222 75.1657 9.55342 75.0823 9.61678C74.8909 9.76364 74.6599 9.71508 74.6479 9.50723C74.6197 9.00566 74.6725 8.49994 74.6971 7.996C74.6989 7.95928 74.7373 7.92434 74.8297 7.76978C74.8123 8.2755 75.2449 8.43361 75.2305 8.82919C75.2251 8.96894 75.4183 9.07613 75.5802 9.05481C75.705 9.03823 75.858 9.00506 75.912 8.85465C75.9642 8.71253 75.9084 8.58936 75.8136 8.48217ZM74.7529 20.8586C74.0576 21.5527 73.9592 22.6079 73.2458 23.283C73.6028 22.1075 74.1655 21.0399 74.8915 19.9651C74.9815 20.3446 74.9497 20.662 74.7529 20.8586ZM74.7949 16.5897C74.5639 16.5654 74.4667 16.3936 74.3539 16.2432C73.934 15.6854 73.5806 15.1501 73.9562 14.385C74.1763 13.9367 74.0336 13.3404 74.4613 12.9371C74.5525 12.9205 74.5369 12.9957 74.5423 13.0461C74.5543 13.1704 74.5807 13.312 74.7193 13.3208C74.8633 13.3309 74.8999 13.1728 74.9329 13.0662C75.0367 12.7245 75.1279 12.3781 75.2155 12.0311C75.2377 11.9423 75.2149 11.8493 75.1279 11.7942C75.0301 11.7332 74.9623 11.7966 74.8891 11.8552C74.6827 12.0186 74.4919 12.413 74.2843 12.3059C74.0762 12.1987 74.2699 11.8001 74.2657 11.5295C74.2597 11.0789 74.2513 10.611 74.5213 10.1278C74.5681 10.4079 74.6365 10.5885 74.4931 10.8148C74.3947 10.9687 74.3605 11.2541 74.5627 11.3903C74.7211 11.4969 74.8465 11.2938 74.9839 11.2157C75.1345 11.1292 75.2617 10.9812 75.4591 10.9865C75.519 11.208 75.2767 11.5396 75.7146 11.5846C75.6576 11.7711 75.648 11.9618 75.6804 12.1525C75.7284 12.4338 76.0428 12.6523 75.8862 12.9827C75.726 13.3202 75.3493 13.1787 75.0955 13.3185C74.9359 13.4067 74.8567 13.5133 74.8873 13.6726C74.9293 13.8846 74.8333 14.2002 75.0823 14.2778C75.3679 14.3672 75.522 14.1161 75.5958 13.8479C75.792 13.942 75.6834 14.2565 75.912 14.2541C76.122 14.2523 76.0746 14.0036 76.1604 13.865C76.3854 14.2209 76.3512 14.2008 76.1394 14.5703C75.948 14.9043 75.8364 15.2857 75.702 15.6499C75.6276 15.8512 75.552 15.9394 75.3619 15.7476C75.1027 15.4852 75.0007 15.6854 74.9383 15.9128C74.8795 16.1289 74.8441 16.3516 74.7949 16.5897ZM75.4819 19.21C75.4657 19.3184 75.5286 19.4546 75.3751 19.5126C75.1915 19.4789 75.1387 19.3622 75.2041 19.2154C75.4711 18.6113 75.6084 17.9694 75.7794 17.3364C75.8166 17.1984 75.8922 17.093 76.0698 17.1202C76.2468 17.1475 76.176 17.3103 76.2348 17.3903C76.5504 17.8131 76.3242 18.124 76.065 18.4574C75.9294 18.6327 75.9846 18.9637 75.5742 18.8707C75.4261 18.8381 75.5005 19.0875 75.4819 19.21ZM76.9229 16.839C76.8774 16.4499 76.2918 16.4037 76.3266 15.9454C76.329 15.914 76.1346 16.0218 76.0212 15.9086C76.2156 15.4847 76.251 14.9742 76.8108 14.7509C77.0957 14.6378 76.9955 14.2837 77.0519 14.0089C77.1995 14.2186 77.0885 14.552 77.4041 14.6147C77.5607 14.6449 77.5913 14.4957 77.6081 14.3743C77.6441 14.1179 77.9279 13.8633 77.5871 13.6039C77.3453 13.418 77.2043 13.5956 77.0321 13.7217C76.863 13.1485 76.9835 12.6552 77.3645 12.2152C77.4095 12.1625 77.4599 12.0335 77.4473 12.0252C77.0597 11.7545 77.4317 11.5112 77.4695 11.2589C77.4929 11.1049 77.5055 10.9089 77.3549 10.8562C77.1455 10.7834 77.2325 11.0345 77.1527 11.1179C77.0597 11.2162 76.9751 11.3205 76.845 11.4697C76.7016 11.07 76.7478 10.8148 77.0867 10.6105C77.3855 10.4304 77.7371 10.3155 77.9375 9.94011C78.0641 11.4111 78.856 12.6416 78.9616 14.0563C78.6238 13.7644 78.5014 14.0415 78.3898 14.311C78.2129 14.7379 77.9903 15.1471 77.8871 15.6037C77.7989 15.9951 77.4677 16.2468 77.2823 16.5861C77.1527 16.8236 77.2679 17.17 76.9265 17.3441C76.9265 17.1558 76.9415 16.9953 76.9229 16.839ZM82.5691 19.0122C82.9363 19.2521 83.2813 19.1396 83.6767 18.8814C83.7079 19.3468 83.7853 19.7187 84.1992 19.9313C83.6017 20.013 83.0401 20.196 82.4641 19.8164C82.2956 19.7057 81.9344 19.8792 81.611 19.9307C81.8906 19.6198 82.142 19.345 82.3856 19.0638C82.4419 18.9986 82.4845 18.9572 82.5691 19.0122ZM79.8027 20.2232C80.2173 19.7264 80.5257 19.1757 80.6151 18.4811C80.6595 18.1358 80.8719 17.6822 81.458 17.7533C81.644 17.7758 81.8684 17.6467 82.0478 17.5413C82.3676 17.3536 82.6669 17.1309 83.0179 16.8934C82.6819 18.7618 81.5378 19.785 79.8027 20.2232ZM82.6717 7.6928C82.7551 7.95869 82.9447 7.94448 83.2027 7.95099C82.8721 8.08601 82.8721 8.08601 82.2998 7.6934C82.4503 7.678 82.5781 7.39375 82.6717 7.6928ZM84.1434 16.0851C83.9544 16.2308 83.7979 16.4132 83.6005 16.4848C83.4439 16.5417 83.2471 16.4309 83.1019 16.3149C83.0587 16.2805 83.0251 16.1959 83.1013 16.1645C83.3863 16.046 83.6461 15.8394 83.9754 15.8672C84.033 15.8719 84.0804 15.9993 84.1434 16.0851ZM83.4595 15.1424C84.0696 14.8901 84.801 14.9061 85.3001 14.3352C85.5989 14.8238 85.5989 14.8238 85.4675 15.4799C85.2749 15.5 85.3043 15.2898 85.1993 15.2253C85.0314 15.1222 84.8016 14.9902 84.7722 15.3123C84.7344 15.7245 84.324 15.657 84.2526 15.5948C84.0048 15.3781 83.7109 15.4509 83.4499 15.3686C83.3635 15.3413 83.2465 15.3461 83.2501 15.2342C83.2549 15.0986 83.3875 15.1726 83.4595 15.1424ZM83.7277 11.0279C84.0774 11.0652 83.7703 11.4531 83.9598 11.5514C83.9814 11.7208 83.9652 11.8297 83.8111 11.7936C83.6077 11.7457 83.3353 11.7593 83.3059 11.4733C83.2753 11.1884 83.4727 11.0007 83.7277 11.0279ZM86.3381 16.2255C86.6878 16.017 86.9584 16.0472 87.2776 16.3759C86.7268 16.5435 86.1791 16.4931 85.6961 16.7377C85.4765 16.849 85.3511 16.6258 85.209 16.4973C85.1388 16.4345 85.0992 16.2959 84.9618 16.3569C84.87 16.3984 84.8502 16.4902 84.852 16.5849C84.8538 16.6974 84.9054 16.8407 84.711 16.8484C84.5748 16.8544 84.4728 16.762 84.4146 16.6684C84.3162 16.5115 84.5142 16.4961 84.5802 16.4167C84.783 16.1728 84.9648 16.078 85.2977 16.2983C85.6115 16.505 86.0231 16.4144 86.3381 16.2255ZM76.0632 27.115C76.1922 27.1985 76.4094 27.1997 76.4106 27.4425C76.4112 27.5165 76.392 27.645 76.347 27.6189C76.1916 27.5271 75.9822 27.4762 75.9336 27.266C75.9168 27.1926 75.945 27.1185 76.0632 27.115ZM52.7201 20.6022C53.0741 20.4429 53.476 20.4169 53.3549 19.936C53.3519 19.923 53.3536 19.8975 53.3608 19.894C53.7766 19.7033 53.788 19.3137 53.8282 18.9222C53.8294 19.274 54.0184 19.6003 53.9704 19.9011C53.8708 20.5247 53.4964 20.7592 52.7201 20.6022ZM53.4952 22.6974C53.4334 22.6452 53.2733 22.6358 53.3189 22.5452C53.4202 22.3456 53.4208 22.0643 53.6956 21.985C53.794 21.9565 53.8066 22.0548 53.824 22.1597C53.7232 22.3243 53.6098 22.5114 53.4952 22.6974ZM53.0825 21.7807C53.0063 22.0282 52.7243 21.9619 52.4801 21.9364C52.6211 21.8529 52.4603 21.4976 52.7513 21.6113C52.8581 21.6533 53.1431 21.5793 53.0825 21.7807ZM53.1707 18.2531C53.2475 18.1027 53.2529 17.8913 53.4862 17.8658C53.5438 17.8593 53.602 17.8575 53.752 17.8486C53.6614 17.9694 53.6164 18.0257 53.5756 18.0843C53.4886 18.2081 53.4838 18.4201 53.2457 18.3792C53.1689 18.3662 53.1407 18.3123 53.1707 18.2531ZM90.2312 18.5196C90.1718 18.3656 89.9324 18.1921 89.8448 18.4663C89.7452 18.7771 89.5628 18.6119 89.4194 18.6149C89.2785 18.6179 89.3301 18.5077 89.3541 18.4189C89.3979 18.2519 89.4128 18.1021 89.6732 18.1714C89.924 18.2383 89.9744 18.111 89.921 17.8622C89.8376 17.4791 89.6846 17.2482 89.2389 17.2452C89.0085 17.2434 88.7643 17.1516 88.5537 17.0474C88.3491 16.9455 87.7204 17.1244 88.1349 16.5251C88.1457 16.5109 88.1199 16.47 88.1079 16.4428C88.0059 16.1941 87.9256 15.9365 87.7636 15.7132C87.7132 15.6434 87.5278 15.6037 87.6526 15.4734C87.7726 15.3484 87.8254 15.4852 87.8884 15.5652C87.9724 15.6706 88.0881 15.7079 88.2141 15.6653C88.3893 15.606 88.3437 15.4485 88.3467 15.3194C88.3527 15.1033 88.3173 14.8439 88.1553 14.7427C87.952 14.6147 87.6478 14.6757 87.4456 14.4845C87.214 14.7764 86.9716 14.4708 86.7154 14.4714C86.9314 14.398 86.9662 14.1416 87.1618 14.035C87.4042 13.9035 87.4792 13.5885 87.4522 13.3238C87.4306 13.1047 87.178 13.1698 87.0172 13.1124C86.74 13.0123 86.5805 12.7606 86.6524 12.4509C86.7352 12.095 86.6158 12.0074 86.2781 12.0998C85.9757 12.1821 85.6661 12.2626 85.3745 12.0601C85.4291 11.9132 85.5383 11.9328 85.6439 11.9132C86.0381 11.8404 85.9739 11.4762 86.0057 11.2334C86.0393 10.9705 85.7831 10.9687 85.5737 11.0031C85.2174 11.0605 85.2455 10.8201 85.2839 10.6099C85.3211 10.4056 85.3973 10.2084 85.4615 10.0094C85.5953 9.59724 85.3583 9.2745 84.906 9.30648C84.5388 9.33254 84.1926 9.47644 84.042 8.92867C84.0006 8.77648 83.8266 8.64976 83.9286 8.4502C83.9712 8.3667 84.0402 8.28498 84.141 8.31755C84.3522 8.38506 84.2688 8.59469 84.327 8.7374C84.3792 8.86531 84.36 9.07672 84.5778 9.04296C84.7572 9.01454 84.7434 8.81616 84.7212 8.70661C84.615 8.17306 84.6312 7.58384 84.1146 7.21255C84.0546 7.16932 84.0372 7.11839 84.051 7.06273C84.1788 6.54161 83.82 6.44213 83.4343 6.33435C83.1733 6.26211 83.0287 5.86002 83.2141 5.69243C83.5987 5.34719 83.8386 5.08664 83.0755 4.96939C82.9987 4.95695 82.9531 4.75976 82.8349 4.82371C82.6999 4.89655 82.7503 5.06177 82.7449 5.18908C82.7353 5.40641 82.9255 5.62137 82.7719 5.8843C82.5097 5.39398 82.3328 4.91846 81.9992 4.51223C81.8006 4.26943 81.7028 4.26114 81.608 4.52644C81.512 4.79706 81.371 4.71297 81.2378 4.60224C81.1256 4.50749 81.0459 4.37425 80.9553 4.25581C80.8089 4.06454 80.6871 4.0829 80.5929 4.29667C80.5551 4.38195 80.6109 4.5069 80.4933 4.55841C80.2449 4.45656 80.2677 4.13383 79.9725 3.99348C79.9131 4.43761 79.5382 4.7035 79.501 5.14467C79.3666 5.0517 79.2292 4.94866 79.09 5.14289C79.033 5.22106 78.9388 5.25245 78.8506 5.18316C78.781 5.12868 78.7882 5.04815 78.832 4.98064C78.9664 4.77101 78.9352 4.58033 78.8428 4.35115C78.7714 4.17291 78.7996 3.96209 78.982 3.78503C79.1254 3.64469 79.3216 3.34209 79.2664 3.26037C79.0636 2.95658 79.2988 2.84288 79.429 2.66878C79.5358 2.52488 79.615 2.36322 79.39 2.26255C78.892 2.0393 78.3778 2.23946 78.1217 2.72919C78.0017 2.95776 77.8721 3.197 77.5115 3.04008C77.6369 2.81979 77.6837 2.60364 77.4875 2.39046C77.3933 2.2886 77.4833 2.19504 77.5583 2.11924C77.6105 2.06654 77.6747 2.0091 77.7551 2.05943C77.8517 2.11924 77.7959 2.22287 77.8097 2.30696C77.8265 2.40408 77.7581 2.51659 77.8895 2.61845C78.1211 2.45086 78.3952 2.17846 78.3262 1.9641C78.2465 1.71775 77.8625 1.64314 77.5571 1.60642C77.7731 1.19782 77.6513 1.07701 76.8282 0.827709C76.6308 0.767307 76.512 0.83955 76.371 0.91061C76.0032 1.09596 76.1244 1.46963 76.0698 1.78348C75.6348 1.6384 75.2329 1.52114 74.8573 1.83737C74.8003 1.88533 74.7373 1.94159 74.6659 1.8575C74.3593 1.49568 74.2933 1.83678 74.2309 2.0239C74.1416 2.29216 74.1086 2.50001 73.7852 2.18379C73.628 2.02982 73.3754 2.09911 73.28 2.33124C73.0832 2.80854 73.0928 2.81268 72.5997 2.82749C72.6639 2.69069 72.6585 2.53022 72.7904 2.42481C72.8972 2.33953 72.9398 2.22643 72.854 2.10859C72.7382 1.95047 72.6111 2.08786 72.4863 2.10444C72.2715 2.13287 72.3003 2.45441 71.9673 2.44909C72.2055 2.09674 72.1227 1.77934 72.0267 1.43469C71.9463 1.14511 71.6583 1.09951 71.5365 0.869751C71.4501 0.705719 71.4105 0.362259 71.1796 0.436871C70.957 0.508526 71.0146 0.816456 71.062 1.04148C71.071 1.08353 71.0524 1.13031 71.053 1.17472C71.0572 1.63543 71.0578 1.63544 70.5538 1.57563C70.5388 1.43587 70.6576 1.36718 70.7266 1.27599C70.8268 1.14511 70.8838 1.01306 70.783 0.865013C70.6834 0.719933 70.555 0.80106 70.4188 0.813496C69.8387 0.867977 70.0114 1.30619 69.9742 1.63129C69.9575 1.77341 70.0474 1.98127 69.8591 2.01798C69.6521 2.05884 69.5051 1.8119 69.5021 1.68991C69.4919 1.17828 69.2585 1.39501 69.0335 1.51226C68.9825 1.53891 68.9153 1.55075 68.8475 1.46726C69.1697 1.16643 68.8835 0.885742 68.7833 0.602089C68.7251 0.438648 68.5572 0.419106 68.4858 0.592613C68.4012 0.802246 68.3286 0.755463 68.1588 0.683807C67.941 0.592022 67.6878 0.586693 67.4544 0.529251C67.2882 0.487206 67.0789 0.522736 66.9985 0.301262C66.9043 0.0401154 66.6265 -0.049305 66.4501 0.0259018C66.1327 0.16151 65.6654 -0.0226593 65.4956 0.479507C65.3924 0.784477 65.2898 1.09241 64.9256 1.2979C64.7054 1.42285 64.3143 1.47141 64.2531 1.82967C64.1925 2.18201 64.0071 2.25307 63.7113 2.07661C63.5679 1.99074 63.4185 1.96705 63.4107 2.1601C63.3921 2.65161 62.869 2.96487 62.9764 3.51559C62.68 3.1295 62.4004 3.04185 62.0776 3.4398C61.9366 3.61271 61.7302 3.54047 61.5743 3.46289C61.1699 3.26333 61.0547 3.51441 60.9797 3.81524C60.9317 4.00947 61.0121 4.20074 61.0583 4.38964C61.0991 4.56078 61.1099 4.72008 60.8999 4.87227C60.8873 4.75739 60.8867 4.71475 60.8777 4.67389C60.8297 4.45538 60.9521 4.1131 60.5933 4.09474C60.1596 4.07283 59.6904 4.42518 59.748 4.72008C59.8602 5.29449 59.5674 5.58229 59.1012 5.786C58.9308 5.86061 58.8331 6.00925 58.7089 6.13183C58.3423 5.73033 58.3399 5.72915 58.1827 6.19874C58.1317 6.35034 58.0309 6.406 57.8773 6.41252C57.1184 6.4439 57.1184 6.44509 56.9444 7.1782C56.9 7.36711 56.8466 7.55186 56.8934 7.7538C56.9264 7.89355 56.9672 8.08009 56.6942 8.02205C56.618 8.00607 56.5256 8.01731 56.504 8.1014C56.363 8.64739 55.8465 8.70305 55.4499 8.91209C55.3329 8.81675 55.4307 8.5485 55.2075 8.58817C55.0383 8.61897 55.1031 8.8055 55.1013 8.93282C55.0995 9.01217 55.0953 9.08442 54.9747 9.07731C54.9399 8.78596 54.9243 8.45493 54.5704 8.36492C54.1642 8.2607 54.2722 8.69595 54.1072 8.85051C54.0964 8.86057 54.0934 8.87834 54.0832 8.889C53.554 9.38879 53.2679 9.95906 53.467 10.7093C53.5198 10.9083 53.4484 11.0528 53.1599 10.9148C52.9865 10.8319 52.8125 11.0037 52.7273 11.1665C52.6043 11.4004 52.6769 11.6485 52.7981 11.8534C52.8887 12.0062 53.1095 11.9529 53.2139 11.8801C53.5498 11.6474 53.6746 11.8357 53.7904 12.1045C53.8132 12.1584 53.8522 12.22 53.9008 12.2455C54.0682 12.3343 54.166 12.4634 54.103 12.6458C54.0304 12.853 53.8258 12.8128 53.6716 12.7926C53.1833 12.7287 52.7399 12.8601 52.3031 13.0484C52.1279 13.1236 51.9582 13.1876 52.0061 13.4274C52.0499 13.6448 52.0055 13.9379 52.2185 14.0403C52.4363 14.1452 52.5923 13.8994 52.7291 13.7525C53.1725 13.2741 53.1725 13.2634 53.6104 13.6276C53.779 13.7662 53.8636 13.9829 53.6452 14.1179C53.413 14.2612 53.4904 14.4418 53.473 14.6266C53.4586 14.7746 53.5822 14.8978 53.5096 15.0589C53.3249 15.4722 53.4622 15.7659 53.9332 15.927C53.7406 15.9951 53.6056 16.1124 53.4346 15.9661C53.2955 15.8471 53.1269 15.901 53.0129 15.9898C52.6691 16.2586 52.0853 16.2415 51.9875 16.8153C51.9839 16.8413 51.8544 16.8508 51.7824 16.8626C51.3888 16.9242 51.21 17.1954 51.3222 17.5608C51.3798 17.7468 51.438 17.9315 51.4896 18.1187C51.519 18.2241 51.5232 18.3401 51.399 18.3875C51.2832 18.4307 51.2418 18.3259 51.2058 18.2472C51.1722 18.1737 51.1338 18.1015 51.045 18.1252C50.9478 18.1506 50.8998 18.2371 50.907 18.333C50.9154 18.4509 50.9202 18.5764 50.9664 18.6818C51.1356 19.0655 51.5772 19.3089 51.5568 19.7981C51.555 19.849 51.6498 19.9455 51.7068 19.9508C52.0295 19.9834 51.9983 20.2191 52.0313 20.4364C52.0481 20.5495 52.1147 20.6585 52.1711 20.7633C52.2035 20.8237 52.3085 20.8705 52.2371 20.9445C52.1939 20.9901 52.0787 21.0286 52.0337 21.0037C51.5712 20.7449 51.51 21.0712 51.444 21.3881C51.3876 21.6605 51.2778 21.6456 51.141 21.4443C51.0174 21.2619 50.9316 21.3425 50.8332 21.4668C50.73 21.5971 50.6166 21.7185 50.616 21.8997C50.616 22.0631 50.6178 22.1306 50.3683 22.1058C50.1367 22.0821 49.7575 22.1614 49.7965 22.5783C49.8325 22.9597 50.0839 23.0781 50.4349 23.055C50.4949 23.0515 50.5537 23.0343 50.613 23.0242C50.7204 23.0047 50.8524 22.8869 50.9142 23.0728C50.9598 23.2084 50.868 23.2966 50.7564 23.3636C50.4871 23.5264 50.2291 23.7106 49.9471 23.848C49.5811 24.025 49.7245 24.2939 49.7953 24.5396C49.8865 24.8558 50.1103 24.7226 50.2555 24.6095C50.4427 24.4626 50.5411 24.6877 50.7024 24.648C50.4121 24.9595 50.4301 25.1632 50.7612 25.3704C51.0786 25.5682 51.4392 25.66 51.804 25.6476C52.0061 25.6405 52.3097 25.6713 52.2869 25.2721C52.2749 25.0584 52.6523 24.9648 52.7999 25.1525C52.9721 25.3704 53.1929 25.4433 53.4352 25.4409C53.869 25.4368 53.836 25.766 53.7406 25.9555C53.611 26.2131 53.5726 26.4559 53.5804 26.7265C53.5882 27.0013 53.3992 27.1256 53.1779 27.067C52.9571 27.009 52.9307 27.0333 52.9193 27.2482C52.8809 28.0092 52.9757 28.1104 53.785 28.127C54.2212 28.1365 54.6226 28.1341 54.6814 28.7624C54.7258 29.2445 55.7091 29.4416 56.0265 29.0354C56.2412 28.7606 56.5406 28.6925 56.7944 28.5131C56.9666 28.7506 57.056 29.0005 57.1052 29.2681C57.1256 29.3789 57.1934 29.4653 57.311 29.4795C57.4382 29.4961 57.5108 29.4026 57.5413 29.3013C57.5917 29.1319 57.7033 28.9792 57.6643 28.7837C57.6259 28.5907 57.7285 28.4557 57.8947 28.3284C57.9805 28.6363 58.0957 28.8737 58.4623 28.7837C58.5631 28.7589 58.6381 28.8104 58.7011 28.882C58.9452 29.1621 59.0052 28.9567 59.0766 28.7494C59.127 28.6025 59.1144 28.3438 59.2806 28.3479C59.577 28.3544 59.8722 28.3686 60.1686 28.3396C60.2825 28.3289 60.3341 28.3911 60.3527 28.4924C60.3725 28.6008 60.3197 28.6712 60.2184 28.6896C60.1002 28.7103 59.9754 28.7334 59.859 28.7168C59.6274 28.6843 59.5446 28.7831 59.5686 28.9916C59.5872 29.1544 59.607 29.3208 59.6508 29.4784C59.7468 29.8248 60.0216 29.9746 60.3065 29.7739C60.8993 29.3564 61.4567 28.8891 62.0308 28.4409C62.041 28.8258 62.0518 29.2433 62.2336 29.6329C62.296 29.7673 62.302 29.961 62.4688 29.9841C62.6158 30.0042 62.611 29.8118 62.6608 29.714C62.764 29.5121 62.9302 29.5619 63.0939 29.5666C63.3123 29.5725 63.2499 29.736 63.2799 29.8579C63.3333 30.0818 63.2391 30.4501 63.4983 30.4874C63.8031 30.5324 63.7881 30.1363 63.9147 29.932C64.0527 29.7099 64.0929 29.3499 64.5194 29.4949C64.3395 29.7792 63.9291 29.9331 64.0041 30.3429C64.0389 30.5372 63.9699 30.8593 64.2051 30.8907C64.4732 30.9262 64.5332 30.5958 64.5554 30.4004C64.601 29.9947 64.8644 29.8491 65.1938 29.8307C65.5664 29.8106 65.8495 29.7206 65.9533 29.3031C66.3019 29.8449 66.3877 29.842 66.7069 29.351C66.8233 29.1722 66.8341 28.9993 66.7975 28.7956C66.7705 28.6452 66.6511 28.4728 66.7957 28.3005C66.9907 28.4859 66.8509 28.9152 67.1287 28.872C67.3128 28.8424 67.3812 28.4314 67.317 28.1969C67.1887 27.7291 67.5378 27.5899 67.8084 27.4004C68.0772 27.2121 68.358 27.2115 68.6573 27.3927C69.2501 27.7516 69.3623 28.3272 69.3827 28.9294C69.3899 29.1509 69.3803 29.3647 69.4223 29.5897C69.5669 30.353 69.6761 31.1264 69.6053 31.9039C69.5693 32.2947 69.5543 32.6838 69.5969 33.0693C69.6413 33.475 69.4883 34.3715 69.3149 34.7706C68.034 34.9264 66.5875 35.0549 65.465 35.2604C65.1128 35.3249 65.0864 35.4356 65.0336 35.544C69.4145 35.708 72.6645 35.4919 76.3422 35.5357C76.2534 35.1212 75.723 35.1561 75.3763 35.0827C75.3487 35.0768 75.3217 35.0726 75.2941 35.0709C73.991 34.9832 73.4552 34.882 72.3081 34.7724C72.2913 34.5817 72.2757 34.2418 72.2577 34.134C72.0381 32.8099 72.0381 31.474 72.0231 30.1404C72.0183 29.7549 72.0045 29.3706 72.2469 29.0147C72.8504 28.1294 73.6736 27.4733 74.5297 26.8562C74.7937 26.6649 75.2371 26.8094 75.1939 27.0783C75.1051 27.6237 75.894 28.0098 75.4003 28.5966C75.2899 28.7269 75.5083 28.9205 75.6894 28.9851C75.8916 29.0573 76.1076 29.0609 76.3212 29.0413C76.4724 29.0283 76.6104 29.0319 76.7634 29.0881C77.3183 29.2912 77.6663 29.1835 78.0215 28.7062C78.1589 28.5202 78.3232 28.4651 78.4588 28.6392C78.6736 28.9128 78.9544 29.023 79.2718 29.1053C79.4632 29.155 79.5568 29.5044 79.4308 29.6252C79.1056 29.9379 79.126 30.1582 79.5082 30.4507C79.6617 30.3305 79.4602 30.0984 79.642 29.9817C79.8411 30.112 79.9113 30.5064 80.1783 30.3619C80.4297 30.2251 80.2497 29.9326 80.1645 29.7123C80.1483 29.6708 80.1123 29.6341 80.1051 29.5921C80.0913 29.518 80.0997 29.4357 80.1759 29.399C80.2431 29.3658 80.2713 29.4274 80.3103 29.4754C80.6271 29.8645 80.6733 29.5216 80.7513 29.3078C80.7927 29.1935 80.6955 29.0532 80.8233 28.9081C80.8737 29.0579 80.8995 29.1894 80.9589 29.3037C81.0644 29.5044 81.095 29.8609 81.383 29.7975C81.602 29.7496 81.5474 29.4227 81.5522 29.2036C81.5606 28.7891 81.2684 28.4551 80.9577 28.5871C80.6541 28.7174 80.5767 28.5794 80.5143 28.3663C80.4129 28.0186 80.2095 27.9742 79.8537 27.9701C79.6432 27.9683 79.5346 27.478 79.159 27.5082C79.1446 27.5094 79.129 27.5064 79.114 27.5088C78.2309 27.6699 77.4233 27.4549 76.6584 27.0256C76.4334 26.8994 76.1994 26.7911 75.9744 26.6667C75.8532 26.5998 75.6588 26.6199 75.651 26.4067C75.6408 26.161 76.6518 25.7133 76.7934 26.2954C76.8462 26.511 76.9205 26.7236 77.2067 26.6626C77.4719 26.6063 77.4893 26.3884 77.4713 26.1681C77.4587 26.0159 77.4287 25.843 77.6423 25.8175C77.8163 25.7974 78.0497 25.6701 78.1103 25.9899C78.1289 26.0834 78.2099 26.1432 78.3154 26.1272C78.4228 26.1112 78.4474 26.0201 78.4768 25.933C78.5032 25.856 78.4486 25.7453 78.5554 25.7092C79.2718 26.058 80.0619 26.1758 80.7579 26.5566C81.0512 26.7165 81.1286 26.8532 81.0195 27.1333C80.8905 27.1553 80.8125 27.0256 80.7291 27.0273C80.4975 27.0315 80.2143 26.8852 80.0469 27.0795C79.9161 27.2299 80.0655 27.4543 80.1423 27.6296C80.2827 27.9494 80.5377 27.8647 80.7537 27.7421C80.9829 27.6112 81.1802 27.4656 81.3824 27.7705C81.4082 27.8096 81.4946 27.8327 81.5498 27.8274C81.8294 27.8019 81.9542 27.928 82.013 28.1933C82.0502 28.3615 82.1948 28.4681 82.3982 28.4231C82.5103 28.3982 82.5919 28.3491 82.6051 28.2206C82.6219 28.0506 82.5103 27.9464 82.4228 27.8238C82.373 27.7545 82.2374 27.6598 82.4012 27.5727C82.5025 27.5183 82.6135 27.5277 82.6705 27.6491C82.7353 27.7889 82.8133 27.9091 82.9609 27.9813C83.3641 28.1779 83.6611 28.6825 84.2298 28.4006C84.2514 28.3899 84.309 28.4379 84.3426 28.4663C84.5658 28.6647 84.7998 28.6102 85.0116 28.4675C85.2071 28.3372 85.2959 28.3366 85.4057 28.5753C85.4933 28.766 85.7345 29.039 85.9259 28.8128C86.1737 28.5196 86.4305 28.175 86.4737 27.7682C86.4947 27.565 86.2799 27.4679 86.0987 27.4371C85.9103 27.4052 85.8947 27.5532 85.8881 27.7006C85.8761 27.9725 85.7447 28.0074 85.5359 27.8528C85.3661 27.7273 85.2311 27.6053 85.2155 27.3548C85.2048 27.1677 85.2078 26.9243 84.9882 26.7988C84.9108 26.7544 84.8328 26.6916 84.7398 26.7638C84.6612 26.8248 84.7092 26.8977 84.726 26.9675C84.7968 27.2666 84.87 27.5639 85.1436 27.7646C84.6498 28.0595 84.663 28.0583 84.6288 27.526C84.6108 27.2618 84.5136 27.0149 84.1602 27.0771C84.0222 27.1008 83.8932 27.1043 83.7571 27.0741C83.6329 27.0475 83.5243 27.1025 83.5573 27.2358C83.5915 27.3773 83.5735 27.4673 83.4409 27.5307C83.3719 27.5639 83.3329 27.5271 83.2909 27.478C83.1691 27.3365 83.2789 27.2476 83.3461 27.1262C83.5225 26.8082 83.3125 26.4233 83.0023 26.5157C82.6507 26.6211 82.4875 26.4849 82.283 26.2516C82.0334 25.9685 81.6374 26.0124 81.3056 25.9804C81.0854 25.9591 81.3494 26.2759 81.1436 26.3884C80.5785 26.1 79.9737 25.8525 79.3168 25.6612C79.474 25.4895 79.6132 25.5179 79.7493 25.5161C80.3415 25.5096 80.9331 25.4865 81.5258 25.4924C81.851 25.496 82.118 25.2798 82.4935 25.3906C83.1337 25.5795 83.6857 25.9419 84.231 26.2611C84.7548 26.5678 85.2126 26.2948 85.7099 26.4358C85.0158 26.1622 85.3475 25.6049 85.2827 25.1721C85.8209 25.7779 85.7309 26.6158 86.0933 27.4229C86.2373 26.8467 86.5223 26.8153 86.941 26.9237C87.22 26.9954 87.544 26.9296 87.8416 26.8834C88.0077 26.8586 88.2531 26.7763 88.1889 26.5613C88.1391 26.3925 87.9418 26.2469 87.727 26.2486C87.0082 26.2557 87.01 26.2623 87.0904 25.631C87.1012 25.5475 87.0502 25.4362 87.1798 25.4154C87.2662 25.4012 87.3022 25.4841 87.3352 25.551C87.4534 25.7927 87.6748 25.9377 87.8842 26.0769C88.1667 26.2646 88.4745 26.1876 88.7451 26.0354C88.9605 25.9141 88.7955 25.7003 88.7673 25.5617C88.6851 25.1584 88.3365 25.4403 88.0893 25.3882C88.1367 25.3278 88.1613 25.2917 88.1907 25.2597C88.2813 25.162 88.5237 25.1744 88.4469 24.9595C88.3779 24.7676 88.1955 24.7759 88.0227 24.7895C87.8266 24.8061 87.6304 24.8126 87.4336 24.8244C87.361 24.8286 87.2704 24.8588 87.2452 24.7605C87.2164 24.6468 87.3028 24.603 87.3976 24.5793C87.4414 24.5674 87.4888 24.568 87.5314 24.5532C87.6208 24.5207 87.7798 24.574 87.7786 24.4224C87.7768 24.266 87.6292 24.2607 87.5074 24.2465C87.4468 24.24 87.3826 24.2429 87.3268 24.2234C87.1702 24.1713 86.9722 24.1393 86.9548 23.9421C86.9368 23.7497 87.1372 23.723 87.2674 23.6715C87.5362 23.5655 87.8074 23.4678 88.0407 23.2949C88.2105 23.1699 88.3569 23.0515 88.6053 23.1604C88.8189 23.2546 88.9113 23.0876 88.8855 22.8963C88.8315 22.496 88.7547 22.0987 88.3263 21.9015C88.0299 21.7653 88.3197 21.4692 88.1529 21.2992C88.3281 21.208 88.2309 20.8948 88.5573 20.8918C89.0403 20.8877 89.1297 20.7675 88.9359 20.3215C88.7901 19.9846 88.9827 19.7815 89.1561 19.6476C89.3522 19.4961 89.6432 19.4783 89.8772 19.322C89.9708 19.2592 90.2582 19.438 90.2822 19.1348C90.299 18.9305 90.3026 18.7055 90.2312 18.5196Z" fill="white"/>
<path d="M65.8419 17.5247L65.8437 17.5259C65.8443 17.5223 65.8449 17.5194 65.8455 17.5164L65.8419 17.5247Z" fill="white"/>
<path d="M52.5831 26.9506C52.4422 26.8926 52.408 27.062 52.408 27.1881C52.408 27.5416 52.6287 27.7785 52.9689 27.7667C53.0823 27.7317 53.3271 27.7353 53.2617 27.5564C53.1525 27.2615 52.8717 27.0691 52.5831 26.9506Z" fill="white"/>
<path d="M65.8413 17.5254L65.8454 17.5165C65.8436 17.5177 65.8419 17.5195 65.8401 17.5207C65.8407 17.5224 65.8413 17.5236 65.8413 17.5254Z" fill="white"/>
<path d="M65.3292 16.8095C65.1714 17.0363 65.2278 17.3532 65.3567 17.5782C65.4965 17.8222 65.6873 17.6398 65.8403 17.5202C65.7953 17.3384 65.7623 17.1518 65.7035 16.9736C65.6417 16.787 65.4083 16.6953 65.3292 16.8095Z" fill="white"/>
<path d="M66.0411 11.7197C65.8335 11.7576 65.8881 11.9382 65.8689 12.0774C65.9019 12.1798 65.8263 12.3776 65.9841 12.3652C66.2517 12.3438 66.1347 12.0566 66.2193 11.9009C66.2733 11.8002 66.1665 11.6966 66.0411 11.7197Z" fill="white"/>
<path d="M64.1316 14.6977C64.1706 14.5254 64.2924 14.2541 64.044 14.2097C63.8646 14.1772 63.7014 14.4211 63.627 14.6201C63.5928 14.7137 63.6102 14.8262 63.6048 14.9304C63.6048 15.0335 63.5952 15.1377 63.6078 15.2401C63.6222 15.368 63.6162 15.5398 63.7884 15.554C63.9378 15.567 63.936 15.3988 63.9936 15.3011C64.1034 15.1122 64.0848 14.8978 64.1316 14.6977Z" fill="white"/>
<path d="M63.4023 15.9581C63.3735 15.8764 63.3405 15.771 63.2235 15.8024C63.1095 15.8337 63.0651 15.9291 63.0867 16.0724C63.1989 16.282 63.0669 16.5947 63.3219 16.7872C63.3939 16.8422 63.4647 16.9174 63.5589 16.8695C63.6555 16.8209 63.6441 16.7114 63.6213 16.6314C63.5577 16.404 63.4803 16.1808 63.4023 15.9581Z" fill="white"/>
<path d="M60.5904 22.2323C60.4512 22.2198 60.4164 22.3543 60.429 22.4549C60.45 22.6178 60.4236 22.8576 60.6306 22.8848C60.7938 22.9056 60.7674 22.6888 60.7998 22.5674C60.813 22.4022 60.7878 22.2488 60.5904 22.2323Z" fill="white"/>
<path d="M80.0445 20.6476C79.8765 20.6701 79.6935 20.721 79.6539 20.9058C79.5969 21.1717 79.5753 21.4837 79.7763 21.6744C80.0643 21.948 80.1309 22.3181 80.0811 22.6101C80.0049 23.0554 80.1837 23.429 80.2275 23.8365C80.2569 24.1124 80.4063 24.277 80.6883 24.2154C80.8257 24.2533 80.9456 24.2622 81.011 24.1657C81.2702 23.7897 81.4244 23.3817 81.3908 22.9115C81.3338 22.0943 80.6805 21.5625 80.4039 20.8519C80.3373 20.6819 80.2089 20.6257 80.0445 20.6476Z" fill="white"/>
<path d="M77.0248 13.3351C77.1322 13.3262 77.2054 13.2072 77.197 13.1C77.188 12.978 77.068 12.943 76.9636 12.9164C76.8664 12.8921 76.7656 12.8785 76.6126 12.8501C76.9444 12.5196 76.6954 12.2401 76.63 11.9358C76.4015 11.9896 76.3457 12.1874 76.2167 12.3053C75.7517 12.7334 75.7613 12.8418 76.4105 13.5103C76.6702 13.778 76.8022 13.3534 77.0248 13.3351Z" fill="white"/>
<path d="M70.7165 16.1664C70.9073 16.1747 71.4041 15.5221 71.3717 15.348C71.3495 15.2261 71.2643 15.2243 71.1731 15.216C70.9997 15.1994 70.8809 15.2687 70.8161 15.4292C70.7279 15.6471 70.5533 15.8431 70.6349 16.1037C70.6451 16.1344 70.6985 16.1528 70.7165 16.1664Z" fill="white"/>
<path d="M58.7116 85.5922H60.2715L59.0158 86.5219L59.5023 88L58.2514 87.0898L57.0047 88L57.4949 86.5219L56.2266 85.5922H57.7817L58.2514 84.152L58.7116 85.5922Z" fill="white"/>
<path d="M64.5874 85.5922H66.1491L64.8886 86.5219L65.3757 88L64.126 87.0898L62.8769 88L63.3713 86.5219L62.1 85.5922H63.6563L64.126 84.152L64.5874 85.5922Z" fill="white"/>
<path d="M70.4634 85.5922H72.0238L70.7639 86.5219L71.2523 88L70.002 87.0898L68.7511 88L69.2448 86.5219L67.9783 85.5922H69.534L70.002 84.152L70.4634 85.5922Z" fill="white"/>
<path d="M76.3376 85.5922H77.895L76.6423 86.5219L77.1301 88L75.8792 87.0898L74.6283 88L75.1196 86.5219L73.8555 85.5922H75.4094L75.8792 84.152L76.3376 85.5922Z" fill="white"/>
<path d="M82.2159 85.5922H83.7728L82.5153 86.5219L83.0042 88L81.7521 87.0898L80.5036 88L80.998 86.5219L79.7303 85.5922H81.283L81.7521 84.152L82.2159 85.5922Z" fill="white"/>
<path d="M4.40368 54.077C3.21217 54.1587 3.07718 54.2612 3.07718 55.5492V60.9291C3.07718 62.8418 2.7874 63.9462 1.66788 64.918C1.14052 65.3982 0.601157 65.6748 0.196786 65.7974L0 65.3473C0.860338 64.9482 1.31631 64.2737 1.48189 63.3937C1.61628 62.6369 1.64748 61.7475 1.64748 60.5098V55.5492C1.64748 54.2612 1.50229 54.1587 0.259181 54.077V53.627H4.40368V54.077Z" fill="white"/>
<path d="M10.2229 55.4581H10.1917C9.69436 56.6958 9.20779 57.9737 8.74103 59.1806H11.5806L10.2229 55.4581ZM11.7456 63.353V62.9237C12.7097 62.7911 12.8441 62.6578 12.6365 62.0544C12.4194 61.4616 12.1392 60.7143 11.808 59.8556H8.48245C8.22326 60.5408 8.01568 61.1235 7.81889 61.7163C7.48712 62.627 7.61131 62.8011 8.78242 62.9237V63.353H5.36267V62.9237C6.3682 62.7703 6.58598 62.6679 7.13554 61.339L10.3885 53.5353L10.9273 53.4021C11.922 56.0509 12.9167 58.7098 13.9427 61.339C14.44 62.6578 14.6578 62.8213 15.6621 62.9237V63.353H11.7456Z" fill="white"/>
<path d="M20.7046 58.6176C21.4815 58.6176 21.9993 58.495 22.3929 58.1876C22.9838 57.7382 23.222 57.1549 23.222 56.3472C23.222 54.7412 22.1553 54.1484 21.0046 54.1484C20.5384 54.1484 20.29 54.21 20.1754 54.2917C20.0722 54.3734 20.0104 54.5469 20.0104 54.936V58.6176H20.7046ZM26.4552 63.4858C26.268 63.4858 26.0922 63.4752 25.9056 63.455C24.6523 63.3935 24.0097 63.0666 23.2946 62.0842C22.7666 61.3582 22.2585 60.4486 21.7917 59.7326C21.5127 59.3027 21.2427 59.1191 20.4448 59.1191H20.0104V61.4505C20.0104 62.7083 20.155 62.8208 21.3981 62.9233V63.3526H17.202V62.9233C18.4559 62.8208 18.6005 62.7083 18.6005 61.4505V55.5193C18.6005 54.2402 18.4667 54.1585 17.2644 54.0768V53.6267H21.2331C22.4037 53.6267 23.1602 53.7599 23.7506 54.1484C24.3829 54.5369 24.7765 55.2013 24.7765 56.1127C24.7765 57.4107 23.9263 58.1876 22.8176 58.6484C23.0876 59.1393 23.7194 60.1205 24.1861 60.8062C24.7453 61.5932 25.0765 62.0125 25.4394 62.3808C25.8336 62.8208 26.175 62.9849 26.5278 63.0666L26.4552 63.4858Z" fill="white"/>
<path d="M30.9161 61.3284C30.9161 62.5145 31.4447 62.7911 32.584 62.7911C35.4752 62.7911 36.8635 60.7143 36.8635 58.3622C36.8635 56.8184 36.2527 55.5493 35.1122 54.8441C34.3976 54.3739 33.4647 54.1488 32.356 54.1488C31.6618 54.1488 31.2785 54.2513 31.1129 54.3537C30.9677 54.4556 30.9161 54.6398 30.9161 55.2225V61.3284ZM32.719 53.6271C34.6982 53.6271 36.2107 54.0257 37.1748 54.905C37.941 55.6316 38.5007 56.726 38.5007 58.1271C38.5007 59.8965 37.7652 61.236 36.5527 62.1154C35.3612 62.9646 33.7761 63.353 31.8586 63.353H28.0039V62.9237C29.3304 62.8313 29.4654 62.7395 29.4654 61.4616V55.5298C29.4654 54.2406 29.3304 54.1796 28.1389 54.0867V53.6271H32.719Z" fill="white"/>
<path d="M40.4445 63.353V62.9237C41.7086 62.8313 41.8436 62.7395 41.8436 61.451V55.5493C41.8436 54.2513 41.7086 54.1589 40.4445 54.0772V53.6271H44.6718V54.0772C43.4184 54.1589 43.2835 54.2513 43.2835 55.5493V61.451C43.2835 62.7395 43.4184 62.8313 44.6718 62.9237V63.353H40.4445Z" fill="white"/>
<path d="M57.3083 54.077C56.448 54.1179 56.0754 54.292 56.0028 54.9771C55.9506 55.458 55.9098 56.1325 55.9098 57.5235V63.5068H55.4125L48.6048 55.7138H48.5838L48.5736 59.3646C48.5736 60.7455 48.636 61.4508 48.6768 61.8801C48.7494 62.6577 49.1021 62.8418 50.1694 62.9235V63.3529H46.4599V62.9235C47.3509 62.8625 47.745 62.6677 47.8176 61.9216C47.8794 61.4508 47.9418 60.7455 47.9418 59.3646V56.1532C47.9418 55.0589 47.8896 54.9771 47.61 54.6189C47.2891 54.2511 46.9573 54.128 46.2319 54.077V53.627H48.615L55.2157 61.0108H55.2565V57.5235C55.2565 56.1325 55.1947 55.458 55.1533 55.0275C55.0807 54.3222 54.7183 54.128 53.6096 54.077V53.627H57.3083V54.077Z" fill="white"/>
<path d="M64.7327 55.9694C64.4639 55.0078 63.9869 53.9241 62.6814 53.9241C61.5205 53.9241 60.9716 54.7318 60.9716 55.5496C60.9716 56.6031 61.6867 57.1153 62.9508 57.7175C64.2665 58.3518 65.6344 59.0582 65.6344 60.7045C65.6344 62.3099 64.2455 63.5884 62.1319 63.5884C61.4899 63.5884 60.9716 63.4759 60.578 63.3426C60.1844 63.22 59.9666 63.0975 59.8112 63.0258C59.7075 62.7297 59.4795 61.3689 59.3865 60.6435L59.8526 60.5102C60.1118 61.4613 60.8684 63.0258 62.4535 63.0258C63.5826 63.0258 64.2455 62.3407 64.2455 61.267C64.2455 60.1828 63.417 59.6717 62.2357 59.0582C61.1581 58.5259 59.6763 57.7797 59.6763 56.1323C59.6763 54.64 60.899 53.4024 62.9202 53.4024C63.6552 53.4024 64.3493 53.5759 64.9295 53.7606C64.9925 54.2924 65.0645 54.9053 65.1989 55.8871L64.7327 55.9694Z" fill="white"/>
<path d="M73.3877 61.3284C73.3877 62.5145 73.9162 62.7911 75.0555 62.7911C77.9467 62.7911 79.3344 60.7143 79.3344 58.3622C79.3344 56.8184 78.7237 55.5493 77.5837 54.8441C76.8686 54.3739 75.9363 54.1488 74.8275 54.1488C74.1334 54.1488 73.75 54.2513 73.5844 54.3537C73.4392 54.4556 73.3877 54.6398 73.3877 55.2225V61.3284ZM75.1905 53.6271C77.1692 53.6271 78.6817 54.0257 79.6458 54.905C80.4125 55.6316 80.9723 56.726 80.9723 58.1271C80.9723 59.8965 80.2362 61.236 79.0242 62.1154C77.8321 62.9646 76.247 63.353 74.3302 63.353H70.4755V62.9237C71.802 62.8313 71.9364 62.7395 71.9364 61.4616V55.5298C71.9364 54.2406 71.802 54.1796 70.6105 54.0867V53.6271H75.1905Z" fill="white"/>
<path d="M87.2582 53.9643C85.5177 53.9643 83.8594 55.3654 83.8594 58.1984C83.8594 60.9496 85.5069 63.0258 87.7351 63.0258C89.4756 63.0258 91.0709 61.6549 91.0709 58.7616C91.0709 55.6212 89.31 53.9643 87.269 53.9643H87.2582ZM87.6001 53.4024C90.3251 53.4024 92.7916 55.3654 92.7916 58.3624C92.7916 61.5939 90.3359 63.5884 87.3932 63.5884C84.481 63.5884 82.1603 61.4713 82.1603 58.5875C82.1603 55.8771 84.2218 53.4024 87.5899 53.4024H87.6001Z" fill="white"/>
<path d="M104.649 60.9388C104.545 61.4505 104.223 62.8924 104.068 63.3525H96.9188V62.9238C98.2447 62.8308 98.3797 62.729 98.3797 61.4197V55.5488C98.3797 54.2508 98.2759 54.1584 96.9908 54.0767V53.6266H101.188V54.0767C99.9648 54.1584 99.8196 54.2401 99.8196 55.5488V61.3688C99.8196 62.1865 99.8922 62.4732 100.183 62.6271C100.483 62.7906 101.012 62.8208 101.623 62.8208C102.441 62.8208 102.99 62.729 103.343 62.3399C103.633 62.0539 103.923 61.5636 104.182 60.847L104.649 60.9388Z" fill="white"/>
<path d="M110.653 55.4581H110.622C110.125 56.6958 109.638 57.9737 109.172 59.1806H112.011L110.653 55.4581ZM112.177 63.353V62.9237C113.141 62.7911 113.275 62.6578 113.068 62.0544C112.851 61.4616 112.57 60.7143 112.239 59.8556H108.913C108.654 60.5408 108.446 61.1235 108.249 61.7163C107.918 62.627 108.042 62.8011 109.214 62.9237V63.353H105.794V62.9237C106.799 62.7703 107.017 62.6679 107.566 61.339L110.819 53.5353L111.358 53.4021C112.353 56.0509 113.347 58.7098 114.373 61.339C114.871 62.6578 115.088 62.8213 116.093 62.9237V63.353H112.177Z" fill="white"/>
<path d="M127.663 59.2519C126.741 59.3952 126.689 59.4668 126.689 60.377V61.6253C126.689 62.147 126.7 62.6273 126.793 63.0057C125.809 63.2307 124.482 63.5884 123.187 63.5884C119.664 63.5884 117.301 61.5329 117.301 58.5567C117.301 55.1203 120.245 53.4024 123.394 53.4024C124.741 53.4024 125.995 53.7393 126.524 53.8524C126.565 54.3741 126.637 55.202 126.762 56.2655L126.306 56.368C125.933 54.5068 124.71 53.9549 123.156 53.9549C120.783 53.9549 119.022 55.6319 119.022 58.3624C119.022 60.5209 120.348 63.0365 123.384 63.0365C123.892 63.0365 124.389 62.934 124.72 62.77C125.052 62.5959 125.239 62.3815 125.239 61.8089V60.5819C125.239 59.4769 125.146 59.375 123.571 59.2519V58.8225H127.663V59.2519Z" fill="white"/>
<path d="M134.467 53.9643C132.726 53.9643 131.068 55.3654 131.068 58.1984C131.068 60.9496 132.716 63.0258 134.944 63.0258C136.684 63.0258 138.279 61.6549 138.279 58.7616C138.279 55.6212 136.518 53.9643 134.477 53.9643H134.467ZM134.809 53.4024C137.534 53.4024 140 55.3654 140 58.3624C140 61.5939 137.544 63.5884 134.602 63.5884C131.689 63.5884 129.369 61.4713 129.369 58.5875C129.369 55.8771 131.43 53.4024 134.798 53.4024H134.809Z" fill="white"/>
</svg>
