<svg width="291" height="88" viewBox="0 0 291 88" fill="none" xmlns="http://www.w3.org/2000/svg">
<g clip-path="url(#clip0_3851_8830)">
<path fill-rule="evenodd" clip-rule="evenodd" d="M173.4 39.1179C172.878 39.1179 172.384 38.9851 171.929 38.7249L172.404 37.84C172.656 38.0185 172.967 38.1098 173.333 38.1098C174.289 38.1098 175.448 37.4757 176.024 36.8394L176.738 37.6021C176.358 37.9462 174.955 39.1179 173.4 39.1179Z" fill="white"/>
<path fill-rule="evenodd" clip-rule="evenodd" d="M0.371795 50.1103V46.4975L2.86388 49.9945C2.94674 50.122 3.08271 50.207 3.23462 50.224C3.76256 50.2835 4.52952 50.3483 4.96081 50.3483C7.26912 50.3483 9.28531 49.5261 9.28531 47.4068C9.28531 45.8719 8.03927 45.0932 5.91685 44.2721L3.63509 43.3851C1.77824 42.6712 0 41.3094 0 39.1902C0 36.8117 2.41454 35.0601 5.73095 35.0601C7.19051 35.0601 8.51623 35.212 10.2945 35.5795V39.188L7.78007 35.7346C7.69722 35.6124 7.56656 35.5328 7.41784 35.5136C6.99187 35.4584 6.38425 35.4064 6.07513 35.4064C3.74132 35.4064 2.14897 36.5525 2.14897 38.3903C2.14897 39.8605 3.36952 40.6827 4.77597 41.2234L7.53469 42.3037C9.92161 43.2119 11.5936 44.2498 11.5936 46.2394C11.5936 48.7262 9.20564 50.6946 5.27949 50.6946C3.66059 50.6946 1.85685 50.4991 0.371795 50.1103Z" fill="white"/>
<path fill-rule="evenodd" clip-rule="evenodd" d="M27.1041 44.7693H33.073L30.1029 37.5257L27.1041 44.7693ZM25.8166 47.8988C25.7316 48.107 25.7975 48.346 25.9781 48.4841L28.3246 50.478H22.3557L25.0284 48.3354C25.1049 48.2801 25.1633 48.2047 25.1994 48.1186L29.5983 37.4067C29.6779 37.2144 29.628 36.9935 29.4729 36.8522L27.9528 35.2769H32.0128L37.5398 48.5999C37.5685 48.6689 37.6131 48.7305 37.6694 48.7815L39.3351 50.478H32.7277L34.4167 48.961C34.5952 48.8219 34.6589 48.5839 34.5729 48.3778L33.2334 45.1581H26.9458L25.8166 47.8988Z" fill="white"/>
<path fill-rule="evenodd" clip-rule="evenodd" d="M87.4673 42.8667C87.4673 37.3747 85.2652 35.4276 82.4534 35.4064C79.6416 35.4064 77.4384 37.3747 77.4384 42.8667C77.4384 48.3586 79.6416 50.327 82.4534 50.3483C85.2652 50.3483 87.4673 48.3586 87.4673 42.8667ZM90.6244 42.8667C90.6244 47.7106 87.6787 50.6946 82.4534 50.6946C77.226 50.6946 74.2559 47.7106 74.2559 42.8667C74.2559 38.0227 77.226 35.0601 82.4534 35.0601C87.6787 35.0601 90.6244 38.0227 90.6244 42.8667Z" fill="white"/>
<path fill-rule="evenodd" clip-rule="evenodd" d="M111.089 49.1321L113.577 50.477H105.299L107.786 49.1321C107.954 49.0418 108.058 48.8666 108.058 48.6764L108.049 44.3137C108.049 44.2096 108.017 44.1076 107.959 44.0226L103.185 37.0562C103.163 37.0223 103.136 36.9925 103.106 36.9649L101.245 35.2759H107.624L106.324 36.1501C106.085 36.3105 106.023 36.6345 106.186 36.8725L110.58 43.2769L114.234 37.6416C114.369 37.4344 114.338 37.1603 114.159 36.9883L112.386 35.2759H117.687L114.984 37.4472C114.94 37.4822 114.903 37.5247 114.872 37.5714L110.9 43.7549C110.847 43.8378 110.819 43.9344 110.819 44.0343V48.6775C110.819 48.8676 110.923 49.0418 111.089 49.1321Z" fill="white"/>
<path fill-rule="evenodd" clip-rule="evenodd" d="M58.108 35.2769L60.4546 37.2707C60.6362 37.4088 60.7021 37.6478 60.616 37.8561L56.3298 48.2291L51.8597 37.377C51.7737 37.1709 51.8374 36.9329 52.0169 36.7938L53.7049 35.2769H47.0986L48.7643 36.9733C48.8206 37.0243 48.8641 37.0859 48.8928 37.155L54.4198 50.478H55.9675L61.2343 37.6362C61.2693 37.5501 61.3288 37.4747 61.4053 37.4195L64.0769 35.2769H58.108Z" fill="white"/>
<path fill-rule="evenodd" clip-rule="evenodd" d="M96.5868 28.2806L96.0206 28.8309L92.1677 24.8675L92.7339 24.3173L94.3549 25.984L96.6197 23.783L94.9987 22.1163L95.5649 21.5649L99.4177 25.5283L98.8515 26.0796L97.1083 24.2854L94.8436 26.4875L96.5868 28.2806Z" fill="white"/>
<path fill-rule="evenodd" clip-rule="evenodd" d="M103.213 20.0573C102.603 18.9504 101.392 18.6052 100.331 19.1894C99.2697 19.7737 98.9139 20.9815 99.5225 22.0894C100.128 23.1878 101.344 23.5405 102.404 22.9562C103.466 22.373 103.818 21.1567 103.213 20.0573ZM98.831 22.4697C98.0481 21.0473 98.5166 19.387 99.9921 18.5744C101.476 17.7575 103.122 18.2536 103.904 19.6759C104.688 21.0983 104.227 22.7544 102.743 23.5713C101.268 24.3839 99.6139 23.8921 98.831 22.4697Z" fill="white"/>
<path fill-rule="evenodd" clip-rule="evenodd" d="M105.922 16.9353L104.403 17.3666L104.211 16.691L108.01 15.6128L108.202 16.2884L106.682 16.7197L108.001 21.3629L107.241 21.5785L105.922 16.9353Z" fill="white"/>
<path fill-rule="evenodd" clip-rule="evenodd" d="M111.023 17.576L113.167 17.3986L113.224 18.0986L111.082 18.276L111.226 20.0256L113.807 19.8121L113.865 20.5111L110.498 20.7904L110.041 15.2794L113.408 15L113.467 15.7L110.886 15.9136L111.023 17.576Z" fill="white"/>
<path fill-rule="evenodd" clip-rule="evenodd" d="M118.386 20.9147L115.069 20.5524L115.67 15.0552L116.455 15.1402L115.931 19.9406L118.462 20.2168L118.386 20.9147Z" fill="white"/>
<path fill-rule="evenodd" clip-rule="evenodd" d="M121.023 21.0111C121.727 21.2278 122.212 21.0834 122.395 20.4885C122.757 19.3136 119.827 18.9259 120.372 17.1562C120.668 16.2001 121.538 15.9356 122.536 16.2437C123.249 16.4636 124.111 17.0032 123.737 18.2195L122.981 17.9869C123.17 17.375 122.791 17.0563 122.33 16.914C121.768 16.7408 121.305 16.8099 121.14 17.3474C120.779 18.5212 123.719 18.8749 123.163 20.6786C122.848 21.7016 121.906 22.0182 120.832 21.6867C119.801 21.3691 119.117 20.6999 119.44 19.6514L120.194 19.8841C120.008 20.4874 120.511 20.8539 121.023 21.0111Z" fill="white"/>
<path fill-rule="evenodd" clip-rule="evenodd" d="M130.607 23.0591L130.226 23.6487L129.526 23.1962L129.011 23.9918C128.462 24.8395 127.429 24.9022 126.455 24.2733C125.475 23.6391 125.094 22.6926 125.647 21.8375C126.029 21.2469 126.611 21.0907 127.239 21.2352C127.001 20.7784 126.984 20.2547 127.299 19.7682C127.809 18.98 128.699 18.929 129.554 19.4825C130.35 19.9966 130.78 20.8188 130.218 21.6888L129.592 21.283C129.916 20.7816 129.639 20.3206 129.196 20.0348C128.754 19.7491 128.235 19.6949 127.901 20.2112C127.549 20.7561 127.843 21.2713 128.285 21.5571L128.506 21.7005L128.149 22.2529L127.876 22.0765C127.345 21.7334 126.72 21.6325 126.335 22.2295C125.958 22.8116 126.296 23.3863 126.828 23.7294C127.359 24.0736 127.994 24.1076 128.348 23.5626L129.243 22.1764L130.607 23.0591Z" fill="white"/>
<path fill-rule="evenodd" clip-rule="evenodd" d="M133.181 26.1494L133.752 26.8165C134.094 27.217 134.651 27.49 135.252 26.9769C135.851 26.4638 135.662 25.8764 135.318 25.4759L134.749 24.8099L133.181 26.1494ZM132.842 30.0065L133.212 27.2659L133.189 27.2393L132.647 26.6051L131.08 27.9457L130.567 27.3455L134.769 23.7529L135.824 24.9873C136.622 25.92 136.564 26.893 135.765 27.5771C135.185 28.0732 134.511 28.1635 133.879 27.8161L133.474 30.7469L132.842 30.0065Z" fill="white"/>
<path fill-rule="evenodd" clip-rule="evenodd" d="M136.89 30.4861L137.923 32.3727L137.307 32.7105L136.274 30.8239L134.734 31.6674L135.978 33.9396L135.362 34.2763L133.739 31.3115L138.59 28.6548L140.213 31.6196L139.598 31.9574L138.354 29.6852L136.89 30.4861Z" fill="white"/>
<path fill-rule="evenodd" clip-rule="evenodd" d="M136.865 36.671C137.088 37.3742 137.483 37.6908 138.077 37.5017C139.248 37.1299 137.899 34.5019 139.663 33.941C140.617 33.6382 141.331 34.2044 141.646 35.1998C141.873 35.9104 141.918 36.927 140.706 37.3126L140.466 36.5595C141.077 36.3651 141.124 35.8722 140.977 35.4112C140.799 34.8513 140.48 34.5104 139.945 34.6803C138.773 35.0521 140.156 37.6706 138.358 38.2411C137.338 38.565 136.541 37.9712 136.201 36.9005C135.874 35.8711 136.035 34.9268 137.081 34.5953L137.32 35.3485C136.717 35.5397 136.703 36.1611 136.865 36.671Z" fill="white"/>
<path fill-rule="evenodd" clip-rule="evenodd" d="M140.239 44.1557C141.501 44.0622 142.319 43.104 142.229 41.8952C142.139 40.6863 141.188 39.8588 139.927 39.9523C138.675 40.0447 137.849 41.0039 137.938 42.2128C138.027 43.4217 138.986 44.2481 140.239 44.1557ZM139.869 39.1641C141.49 39.044 142.805 40.1616 142.929 41.8431C143.055 43.5332 141.917 44.8239 140.297 44.9439C138.677 45.0639 137.362 43.9549 137.238 42.2649C137.112 40.5833 138.25 39.2841 139.869 39.1641Z" fill="white"/>
<path fill-rule="evenodd" clip-rule="evenodd" d="M139.952 47.3828L139.801 48.2475C139.711 48.7659 139.856 49.3703 140.634 49.5052C141.412 49.6412 141.743 49.1196 141.833 48.6012L141.984 47.7365L139.952 47.3828ZM136.764 49.5806L139.111 48.1189L139.117 48.0839L139.26 47.2628L137.229 46.909L137.364 46.1304L142.81 47.0779L142.533 48.6777C142.321 49.8887 141.535 50.4644 140.499 50.2838C139.747 50.1532 139.247 49.6922 139.112 48.9826L136.597 50.5409L136.764 49.5806Z" fill="white"/>
<path fill-rule="evenodd" clip-rule="evenodd" d="M140.437 53.8292L141.011 52.3579L141.665 52.6129L140.228 56.2926L139.575 56.0366L140.149 54.5653L135.652 52.8094L135.939 52.0732L140.437 53.8292Z" fill="white"/>
<path fill-rule="evenodd" clip-rule="evenodd" d="M134.304 56.7524C133.911 57.3759 133.924 57.8816 134.451 58.2141C135.49 58.8695 136.628 56.1426 138.195 57.1305C139.041 57.6638 139.068 58.5742 138.512 59.4569C138.115 60.0879 137.368 60.7794 136.291 60.1006L136.712 59.4325C137.254 59.7735 137.661 59.4909 137.918 59.083C138.231 58.5848 138.286 58.1216 137.811 57.8221C136.772 57.1667 135.663 59.9116 134.066 58.9056C133.161 58.3341 133.102 57.343 133.701 56.3923C134.277 55.4798 135.102 54.9932 136.029 55.5786L135.609 56.2467C135.074 55.91 134.59 56.2988 134.304 56.7524Z" fill="white"/>
<path fill-rule="evenodd" clip-rule="evenodd" d="M132.677 61.161C132.824 61.3002 132.824 61.5296 132.691 61.6698C132.558 61.8101 132.335 61.8164 132.189 61.6773C132.048 61.5445 132.042 61.3214 132.175 61.1812C132.307 61.041 132.537 61.0282 132.677 61.161Z" fill="white"/>
<path fill-rule="evenodd" clip-rule="evenodd" d="M127.783 63.1479C127.062 63.6641 126.803 64.2813 127.299 64.9739C128.192 66.2242 130.29 64.0104 131.332 65.4668C131.873 66.2242 131.565 66.9848 130.823 67.5159C130.287 67.8983 129.427 68.1905 128.778 67.2833L129.063 67.0793C129.554 67.7645 130.183 67.5733 130.633 67.2514C131.219 66.8329 131.48 66.2784 131.052 65.6782C130.172 64.4502 128.101 66.699 127.017 65.1853C126.41 64.3365 126.731 63.5016 127.594 62.8833C128.209 62.4446 129.203 62.144 129.81 62.9928L129.524 63.1967C129.055 62.5402 128.248 62.8164 127.783 63.1479Z" fill="white"/>
<path fill-rule="evenodd" clip-rule="evenodd" d="M125.061 64.5635L127.605 69.4021L127.294 69.5646L124.75 64.7271L125.061 64.5635Z" fill="white"/>
<path fill-rule="evenodd" clip-rule="evenodd" d="M122.995 65.6181L123.329 65.5098L125.02 70.7085L124.686 70.8179L119.695 67.3008L121.206 71.9493L120.873 72.0576L119.182 66.8588L119.515 66.7505L124.508 70.2666L122.995 65.6181Z" fill="white"/>
<path fill-rule="evenodd" clip-rule="evenodd" d="M113.225 71.7434L113.53 71.5649C113.892 72.1311 114.521 72.5996 115.626 72.5273C117.036 72.4349 117.991 71.2983 117.898 69.8706C117.804 68.4514 116.709 67.4497 115.299 67.5421C114.195 67.6143 113.632 68.1625 113.346 68.7616L113.021 68.6331C113.384 67.8788 114.077 67.2967 115.277 67.2181C116.88 67.1129 118.144 68.2613 118.248 69.8472C118.353 71.4417 117.25 72.7462 115.647 72.8513C114.447 72.9299 113.684 72.4434 113.225 71.7434Z" fill="white"/>
<path fill-rule="evenodd" clip-rule="evenodd" d="M110.958 70.1642L108.68 69.803L108.731 69.4737L111.01 69.8349L111.373 67.5467L108.6 67.1069L108.651 66.7861L111.771 67.2812L110.915 72.6807L107.795 72.1857L107.845 71.8649L110.618 72.3046L110.958 70.1642Z" fill="white"/>
<path fill-rule="evenodd" clip-rule="evenodd" d="M102.951 70.2088L104.768 69.5831L104.616 69.9581L102.798 70.5827L102.474 70.451L104.547 65.3521L104.872 65.4838L102.951 70.2088Z" fill="white"/>
<path fill-rule="evenodd" clip-rule="evenodd" d="M101.21 67.819C101.724 66.9808 101.477 66.1077 100.728 65.6498C99.9798 65.1899 99.0896 65.3651 98.5755 66.2033C98.0613 67.0414 98.3131 67.9071 99.062 68.366C99.8098 68.8249 100.696 68.6571 101.21 67.819ZM101.508 68.0027C100.907 68.9832 99.8396 69.2137 98.8963 68.6348C97.953 68.0569 97.6746 67 98.2759 66.0195C98.551 65.5701 98.9345 65.2801 99.336 65.1463L102.184 64.1318L102.528 64.3432L100.183 65.1601C100.438 65.1824 100.701 65.2727 100.934 65.414C101.831 65.9653 102.11 67.0223 101.508 68.0027Z" fill="white"/>
<path fill-rule="evenodd" clip-rule="evenodd" d="M95.1167 65.2806L97.0395 65.2668L96.776 65.5727L94.8533 65.5865L94.5867 65.3581L98.1771 61.1855L98.4438 61.4139L95.1167 65.2806Z" fill="white"/>
<path fill-rule="evenodd" clip-rule="evenodd" d="M94.0029 63.0025C93.2019 63.6717 92.35 63.1714 91.8773 62.6062C91.2463 61.852 91.1953 61.0373 91.9368 60.419C92.5964 59.8677 93.4006 59.9272 94.0868 59.9952L96.6787 60.1959L94.636 57.7517L94.8856 57.5435L97.2311 60.3521L96.9889 60.555L94.0698 60.317C93.3963 60.2629 92.7409 60.2044 92.1683 60.6825C91.5756 61.1775 91.6202 61.7915 92.1322 62.4044C92.4913 62.8357 93.1658 63.2447 93.7777 62.7337L94.0029 63.0025Z" fill="white"/>
<path fill-rule="evenodd" clip-rule="evenodd" d="M173.4 39.1179C172.879 39.1179 172.385 38.9851 171.93 38.7249L172.405 37.84C172.657 38.0185 172.968 38.1098 173.333 38.1098C174.289 38.1098 175.448 37.4757 176.025 36.8394L176.739 37.6021C176.359 37.9462 174.956 39.1179 173.4 39.1179Z" fill="white"/>
<mask id="mask0_3851_8830" style="mask-type:luminance" maskUnits="userSpaceOnUse" x="150" y="29" width="140" height="27">
<path d="M150.632 29.8892H289.308V55.2551H150.632V29.8892Z" fill="white"/>
</mask>
<g mask="url(#mask0_3851_8830)">
<path fill-rule="evenodd" clip-rule="evenodd" d="M247.489 31.7736C246.154 32.8741 243.793 35.2526 241.53 38.0835L241.737 38.2811C243.494 36.7514 245.031 35.2611 246.18 33.9768C246.727 33.3585 247.282 32.6245 247.701 31.9617L247.489 31.7736ZM265.239 41.3479C265.101 41.3479 264.92 41.4371 264.827 41.5518C264.765 41.6283 264.741 41.7165 264.758 41.7983C264.832 41.9704 264.996 41.9757 265.049 41.9767C265.049 41.9767 265.212 41.9799 265.217 41.9799C265.316 41.9799 265.46 41.9746 265.549 41.8588C265.611 41.7781 265.626 41.6782 265.588 41.5826C265.541 41.4669 265.413 41.3691 265.282 41.3511L265.239 41.3479ZM279.54 41.9374C279.134 41.9374 278.354 42.3411 277.741 43.0858C277.588 43.2685 277.221 43.7539 277.109 44.318L277.058 44.5782L277.305 44.4773C279.311 43.6562 280.047 42.8701 280.067 42.4059C280.073 42.2975 280.026 42.1818 279.94 42.0904C279.846 41.9916 279.719 41.9343 279.594 41.9343L279.54 41.9374ZM187.266 42.6598C186.547 42.6598 185.868 42.8138 185.424 42.9423C184.294 43.3195 182.295 44.164 181.934 44.9511C181.863 45.1051 181.854 45.2528 181.91 45.3877C182.005 45.6214 182.289 45.7446 182.732 45.7446C183.008 45.7446 183.321 45.6958 183.615 45.6065C184.789 45.2485 185.594 44.7015 186.444 44.1215L186.78 43.8941C187.232 43.5935 187.689 43.2886 188.179 43.0093L188.508 42.8212L188.137 42.7437C187.866 42.6874 187.574 42.6598 187.266 42.6598ZM225.736 43.1378C225.026 43.1378 224.209 43.328 223.308 43.704C221.961 44.2638 221.613 45.0159 221.526 45.3123C221.444 45.5885 221.471 45.8434 221.598 46.0282C221.729 46.2184 221.96 46.314 222.285 46.314C222.806 46.314 223.453 46.0665 223.752 45.9188C224.831 45.3962 226.059 44.4529 227.007 43.6891L227.116 43.602L227.033 43.4905C226.945 43.3758 226.513 43.1378 225.736 43.1378ZM159.742 46.5541C159.471 46.6656 159.464 46.8409 159.487 46.9492C159.516 47.0852 159.658 47.1681 159.772 47.1681C160.282 47.1681 160.513 46.3618 160.513 46.3618C160.513 46.3618 159.996 46.45 159.742 46.5541ZM188.846 49.5762C187.151 50.391 185.381 51.3035 184.021 52.694C183.847 52.8693 183.655 53.0807 183.55 53.3101C183.47 53.5417 183.468 53.6851 183.511 53.786C183.601 53.9772 183.889 54.0813 184.135 54.1036C184.187 54.11 184.248 54.1143 184.309 54.1143C184.803 54.1143 185.385 53.8657 186.089 53.3579C187.276 52.4858 188.172 51.5106 189.086 50.0936C189.181 49.948 189.285 49.7855 189.388 49.6123L189.622 49.2204C189.622 49.2204 188.941 49.5306 188.846 49.5762ZM184.273 55.2551C184.193 55.2551 184.114 55.2509 184.033 55.2434C183.31 55.1786 182.726 54.8143 182.472 54.2683C182.277 53.8391 182.289 53.3165 182.506 52.8363C182.683 52.4486 182.957 52.1406 183.201 51.8899C184.695 50.3687 186.641 49.3638 188.348 48.5426C188.724 48.361 189.474 48.0296 190.436 47.6142C190.869 46.8218 191.714 45.0393 191.787 44.1278C191.815 43.7252 191.75 43.4639 191.588 43.3258C191.471 43.2249 191.277 43.1697 191.042 43.1697C190.908 43.1697 190.765 43.1877 190.629 43.2228C189.339 43.55 188.31 44.2458 187.314 44.9182C186.308 45.597 185.279 46.2896 183.961 46.6985C183.856 46.7315 183.302 46.894 182.673 46.894C181.929 46.894 181.38 46.672 181.042 46.2354C180.75 45.8625 180.669 45.4026 180.813 44.9426L180.9 44.6643L180.655 44.6887C178.024 45.6565 175.067 46.7453 173.124 47.1893C172.435 47.3455 171.818 47.4251 171.29 47.4251C169.346 47.4251 168.987 46.3629 168.947 45.7297C168.897 44.9469 169.064 44.4603 169.224 43.9897L169.333 43.6711L169.027 43.8123C166.939 44.7864 164.95 45.2857 162.647 45.8668L161.726 46.0984L161.711 46.1918C161.624 46.707 161.457 47.1436 161.213 47.4857C160.869 47.9531 160.367 48.242 159.762 48.3217C159.722 48.3259 159.679 48.3281 159.636 48.3281C159.057 48.3281 158.547 47.9 158.395 47.2881C158.203 46.5296 158.593 45.7988 159.343 45.513C159.67 45.3877 160.172 45.2719 160.521 45.1944L160.643 45.1721C160.643 45.1721 160.801 43.9791 160.579 42.7448L160.361 42.9508C158.136 45.0488 153.939 47.1277 150.824 47.7343L150.632 46.6019C154.737 45.7924 158.939 42.937 160.535 41.1333L161.571 41.8408C161.825 43.0008 161.78 44.9044 161.78 44.9044L162.368 44.7546C165.062 44.0769 167.608 43.4363 170.3 41.8259L171.154 42.8053C170.655 43.465 169.909 44.5071 170.094 45.6395C170.136 45.904 170.545 46.3236 171.459 46.3236C171.868 46.3236 172.337 46.2396 172.855 46.0739C175.593 45.1986 179.726 43.8134 182.326 42.8436C183.712 42.3252 184.722 41.9502 185.096 41.8418C186.057 41.555 186.942 41.4169 187.803 41.4169C188.272 41.4169 188.739 41.4594 189.193 41.5433L189.101 42.7426L189.356 42.5451C189.359 42.5429 189.743 42.2508 190.342 42.1117C190.578 42.0585 190.81 42.0309 191.034 42.0309C191.556 42.0309 192.002 42.1754 192.325 42.4505C192.645 42.7193 193.007 43.2451 192.929 44.2203C192.884 44.7822 192.639 45.598 192.222 46.5806L192.083 46.9078L192.41 46.7697C196.465 45.0499 201.646 42.9147 202.512 42.63C202.702 42.5684 202.885 42.5366 203.056 42.5366C203.561 42.5366 203.838 42.8064 203.935 42.9232C204.282 43.3311 204.31 43.9749 204.006 44.5623C203.947 44.677 203.858 44.8842 203.771 45.0881L203.445 45.836L203.794 45.666C206.109 44.54 208.45 43.4214 209.415 43.1941C209.616 43.1463 209.809 43.1229 209.989 43.1229C210.67 43.1229 211.027 43.4629 211.179 43.6658C211.529 44.1247 211.563 44.8204 211.262 45.359C211.022 45.7945 210.86 46.0463 210.704 46.2864L210.479 46.6295L210.868 46.501C211.554 46.2747 212.868 45.8508 215.313 45.0637C218.052 44.1852 221.089 43.2079 222.052 42.8818C222.375 42.7724 222.698 42.6747 223.021 42.5918L223.155 42.5546C224.038 42.34 224.798 42.2317 225.546 42.2115C225.678 42.2062 225.808 42.2041 225.934 42.2041C226.512 42.2041 227.053 42.2529 227.584 42.3538L227.631 43.2897L228.937 42.1074L229.698 42.9806C228.945 43.7784 228.522 44.5273 228.203 45.6129C228.145 45.8254 228.161 46.007 228.248 46.1143C228.293 46.1823 228.381 46.2003 228.446 46.2141L228.476 46.2301L228.557 46.2396C231.008 46.2099 235.288 43.312 237.621 41.5858C237.997 40.9878 238.379 40.4216 238.771 39.8575L238.937 39.6185C238.937 39.6185 236.398 39.7364 235.274 39.7874C233.713 39.8575 232.155 39.9266 230.607 40.0084V38.859C232.429 38.7644 234.264 38.6826 236.101 38.5998C237.316 38.5456 239.812 38.4298 239.812 38.4298L239.852 38.3767C243.024 34.1807 246.949 30.4086 248.207 29.9625C248.343 29.9136 248.473 29.8892 248.594 29.8892C248.799 29.8892 248.946 29.9603 249.034 30.0198C249.229 30.1399 249.363 30.3597 249.398 30.6115C249.547 31.6196 247.983 33.6804 247.035 34.7384C246.227 35.6424 245.091 36.7663 243.753 37.99L243.46 38.2567C243.46 38.2567 246.55 38.1122 247.894 38.0463C250.06 37.9412 252.22 37.8349 254.38 37.7457V38.893C251.664 39.0056 248.943 39.1373 246.217 39.2711L242.117 39.4687C240.715 40.6308 239.603 41.5306 238.533 42.3326C237.722 43.6732 237.189 44.8194 236.913 45.7818C236.796 46.1801 236.833 46.5721 237.013 46.8303C237.325 47.2711 238.057 47.3465 238.803 47.3635L239.019 47.3667C243.484 47.3667 248.491 44.1002 249.542 43.1495L250.289 44.0067C249.966 44.2776 249.145 45.0191 249.145 45.5577C249.145 46.0601 249.439 46.3374 249.972 46.3374C251.306 46.3374 254.141 44.5889 256.018 42.9211L256.766 43.7815C256.195 44.2617 255.573 44.9755 255.549 45.5492C255.54 45.769 255.614 45.9539 255.77 46.1005C256.117 46.4245 256.642 46.5902 257.333 46.5902C259.703 46.5902 263.536 44.6452 264.56 43.2472L264.727 43.0188H264.445C263.931 42.9572 263.584 42.5249 263.584 41.9438C263.581 41.2077 264.118 40.3791 265.022 40.2675C265.075 40.2612 265.131 40.259 265.187 40.259C265.699 40.259 266.169 40.5012 266.443 40.9092C266.607 41.1524 266.688 41.4286 266.68 41.7069L266.675 41.8652L269.856 41.64L270.284 42.7798C269.385 43.5447 268.958 43.9526 268.529 44.9893C268.406 45.291 268.424 45.7361 268.668 45.9603C268.926 46.1961 269.45 46.3161 270.227 46.3161C271.645 46.3161 273.693 45.9103 275.845 45.2039L275.952 45.1689L275.943 45.0552C275.871 44.2362 276.195 43.3492 276.853 42.5546C277.639 41.6049 278.703 40.991 279.562 40.991C279.796 40.991 280.015 41.0366 280.21 41.1248C280.853 41.4169 281.234 42.0022 281.209 42.6523C281.16 43.7773 279.995 44.8141 277.748 45.7329L277.518 45.8253L277.714 45.9783C278.26 46.4053 279.064 46.621 280.103 46.621C281.891 46.621 284.008 45.9709 285.219 45.3686L285.415 45.2719C286.03 44.9734 287.84 44.0992 288.612 43.567L289.308 44.4763C288.732 44.8799 287.578 45.5003 285.874 46.3225L285.725 46.3947C284.346 47.0735 282.077 47.7566 280.117 47.7566C278.416 47.7566 277.179 47.2711 276.441 46.3119L276.379 46.2322L276.283 46.2641C275.185 46.6199 272.395 47.4474 270.213 47.4474C269 47.4474 268.147 47.1967 267.679 46.7007C267.33 46.3331 267.01 45.6628 267.469 44.5538C267.701 43.994 267.949 43.5532 268.252 43.1675L268.45 42.9147L266.068 43.0603L266.027 43.1155C263.643 46.3097 259.99 47.7406 257.428 47.7406C255.643 47.7406 254.481 47.0756 254.319 45.9645L254.286 45.7404L254.097 45.8657C252.492 46.9333 251.098 47.4995 250.069 47.4995C249.816 47.4995 249.579 47.4655 249.368 47.3996C248.89 47.252 248.273 46.8653 248.037 45.8583L247.993 45.6692L247.812 45.7159C246.02 46.7601 242.494 48.5118 239.015 48.5118L238.778 48.5097C238.122 48.4959 236.761 48.4672 236.073 47.4846C235.69 46.9322 235.596 46.194 235.812 45.461C235.913 45.103 236.049 44.7217 236.228 44.2925L236.408 43.857L236.015 44.1183C232.826 46.2375 230.254 47.3667 228.573 47.3858C228.058 47.3858 227.612 47.1723 227.331 46.8016C227.047 46.4234 226.954 45.9337 227.072 45.4228L227.16 45.0371L226.846 45.2751C225.805 46.0633 224.98 46.5944 224.252 46.9482C223.578 47.2764 222.889 47.4538 222.203 47.4729C221.312 47.4729 220.699 47.0427 220.483 46.3214C220.351 45.8848 220.363 45.3558 220.515 44.8279L220.59 44.5676L220.333 44.6515C219 45.086 217.278 45.6384 215.664 46.1557L214.577 46.5073C212.605 47.1415 210.902 47.6896 210.73 47.7566C210.54 47.8362 210.356 47.8755 210.181 47.8755C209.745 47.8755 209.498 47.6418 209.412 47.5409C209.116 47.201 209.094 46.7028 209.355 46.2704C209.493 46.0378 209.607 45.8647 209.722 45.6915C209.899 45.4196 210.048 45.1901 210.263 44.8034C210.33 44.6749 210.343 44.4593 210.266 44.3552C210.234 44.2872 210.099 44.267 209.995 44.267C209.904 44.267 209.796 44.2819 209.674 44.3106C208.724 44.5336 205.72 46.0006 203.926 46.877L203.654 47.0087C203.235 47.2137 202.88 47.3869 202.619 47.5091L201.809 46.5796L202.672 44.7333C202.784 44.471 202.909 44.1841 202.983 44.0386L203.033 43.9249L203.118 43.653L202.849 43.7475C201.415 44.2479 195.235 46.8005 191.368 48.4608C190.777 49.5316 190.3 50.3336 190.05 50.716C189.065 52.2404 188.052 53.3399 186.764 54.2832C185.863 54.9375 185.048 55.2551 184.273 55.2551Z" fill="white"/>
</g>
</g>
<defs>
<clipPath id="clip0_3851_8830">
<rect width="290" height="88" fill="white" transform="translate(0.429932)"/>
</clipPath>
</defs>
</svg>
