<svg width="122" height="88" viewBox="0 0 122 88" fill="none" xmlns="http://www.w3.org/2000/svg">
<g clip-path="url(#clip0_3851_8819)">
<mask id="mask0_3851_8819" style="mask-type:luminance" maskUnits="userSpaceOnUse" x="0" y="0" width="122" height="88">
<path d="M122 0H0V87.7698H122V0Z" fill="white"/>
</mask>
<g mask="url(#mask0_3851_8819)">
<path d="M72.9427 0L61.971 4.2448V30.1926L72.9427 25.9854V0ZM58.2211 36.5739L47.2544 40.7811V9.83724L58.2211 5.63471V36.5691V36.5739Z" fill="white"/>
<path d="M43.7922 61.5072L39.8496 60.573C38.5746 60.211 37.9254 59.8214 37.9254 58.8589C37.9254 57.8444 38.8616 57.1448 41.0964 57.1448C42.3949 57.1448 44.4885 57.4454 45.6789 57.8915L47.5137 55.3937L47.5655 55.2244C46.2152 54.4967 43.7734 53.8252 41.2234 53.8252C36.3634 53.8252 34.1521 56.2388 34.1521 59.1688C34.1521 61.5543 35.5306 63.1881 38.2076 63.8876L41.5575 64.7942C43.143 65.2353 44.7426 65.7002 44.7426 66.6627C44.7426 67.8321 42.8795 68.6352 40.7482 68.6352C39.5815 68.6352 37.7748 68.3817 36.768 68.0198L34.6132 70.5181C35.8223 71.1568 38.2171 71.9549 40.6683 71.9549C44.9308 71.9549 48.5346 69.6962 48.5346 66.3765C48.5346 63.8594 46.9774 62.4088 43.7781 61.4978M67.0811 54.0646H49.8097V57.6944H55.9026V71.7014H59.5393V57.6944H65.4391L67.0811 54.0646ZM109.862 65.475H116.049L113.032 57.6662L109.862 65.475ZM110.901 54.0646H115.164L122 71.7014H118.312L116.961 68.1747H108.93L107.551 71.7014H103.863L110.906 54.0646H110.901ZM88.0269 59.8452V71.6964H84.3896V54.06H87.5611L97.488 65.9399V54.06H101.125V71.6964H97.9538L88.0269 59.8452ZM69.9792 65.475H76.1657L73.1501 57.6662L69.9792 65.475ZM71.019 54.0646H75.2812L82.1176 71.7014H78.4288L77.0785 68.1747H69.0476L67.669 71.7014H63.9807L71.0234 54.0646H71.019ZM17.8218 71.7014V54.0646H31.8044V57.2528H21.3033V61.0655H27.9088V64.254H21.3033V68.5085H31.8044V71.6964H17.8218V71.7014ZM3.64151 57.2245V63.6579H7.87582C9.66833 63.6579 11.0986 62.437 11.0986 60.4695C11.0986 58.3708 9.66833 57.2295 7.87582 57.2295H3.64151V57.2245ZM0 54.0646H8.44512C11.9032 54.0646 14.8671 56.0883 14.8671 60.4977C14.8671 64.4654 11.9032 66.8271 8.44512 66.8271H3.64151V71.7014H0V54.0646Z" fill="white"/>
<path d="M95.5343 82.9199V85.132H96.99C97.6099 85.132 98.0979 84.7147 98.0979 84.0351C98.0979 83.3134 97.6049 82.9199 96.99 82.9199H95.5343ZM94.2854 81.8323H97.1918C98.3797 81.8323 99.3989 82.5308 99.3989 84.0445C99.3989 85.4082 98.3797 86.224 97.1918 86.224H95.5387V87.9015H94.2854V81.8323ZM87.4108 85.2582C87.4108 86.224 87.9037 86.8378 88.913 86.8378C89.9228 86.8378 90.4441 86.1864 90.4441 85.2488V81.8323H91.6979V85.3379C91.6979 86.7675 90.7303 88.0001 88.918 88.0001C87.1052 88.0001 86.1663 86.8848 86.1663 85.3379V81.8323H87.4202V85.2582H87.4108ZM80.8133 86.8234C81.9307 86.8234 82.7104 85.9755 82.7104 84.8785C82.7104 83.7821 81.9307 82.9337 80.8133 82.9337C79.6954 82.9337 78.9162 83.7633 78.9162 84.8785C78.9162 85.9943 79.7142 86.8234 80.8133 86.8234ZM80.8039 81.7432C82.6023 81.7432 83.9404 83.0837 83.9404 84.8741C83.9404 86.6646 82.5973 87.9906 80.8039 87.9906C79.0099 87.9906 77.6812 86.6502 77.6812 84.8741C77.6812 83.0981 79.0238 81.7432 80.8039 81.7432ZM71.5674 82.9199V84.7335H73.1262C73.6991 84.7335 74.1078 84.3959 74.1078 83.8336C74.1078 83.2337 73.6946 82.9243 73.1262 82.9243H71.5674V82.9199ZM70.3136 81.8323H72.9854C74.1826 81.8323 75.4082 82.3155 75.4082 83.8054C75.4082 84.8132 74.6662 85.5349 73.6896 85.6894C74.2625 86.2423 74.8542 86.9125 75.488 86.9125C75.6949 86.9125 75.9716 86.8566 76.169 86.7675L76.296 87.7565C76.047 87.8827 75.6899 87.9906 75.2956 87.9906C73.9336 87.9906 72.9338 86.2755 72.1729 85.7132H71.5674V87.9015H70.3136V81.8323ZM67.9185 84.3118V87.1566C67.3551 87.6016 66.2565 87.9857 65.3265 87.9857C63.5281 87.9857 62.0863 86.8234 62.0863 84.8691C62.0863 82.9149 63.5281 81.7388 65.3265 81.7388C66.3125 81.7388 67.0783 82.067 67.6883 82.559L67.1061 83.5148C66.6319 83.1213 66.0685 82.8966 65.3548 82.8966C64.2468 82.8966 63.3873 83.6089 63.3873 84.8691C63.3873 86.1299 64.2468 86.8234 65.4064 86.8234C65.8899 86.8234 66.3364 86.6972 66.6646 86.5002V85.385H65.0637V84.3024H67.9185V84.3118ZM52.9252 87.9015V81.8323H54.1789V86.8145H57.3344V87.9015H52.9252ZM45.8111 87.9015V81.8323H50.6243V82.9293H47.0086V84.2415H49.9669V85.3379H47.0086V86.8002H50.6243V87.8971H45.8111V87.9015ZM41.8432 83.0837V87.9015H40.5895V83.0837H38.5844V81.8323H43.7732V83.0837H41.8432ZM33.9216 86.8234C35.0391 86.8234 35.8187 85.9755 35.8187 84.8785C35.8187 83.7821 35.0391 82.9337 33.9216 82.9337C32.804 82.9337 32.0245 83.7633 32.0245 84.8785C32.0245 85.9943 32.8181 86.8234 33.9216 86.8234ZM33.9122 81.7432C35.7106 81.7432 37.0489 83.0837 37.0489 84.8741C37.0489 86.6646 35.7059 87.9906 33.9122 87.9906C32.1184 87.9906 30.7895 86.6502 30.7895 84.8741C30.7895 83.0981 32.1325 81.7432 33.9122 81.7432ZM27.2536 85.385H23.9901V87.9015H22.7363V81.8323H23.9901V84.293H27.2536V81.8323H28.5074V87.9015H27.2536V85.385Z" fill="white"/>
</g>
</g>
<defs>
<clipPath id="clip0_3851_8819">
<rect width="122" height="88" fill="white"/>
</clipPath>
</defs>
</svg>
