<svg width="120" height="50" viewBox="0 0 120 50" fill="none" xmlns="http://www.w3.org/2000/svg">
<path d="M98.8018 7.05835C102.045 7.05835 105.289 7.05835 108.631 7.05835C108.631 7.90212 108.631 8.7459 108.631 9.61524C106.363 9.61524 104.094 9.61524 101.757 9.61524C101.757 10.6124 101.757 11.6096 101.757 12.637C103.971 12.637 106.184 12.637 108.465 12.637C108.465 13.4698 108.465 14.3026 108.465 15.1607C106.251 15.1607 104.038 15.1607 101.757 15.1607C101.757 16.2236 101.757 17.2866 101.757 18.3817C104.025 18.3817 106.294 18.3817 108.631 18.3817C108.631 19.2255 108.631 20.0693 108.631 20.9386C105.387 20.9386 102.144 20.9386 98.8018 20.9386C98.8018 16.3581 98.8018 11.7776 98.8018 7.05835Z" fill="black"/>
<path d="M27.9053 7.05837C28.6373 7.05721 28.6373 7.05721 29.3841 7.05603C30.0145 7.05543 30.6449 7.05483 31.2944 7.05421C32.2381 7.05306 32.2381 7.05306 33.2008 7.05188C33.7106 7.05402 34.2205 7.05616 34.7458 7.05837C34.9101 7.08028 35.0745 7.1022 35.2439 7.12478C35.2921 7.13218 35.3404 7.13959 35.3901 7.14722C35.4288 7.1542 35.4675 7.16117 35.5074 7.16836C35.5514 7.17688 35.5954 7.1854 35.6407 7.19417C35.6851 7.20415 35.7294 7.21412 35.7752 7.2244C35.8206 7.23677 35.866 7.24914 35.9128 7.26188C35.9578 7.27554 36.0028 7.28919 36.0491 7.30326C36.0931 7.31773 36.1371 7.3322 36.1825 7.3471C36.2234 7.3614 36.2643 7.3757 36.3065 7.39043C36.3405 7.40267 36.3746 7.41491 36.4097 7.42753C36.4572 7.44615 36.4572 7.44615 36.5057 7.46514C36.5371 7.4788 36.5685 7.49245 36.6009 7.50652C36.6524 7.53124 36.6524 7.53124 36.705 7.55646C36.7482 7.57876 36.7914 7.60106 36.836 7.62404C36.8818 7.649 36.9276 7.67395 36.9748 7.69966C37.0198 7.72556 37.0648 7.75146 37.1112 7.77814C37.1525 7.80361 37.1937 7.82908 37.2363 7.85532C37.2838 7.8889 37.2838 7.8889 37.3322 7.92316C37.3595 7.9446 37.3867 7.96605 37.4147 7.98814C37.4403 8.00989 37.4659 8.03163 37.4923 8.05404C37.5174 8.07612 37.5425 8.09821 37.5683 8.12097C37.5955 8.14374 37.6226 8.16651 37.6506 8.18997C37.6782 8.21377 37.7059 8.23757 37.7343 8.26209C37.7617 8.28709 37.789 8.31209 37.8171 8.33784C37.8446 8.3649 37.8721 8.39195 37.9004 8.41982C37.9285 8.4503 37.9567 8.48078 37.9857 8.51218C38.0137 8.54471 38.0417 8.57724 38.0706 8.61076C38.0979 8.64458 38.1253 8.67839 38.1534 8.71323C38.1795 8.74791 38.2056 8.78258 38.2324 8.8183C38.2561 8.85297 38.2798 8.88765 38.3042 8.92337C38.3264 8.95855 38.3486 8.99374 38.3715 9.02999C38.3928 9.06612 38.414 9.10224 38.436 9.13947C38.4565 9.17594 38.477 9.21241 38.4981 9.24998C38.5183 9.28577 38.5384 9.32155 38.5592 9.35842C38.5885 9.41364 38.5885 9.41364 38.6185 9.46997C38.6372 9.5085 38.656 9.54702 38.6753 9.58671C38.6935 9.62901 38.7117 9.6713 38.7305 9.71487C38.7488 9.7647 38.767 9.81452 38.7858 9.86586C38.8032 9.91876 38.8206 9.97167 38.8385 10.0262C38.8537 10.0744 38.8689 10.1226 38.8846 10.1722C38.907 10.2581 38.907 10.2581 38.9298 10.3458C38.9478 10.4275 38.9659 10.5092 38.9845 10.5934C38.9993 10.687 39.0141 10.7806 39.0294 10.8771C39.0338 10.9756 39.0381 11.0741 39.0426 11.1756C39.0424 11.2777 39.0421 11.3799 39.0418 11.4852C39.0409 11.5927 39.0399 11.7002 39.0389 11.811C39.0357 11.9083 39.0326 12.0055 39.0294 12.1057C39.0239 12.1722 39.0183 12.2386 39.0127 12.307C39.0014 12.3851 39.0014 12.3851 38.99 12.4648C38.9807 12.5115 38.9715 12.5582 38.9619 12.6063C38.9513 12.6493 38.9407 12.6923 38.9298 12.7366C38.9185 12.7814 38.9072 12.8261 38.8955 12.8722C38.8829 12.9165 38.8702 12.9608 38.8571 13.0064C38.8428 13.0492 38.8285 13.0919 38.8138 13.1359C38.7973 13.1795 38.7808 13.2231 38.7637 13.2679C38.7438 13.3156 38.7238 13.3633 38.7033 13.4124C38.6706 13.4847 38.6706 13.4847 38.6371 13.5585C38.6142 13.6054 38.5913 13.6522 38.5676 13.7005C38.5447 13.7441 38.5217 13.7876 38.4981 13.8325C38.4772 13.8688 38.4563 13.9051 38.4348 13.9426C38.4139 13.9754 38.393 14.0082 38.3715 14.0421C38.3388 14.0889 38.3388 14.0889 38.3055 14.1366C38.2814 14.1677 38.2573 14.1989 38.2324 14.2309C38.1886 14.2822 38.1886 14.2822 38.1438 14.3346C38.1128 14.3689 38.0818 14.4031 38.0498 14.4385C38.0186 14.4714 37.9873 14.5043 37.9551 14.5382C37.9261 14.5683 37.8971 14.5984 37.8672 14.6294C37.8339 14.6658 37.8339 14.6658 37.8 14.703C37.7797 14.7246 37.7594 14.7462 37.7385 14.7685C37.7068 14.7995 37.7068 14.7995 37.6745 14.8311C37.6505 14.8522 37.6263 14.8733 37.6015 14.8951C37.5702 14.9192 37.5389 14.9434 37.5067 14.9683C37.4716 14.9935 37.4364 15.0186 37.4002 15.0445C37.3444 15.0818 37.3444 15.0818 37.2875 15.1198C37.2487 15.1443 37.2098 15.1687 37.1698 15.1939C37.1307 15.2173 37.0915 15.2407 37.0512 15.2649C37.0109 15.2873 36.9706 15.3098 36.9291 15.333C36.8675 15.3651 36.8675 15.3651 36.8047 15.3978C36.7608 15.4182 36.7169 15.4386 36.6717 15.4596C36.6207 15.4793 36.5696 15.4989 36.517 15.5192C36.4405 15.5462 36.4405 15.5462 36.3625 15.5737C36.2918 15.5973 36.2918 15.5973 36.2197 15.6213C36.1826 15.6337 36.1455 15.6461 36.1072 15.6588C36.0853 15.6698 36.0634 15.6807 36.0408 15.692C36.0758 15.7519 36.1108 15.8118 36.1468 15.8735C36.1947 15.9554 36.2426 16.0372 36.2919 16.1216C36.3437 16.2099 36.3955 16.2982 36.4488 16.3892C36.5263 16.5208 36.5263 16.5208 36.6053 16.655C36.6478 16.7259 36.6902 16.7969 36.7339 16.8699C36.7736 16.936 36.8134 17.002 36.8544 17.0701C36.8947 17.1371 36.935 17.2041 36.9766 17.2731C37.0184 17.3431 37.0603 17.413 37.1034 17.4852C37.1734 17.604 37.1734 17.604 37.2448 17.7253C37.2927 17.807 37.3405 17.8887 37.3898 17.9729C37.4372 18.0538 37.4845 18.1348 37.5333 18.2182C37.5777 18.294 37.6222 18.3699 37.6679 18.4481C37.7048 18.5107 37.7417 18.5732 37.7797 18.6376C37.8141 18.6956 37.8484 18.7536 37.8838 18.8134C37.9351 18.9002 37.9351 18.9002 37.9875 18.9888C38.0245 19.0514 38.0615 19.1141 38.0996 19.1787C38.1448 19.2557 38.19 19.3328 38.2366 19.4122C38.2845 19.494 38.3325 19.5758 38.3819 19.6602C38.4291 19.7409 38.4763 19.8215 38.5249 19.9047C38.5938 20.022 38.5938 20.022 38.6641 20.1417C38.7077 20.2147 38.7512 20.2878 38.796 20.3631C38.8354 20.429 38.8747 20.495 38.9152 20.563C38.9502 20.6213 38.9852 20.6796 39.0212 20.7398C39.0458 20.7835 39.0704 20.8272 39.0958 20.8722C39.0958 20.8941 39.0958 20.916 39.0958 20.9386C38.7355 20.9432 38.7355 20.9432 38.368 20.9479C38.0582 20.9503 37.7484 20.9527 37.4293 20.9552C36.9652 20.9598 36.9652 20.9598 36.4918 20.9646C36.2444 20.956 35.9969 20.9474 35.742 20.9386C35.6872 20.8509 35.6324 20.7633 35.5759 20.673C35.5444 20.6157 35.5129 20.5585 35.4805 20.4995C35.4462 20.4355 35.412 20.3715 35.3767 20.3056C35.3386 20.2348 35.3004 20.1639 35.2611 20.0909C35.2226 20.02 35.184 19.9491 35.1443 19.876C35.1095 19.8143 35.0747 19.7526 35.0388 19.6891C35.0044 19.6289 34.9701 19.5686 34.9346 19.5066C34.8993 19.4444 34.8639 19.3822 34.8275 19.3181C34.7896 19.2502 34.7516 19.1823 34.7126 19.1123C34.6685 19.0303 34.6244 18.9483 34.579 18.8639C34.5333 18.778 34.4877 18.6922 34.4407 18.6038C34.3958 18.5192 34.351 18.4347 34.3048 18.3476C34.264 18.2712 34.2233 18.1948 34.1813 18.1161C34.1508 18.0606 34.1203 18.005 34.0889 17.9478C34.0625 17.9006 34.0362 17.8534 34.009 17.8048C33.9835 17.7593 33.9581 17.7138 33.9318 17.667C33.9046 17.618 33.8773 17.5689 33.8492 17.5184C33.8147 17.4549 33.7803 17.3915 33.7448 17.3261C33.708 17.2581 33.6713 17.19 33.6334 17.1199C33.5972 17.053 33.561 16.9861 33.5238 16.9171C33.4887 16.8525 33.4536 16.788 33.4175 16.7214C33.3849 16.662 33.3522 16.6025 33.3186 16.5412C33.2889 16.4877 33.2592 16.4341 33.2287 16.379C33.2025 16.3318 33.1764 16.2847 33.1494 16.2362C33.1283 16.199 33.1072 16.1619 33.0855 16.1237C33.0526 16.0744 33.0526 16.0744 33.019 16.0241C31.9506 16.0076 31.9506 16.0076 30.8606 15.9909C30.8606 17.6236 30.8606 19.2564 30.8606 20.9386C29.8854 20.9386 28.9101 20.9386 27.9053 20.9386C27.9053 18.4621 27.9053 15.9856 27.9053 13.434C29.4606 13.4288 29.4606 13.4288 31.0474 13.4236C31.6307 13.4217 32.2139 13.4198 32.8149 13.4178C33.2877 13.4122 33.7605 13.4066 34.2477 13.4008C34.4011 13.3679 34.5545 13.335 34.7126 13.3012C34.7797 13.2779 34.8468 13.2546 34.916 13.2306C34.9481 13.2162 34.9802 13.2018 35.0132 13.187C35.0455 13.1699 35.0778 13.1528 35.111 13.1351C35.1454 13.1139 35.1797 13.0927 35.2151 13.0708C35.2492 13.0468 35.2834 13.0228 35.3186 12.9981C35.3513 12.9724 35.384 12.9466 35.4177 12.9201C35.448 12.8924 35.4783 12.8648 35.5095 12.8363C35.5357 12.8066 35.5619 12.7769 35.5889 12.7462C35.612 12.7157 35.6351 12.6851 35.659 12.6536C35.6796 12.623 35.7002 12.5923 35.7215 12.5608C35.7392 12.5311 35.7569 12.5015 35.7752 12.471C35.7895 12.4441 35.8038 12.4172 35.8185 12.3895C35.8302 12.3644 35.842 12.3392 35.854 12.3133C35.8632 12.2915 35.8724 12.2698 35.8818 12.2474C35.8904 12.2225 35.8991 12.1977 35.908 12.1721C35.9257 12.1233 35.9257 12.1233 35.9438 12.0736C35.9539 12.0294 35.964 11.9852 35.9744 11.9397C35.9781 11.8741 35.9818 11.8085 35.9856 11.741C35.986 11.6668 35.9864 11.5927 35.9869 11.5163C35.9878 11.4425 35.9887 11.3687 35.9897 11.2927C35.9847 11.2213 35.9796 11.1499 35.9744 11.0763C35.9542 11.0105 35.9339 10.9447 35.9131 10.877C35.8895 10.8222 35.8659 10.7675 35.8416 10.7111C35.8256 10.6784 35.8097 10.6457 35.7932 10.6121C35.7784 10.5879 35.7635 10.5637 35.7482 10.5388C35.731 10.5117 35.7138 10.4847 35.696 10.4568C35.6783 10.4311 35.6606 10.4055 35.6423 10.379C35.6253 10.3554 35.6083 10.3317 35.5907 10.3074C35.5728 10.2851 35.5549 10.2629 35.5365 10.2399C35.5169 10.2187 35.4974 10.1975 35.4772 10.1756C35.455 10.1551 35.4328 10.1345 35.4099 10.1133C35.3832 10.0928 35.3566 10.0723 35.3291 10.0511C35.2996 10.0312 35.2701 10.0114 35.2397 9.9909C35.2085 9.97215 35.1772 9.9534 35.145 9.93409C35.0953 9.90776 35.0953 9.90776 35.0446 9.8809C35.0094 9.86472 34.9743 9.84854 34.938 9.83187C34.8839 9.80991 34.8839 9.80991 34.8288 9.78751C34.7963 9.77497 34.7637 9.76243 34.7302 9.74951C34.6722 9.73236 34.6722 9.73236 34.613 9.71487C34.4924 9.69295 34.3719 9.67104 34.2477 9.64846C33.7781 9.64392 33.3085 9.63938 32.8246 9.63471C32.2402 9.6324 31.6558 9.63009 31.0536 9.6277C30.4683 9.62522 29.8829 9.62274 29.2798 9.62018C28.8262 9.61856 28.3726 9.61693 27.9053 9.61525C27.9053 8.77148 27.9053 7.92771 27.9053 7.05837Z" fill="black"/>
<path d="M26.1793 27.8788C27.1765 27.8788 28.1737 27.8788 29.2011 27.8788C29.2024 28.5102 29.2036 29.1417 29.2049 29.7923C29.2071 30.6073 29.2092 31.4223 29.2115 32.262C29.2134 33.0757 29.2153 33.8893 29.2173 34.7276C29.2229 35.3823 29.2285 36.0371 29.2343 36.7117C29.2836 36.9747 29.2836 36.9747 29.3339 37.243C29.3599 37.3264 29.3599 37.3264 29.3863 37.4116C29.4047 37.4573 29.423 37.503 29.4419 37.5501C29.4624 37.6 29.483 37.6499 29.5041 37.7014C29.5247 37.7473 29.5452 37.7933 29.5664 37.8407C29.5842 37.8777 29.602 37.9148 29.6203 37.953C29.6381 37.9858 29.656 38.0186 29.6743 38.0524C29.6935 38.0833 29.7127 38.1142 29.7324 38.146C29.7653 38.1921 29.7653 38.1921 29.7988 38.2392C29.8262 38.2733 29.8536 38.3075 29.8818 38.3427C29.927 38.3942 29.927 38.3942 29.9732 38.4467C30.0205 38.496 30.0205 38.496 30.0688 38.5463C30.1002 38.5765 30.1317 38.6066 30.1641 38.6376C30.2067 38.6746 30.2067 38.6746 30.2501 38.7123C30.2786 38.7343 30.307 38.7562 30.3364 38.7788C30.3664 38.7993 30.3965 38.8199 30.4275 38.841C30.4611 38.8616 30.4947 38.8821 30.5294 38.9033C30.5702 38.9266 30.611 38.9499 30.653 38.9738C30.6971 38.9971 30.7412 39.0204 30.7867 39.0444C30.8318 39.0662 30.8769 39.088 30.9233 39.1104C30.9913 39.1394 30.9913 39.1394 31.0607 39.1689C31.105 39.1838 31.1493 39.1986 31.1949 39.2139C31.2589 39.2317 31.2589 39.2317 31.3242 39.2499C31.3622 39.2594 31.4002 39.269 31.4393 39.2788C31.4984 39.2902 31.4984 39.2902 31.5588 39.3018C31.6011 39.3081 31.6433 39.3143 31.6869 39.3208C31.7714 39.3278 31.7714 39.3278 31.8576 39.335C31.9458 39.338 32.0341 39.341 32.125 39.344C32.2264 39.3452 32.3279 39.3463 32.4325 39.3474C32.5922 39.3469 32.5922 39.3469 32.7551 39.3464C32.8534 39.3426 32.9517 39.3388 33.053 39.335C33.1569 39.3201 33.1569 39.3201 33.2628 39.3049C33.3182 39.2915 33.3737 39.2782 33.4308 39.2644C33.4806 39.2492 33.5304 39.2339 33.5818 39.2182C33.6264 39.202 33.6711 39.1857 33.7172 39.1689C33.7605 39.1534 33.8038 39.1378 33.8484 39.1217C33.8887 39.1058 33.9289 39.0899 33.9704 39.0735C34.0069 39.0566 34.0435 39.0398 34.0811 39.0225C34.1311 38.9964 34.1311 38.9964 34.1821 38.9697C34.2269 38.9431 34.2269 38.9431 34.2726 38.9159C34.3141 38.8881 34.3141 38.8881 34.3564 38.8597C34.3825 38.8402 34.4085 38.8207 34.4354 38.8006C34.4614 38.7797 34.4874 38.7588 34.5141 38.7373C34.5425 38.7143 34.5709 38.6914 34.6001 38.6677C34.6286 38.6434 34.6571 38.6191 34.6864 38.5941C34.7138 38.5686 34.7412 38.5432 34.7694 38.517C34.7947 38.4911 34.8201 38.4651 34.8462 38.4384C34.8674 38.4131 34.8886 38.3879 34.9105 38.3619C34.9297 38.3358 34.9489 38.3096 34.9686 38.2827C34.9959 38.2411 34.9959 38.2411 35.0238 38.1986C35.0419 38.1681 35.06 38.1377 35.0786 38.1063C35.0985 38.0714 35.1183 38.0366 35.1387 38.0006C35.1685 37.944 35.1685 37.944 35.199 37.8863C35.2181 37.8469 35.2371 37.8074 35.2567 37.7667C35.2747 37.7254 35.2926 37.684 35.3111 37.6414C35.3273 37.598 35.3435 37.5546 35.3602 37.5099C35.3748 37.4657 35.3894 37.4214 35.4045 37.3758C35.4233 37.3162 35.4233 37.3162 35.4425 37.2554C35.4539 37.2075 35.4653 37.1595 35.4771 37.1101C35.499 36.9567 35.5209 36.8033 35.5435 36.6453C35.5481 35.9974 35.5526 35.3496 35.5573 34.6822C35.5596 33.8739 35.5619 33.0657 35.5643 32.233C35.5668 31.4235 35.5692 30.6141 35.5718 29.7801C35.5734 29.1527 35.5751 28.5252 35.5767 27.8788C36.5739 27.8788 37.5711 27.8788 38.5985 27.8788C38.5993 28.5035 38.6 29.1283 38.6008 29.7719C38.6014 30.5793 38.602 31.3866 38.6027 32.2184C38.6034 33.024 38.6042 33.8295 38.605 34.6595C38.6029 35.3148 38.6007 35.9701 38.5985 36.6453C38.5766 36.8754 38.5547 37.1055 38.5321 37.3426C38.5129 37.4474 38.4937 37.5522 38.474 37.6601C38.4624 37.7114 38.4508 37.7627 38.4388 37.8155C38.4258 37.8677 38.4127 37.9198 38.3993 37.9735C38.3845 38.0291 38.3697 38.0846 38.3545 38.1419C38.3385 38.1979 38.3224 38.254 38.3059 38.3118C38.2888 38.3668 38.2718 38.4217 38.2542 38.4783C38.2274 38.5572 38.2274 38.5572 38.2 38.6376C38.1722 38.7093 38.1722 38.7093 38.1437 38.7824C38.1246 38.8271 38.1055 38.8718 38.0859 38.9178C38.0663 38.9605 38.0467 39.0032 38.0265 39.0471C38.007 39.0873 37.9876 39.1275 37.9676 39.1689C37.9495 39.206 37.9315 39.2432 37.9128 39.2814C37.8946 39.3169 37.8764 39.3524 37.8576 39.3889C37.8382 39.4237 37.8189 39.4584 37.799 39.4943C37.7779 39.5294 37.7568 39.5645 37.7351 39.6006C37.7113 39.6378 37.6875 39.6749 37.663 39.7132C37.6368 39.7514 37.6106 39.7896 37.5836 39.8289C37.5553 39.8674 37.527 39.9059 37.4979 39.9455C37.4666 39.9851 37.4353 40.0247 37.4031 40.0655C37.3673 40.1075 37.3316 40.1495 37.2948 40.1928C37.2565 40.235 37.2183 40.2772 37.1789 40.3208C37.1195 40.3828 37.1195 40.3828 37.0588 40.4461C36.9991 40.5043 36.9991 40.5043 36.9382 40.5636C36.9004 40.5969 36.8627 40.6302 36.8238 40.6645C36.7862 40.6949 36.7486 40.7253 36.7099 40.7566C36.6714 40.7855 36.6328 40.8144 36.5932 40.8442C36.5536 40.8721 36.514 40.9001 36.4733 40.9289C36.4324 40.9572 36.3915 40.9855 36.3493 41.0146C36.3067 41.0425 36.264 41.0703 36.2201 41.0991C36.1756 41.1261 36.1311 41.1531 36.0852 41.1809C36.0379 41.2073 35.9907 41.2337 35.942 41.2609C35.8906 41.287 35.8393 41.3131 35.7863 41.3399C35.7322 41.3652 35.6781 41.3905 35.6224 41.4166C35.5384 41.4529 35.5384 41.4529 35.4527 41.49C35.395 41.513 35.3373 41.5361 35.2779 41.5598C35.2188 41.5815 35.1597 41.6031 35.0989 41.6254C35.0388 41.6455 34.9787 41.6657 34.9168 41.6864C34.8258 41.7141 34.8258 41.7141 34.7331 41.7424C34.6718 41.7589 34.6105 41.7753 34.5473 41.7922C34.4847 41.8059 34.422 41.8196 34.3574 41.8337C34.2955 41.8454 34.2335 41.857 34.1696 41.869C34.1146 41.8785 34.0595 41.8879 34.0028 41.8977C33.9414 41.9067 33.88 41.9158 33.8168 41.9251C33.7019 41.9428 33.7019 41.9428 33.5847 41.961C33.486 41.9711 33.3872 41.9811 33.2855 41.9915C33.1469 41.9952 33.0084 41.9988 32.8656 42.0026C32.7104 42.0031 32.5551 42.0035 32.3951 42.0039C32.2408 42.0049 32.0865 42.0058 31.9275 42.0068C31.6957 41.9992 31.6957 41.9992 31.4591 41.9915C31.2999 41.9713 31.1407 41.9511 30.9766 41.9302C30.7717 41.8948 30.7717 41.8948 30.5626 41.8586C30.4345 41.8271 30.3064 41.7956 30.1745 41.7632C30.1157 41.7461 30.0569 41.7289 29.9964 41.7113C29.9421 41.6942 29.8879 41.677 29.832 41.6594C29.7604 41.6358 29.7604 41.6358 29.6874 41.6117C29.6213 41.588 29.6213 41.588 29.5539 41.5639C29.5119 41.5474 29.4699 41.5309 29.4266 41.5139C29.385 41.4962 29.3435 41.4784 29.3007 41.4602C29.2572 41.4404 29.2136 41.4206 29.1687 41.4002C29.1246 41.3789 29.0805 41.3576 29.0351 41.3356C28.9913 41.313 28.9476 41.2904 28.9025 41.2672C28.8366 41.2312 28.8366 41.2312 28.7694 41.1945C28.7248 41.1692 28.6802 41.1438 28.6343 41.1177C28.5898 41.091 28.5454 41.0643 28.4996 41.0368C28.4561 41.009 28.4125 40.9811 28.3676 40.9525C28.3249 40.9228 28.2821 40.8931 28.2381 40.8625C28.1751 40.8128 28.1751 40.8128 28.1108 40.7621C28.0706 40.7281 28.0305 40.6941 27.9891 40.6591C27.9512 40.6254 27.9134 40.5917 27.8744 40.557C27.8243 40.5109 27.8243 40.5109 27.7732 40.464C27.7481 40.4412 27.7229 40.4184 27.697 40.3948C27.6756 40.3745 27.6542 40.3542 27.6321 40.3332C27.6021 40.3022 27.6021 40.3022 27.5714 40.2705C27.5503 40.2467 27.5293 40.2228 27.5076 40.1983C27.4811 40.1663 27.4545 40.1343 27.4272 40.1013C27.3989 40.0655 27.3707 40.0297 27.3416 39.9929C27.2996 39.9371 27.2996 39.9371 27.2569 39.8803C27.2166 39.824 27.2166 39.824 27.1755 39.7666C27.1518 39.7312 27.128 39.6958 27.1035 39.6592C27.0814 39.6241 27.0593 39.589 27.0365 39.5529C27.0151 39.5168 26.9937 39.4806 26.9716 39.4434C26.9512 39.4076 26.9309 39.3718 26.9099 39.335C26.8909 39.3019 26.8719 39.2689 26.8523 39.2348C26.8336 39.2001 26.815 39.1653 26.7957 39.1295C26.7771 39.091 26.7584 39.0525 26.7392 39.0128C26.7188 38.9657 26.6984 38.9186 26.6774 38.8701C26.6523 38.8059 26.6271 38.7417 26.6012 38.6755C26.5619 38.5674 26.5619 38.5674 26.5218 38.4571C26.4966 38.3825 26.4714 38.308 26.4455 38.2312C26.4234 38.1572 26.4013 38.0831 26.3786 38.0067C26.3633 37.9384 26.3481 37.8702 26.3324 37.7998C26.3209 37.7352 26.3095 37.6706 26.2976 37.6041C26.2888 37.5472 26.2799 37.4902 26.2708 37.4316C26.2625 37.3693 26.2543 37.3071 26.2457 37.243C26.2238 37.0676 26.2019 36.8923 26.1793 36.7117C26.1772 36.0569 26.1751 35.4022 26.1729 34.7276C26.1736 33.914 26.1744 33.1003 26.1752 32.262C26.1758 31.447 26.1764 30.632 26.177 29.7923C26.1778 29.1608 26.1785 28.5294 26.1793 27.8788Z" fill="black"/>
<path d="M80.5381 27.8787C81.023 27.8776 81.508 27.8764 82.0076 27.8752C82.6356 27.8743 83.2636 27.8734 83.9106 27.8725C84.8496 27.8708 84.8496 27.8708 85.8076 27.869C86.3261 27.8722 86.8445 27.8754 87.3786 27.8787C87.6306 27.9116 87.8827 27.9445 88.1423 27.9784C88.2382 27.9969 88.3341 28.0153 88.4329 28.0344C88.4775 28.0457 88.5222 28.057 88.5682 28.0686C88.6139 28.0827 88.6597 28.0967 88.7068 28.1112C88.7584 28.13 88.81 28.1489 88.8631 28.1683C88.9164 28.1898 88.9696 28.2114 89.0244 28.2336C89.103 28.2682 89.103 28.2682 89.1831 28.3036C89.2342 28.3277 89.2852 28.3519 89.3378 28.3768C89.386 28.4014 89.4343 28.4259 89.4841 28.4512C89.5296 28.476 89.5752 28.5007 89.6221 28.5263C89.665 28.5513 89.708 28.5763 89.7522 28.602C89.7908 28.6263 89.8293 28.6506 89.8691 28.6757C89.9004 28.698 89.9318 28.7202 89.9641 28.7431C89.9917 28.7647 90.0192 28.7863 90.0475 28.8085C90.0731 28.8303 90.0987 28.852 90.1251 28.8744C90.1502 28.8965 90.1753 28.9186 90.2011 28.9414C90.2283 28.9641 90.2554 28.9869 90.2834 29.0104C90.311 29.0342 90.3387 29.058 90.3672 29.0825C90.3945 29.1075 90.4218 29.1325 90.4499 29.1582C90.4774 29.1853 90.5049 29.2123 90.5332 29.2402C90.5614 29.2707 90.5895 29.3012 90.6185 29.3326C90.6465 29.3651 90.6745 29.3976 90.7034 29.4311C90.7308 29.4651 90.7582 29.499 90.7864 29.534C90.8254 29.5858 90.8254 29.5858 90.8653 29.6387C90.8885 29.6722 90.9118 29.7057 90.9358 29.7402C90.9577 29.7745 90.9796 29.8088 91.0022 29.8441C91.0234 29.8799 91.0445 29.9157 91.0663 29.9526C91.0983 30.0109 91.0983 30.0109 91.1309 30.0704C91.1543 30.1154 91.1776 30.1604 91.2017 30.2068C91.2249 30.2543 91.2481 30.3017 91.272 30.3505C91.2939 30.3983 91.3158 30.446 91.3383 30.4952C91.3671 30.5643 91.3671 30.5643 91.3966 30.6349C91.4106 30.6758 91.4247 30.7168 91.4392 30.759C91.4505 30.7975 91.4617 30.836 91.4733 30.8756C91.483 30.9129 91.4927 30.9502 91.5027 30.9886C91.5115 31.0253 91.5203 31.062 91.5294 31.0998C91.5389 31.1375 91.5484 31.1752 91.5582 31.214C91.5672 31.251 91.5762 31.2879 91.5854 31.326C91.5931 31.3584 91.6007 31.3908 91.6086 31.4242C91.6187 31.4773 91.6187 31.4773 91.629 31.5314C91.6352 31.5745 91.6414 31.6176 91.6478 31.6619C91.6526 31.7175 91.6573 31.7731 91.6622 31.8303C91.6644 31.9089 91.6667 31.9876 91.6689 32.0686C91.6695 32.1577 91.67 32.2469 91.6705 32.3388C91.67 32.4335 91.6695 32.5281 91.6689 32.6257C91.6656 32.758 91.6656 32.758 91.6622 32.8929C91.6579 32.9557 91.6536 33.0186 91.6492 33.0833C91.6426 33.1362 91.6359 33.1891 91.629 33.2436C91.6199 33.2945 91.6108 33.3453 91.6014 33.3977C91.5822 33.4766 91.5822 33.4766 91.5626 33.557C91.5347 33.6523 91.5347 33.6523 91.5062 33.7495C91.4844 33.8154 91.4626 33.8814 91.4401 33.9493C91.4166 34.0131 91.3931 34.0769 91.3689 34.1427C91.3452 34.2015 91.3214 34.2602 91.2969 34.3208C91.2756 34.3682 91.2542 34.4157 91.2322 34.4646C91.2006 34.527 91.2006 34.527 91.1683 34.5906C91.1462 34.6293 91.1241 34.6681 91.1013 34.708C91.0782 34.7446 91.0551 34.7812 91.0313 34.8189C91.0068 34.8551 90.9823 34.8914 90.9571 34.9287C90.9309 34.9644 90.9047 35.0001 90.8777 35.0368C90.8498 35.0716 90.8218 35.1064 90.793 35.1422C90.7621 35.178 90.7311 35.2137 90.6992 35.2506C90.6631 35.2901 90.6271 35.3296 90.5899 35.3703C90.532 35.4302 90.532 35.4302 90.473 35.4913C90.4333 35.5299 90.3936 35.5685 90.3528 35.6083C90.3137 35.6437 90.2746 35.679 90.2343 35.7154C90.1814 35.7582 90.1814 35.7582 90.1273 35.8018C90.0928 35.8267 90.0582 35.8517 90.0226 35.8773C89.9874 35.9004 89.9522 35.9234 89.9159 35.9471C89.8785 35.9693 89.8412 35.9915 89.8027 36.0143C89.7389 36.0496 89.7389 36.0496 89.6738 36.0856C89.6294 36.1087 89.5849 36.1317 89.5391 36.1554C89.4948 36.1769 89.4505 36.1984 89.4048 36.2205C89.3608 36.2401 89.3167 36.2597 89.2713 36.2799C89.2276 36.2968 89.1839 36.3137 89.1389 36.3311C89.0977 36.3457 89.0565 36.3603 89.014 36.3754C88.9772 36.3877 88.9404 36.3999 88.9024 36.4125C88.8708 36.4236 88.8391 36.4346 88.8065 36.446C88.7626 36.4679 88.7188 36.4898 88.6736 36.5124C88.7086 36.5723 88.7436 36.6322 88.7796 36.6939C88.8275 36.7757 88.8754 36.8576 88.9248 36.942C88.9764 37.0301 89.028 37.1182 89.0812 37.2089C89.133 37.2969 89.1848 37.3848 89.2381 37.4754C89.2817 37.5482 89.3253 37.6211 89.3702 37.6961C89.4109 37.7637 89.4515 37.8312 89.4934 37.9008C89.5339 37.968 89.5743 38.0352 89.616 38.1045C89.6557 38.1708 89.6954 38.2372 89.7362 38.3055C89.7756 38.3726 89.8149 38.4396 89.8554 38.5087C89.8942 38.5752 89.9329 38.6417 89.9728 38.7102C90.0109 38.7757 90.0489 38.8411 90.0881 38.9086C90.1254 38.9726 90.1627 39.0366 90.2011 39.1025C90.2374 39.1641 90.2736 39.2257 90.311 39.2891C90.3645 39.3796 90.3645 39.3796 90.419 39.4719C90.4544 39.5316 90.4897 39.5912 90.5261 39.6527C90.5789 39.742 90.5789 39.742 90.6328 39.833C90.6684 39.8932 90.7039 39.9534 90.7406 40.0154C90.7941 40.1059 90.7941 40.1059 90.8486 40.1983C90.8841 40.2582 90.9194 40.3182 90.9559 40.3799C90.9917 40.4405 91.0276 40.5011 91.0645 40.5636C91.102 40.6269 91.1396 40.6903 91.1782 40.7555C91.2154 40.8182 91.2525 40.8809 91.2907 40.9454C91.3238 41.0013 91.3569 41.0571 91.391 41.1146C91.4257 41.1738 91.4604 41.2331 91.4962 41.2941C91.6277 41.5242 91.6277 41.5242 91.7618 41.759C91.5192 41.7621 91.2767 41.7652 91.0267 41.7683C90.5575 41.7719 90.5575 41.7719 90.0787 41.7756C89.7662 41.7787 89.4538 41.7818 89.1319 41.7849C88.7571 41.7721 88.7571 41.7721 88.3748 41.759C88.32 41.6713 88.2652 41.5837 88.2087 41.4933C88.1772 41.4361 88.1457 41.3789 88.1133 41.3199C88.079 41.2559 88.0448 41.1919 88.0095 41.126C87.9714 41.0552 87.9332 40.9843 87.8939 40.9113C87.8554 40.8404 87.8168 40.7695 87.7771 40.6964C87.7423 40.6347 87.7075 40.573 87.6716 40.5095C87.6372 40.4492 87.6029 40.389 87.5675 40.327C87.5321 40.2648 87.4967 40.2026 87.4603 40.1385C87.4224 40.0706 87.3845 40.0026 87.3454 39.9326C87.3013 39.8507 87.2572 39.7687 87.2118 39.6842C87.1661 39.5984 87.1205 39.5126 87.0735 39.4242C87.0285 39.3394 86.9835 39.2547 86.9372 39.1673C86.8966 39.0912 86.8559 39.015 86.8141 38.9365C86.7848 38.8829 86.7554 38.8293 86.7252 38.7741C86.687 38.7055 86.687 38.7055 86.648 38.6355C86.6228 38.5904 86.5975 38.5452 86.5714 38.4987C86.5419 38.4459 86.5124 38.3931 86.482 38.3387C86.4399 38.2623 86.3977 38.1859 86.3542 38.1072C86.285 37.9814 86.285 37.9814 86.2143 37.8531C86.1714 37.7753 86.1286 37.6975 86.0844 37.6173C86.0403 37.5376 85.9962 37.4579 85.9507 37.3758C85.8521 37.2004 85.7535 37.0251 85.6519 36.8445C84.5834 36.828 84.5834 36.828 83.4934 36.8113C83.4934 38.444 83.4934 40.0768 83.4934 41.759C82.5182 41.759 81.5429 41.759 80.5381 41.759C80.5381 39.2825 80.5381 36.8059 80.5381 34.2544C81.5743 34.2509 82.6105 34.2475 83.6782 34.244C84.261 34.2421 84.8439 34.2401 85.4445 34.2381C85.9183 34.2325 86.3922 34.2269 86.8805 34.2212C87.0449 34.1883 87.2092 34.1554 87.3786 34.1215C87.4472 34.0962 87.4472 34.0962 87.5173 34.0703C87.5516 34.0523 87.586 34.0343 87.6214 34.0157C87.6593 33.9952 87.6973 33.9748 87.7363 33.9537C87.7717 33.9324 87.8071 33.9111 87.8435 33.8891C87.8747 33.8685 87.906 33.8478 87.9382 33.8266C87.9665 33.8054 87.9948 33.7843 88.024 33.7625C88.0632 33.729 88.0632 33.729 88.1032 33.6948C88.127 33.6712 88.1509 33.6477 88.1755 33.6234C88.1974 33.5985 88.2192 33.5736 88.2417 33.548C88.2616 33.5215 88.2816 33.495 88.3021 33.4678C88.3202 33.4402 88.3384 33.4126 88.357 33.3841C88.3738 33.3535 88.3907 33.3229 88.408 33.2914C88.4245 33.2543 88.4409 33.2172 88.4579 33.1789C88.4805 33.1216 88.4805 33.1216 88.5035 33.0631C88.5164 33.0276 88.5293 32.992 88.5426 32.9554C88.5582 32.908 88.5582 32.908 88.574 32.8597C88.585 32.8159 88.5959 32.772 88.6072 32.7269C88.6098 32.6669 88.6124 32.6069 88.6151 32.5451C88.6159 32.4729 88.6168 32.4007 88.6176 32.3263C88.6188 32.2547 88.6201 32.1831 88.6214 32.1093C88.6167 32.0392 88.612 31.969 88.6072 31.8967C88.587 31.8311 88.5668 31.7656 88.546 31.698C88.5224 31.643 88.4987 31.5881 88.4744 31.5314C88.4584 31.4988 88.4425 31.4661 88.426 31.4325C88.4112 31.4083 88.3963 31.3841 88.381 31.3592C88.3638 31.3321 88.3466 31.3051 88.3289 31.2772C88.3111 31.2515 88.2934 31.2258 88.2752 31.1994C88.2581 31.1758 88.2411 31.1521 88.2235 31.1278C88.2056 31.1055 88.1878 31.0833 88.1693 31.0603C88.1496 31.0391 88.1299 31.0178 88.1096 30.9959C88.0765 30.9651 88.0765 30.9651 88.0427 30.9337C88.0172 30.9136 87.9917 30.8934 87.9654 30.8726C87.9368 30.8531 87.9082 30.8335 87.8788 30.8134C87.8478 30.7947 87.8168 30.776 87.7848 30.7568C87.7494 30.7385 87.714 30.7202 87.6774 30.7013C87.612 30.6728 87.612 30.6728 87.5451 30.6437C87.4991 30.6257 87.453 30.6077 87.4056 30.5892C87.3626 30.5732 87.3197 30.5572 87.2755 30.5407C87.2328 30.5279 87.1901 30.5152 87.1461 30.502C87.0585 30.4911 86.9708 30.4801 86.8805 30.4688C86.1809 30.4636 86.1809 30.4636 85.4671 30.4583C84.5888 30.4543 84.5888 30.4543 83.6927 30.4502C83.1064 30.4474 82.5202 30.4446 81.9161 30.4417C81.234 30.4387 81.234 30.4387 80.5381 30.4356C80.5381 29.5919 80.5381 28.7481 80.5381 27.8787Z" fill="black"/>
<path d="M62.2086 27.8788C63.1949 27.8788 64.1811 27.8788 65.1972 27.8788C65.1988 28.4887 65.2005 29.0986 65.2021 29.7269C65.2046 30.5142 65.2071 31.3015 65.2097 32.1126C65.212 32.8985 65.2143 33.6844 65.2167 34.4941C65.2212 35.1273 65.2257 35.7605 65.2304 36.4128C65.2523 36.5881 65.2742 36.7635 65.2968 36.9441C65.3105 37.0099 65.3242 37.0756 65.3383 37.1433C65.3512 37.1905 65.3512 37.1905 65.3643 37.2387C65.3802 37.2901 65.3802 37.2901 65.3964 37.3426C65.4105 37.3854 65.4245 37.4283 65.439 37.4724C65.4551 37.5179 65.4712 37.5634 65.4878 37.6103C65.5052 37.6553 65.5226 37.7003 65.5405 37.7466C65.5587 37.7886 65.5769 37.8306 65.5957 37.8739C65.6135 37.908 65.6314 37.9421 65.6498 37.9773C65.6682 38.0075 65.6867 38.0378 65.7057 38.069C65.7252 38.0975 65.7446 38.1261 65.7647 38.1555C65.7856 38.1831 65.8066 38.2107 65.8281 38.2392C65.8515 38.2678 65.8748 38.2964 65.8988 38.3259C65.9357 38.3682 65.9357 38.3682 65.9734 38.4114C65.9989 38.4385 66.0244 38.4656 66.0507 38.4935C66.0759 38.5192 66.101 38.5448 66.127 38.5712C66.1494 38.5945 66.1718 38.6177 66.1949 38.6417C66.2177 38.6636 66.2405 38.6856 66.264 38.7082C66.2886 38.7294 66.3133 38.7506 66.3387 38.7724C66.3674 38.7937 66.3962 38.815 66.4258 38.8369C66.4628 38.8599 66.4998 38.8828 66.5379 38.9065C66.5995 38.9409 66.5995 38.9409 66.6624 38.9759C66.727 39.0087 66.727 39.0087 66.7929 39.0421C66.8362 39.062 66.8794 39.082 66.9239 39.1025C66.9637 39.119 67.0036 39.1356 67.0446 39.1526C67.104 39.174 67.104 39.174 67.1647 39.1959C67.2059 39.2086 67.2471 39.2213 67.2896 39.2343C67.3333 39.2456 67.377 39.2569 67.422 39.2686C67.4702 39.2792 67.5183 39.2898 67.568 39.3007C67.6191 39.31 67.6703 39.3192 67.723 39.3287C67.8026 39.34 67.8026 39.34 67.8839 39.3514C67.9397 39.357 67.9955 39.3625 68.0529 39.3682C68.1125 39.3713 68.172 39.3744 68.2334 39.3776C68.2944 39.3786 68.3554 39.3796 68.4182 39.3806C68.5097 39.3791 68.5097 39.3791 68.6031 39.3776C68.6924 39.373 68.6924 39.373 68.7835 39.3682C68.8393 39.3627 68.895 39.3571 68.9525 39.3514C69.0056 39.3439 69.0587 39.3365 69.1135 39.3287C69.1645 39.3196 69.2155 39.3104 69.2681 39.301C69.3164 39.2903 69.3647 39.2796 69.4144 39.2686C69.4817 39.2504 69.4817 39.2504 69.5503 39.232C69.5925 39.2187 69.6346 39.2054 69.678 39.1918C69.7179 39.1773 69.7579 39.1628 69.799 39.1479C69.8365 39.1329 69.8739 39.118 69.9125 39.1025C69.9469 39.0882 69.9812 39.0739 70.0167 39.0592C70.0494 39.044 70.0822 39.0289 70.1159 39.0133C70.1477 38.9965 70.1795 38.9797 70.2123 38.9624C70.2448 38.9429 70.2774 38.9234 70.311 38.9033C70.3473 38.879 70.3837 38.8547 70.4211 38.8296C70.4765 38.789 70.4765 38.789 70.533 38.7476C70.5689 38.7189 70.6048 38.6901 70.6417 38.6605C70.675 38.631 70.7083 38.6016 70.7427 38.5712C70.7705 38.5431 70.7983 38.5151 70.827 38.4861C70.8519 38.4574 70.8768 38.4286 70.9025 38.399C70.9258 38.3684 70.9492 38.3378 70.9733 38.3062C71.0071 38.2566 71.0071 38.2566 71.0415 38.206C71.0647 38.1691 71.0879 38.1322 71.1118 38.0943C71.1345 38.0544 71.1572 38.0146 71.1806 37.9735C71.2127 37.9103 71.2127 37.9103 71.2456 37.8459C71.2659 37.8003 71.2862 37.7548 71.3072 37.7079C71.3361 37.6313 71.3361 37.6313 71.3657 37.5532C71.3833 37.5002 71.401 37.4471 71.4192 37.3924C71.4346 37.3441 71.4499 37.2958 71.4657 37.2461C71.4791 37.1903 71.4926 37.1344 71.5064 37.0769C71.5283 36.9126 71.5502 36.7482 71.5728 36.5788C71.5774 35.9348 71.5819 35.2907 71.5866 34.6271C71.5889 33.8254 71.5912 33.0237 71.5936 32.1977C71.5961 31.3947 71.5985 30.5917 71.6011 29.7644C71.6027 29.1422 71.6043 28.5199 71.606 27.8788C72.5923 27.8788 73.5785 27.8788 74.5946 27.8788C74.5961 28.5172 74.5977 29.1557 74.5993 29.8134C74.6005 30.64 74.6017 31.4665 74.6029 32.3181C74.6044 33.1421 74.606 33.9661 74.6076 34.8151C74.6033 35.4958 74.599 36.1764 74.5946 36.8777C74.5508 37.1955 74.5069 37.5133 74.4618 37.8407C74.4001 38.0657 74.4001 38.0657 74.3372 38.2952C74.3024 38.4006 74.3024 38.4006 74.2669 38.5081C74.2436 38.5727 74.2202 38.6374 74.1961 38.704C74.1748 38.7595 74.1535 38.8149 74.1315 38.872C74.1104 38.9221 74.0892 38.9721 74.0674 39.0237C74.0456 39.0704 74.0237 39.1171 74.0012 39.1652C73.9778 39.2102 73.9545 39.2553 73.9305 39.3018C73.9041 39.3485 73.8776 39.3953 73.8504 39.4435C73.8227 39.4892 73.795 39.5349 73.7665 39.5819C73.7382 39.6254 73.7099 39.6688 73.6808 39.7136C73.6536 39.753 73.6264 39.7924 73.5984 39.8331C73.5757 39.8646 73.5529 39.8962 73.5295 39.9287C73.5071 39.9574 73.4846 39.9861 73.4614 40.0157C73.437 40.0442 73.4126 40.0726 73.3875 40.102C73.3585 40.1338 73.3294 40.1656 73.2995 40.1983C73.2416 40.2609 73.2416 40.2609 73.1825 40.3248C73.1172 40.3927 73.1172 40.3927 73.0505 40.4619C72.9817 40.5296 72.9817 40.5296 72.9114 40.5988C72.8642 40.6419 72.8169 40.6851 72.7682 40.7296C72.7217 40.767 72.6751 40.8044 72.6271 40.8429C72.5805 40.8767 72.534 40.9106 72.486 40.9455C72.4392 40.9771 72.3924 41.0087 72.3442 41.0412C72.2979 41.0699 72.2515 41.0986 72.2037 41.1281C72.1357 41.166 72.1357 41.166 72.0664 41.2046C72.022 41.2273 71.9776 41.25 71.9319 41.2734C71.8659 41.3045 71.8659 41.3045 71.7985 41.3363C71.7569 41.3553 71.7153 41.3742 71.6724 41.3938C71.637 41.411 71.6016 41.4283 71.565 41.446C71.5299 41.4623 71.4948 41.4787 71.4587 41.4955C71.421 41.5112 71.3832 41.5269 71.3444 41.5431C71.2992 41.5595 71.2541 41.576 71.2075 41.593C71.1157 41.6223 71.1157 41.6223 71.0219 41.6523C70.9531 41.6724 70.8842 41.6926 70.8132 41.7134C70.7066 41.7424 70.7066 41.7424 70.5978 41.772C70.525 41.7896 70.4523 41.8073 70.3774 41.8254C70.2678 41.8468 70.2678 41.8468 70.156 41.8685C70.0859 41.8803 70.0158 41.8921 69.9436 41.9043C69.8802 41.9142 69.8168 41.924 69.7515 41.9341C69.6951 41.9421 69.6386 41.9501 69.5804 41.9583C69.4928 41.9692 69.4051 41.9802 69.3148 41.9915C69.188 41.9937 69.0613 41.9959 68.9307 41.9982C68.7773 41.9987 68.624 41.9992 68.466 41.9998C68.3139 42.0006 68.1618 42.0015 68.0051 42.0024C67.8565 41.9988 67.7079 41.9952 67.5549 41.9915C67.3493 41.9689 67.3493 41.9689 67.1395 41.9459C67.0245 41.9281 66.9096 41.9102 66.7911 41.8919C66.6052 41.8538 66.6052 41.8538 66.4155 41.8151C66.3554 41.8006 66.2954 41.7862 66.2336 41.7714C66.1479 41.7488 66.1479 41.7488 66.0606 41.7258C65.9831 41.7038 65.9831 41.7038 65.9041 41.6813C65.8551 41.6659 65.806 41.6504 65.7555 41.6345C65.6835 41.6093 65.6835 41.6093 65.6101 41.5837C65.5615 41.5648 65.5129 41.546 65.4629 41.5266C65.4105 41.5043 65.3582 41.4821 65.3042 41.4591C65.2511 41.4348 65.198 41.4105 65.1432 41.3855C65.091 41.3598 65.0387 41.3342 64.9849 41.3078C64.9092 41.2681 64.9092 41.2681 64.8319 41.2277C64.7852 41.2017 64.7385 41.1756 64.6904 41.1487C64.646 41.1221 64.6016 41.0954 64.5559 41.0679C64.5131 41.0403 64.4703 41.0126 64.4262 40.9841C64.364 40.9403 64.364 40.9403 64.3006 40.8957C64.2599 40.8637 64.2191 40.8318 64.1771 40.7989C64.1378 40.7658 64.0984 40.7326 64.0578 40.6985C64.0201 40.6649 63.9823 40.6312 63.9434 40.5965C63.9079 40.5638 63.8723 40.531 63.8357 40.4972C63.8036 40.4678 63.7715 40.4385 63.7385 40.4082C63.7082 40.3794 63.678 40.3505 63.6469 40.3208C63.6177 40.2909 63.5886 40.261 63.5585 40.2302C63.5295 40.1978 63.5004 40.1653 63.4705 40.1319C63.4397 40.094 63.4089 40.0561 63.3772 40.017C63.3463 39.9762 63.3155 39.9353 63.2837 39.8932C63.2537 39.851 63.2237 39.8088 63.1928 39.7654C63.1639 39.7219 63.135 39.6785 63.1052 39.6338C63.078 39.5897 63.0508 39.5456 63.0228 39.5002C62.9845 39.4338 62.9845 39.4338 62.9454 39.3661C62.9093 39.2996 62.9093 39.2996 62.8725 39.2318C62.8507 39.1892 62.8288 39.1465 62.8063 39.1025C62.7879 39.0643 62.7695 39.0261 62.7506 38.9867C62.7258 38.931 62.7258 38.931 62.7005 38.8742C62.685 38.8363 62.6696 38.7984 62.6537 38.7593C62.6383 38.7192 62.6229 38.679 62.6071 38.6376C62.59 38.5927 62.573 38.5477 62.5554 38.5014C62.5296 38.4291 62.5296 38.4291 62.5033 38.3554C62.487 38.3052 62.4706 38.255 62.4538 38.2032C62.4311 38.1224 62.4311 38.1224 62.4079 38.0399C62.3948 37.9795 62.3817 37.9191 62.3682 37.8569C62.3566 37.7947 62.3451 37.7325 62.3332 37.6684C62.3234 37.6118 62.3136 37.5552 62.3036 37.4968C62.2942 37.435 62.2847 37.3731 62.275 37.3094C62.2531 37.145 62.2312 36.9806 62.2086 36.8113C62.2065 36.1504 62.2044 35.4896 62.2021 34.8087C62.2029 33.9854 62.2037 33.1621 62.2045 32.3139C62.2051 31.4894 62.2057 30.6648 62.2063 29.8153C62.2071 29.1762 62.2078 28.5372 62.2086 27.8788Z" fill="black"/>
<path d="M44.045 27.8788C44.2936 27.8746 44.5422 27.8703 44.7983 27.866C45.1195 27.8627 45.4407 27.8594 45.7717 27.856C46.0922 27.8517 46.4127 27.8475 46.743 27.8431C47.0032 27.8549 47.2635 27.8667 47.5316 27.8788C47.6193 27.9993 47.7069 28.1199 47.7973 28.2441C47.8692 28.3525 47.9411 28.4608 48.0152 28.5725C48.1374 28.7592 48.1374 28.7592 48.2622 28.9497C48.3916 29.1467 48.3916 29.1467 48.5237 29.3477C48.6408 29.5246 48.6408 29.5246 48.7603 29.7052C48.8089 29.7759 48.8575 29.8466 48.9076 29.9194C48.9662 30.0024 48.9662 30.0024 49.0259 30.087C49.0652 30.1427 49.1044 30.1983 49.1448 30.2557C49.1933 30.326 49.2417 30.3964 49.2916 30.4689C49.3677 30.5838 49.4439 30.6987 49.5223 30.8171C49.6071 30.946 49.6919 31.0749 49.7793 31.2077C49.8986 31.3898 49.8986 31.3898 50.0204 31.5756C50.1363 31.751 50.1363 31.751 50.2545 31.93C50.3342 32.049 50.4139 32.168 50.4959 32.2906C50.5901 32.4244 50.5901 32.4244 50.6862 32.5609C50.7081 32.5609 50.7301 32.5609 50.7526 32.5609C50.8174 32.4658 50.8821 32.3708 50.9488 32.2728C51.032 32.1453 51.1152 32.0178 51.2009 31.8864C51.2889 31.7519 51.3769 31.6175 51.4676 31.479C51.5494 31.3539 51.6313 31.2287 51.7156 31.0998C51.7694 31.0189 51.8231 30.9379 51.8785 30.8545C51.9234 30.7875 51.9683 30.7206 52.0145 30.6515C52.0597 30.5839 52.1049 30.5163 52.1514 30.4466C52.2049 30.3663 52.2583 30.286 52.3133 30.2033C52.3921 30.0839 52.4709 29.9646 52.552 29.8416C52.6804 29.6467 52.6804 29.6467 52.8114 29.4478C52.8916 29.3261 52.9717 29.2043 53.0542 29.0789C53.1275 28.9678 53.2008 28.8567 53.2763 28.7422C53.3359 28.653 53.3955 28.5638 53.4569 28.4719C53.5319 28.3591 53.5319 28.3591 53.6084 28.2441C53.6851 28.1235 53.7618 28.003 53.8408 27.8788C54.1048 27.867 54.3688 27.8553 54.6408 27.8431C55.1314 27.8495 55.1314 27.8495 55.6319 27.856C55.9596 27.8593 56.2872 27.8626 56.6248 27.866C56.8786 27.8702 57.1324 27.8744 57.3939 27.8788C57.372 27.9336 57.3501 27.9884 57.3275 28.0448C57.2984 28.0872 57.2694 28.1295 57.2394 28.1731C57.2034 28.2219 57.1674 28.2706 57.1303 28.3209C57.0913 28.3742 57.0522 28.4276 57.012 28.4826C56.9737 28.5354 56.9353 28.5882 56.8958 28.6426C56.865 28.6868 56.8342 28.731 56.8024 28.7765C56.7736 28.8186 56.7449 28.8607 56.7152 28.9041C56.6709 28.9689 56.6709 28.9689 56.6257 29.0351C56.5786 29.1038 56.5786 29.1038 56.5305 29.1739C56.4943 29.2258 56.4581 29.2778 56.4208 29.3313C56.3631 29.4136 56.3631 29.4136 56.3043 29.4976C56.2651 29.5536 56.2258 29.6096 56.1854 29.6673C56.1459 29.7236 56.1064 29.7799 56.0656 29.838C56.0079 29.9204 56.0079 29.9204 55.949 30.0045C55.8917 30.0865 55.8917 30.0865 55.8332 30.17C55.7948 30.2248 55.7565 30.2796 55.717 30.3361C55.6786 30.3909 55.6403 30.4457 55.6008 30.5021C55.5624 30.5569 55.524 30.6117 55.4845 30.6681C55.4462 30.7229 55.4078 30.7777 55.3683 30.8342C55.33 30.889 55.2916 30.9438 55.2521 31.0002C55.2137 31.055 55.1754 31.1098 55.1359 31.1662C55.0975 31.221 55.0592 31.2758 55.0196 31.3323C54.9813 31.3871 54.9429 31.4418 54.9034 31.4983C54.8651 31.5531 54.8267 31.6079 54.7872 31.6643C54.7488 31.7191 54.7105 31.7739 54.671 31.8304C54.6326 31.8852 54.5943 31.9399 54.5548 31.9964C54.5164 32.0512 54.478 32.106 54.4385 32.1624C54.4002 32.2172 54.3618 32.272 54.3223 32.3285C54.284 32.3832 54.2456 32.438 54.2061 32.4945C54.1677 32.5493 54.1294 32.6041 54.0899 32.6605C54.0515 32.7153 54.0132 32.7701 53.9736 32.8266C53.9353 32.8813 53.8969 32.9361 53.8574 32.9926C53.8191 33.0474 53.7807 33.1022 53.7412 33.1586C53.7028 33.2134 53.6645 33.2682 53.625 33.3246C53.5866 33.3794 53.5483 33.4342 53.5088 33.4907C53.452 33.5718 53.452 33.5718 53.3941 33.6545C53.3552 33.71 53.3164 33.7655 53.2763 33.8227C53.2333 33.8841 53.1904 33.9454 53.1461 34.0086C53.1041 34.0685 53.0622 34.1284 53.019 34.1901C52.9808 34.2446 52.9426 34.2991 52.9033 34.3552C52.873 34.3987 52.8426 34.4421 52.8114 34.4869C52.7895 34.5197 52.7676 34.5526 52.745 34.5865C52.756 34.6303 52.7669 34.6742 52.7782 34.7193C52.8082 34.765 52.8382 34.8107 52.8691 34.8577C52.9083 34.9127 52.9475 34.9677 52.9878 35.0244C53.0301 35.084 53.0723 35.1436 53.1159 35.205C53.1578 35.2639 53.1998 35.3228 53.2431 35.3834C53.2779 35.4328 53.3127 35.4821 53.3486 35.5329C53.3809 35.5788 53.4132 35.6246 53.4465 35.6719C53.4789 35.7177 53.5112 35.7635 53.5446 35.8107C53.5926 35.8786 53.5926 35.8786 53.6416 35.9479C53.6896 36.0159 53.6896 36.0159 53.7386 36.0852C53.771 36.131 53.8033 36.1768 53.8367 36.224C53.8695 36.2704 53.9022 36.3169 53.936 36.3647C53.9704 36.4135 54.0047 36.4622 54.0401 36.5125C54.0967 36.5933 54.0967 36.5933 54.1545 36.6758C54.1934 36.7315 54.2324 36.7871 54.2725 36.8445C54.3115 36.9002 54.3504 36.9559 54.3905 37.0133C54.4472 37.0941 54.4472 37.0941 54.5049 37.1766C54.5393 37.2253 54.5736 37.2741 54.609 37.3243C54.6582 37.394 54.6582 37.394 54.7083 37.4651C54.7406 37.5107 54.7729 37.5564 54.8061 37.6035C54.8382 37.6489 54.8703 37.6943 54.9034 37.7411C54.9526 37.8108 54.9526 37.8108 55.0028 37.8818C55.0357 37.9285 55.0687 37.9752 55.1027 38.0233C55.1355 38.0699 55.1684 38.1165 55.2023 38.1645C55.2352 38.211 55.268 38.2576 55.3019 38.3056C55.3348 38.3522 55.3676 38.3987 55.4015 38.4467C55.4344 38.4933 55.4673 38.5399 55.5011 38.5878C55.534 38.6344 55.5669 38.681 55.6008 38.729C55.6336 38.7755 55.6665 38.8221 55.7004 38.8701C55.7332 38.9167 55.7661 38.9632 55.8 39.0112C55.8329 39.0578 55.8657 39.1044 55.8996 39.1524C55.9325 39.1989 55.9654 39.2455 55.9992 39.2935C56.0321 39.3401 56.065 39.3866 56.0989 39.4346C56.1317 39.4812 56.1646 39.5278 56.1985 39.5757C56.2313 39.6223 56.2642 39.6689 56.2981 39.7169C56.331 39.7634 56.3638 39.81 56.3977 39.858C56.4306 39.9046 56.4635 39.9511 56.4973 39.9991C56.5302 40.0457 56.5631 40.0923 56.5969 40.1402C56.6298 40.1868 56.6627 40.2334 56.6966 40.2814C56.7294 40.3279 56.7623 40.3745 56.7962 40.4225C56.8291 40.4691 56.8619 40.5156 56.8958 40.5636C56.9287 40.6102 56.9615 40.6568 56.9954 40.7048C57.0283 40.7513 57.0612 40.7979 57.095 40.8459C57.1274 40.8918 57.1598 40.9377 57.1932 40.9851C57.2266 41.0323 57.2599 41.0795 57.2943 41.1281C57.3314 41.1805 57.3685 41.2328 57.4067 41.2868C57.4429 41.3378 57.4791 41.3889 57.5163 41.4415C57.5493 41.488 57.5823 41.5346 57.6164 41.5825C57.6416 41.6189 57.6668 41.6552 57.6928 41.6926C57.7037 41.7146 57.7147 41.7365 57.726 41.7591C57.4745 41.7664 57.223 41.7737 56.9639 41.7812C56.4751 41.7898 56.4751 41.7898 55.9764 41.7985C55.6516 41.8058 55.3269 41.8131 54.9923 41.8207C54.7219 41.8003 54.4515 41.78 54.1729 41.7591C54.0304 41.5508 53.888 41.3426 53.7412 41.1281C53.6823 41.0425 53.6234 40.9569 53.5627 40.8687C53.5334 40.826 53.504 40.7834 53.4737 40.7394C53.4415 40.6923 53.4092 40.6453 53.3759 40.5968C53.3361 40.5385 53.2963 40.4801 53.2553 40.42C53.2129 40.3578 53.1705 40.2956 53.1269 40.2316C53.0845 40.1694 53.0421 40.1072 52.9985 40.0431C52.9587 39.9847 52.9189 39.9264 52.8778 39.8663C52.8456 39.8192 52.8133 39.7722 52.78 39.7237C52.7507 39.6811 52.7213 39.6384 52.6911 39.5944C52.6621 39.5524 52.6332 39.5103 52.6034 39.467C52.5584 39.4017 52.5584 39.4017 52.5126 39.335C52.4785 39.2853 52.4444 39.2355 52.4093 39.1843C52.3735 39.132 52.3377 39.0797 52.3009 39.0258C52.2647 38.9728 52.2284 38.9199 52.1911 38.8653C52.1366 38.7855 52.1366 38.7855 52.0809 38.7041C52.0452 38.6519 52.0095 38.5997 51.9727 38.546C51.9372 38.494 51.9016 38.4421 51.865 38.3886C51.8294 38.3366 51.7938 38.2845 51.7571 38.2309C51.7215 38.1788 51.6859 38.1268 51.6492 38.0732C51.6136 38.0211 51.578 37.969 51.5413 37.9154C51.5057 37.8634 51.4701 37.8113 51.4334 37.7577C51.3807 37.6806 51.3807 37.6806 51.327 37.602C51.2909 37.5493 51.2547 37.4966 51.2175 37.4422C51.1773 37.384 51.137 37.3258 51.0956 37.2658C51.0564 37.209 51.0172 37.1521 50.9768 37.0936C50.941 37.0419 50.9052 36.9901 50.8683 36.9369C50.8411 36.8954 50.8139 36.854 50.7858 36.8113C50.7749 36.7784 50.7639 36.7456 50.7526 36.7117C50.7088 36.7555 50.665 36.7994 50.6198 36.8445C50.5803 36.9021 50.5407 36.9597 50.5 37.019C50.4546 37.0881 50.4092 37.1572 50.3625 37.2285C50.3174 37.297 50.2724 37.3655 50.226 37.4361C50.1806 37.5039 50.1353 37.5717 50.0885 37.6415C50.0433 37.704 49.9982 37.7665 49.9517 37.8308C49.9092 37.8889 49.8666 37.9469 49.8229 38.0067C49.7874 38.0579 49.7519 38.109 49.7153 38.1617C49.6648 38.236 49.6648 38.236 49.6132 38.3118C49.5761 38.3663 49.539 38.4207 49.5008 38.4768C49.4465 38.5564 49.4465 38.5564 49.3912 38.6377C49.3595 38.6839 49.3277 38.7301 49.2951 38.7778C49.2651 38.8212 49.2352 38.8647 49.2044 38.9095C49.1748 38.9525 49.1453 38.9954 49.1149 39.0396C49.0855 39.0823 49.0562 39.125 49.0259 39.169C48.9959 39.2127 48.9658 39.2564 48.9348 39.3014C48.9046 39.3454 48.8744 39.3893 48.8433 39.4346C48.8129 39.4787 48.7826 39.5229 48.7513 39.5683C48.7214 39.6119 48.6915 39.6554 48.6606 39.7003C48.6324 39.7414 48.6042 39.7825 48.5752 39.8249C48.5465 39.8666 48.5179 39.9084 48.4884 39.9514C48.4432 40.0171 48.4432 40.0171 48.3972 40.0841C48.3636 40.1328 48.33 40.1814 48.2954 40.2316C48.2546 40.2902 48.2138 40.3488 48.1717 40.4091C48.1276 40.4724 48.0835 40.5358 48.038 40.601C47.9933 40.6652 47.9486 40.7294 47.9025 40.7956C47.834 40.8944 47.834 40.8944 47.7641 40.9953C47.7167 41.0647 47.6693 41.134 47.6205 41.2054C47.5754 41.2717 47.5303 41.338 47.4839 41.4062C47.4428 41.4668 47.4018 41.5273 47.3595 41.5896C47.3132 41.6571 47.3132 41.6571 47.266 41.7258C47.255 41.7368 47.2441 41.7478 47.2328 41.7591C46.85 41.7607 46.85 41.7607 46.4595 41.7623C45.9701 41.7617 45.9701 41.7617 45.4708 41.7611C45.1444 41.7608 44.818 41.7605 44.4817 41.7602C44.1011 41.7596 44.1011 41.7596 43.7129 41.7591C43.828 41.5782 43.828 41.5782 43.9453 41.3938C43.9738 41.3538 44.0023 41.3137 44.0316 41.2725C44.0721 41.2185 44.0721 41.2185 44.1134 41.1634C44.1447 41.1212 44.176 41.079 44.2083 41.0355C44.242 40.9894 44.2758 40.9432 44.3106 40.8957C44.3475 40.8434 44.3843 40.7911 44.4223 40.7372C44.48 40.6544 44.48 40.6544 44.5389 40.5699C44.5978 40.4854 44.5978 40.4854 44.6578 40.3992C44.7161 40.3162 44.7161 40.3162 44.7755 40.2316C44.8119 40.1811 44.8483 40.1305 44.8859 40.0785C44.9391 40.0053 44.9391 40.0053 44.9934 39.9306C45.0286 39.8821 45.0639 39.8335 45.1002 39.7835C45.1355 39.7341 45.1708 39.6847 45.2072 39.6338C45.2435 39.581 45.2799 39.5282 45.3173 39.4738C45.3536 39.4204 45.3898 39.3671 45.4272 39.3122C45.4629 39.2596 45.4987 39.207 45.5355 39.1529C45.5696 39.1034 45.6037 39.0539 45.6389 39.0029C45.6692 38.961 45.6996 38.919 45.7308 38.8758C45.7747 38.8165 45.7747 38.8165 45.8194 38.756C45.8489 38.7162 45.8783 38.6764 45.9087 38.6355C45.9402 38.5923 45.9717 38.5492 46.0041 38.5048C46.0596 38.4263 46.0596 38.4263 46.1162 38.3462C46.1552 38.2903 46.1943 38.2345 46.2345 38.1769C46.2934 38.0925 46.2934 38.0925 46.3534 38.0064C46.3916 37.9517 46.4297 37.897 46.469 37.8407C46.5034 37.7919 46.5378 37.743 46.5732 37.6927C46.6223 37.6232 46.6223 37.6232 46.6724 37.5522C46.7209 37.4837 46.7209 37.4837 46.7703 37.4137C46.8024 37.3683 46.8345 37.3229 46.8675 37.2762C46.8999 37.2301 46.9323 37.1841 46.9657 37.1366C46.9983 37.0902 47.031 37.0438 47.0647 36.996C47.0975 36.9494 47.1304 36.9028 47.1643 36.8548C47.1978 36.8076 47.2314 36.7603 47.266 36.7117C47.3009 36.6635 47.3358 36.6152 47.3718 36.5655C47.4074 36.5165 47.443 36.4675 47.4797 36.417C47.5156 36.3674 47.5516 36.3178 47.5886 36.2668C47.6246 36.2164 47.6606 36.1659 47.6976 36.114C47.7333 36.0622 47.769 36.0104 47.8057 35.957C47.8413 35.9047 47.8768 35.8524 47.9135 35.7985C47.9487 35.7467 47.9839 35.6948 48.0202 35.6414C48.0562 35.5892 48.0922 35.5369 48.1293 35.4831C48.1684 35.4284 48.2075 35.3737 48.2478 35.3174C48.2861 35.2646 48.3244 35.2117 48.3639 35.1572C48.4158 35.086 48.4158 35.086 48.4688 35.0134C48.4992 34.9711 48.5297 34.9289 48.561 34.8853C48.5884 34.8503 48.6157 34.8152 48.6439 34.7791C48.6604 34.7484 48.6769 34.7177 48.6938 34.6861C48.6888 34.6593 48.6837 34.6325 48.6785 34.6049C48.6617 34.5769 48.6448 34.5489 48.6274 34.5201C48.6051 34.4852 48.5827 34.4504 48.5597 34.4145C48.5172 34.3537 48.5172 34.3537 48.4738 34.2918C48.4411 34.2448 48.4084 34.1978 48.3746 34.1494C48.3375 34.0964 48.3004 34.0434 48.2622 33.9888C48.2206 33.9289 48.179 33.8691 48.1362 33.8074C48.0922 33.744 48.0481 33.6806 48.0027 33.6152C47.9574 33.5501 47.9121 33.485 47.8654 33.4179C47.821 33.3543 47.7766 33.2906 47.7309 33.225C47.6909 33.1679 47.651 33.1107 47.6098 33.0519C47.5717 32.9974 47.5336 32.9429 47.4943 32.8867C47.4564 32.8327 47.4186 32.7787 47.3796 32.723C47.3421 32.6695 47.3046 32.616 47.266 32.5609C47.2285 32.5074 47.191 32.4539 47.1523 32.3988C47.1145 32.3447 47.0767 32.2907 47.0377 32.2351C46.9994 32.1804 46.9611 32.1257 46.9217 32.0694C46.8819 32.0124 46.8421 31.9555 46.8011 31.8968C46.7578 31.8347 46.7146 31.7726 46.6701 31.7086C46.6256 31.6447 46.5812 31.5807 46.5354 31.5149C46.491 31.451 46.4466 31.3871 46.4008 31.3212C46.3576 31.2591 46.3143 31.197 46.2698 31.133C46.23 31.0761 46.1902 31.0191 46.1491 30.9604C46.1109 30.9057 46.0726 30.8511 46.0332 30.7947C45.9953 30.7407 45.9575 30.6867 45.9185 30.631C45.881 30.5775 45.8435 30.524 45.8049 30.4689C45.7674 30.4154 45.7299 30.3619 45.6913 30.3068C45.6345 30.2257 45.6345 30.2257 45.5766 30.1431C45.5383 30.0884 45.5001 30.0337 45.4606 29.9774C45.4208 29.9205 45.381 29.8635 45.34 29.8048C45.2968 29.7427 45.2535 29.6806 45.209 29.6166C45.1646 29.5527 45.1201 29.4887 45.0743 29.4229C45.008 29.3275 45.008 29.3275 44.9404 29.2302C44.8969 29.1677 44.8535 29.1053 44.8087 29.041C44.767 28.9814 44.7252 28.9217 44.6822 28.8602C44.6226 28.7751 44.6226 28.7751 44.5617 28.6882C44.5244 28.6348 44.487 28.5814 44.4485 28.5263C44.4139 28.477 44.3794 28.4277 44.3438 28.3769C44.3123 28.3324 44.2809 28.2879 44.2485 28.242C44.221 28.203 44.1936 28.1639 44.1653 28.1237C44.1418 28.0904 44.1182 28.0571 44.094 28.0228C44.0778 27.9972 44.0616 27.9716 44.045 27.9452C44.045 27.9233 44.045 27.9014 44.045 27.8788Z" fill="black"/>
<path d="M50.9512 7.05837C51.1906 7.05144 51.43 7.0445 51.6767 7.03736C51.9858 7.03196 52.295 7.02657 52.6136 7.02101C52.9221 7.01408 53.2307 7.00714 53.5487 7C53.7983 7.01926 54.0479 7.03852 54.305 7.05837C54.3817 7.25562 54.4584 7.45286 54.5375 7.65608C54.5756 7.76203 54.6137 7.86797 54.653 7.97712C54.6937 8.0924 54.7343 8.20767 54.7761 8.32644C54.8459 8.52355 54.8459 8.52355 54.9171 8.72465C54.9672 8.86514 55.0172 9.00563 55.0688 9.15037C55.1212 9.29497 55.1736 9.43956 55.2277 9.58854C55.2821 9.73776 55.3365 9.88697 55.3925 10.0407C55.4484 10.194 55.5042 10.3473 55.5618 10.5052C55.6183 10.6608 55.6747 10.8164 55.7329 10.9767C55.789 11.1333 55.8451 11.29 55.9029 11.4513C55.9585 11.607 56.014 11.7627 56.0712 11.9231C56.1262 12.0774 56.1812 12.2317 56.2379 12.3907C56.2904 12.5377 56.3429 12.6848 56.397 12.8363C56.4437 12.9658 56.4904 13.0954 56.5385 13.2289C56.5836 13.3534 56.6287 13.4779 56.6751 13.6062C56.7204 13.7312 56.7657 13.8562 56.8123 13.985C56.8862 14.1889 56.8862 14.1889 56.9615 14.397C57.0217 14.5637 57.0819 14.7305 57.1439 14.9023C57.2385 15.1648 57.2385 15.1648 57.3351 15.4326C57.3963 15.6024 57.4576 15.7722 57.5207 15.9472C57.5773 16.104 57.6338 16.2609 57.6921 16.4226C57.7387 16.5524 57.7853 16.6822 57.8333 16.816C57.8723 16.9245 57.9113 17.033 57.9515 17.1448C57.9846 17.2371 58.0177 17.3294 58.0517 17.4245C58.0755 17.4883 58.0993 17.5522 58.1237 17.618C58.1347 17.6289 58.1457 17.6399 58.1569 17.6512C58.1952 17.5446 58.2334 17.4379 58.2728 17.3281C58.3256 17.1806 58.3785 17.0331 58.433 16.8812C58.4909 16.7197 58.5488 16.5581 58.6085 16.3917C58.6677 16.2265 58.7269 16.0614 58.7879 15.8913C58.8392 15.748 58.8905 15.6048 58.9434 15.4572C58.9934 15.3176 59.0435 15.178 59.095 15.0341C59.1469 14.8894 59.1988 14.7447 59.2522 14.5956C59.3347 14.3658 59.3347 14.3658 59.4188 14.1313C59.4806 13.9593 59.5424 13.7872 59.6061 13.61C59.6703 13.4314 59.7345 13.2528 59.8007 13.0687C59.8649 12.8901 59.9291 12.7115 59.9952 12.5274C60.057 12.3554 60.1188 12.1834 60.1825 12.0061C60.265 11.7763 60.265 11.7763 60.3491 11.5419C60.401 11.3971 60.4528 11.2524 60.5063 11.1033C60.5823 10.8912 60.5823 10.8912 60.6599 10.6747C60.7359 10.4626 60.7359 10.4626 60.8135 10.2462C60.8669 10.0972 60.9203 9.94825 60.9753 9.79478C61.0288 9.64582 61.0822 9.49686 61.1372 9.34338C61.2144 9.12822 61.2144 9.12822 61.2931 8.90872C61.343 8.7693 61.3929 8.62988 61.4444 8.48624C61.5182 8.27866 61.5182 8.27866 61.5935 8.06688C61.6388 7.93954 61.6841 7.81219 61.7308 7.68099C61.7709 7.56781 61.8111 7.45463 61.8524 7.33803C61.8822 7.2567 61.9119 7.17537 61.9425 7.09158C61.9534 7.08062 61.9644 7.06966 61.9757 7.05837C62.2188 7.0573 62.462 7.05623 62.7126 7.05513C63.0235 7.05551 63.3344 7.0559 63.6547 7.05629C63.9656 7.05659 64.2766 7.05689 64.597 7.0572C64.9596 7.05778 64.9596 7.05778 65.3295 7.05837C65.2802 7.22274 65.2802 7.22274 65.2299 7.39043C65.1837 7.5141 65.1374 7.63776 65.0898 7.76517C65.003 7.99163 65.003 7.99163 64.9144 8.22267C64.8515 8.38695 64.7885 8.55124 64.7236 8.7205C64.6606 8.88427 64.5975 9.04805 64.5326 9.21678C64.4788 9.3559 64.4249 9.49501 64.3695 9.63835C64.293 9.83546 64.293 9.83546 64.215 10.0366C64.1378 10.2352 64.1378 10.2352 64.0591 10.4379C64.0071 10.5719 63.9552 10.7059 63.9016 10.8439C63.8476 10.984 63.7936 11.1242 63.7379 11.2686C63.6831 11.4113 63.6282 11.554 63.5717 11.701C63.5165 11.8446 63.4613 11.9882 63.4045 12.1361C63.3494 12.2795 63.2943 12.4229 63.2375 12.5706C63.1834 12.7113 63.1294 12.8519 63.0737 12.9969C62.9925 13.2081 62.9925 13.2081 62.9096 13.4236C62.8549 13.5659 62.8002 13.7081 62.7438 13.8546C62.6876 14.0007 62.6313 14.1468 62.5734 14.2973C62.5137 14.452 62.454 14.6067 62.3926 14.766C62.3317 14.9236 62.2708 15.0813 62.2081 15.2437C62.1472 15.4016 62.0862 15.5595 62.0234 15.7221C61.934 15.9538 61.934 15.9538 61.8428 16.1901C61.7874 16.3343 61.7319 16.4784 61.6747 16.627C61.6206 16.7677 61.5665 16.9085 61.5108 17.0535C61.457 17.1934 61.4032 17.3334 61.3477 17.4776C61.292 17.6226 61.2362 17.7675 61.1787 17.9168C61.1164 18.0782 61.0542 18.2396 60.99 18.4059C60.8954 18.6507 60.8954 18.6507 60.7989 18.9006C60.7137 19.1211 60.7137 19.1211 60.6268 19.346C60.5384 19.5755 60.5384 19.5755 60.4482 19.8096C60.3881 20.1132 60.3881 20.1132 60.3269 20.423C60.1733 20.6782 60.1733 20.6782 60.0165 20.9386C59.5993 21.0088 59.5993 21.0088 59.1736 21.0804C58.6683 21.0729 58.6683 21.0729 58.1528 21.0652C57.8157 21.0654 57.4787 21.0656 57.1314 21.0659C56.8562 21.0239 56.581 20.9819 56.2974 20.9386C56.204 20.8015 56.1106 20.6644 56.0144 20.5231C55.9872 20.3644 55.9601 20.2056 55.9321 20.042C55.8893 19.9314 55.8465 19.8207 55.8024 19.7066C55.763 19.6022 55.7236 19.4979 55.6831 19.3904C55.6377 19.2708 55.5924 19.1513 55.5457 19.0281C55.4979 18.9024 55.4501 18.7768 55.4008 18.6474C55.3506 18.5173 55.3004 18.3872 55.2487 18.2532C55.1968 18.1196 55.145 17.986 55.0916 17.8484C55.0385 17.7117 54.9854 17.575 54.9307 17.4342C54.8777 17.2976 54.8246 17.161 54.7699 17.0203C54.7189 16.8888 54.6679 16.7574 54.6153 16.6219C54.5643 16.4904 54.5132 16.3588 54.4607 16.2233C54.4087 16.0894 54.3568 15.9555 54.3033 15.8176C54.2491 15.6775 54.1949 15.5375 54.139 15.3932C54.0499 15.1625 54.0499 15.1625 53.9591 14.9272C53.8979 14.7687 53.8367 14.6101 53.7737 14.4468C53.7124 14.2879 53.6511 14.129 53.588 13.9653C53.5287 13.8119 53.4695 13.6585 53.4084 13.5004C53.3554 13.3634 53.3023 13.2264 53.2476 13.0853C53.1711 12.8881 53.1711 12.8881 53.093 12.6868C53.0164 12.4896 53.0164 12.4896 52.9384 12.2884C52.8853 12.1514 52.8322 12.0144 52.7775 11.8733C52.6887 11.6432 52.6887 11.6432 52.598 11.4084C52.5061 11.1701 52.5061 11.1701 52.4123 10.9269C52.3513 10.7689 52.2903 10.6109 52.2275 10.4481C52.168 10.2938 52.1084 10.1395 52.047 9.98053C51.9908 9.83546 51.9347 9.69039 51.8768 9.54093C51.8234 9.40314 51.77 9.26535 51.7149 9.12339C51.6644 8.99296 51.6138 8.86254 51.5617 8.72816C51.4896 8.54266 51.4896 8.54266 51.4161 8.35342C51.369 8.23352 51.322 8.11362 51.2735 7.99009C51.2308 7.88124 51.1882 7.77239 51.1442 7.66023C51.1067 7.56512 51.0693 7.47001 51.0307 7.37201C51.0044 7.30139 50.9782 7.23076 50.9512 7.15799C50.9512 7.12511 50.9512 7.09224 50.9512 7.05837Z" fill="black"/>
<path d="M12.1992 7.05837C12.6801 7.05759 13.161 7.05682 13.6565 7.05603C14.279 7.05543 14.9014 7.05483 15.5427 7.05421C16.4736 7.05306 16.4736 7.05306 17.4234 7.05188C17.9349 7.05402 18.4463 7.05616 18.9733 7.05837C19.3185 7.09124 19.3185 7.09124 19.6706 7.12478C19.7761 7.14494 19.7761 7.14494 19.8836 7.16551C19.9407 7.18083 19.9978 7.19615 20.0567 7.21194C20.1201 7.22958 20.1835 7.24722 20.2488 7.26539C20.31 7.28473 20.3713 7.30408 20.4344 7.32402C20.4912 7.34473 20.548 7.36545 20.6065 7.3868C20.6867 7.41941 20.6867 7.41941 20.7685 7.45269C20.8192 7.47525 20.87 7.49781 20.9222 7.52105C20.9694 7.54369 21.0167 7.56634 21.0653 7.58967C21.1295 7.62209 21.1295 7.62209 21.1949 7.65517C21.2343 7.6767 21.2737 7.69823 21.3144 7.72042C21.3511 7.74229 21.3879 7.76416 21.4258 7.7867C21.4602 7.80934 21.4947 7.83199 21.5302 7.85532C21.5629 7.87967 21.5957 7.90403 21.6294 7.92912C21.6604 7.95408 21.6913 7.97903 21.7232 8.00475C21.7671 8.04237 21.7671 8.04237 21.8118 8.08076C21.8394 8.10499 21.867 8.12921 21.8955 8.15417C21.9214 8.17566 21.9473 8.19715 21.9739 8.21929C21.9987 8.24026 22.0235 8.26124 22.049 8.28285C22.0731 8.30459 22.0972 8.32634 22.1219 8.34874C22.1578 8.38393 22.1578 8.38393 22.1943 8.41982C22.2312 8.46015 22.2312 8.46015 22.2688 8.50128C22.2935 8.53056 22.3183 8.55984 22.3438 8.59001C22.3684 8.62117 22.393 8.65233 22.4183 8.68444C22.443 8.71766 22.4677 8.75087 22.4932 8.78509C22.5182 8.82037 22.5433 8.85564 22.5691 8.89198C22.6065 8.94796 22.6065 8.94796 22.6447 9.00509C22.6692 9.04412 22.6937 9.08316 22.7189 9.12338C22.743 9.16516 22.7672 9.20694 22.792 9.24998C22.8162 9.29655 22.8403 9.34313 22.8652 9.39111C22.8999 9.46302 22.8999 9.46302 22.9352 9.53639C22.9568 9.58394 22.9784 9.6315 23.0006 9.6805C23.0289 9.74682 23.0289 9.74682 23.0577 9.81449C23.0717 9.85015 23.0858 9.8858 23.1002 9.92254C23.1115 9.95469 23.1228 9.98683 23.1345 10.02C23.1442 10.0513 23.1539 10.0827 23.1639 10.115C23.1727 10.1474 23.1815 10.1797 23.1905 10.213C23.1996 10.2497 23.2087 10.2865 23.2181 10.3244C23.2268 10.363 23.2355 10.4015 23.2445 10.4413C23.2562 10.5003 23.2562 10.5003 23.2682 10.5605C23.2754 10.5992 23.2827 10.6379 23.2901 10.6779C23.297 10.7128 23.3039 10.7478 23.311 10.7838C23.3171 10.8194 23.3233 10.855 23.3296 10.8916C23.3346 10.9298 23.3397 10.968 23.3449 11.0073C23.3506 11.0744 23.3506 11.0744 23.3565 11.1427C23.3603 11.2303 23.3603 11.2303 23.3641 11.3197C23.365 11.3839 23.366 11.4481 23.3669 11.5142C23.3663 11.5798 23.3656 11.6453 23.365 11.7128C23.3622 11.7767 23.3594 11.8406 23.3565 11.9065C23.3507 11.9632 23.3448 12.0199 23.3388 12.0784C23.3309 12.1312 23.3231 12.1841 23.315 12.2386C23.3058 12.2894 23.2966 12.3403 23.2871 12.3928C23.2722 12.4644 23.2722 12.4644 23.2569 12.5374C23.2473 12.5807 23.2377 12.624 23.2277 12.6685C23.2175 12.7095 23.2073 12.7505 23.1967 12.7927C23.1797 12.8525 23.1797 12.8525 23.1622 12.9136C23.1497 12.9538 23.1371 12.994 23.1241 13.0355C23.1032 13.1 23.1032 13.1 23.0818 13.1657C23.0663 13.2097 23.0508 13.2537 23.0349 13.2991C23.0179 13.343 23.0009 13.3868 22.9834 13.432C22.9544 13.4987 22.9544 13.4987 22.9249 13.5668C22.9018 13.613 22.8787 13.6592 22.8549 13.7068C22.8301 13.7524 22.8052 13.7979 22.7796 13.8449C22.754 13.8887 22.7284 13.9326 22.702 13.9777C22.6769 14.0175 22.6518 14.0572 22.626 14.0981C22.6037 14.1296 22.5813 14.1611 22.5583 14.1936C22.5368 14.221 22.5153 14.2484 22.4932 14.2766C22.4716 14.3021 22.4499 14.3276 22.4277 14.3539C22.4055 14.3791 22.3832 14.4042 22.3604 14.4302C22.3364 14.4581 22.3125 14.486 22.2878 14.5147C22.2508 14.5571 22.2508 14.5571 22.213 14.6004C22.1878 14.6278 22.1626 14.6553 22.1366 14.6836C22.1118 14.7096 22.087 14.7355 22.0615 14.7622C22.0391 14.7847 22.0167 14.8073 21.9937 14.8305C21.9708 14.8518 21.948 14.8731 21.9245 14.8951C21.8998 14.9163 21.875 14.9375 21.8495 14.9594C21.8209 14.982 21.7922 15.0046 21.7626 15.0279C21.7264 15.0546 21.6902 15.0813 21.6529 15.1088C21.6124 15.1369 21.5719 15.165 21.5302 15.1939C21.4874 15.2218 21.4446 15.2496 21.4005 15.2784C21.3556 15.3053 21.3108 15.3322 21.2645 15.3599C21.1952 15.3967 21.1952 15.3967 21.1245 15.4343C21.0775 15.457 21.0306 15.4797 20.9823 15.5031C20.9116 15.535 20.9116 15.535 20.8395 15.5675C20.7705 15.5963 20.7705 15.5963 20.7 15.6256C20.6571 15.642 20.6142 15.6585 20.5699 15.6754C20.5286 15.6898 20.4873 15.7042 20.4448 15.719C20.4044 15.7317 20.364 15.7445 20.3224 15.7576C20.2827 15.7689 20.2429 15.7801 20.2019 15.7916C20.1618 15.8015 20.1217 15.8113 20.0804 15.8215C20.0411 15.8301 20.0017 15.8388 19.9612 15.8477C19.9268 15.8546 19.8924 15.8616 19.8569 15.8688C19.7976 15.8799 19.7976 15.8799 19.7371 15.8912C19.6165 15.9132 19.496 15.9351 19.3718 15.9577C19.0556 15.9598 18.7394 15.9619 18.4136 15.9641C17.8328 15.963 17.8328 15.963 17.2404 15.9618C16.5521 15.9604 15.8637 15.9591 15.1546 15.9577C15.1546 17.6014 15.1546 19.2451 15.1546 20.9386C14.1793 20.9386 13.204 20.9386 12.1992 20.9386C12.1992 18.4621 12.1992 15.9856 12.1992 13.434C13.7782 13.4299 13.7782 13.4299 15.3891 13.4257C15.9812 13.4241 16.5733 13.4226 17.1834 13.421C17.6645 13.4143 18.1456 13.4077 18.6412 13.4008C18.8056 13.3569 18.97 13.3131 19.1393 13.2679C19.2071 13.2399 19.2749 13.2118 19.3448 13.1829C19.3765 13.1659 19.4082 13.1489 19.4409 13.1314C19.4729 13.1107 19.5049 13.09 19.5378 13.0687C19.5729 13.0415 19.6079 13.0143 19.6441 12.9863C19.6789 12.956 19.7137 12.9256 19.7495 12.8944C19.7823 12.8627 19.8151 12.831 19.8489 12.7984C19.8777 12.7671 19.9066 12.7357 19.9363 12.7034C19.9576 12.6755 19.9789 12.6476 20.0009 12.6189C20.0179 12.592 20.035 12.5651 20.0525 12.5374C20.067 12.5105 20.0815 12.4836 20.0965 12.4558C20.1158 12.414 20.1158 12.414 20.1355 12.3714C20.1488 12.3404 20.162 12.3095 20.1756 12.2776C20.1877 12.2462 20.1998 12.2148 20.2123 12.1825C20.2225 12.1543 20.2326 12.1261 20.2431 12.097C20.2514 12.067 20.2598 12.037 20.2684 12.0061C20.2781 11.951 20.2781 11.951 20.2879 11.8948C20.2947 11.8348 20.2947 11.8348 20.3016 11.7737C20.3038 11.7324 20.306 11.6912 20.3083 11.6488C20.3088 11.6057 20.3093 11.5627 20.3099 11.5184C20.3094 11.4719 20.309 11.4253 20.3086 11.3774C20.3051 11.3106 20.3051 11.3106 20.3016 11.2424C20.2965 11.2064 20.2915 11.1704 20.2863 11.1333C20.279 11.1008 20.2717 11.0683 20.2642 11.0348C20.2503 10.9874 20.2503 10.9874 20.2362 10.9391C20.2249 10.9077 20.2136 10.8763 20.2019 10.8439C20.1886 10.8104 20.1752 10.7769 20.1615 10.7425C20.1461 10.7088 20.1307 10.6752 20.1148 10.6405C20.0974 10.6078 20.08 10.575 20.0621 10.5413C20.0425 10.5096 20.0229 10.478 20.0027 10.4454C19.9804 10.4155 19.958 10.3856 19.935 10.3547C19.9108 10.3264 19.8865 10.2982 19.8616 10.269C19.8358 10.2422 19.81 10.2155 19.7834 10.1879C19.7571 10.1633 19.7309 10.1387 19.7038 10.1133C19.6793 10.0918 19.6548 10.0703 19.6295 10.0481C19.6041 10.0285 19.5786 10.009 19.5523 9.98882C19.525 9.97076 19.4976 9.95269 19.4695 9.93409C19.4372 9.91653 19.405 9.89898 19.3718 9.8809C19.3289 9.86198 19.2861 9.84306 19.2419 9.82357C19.1958 9.80551 19.1496 9.78744 19.102 9.76883C19.0587 9.75282 19.0155 9.73681 18.971 9.72032C18.9279 9.70756 18.8849 9.69481 18.8405 9.68166C18.7528 9.67071 18.6652 9.65975 18.5748 9.64846C17.8716 9.64326 17.8716 9.64326 17.1542 9.63795C16.2712 9.63391 16.2712 9.63391 15.3704 9.62978C14.7811 9.627 14.1917 9.62421 13.5845 9.62135C12.8988 9.61833 12.8988 9.61833 12.1992 9.61525C12.1992 8.77148 12.1992 7.92771 12.1992 7.05837Z" fill="black"/>
<path d="M95.249 27.8788C95.6047 27.8666 95.6047 27.8666 95.9675 27.8543C96.4286 27.8448 96.4286 27.8448 96.899 27.8352C97.2052 27.8271 97.5115 27.819 97.8271 27.8107C98.0831 27.8331 98.3391 27.8556 98.6029 27.8788C98.7453 28.1089 98.8878 28.339 99.0345 28.5761C99.1044 28.6891 99.1743 28.8021 99.2462 28.9185C99.2997 29.005 99.2997 29.005 99.3543 29.0931C99.4097 29.1824 99.4097 29.1824 99.4662 29.2734C99.5056 29.3364 99.5449 29.3993 99.5854 29.4641C99.6262 29.5293 99.667 29.5944 99.709 29.6615C99.7506 29.728 99.7922 29.7944 99.835 29.8628C99.8777 29.9313 99.9204 29.9998 99.9643 30.0704C100.009 30.1423 100.053 30.2142 100.099 30.2883C100.143 30.3609 100.188 30.4335 100.234 30.5083C100.278 30.5801 100.322 30.6519 100.368 30.726C100.41 30.7945 100.452 30.8631 100.496 30.9338C100.533 30.9948 100.571 31.0558 100.61 31.1187C100.645 31.1762 100.681 31.2336 100.718 31.2928C100.752 31.3488 100.787 31.4049 100.823 31.4626C100.857 31.5182 100.892 31.5738 100.927 31.6311C100.963 31.6884 100.998 31.7457 101.035 31.8048C101.071 31.8625 101.106 31.9203 101.143 31.9797C101.196 32.0654 101.196 32.0654 101.25 32.1528C101.286 32.2107 101.322 32.2687 101.359 32.3284C101.397 32.3898 101.435 32.4512 101.474 32.5144C101.511 32.5749 101.549 32.6355 101.587 32.6978C101.623 32.7549 101.658 32.812 101.694 32.8709C101.726 32.922 101.758 32.9731 101.791 33.0257C101.816 33.0666 101.842 33.1074 101.868 33.1495C101.889 33.1826 101.91 33.2158 101.932 33.2499C101.949 33.2771 101.966 33.3043 101.984 33.3324C101.997 33.3517 102.01 33.3711 102.023 33.391C102.034 33.402 102.045 33.4129 102.056 33.4242C102.091 33.3671 102.125 33.31 102.161 33.2512C102.209 33.1727 102.256 33.0942 102.305 33.0133C102.357 32.9283 102.409 32.8434 102.462 32.7558C102.514 32.6696 102.567 32.5833 102.621 32.4944C102.667 32.4195 102.713 32.3445 102.76 32.2673C102.804 32.1964 102.848 32.1255 102.893 32.0524C102.936 31.9816 102.98 31.9109 103.025 31.838C103.067 31.7697 103.109 31.7014 103.152 31.6311C103.191 31.5673 103.23 31.5034 103.27 31.4377C103.308 31.3755 103.346 31.3133 103.385 31.2492C103.422 31.187 103.46 31.1248 103.499 31.0607C103.538 30.9969 103.577 30.9331 103.617 30.8673C103.659 30.7991 103.701 30.7308 103.744 30.6604C103.788 30.5897 103.832 30.5189 103.876 30.446C103.921 30.3742 103.965 30.3024 104.011 30.2284C104.056 30.1543 104.101 30.0803 104.148 30.004C104.22 29.8867 104.22 29.8867 104.292 29.7671C104.34 29.6884 104.388 29.6098 104.437 29.5287C104.483 29.4517 104.53 29.3746 104.578 29.2952C104.623 29.2223 104.667 29.1493 104.713 29.0742C104.773 28.9771 104.773 28.9771 104.834 28.8781C104.889 28.7892 104.889 28.7892 104.945 28.6985C104.977 28.648 105.008 28.5974 105.041 28.5454C105.075 28.4898 105.109 28.4342 105.145 28.3769C105.243 28.2125 105.342 28.0481 105.443 27.8788C105.698 27.8627 105.952 27.8467 106.213 27.8301C106.68 27.8388 106.68 27.8388 107.156 27.8476C107.623 27.8544 107.623 27.8544 108.1 27.8613C108.341 27.867 108.582 27.8728 108.83 27.8788C108.715 28.076 108.715 28.076 108.598 28.2772C108.554 28.3459 108.51 28.4145 108.465 28.4852C108.395 28.5908 108.395 28.5908 108.324 28.6985C108.274 28.774 108.225 28.8494 108.174 28.9271C108.127 28.9976 108.081 29.068 108.033 29.1406C107.981 29.2206 107.981 29.2206 107.928 29.3022C107.899 29.3482 107.869 29.3942 107.838 29.4415C107.81 29.4854 107.782 29.5293 107.753 29.5745C107.725 29.6176 107.697 29.6607 107.668 29.7051C107.638 29.7513 107.608 29.7975 107.578 29.8451C107.532 29.9155 107.532 29.9155 107.486 29.9874C107.455 30.0339 107.425 30.0805 107.394 30.1285C107.364 30.1751 107.334 30.2216 107.303 30.2696C107.273 30.3162 107.243 30.3628 107.212 30.4108C107.181 30.4573 107.151 30.5039 107.12 30.5519C107.09 30.5984 107.06 30.645 107.029 30.693C106.999 30.7396 106.969 30.7861 106.938 30.8341C106.908 30.8807 106.877 30.9273 106.846 30.9753C106.816 31.0218 106.786 31.0684 106.755 31.1164C106.725 31.163 106.695 31.2095 106.664 31.2575C106.634 31.3041 106.603 31.3507 106.572 31.3986C106.542 31.4452 106.512 31.4918 106.481 31.5398C106.451 31.5863 106.421 31.6329 106.39 31.6809C106.36 31.7275 106.329 31.774 106.298 31.822C106.268 31.8686 106.238 31.9152 106.207 31.9631C106.177 32.0097 106.147 32.0563 106.116 32.1043C106.086 32.1508 106.056 32.1974 106.024 32.2454C105.994 32.292 105.964 32.3385 105.933 32.3865C105.903 32.4331 105.873 32.4797 105.842 32.5277C105.812 32.5742 105.782 32.6208 105.751 32.6688C105.72 32.7154 105.69 32.7619 105.659 32.8099C105.629 32.8565 105.599 32.9031 105.568 32.951C105.538 32.9976 105.508 33.0442 105.477 33.0922C105.446 33.1387 105.416 33.1853 105.385 33.2333C105.355 33.2799 105.325 33.3264 105.294 33.3744C105.264 33.421 105.234 33.4676 105.203 33.5155C105.172 33.5621 105.142 33.6087 105.111 33.6567C105.081 33.7032 105.051 33.7498 105.02 33.7978C104.99 33.8444 104.96 33.8909 104.929 33.9389C104.899 33.9855 104.868 34.0321 104.837 34.08C104.807 34.1266 104.777 34.1732 104.746 34.2212C104.716 34.2677 104.686 34.3143 104.655 34.3623C104.625 34.4089 104.594 34.4554 104.563 34.5034C104.533 34.55 104.503 34.5966 104.472 34.6446C104.442 34.6911 104.412 34.7377 104.381 34.7857C104.351 34.8323 104.32 34.8788 104.289 34.9268C104.259 34.9734 104.229 35.02 104.198 35.0679C104.168 35.114 104.139 35.16 104.108 35.2074C104.077 35.2545 104.047 35.3016 104.015 35.3502C103.966 35.4276 103.966 35.4276 103.915 35.5065C103.866 35.5822 103.866 35.5822 103.816 35.6594C103.787 35.7052 103.757 35.7509 103.727 35.7981C103.689 35.8558 103.689 35.8558 103.65 35.9147C103.617 35.9585 103.584 36.0024 103.551 36.0475C103.545 36.4641 103.539 36.8807 103.534 37.3099C103.532 37.8384 103.53 38.367 103.528 38.9116C103.525 39.7049 103.525 39.7049 103.521 40.5143C103.52 40.9251 103.519 41.3358 103.517 41.759C102.542 41.759 101.567 41.759 100.562 41.759C100.564 41.3533 100.566 40.9475 100.568 40.5295C100.568 39.742 100.568 39.742 100.568 38.9386C100.569 38.415 100.571 37.8915 100.572 37.352C100.558 36.9216 100.543 36.4911 100.529 36.0475C100.408 35.8612 100.288 35.6749 100.164 35.483C100.122 35.4186 100.08 35.3541 100.036 35.2877C99.9989 35.2302 99.9614 35.1728 99.9228 35.1136C99.8805 35.0488 99.8382 34.984 99.7947 34.9172C99.7307 34.8192 99.7307 34.8192 99.6655 34.7193C99.6242 34.656 99.5829 34.5927 99.5404 34.5276C99.4995 34.4648 99.4586 34.4021 99.4164 34.3374C99.3753 34.2744 99.3342 34.2114 99.2919 34.1465C99.2508 34.0835 99.2097 34.0204 99.1674 33.9555C99.1263 33.8925 99.0852 33.8295 99.0428 33.7646C99.0018 33.7016 98.9607 33.6386 98.9183 33.5737C98.8772 33.5106 98.8361 33.4476 98.7938 33.3827C98.7527 33.3197 98.7116 33.2567 98.6693 33.1918C98.6282 33.1288 98.5871 33.0658 98.5448 33.0008C98.5037 32.9378 98.4626 32.8748 98.4202 32.8099C98.3791 32.7469 98.338 32.6839 98.2957 32.619C98.2546 32.556 98.2135 32.493 98.1712 32.428C98.1301 32.365 98.089 32.302 98.0467 32.2371C98.0056 32.1741 97.9645 32.1111 97.9221 32.0462C97.881 31.9832 97.8399 31.9201 97.7976 31.8552C97.7565 31.7922 97.7154 31.7292 97.6731 31.6643C97.632 31.6013 97.5909 31.5383 97.5486 31.4734C97.5075 31.4103 97.4664 31.3473 97.424 31.2824C97.3829 31.2193 97.3417 31.1561 97.2993 31.0911C97.2582 31.0282 97.2172 30.9653 97.175 30.9005C97.1347 30.8387 97.0943 30.7768 97.0528 30.7131C97.0123 30.651 96.9718 30.5889 96.9301 30.5249C96.8892 30.4621 96.8482 30.3994 96.8061 30.3347C96.7635 30.2694 96.7208 30.2041 96.6769 30.1368C96.6302 30.0653 96.5834 29.9938 96.5353 29.9202C96.4875 29.8472 96.4397 29.7741 96.3905 29.6989C96.3433 29.6268 96.2961 29.5546 96.2475 29.4803C96.2029 29.4121 96.1583 29.3438 96.1124 29.2734C96.0739 29.2144 96.0355 29.1554 95.9959 29.0946C95.9604 29.0399 95.9248 28.9852 95.8882 28.9289C95.8375 28.8506 95.8375 28.8506 95.7856 28.7707C95.7337 28.6908 95.7337 28.6908 95.6807 28.6093C95.62 28.5171 95.62 28.5171 95.5581 28.423C95.4986 28.3324 95.4986 28.3324 95.4379 28.2399C95.4017 28.185 95.3655 28.1301 95.3283 28.0736C95.3021 28.0312 95.276 27.9888 95.249 27.9452C95.249 27.9233 95.249 27.9013 95.249 27.8788Z" fill="black"/>
<path d="M83.1279 7.05835C86.7879 7.05835 90.4479 7.05835 94.2188 7.05835C94.2188 7.92404 94.2188 8.78973 94.2188 9.68165C92.882 9.68165 91.5451 9.68165 90.1677 9.68165C90.1677 13.3964 90.1677 17.1112 90.1677 20.9386C89.1814 20.9386 88.1952 20.9386 87.1791 20.9386C87.1791 17.2238 87.1791 13.509 87.1791 9.68165C85.8422 9.68165 84.5053 9.68165 83.1279 9.68165C83.1279 8.81596 83.1279 7.95027 83.1279 7.05835Z" fill="black"/>
<path d="M12 27.8788C12.9753 27.8788 13.9505 27.8788 14.9554 27.8788C14.9554 31.6045 14.9554 35.3303 14.9554 39.1689C16.8949 39.1689 18.8345 39.1689 20.8329 39.1689C20.8329 40.0237 20.8329 40.8784 20.8329 41.759C17.918 41.759 15.0032 41.759 12 41.759C12 37.1785 12 32.5981 12 27.8788Z" fill="black"/>
<path d="M44.0117 7.09167C44.976 7.09167 45.9403 7.09167 46.9339 7.09167C46.9339 11.6612 46.9339 16.2307 46.9339 20.9387C45.9696 20.9387 45.0053 20.9387 44.0117 20.9387C44.0117 16.3692 44.0117 11.7997 44.0117 7.09167Z" fill="black"/>
<path d="M75.9561 7.05823L76.0889 7.35706C76.1413 7.48887 76.1409 7.48918 76.1943 7.62366C76.2361 7.73095 76.2783 7.83831 76.3213 7.94885C76.3688 8.07091 76.4159 8.19322 76.4648 8.31897C76.5159 8.45084 76.5675 8.58252 76.6201 8.71838C76.6978 8.91992 76.6981 8.92004 76.7773 9.12561C76.831 9.26508 76.8842 9.40477 76.9395 9.54846C76.9954 9.694 77.0518 9.83992 77.1094 9.98987C77.1671 10.14 77.2247 10.2902 77.2842 10.4449C77.3739 10.6776 77.3742 10.6783 77.4658 10.9156C77.5265 11.0727 77.5869 11.2304 77.6494 11.3922C77.7406 11.6285 77.7409 11.6287 77.834 11.8698C77.8936 12.0242 77.9533 12.1794 78.0146 12.3385C78.0701 12.4826 78.1255 12.6266 78.1826 12.775C78.2367 12.9158 78.2909 13.0568 78.3467 13.2018C78.4007 13.3423 78.4551 13.4828 78.5107 13.6276C78.5662 13.7717 78.6216 13.9165 78.6787 14.0651C78.7383 14.2194 78.798 14.3738 78.8594 14.5328C78.9508 14.7696 78.9507 14.7698 79.0439 15.0114C79.1048 15.169 79.1658 15.3265 79.2285 15.4889C79.2882 15.6435 79.3477 15.7983 79.4092 15.9576C79.4654 16.1037 79.5222 16.2496 79.5801 16.4C79.6348 16.5423 79.6897 16.6851 79.7461 16.8317C79.8001 16.9721 79.8535 17.1128 79.9092 17.2574C79.9904 17.4687 79.9905 17.4688 80.0732 17.6842C80.1291 17.8295 80.1856 17.9749 80.2432 18.1246C80.2989 18.2697 80.3547 18.4147 80.4121 18.5641C80.4662 18.7047 80.5195 18.8459 80.5752 18.9908C80.6553 19.1988 80.6557 19.1988 80.7373 19.4108C80.7925 19.553 80.8484 19.6959 80.9053 19.8424C80.9826 20.0416 80.9825 20.0422 81.0615 20.2457C81.1079 20.3649 81.1544 20.4843 81.2021 20.6071C81.2351 20.6944 81.2678 20.7818 81.3018 20.8717V20.9381C81.0729 20.9473 80.8441 20.9569 80.6084 20.9664C80.3121 20.9736 80.0152 20.9805 79.71 20.9879C79.2671 21.0018 79.2665 21.0021 78.8145 21.0162C78.4517 20.9778 78.4514 20.9774 78.0811 20.9381C78.0099 20.8379 77.9386 20.7377 77.8652 20.6344C77.8379 20.4718 77.8104 20.3088 77.7822 20.1412C77.7476 19.8702 77.7125 19.5992 77.6768 19.3199C77.5252 19.0761 77.3739 18.8319 77.2178 18.5807C76.7525 18.5241 76.287 18.468 75.8076 18.4098C75.2388 18.4218 74.67 18.4335 74.084 18.4459C73.5139 18.4531 72.9438 18.46 72.3564 18.4674C71.9115 18.4938 71.4662 18.5203 71.0078 18.5475L70.9082 18.8795C70.8416 19.0684 70.8423 19.0688 70.7744 19.2614L70.4541 20.15C70.4068 20.2787 70.3592 20.4072 70.3105 20.5397L70.1445 20.9381C69.788 20.9574 69.7877 20.9575 69.4238 20.9772C69.127 20.9726 68.8302 20.9683 68.5244 20.9635C68.0784 20.9581 68.0778 20.9583 67.623 20.9528C67.2772 20.9458 67.2767 20.9452 66.9238 20.9381L66.957 20.7389C66.9879 20.6564 67.019 20.5739 67.0508 20.4889C67.1142 20.3286 67.1141 20.328 67.1787 20.1647C67.2269 20.0423 67.2756 19.9197 67.3252 19.7936C67.379 19.6565 67.4328 19.5188 67.4883 19.3776C67.5462 19.228 67.6044 19.0785 67.6641 18.9244C67.7246 18.7674 67.7853 18.6097 67.8477 18.4479C67.9098 18.2867 67.9721 18.1256 68.0361 17.9596C68.0965 17.8031 68.1565 17.6462 68.2188 17.485C68.2719 17.3477 68.3251 17.2104 68.3799 17.069C68.4308 16.9378 68.4817 16.8066 68.5342 16.6715C68.5853 16.5397 68.6368 16.4079 68.6895 16.2721C68.7424 16.1355 68.7951 15.9988 68.8496 15.858C68.9077 15.7077 68.9655 15.5569 69.0254 15.402C69.1159 15.1675 69.1166 15.1677 69.209 14.9283C69.27 14.7702 69.3307 14.6118 69.3936 14.4489L69.7666 13.4821C69.8276 13.3239 69.8893 13.1655 69.9521 13.0026C70.0427 12.7678 70.0423 12.7674 70.1348 12.528C70.1928 12.3778 70.2508 12.2276 70.3105 12.0729C70.3635 11.9363 70.4172 11.7995 70.4717 11.6588C70.5228 11.527 70.5733 11.3943 70.626 11.2584C70.7023 11.0618 70.7024 11.0617 70.7803 10.861C70.8334 10.7238 70.8866 10.5863 70.9414 10.4449C71.0014 10.2897 71.0622 10.1342 71.124 9.97424C71.2167 9.73417 71.2169 9.73403 71.3115 9.48889C71.4022 9.25383 71.4016 9.25312 71.4941 9.01331C71.5528 8.86121 71.6114 8.70907 71.6719 8.55237C71.7282 8.40603 71.7848 8.25978 71.8428 8.10901C71.894 7.97594 71.9453 7.84279 71.998 7.70569C72.0434 7.5877 72.089 7.46982 72.1357 7.34827C72.1691 7.26368 72.2029 7.17858 72.2373 7.09143L72.2705 7.05823C72.536 7.05369 72.8017 7.04923 73.0752 7.04456C73.4155 7.04225 73.7558 7.0401 74.1064 7.03772C74.4467 7.03455 74.7872 7.03122 75.1377 7.02795C75.4077 7.03797 75.6779 7.04791 75.9561 7.05823ZM74.0312 9.81311C73.9967 9.90376 73.9632 9.99173 73.9297 10.0797C73.8832 10.2067 73.8381 10.3305 73.793 10.4537C73.7379 10.6053 73.6843 10.7529 73.6309 10.9C73.57 11.0676 73.5112 11.2306 73.4521 11.3932C73.3888 11.5678 73.3271 11.7374 73.2656 11.9069C73.2045 12.0758 73.1453 12.24 73.0859 12.4039C73.0258 12.57 72.9666 12.731 72.9082 12.8922C72.849 13.0558 72.7918 13.2149 72.7344 13.3737C72.6779 13.5296 72.6232 13.6812 72.5684 13.8326C72.5161 13.9759 72.4648 14.1154 72.4141 14.2545C72.3431 14.4488 72.3431 14.4495 72.2734 14.6403C72.232 14.7535 72.1916 14.8634 72.1514 14.9733C72.1125 15.0821 72.0749 15.188 72.0371 15.2936L71.8047 15.9908H76.3867V15.8912C76.3497 15.7839 76.3498 15.7837 76.3135 15.6783C76.2778 15.5808 76.2436 15.4859 76.209 15.3912C76.1683 15.2794 76.1284 15.1706 76.0889 15.0621C76.0215 14.8772 76.0211 14.8773 75.9551 14.6959C75.884 14.4988 75.8841 14.4985 75.8145 14.3053C75.7643 14.1659 75.7157 14.0305 75.667 13.8951C75.6147 13.7498 75.5635 13.6085 75.5127 13.4674C75.4599 13.3207 75.4087 13.1782 75.3574 13.0358C75.306 12.8932 75.256 12.7542 75.2061 12.6158C75.1306 12.4067 75.1307 12.4061 75.0566 12.2008C75.0065 12.0618 74.9578 11.9266 74.9092 11.7916C74.8585 11.6501 74.8089 11.5129 74.7598 11.3756C74.7056 11.2214 74.6532 11.0712 74.6006 10.9215C74.5483 10.7725 74.497 10.6277 74.4463 10.483C74.3991 10.3476 74.3535 10.216 74.3076 10.0846C74.2695 9.98149 74.2323 9.88096 74.1953 9.78088L74.0957 9.64807C74.0738 9.70404 74.0525 9.75879 74.0312 9.81311Z" fill="black"/>
</svg>
