<svg width="120" height="50" viewBox="0 0 120 50" fill="none" xmlns="http://www.w3.org/2000/svg">
<path fill-rule="evenodd" clip-rule="evenodd" d="M32.0058 11.3759C32.0058 11.5827 32.007 11.8366 32.0083 11.9398C32.0098 12.0431 32.5421 12.297 33.1912 12.5038C35.3987 13.2068 35.4135 12.7792 32.7845 24.3045C31.5138 29.8754 30.3083 35.0251 30.1055 35.7479C29.6687 37.3063 29.1278 37.7308 27.2336 38.0023C26.0797 38.1674 25.8529 38.286 25.7852 38.7594L25.7053 39.3208H36.9799H48.2546L49.1526 35.5805C49.6466 33.5233 50.0509 31.7752 50.0509 31.6957C50.0509 31.6163 49.7895 31.5514 49.4699 31.5514C49.0426 31.5514 48.4739 32.0779 47.3216 33.5409C44.99 36.501 43.8258 37.4872 42.3707 37.7351C40.4539 38.0617 35.7258 37.9852 35.0759 37.6175C34.6253 37.3624 34.512 37.0772 34.512 36.1985C34.512 35.017 38.7569 16.092 39.4198 14.318C39.8764 13.0957 40.3516 12.7749 42.2815 12.3867C43.4088 12.1599 43.6744 12.0083 43.7401 11.5546L43.8201 11H37.913C32.8293 11 32.0058 11.0524 32.0058 11.3759ZM17.1614 16.8697C17.0579 17.4108 17.1694 17.5075 18.194 17.7654C19.5639 18.1103 19.9757 18.4125 19.9757 19.0722C19.9757 19.7148 16.2902 35.7381 15.9456 36.594C15.6383 37.3569 14.7749 37.8155 13.6356 37.8208C12.6491 37.8256 12.3296 38.0273 12.1439 38.7619L12 39.3306L17.3035 39.2632L22.6073 39.1955V38.5714C22.6073 38.0238 22.4601 37.9203 21.4105 37.7286C20.7005 37.5987 20.1188 37.3326 19.9805 37.0742C19.6875 36.5266 23.7293 18.9185 24.2727 18.3749C24.4734 18.1742 25.3368 17.887 26.1915 17.7363C27.587 17.4907 27.7451 17.4018 27.7451 16.8629V16.2632H22.5113H17.2772L17.1614 16.8697ZM52.4541 19.0827C51.6717 22.4589 51.6566 22.7794 52.2804 22.7794C52.5747 22.7794 53.0544 22.3138 53.5406 21.5559C53.9724 20.883 54.9361 19.7551 55.6822 19.0496L57.0383 17.7669H59.0155H60.9927L58.8018 27.1992C57.1965 34.1095 56.4815 36.7612 56.1271 37.1153C55.8338 37.4088 55.0857 37.6747 54.2258 37.7912C52.6386 38.0068 52.6842 37.982 52.4461 38.7569L52.2727 39.3208H57.8995C63.491 39.3208 63.5271 39.3173 63.6709 38.7679C63.8544 38.0657 63.8694 38.0769 62.3153 37.7316C61.596 37.5719 60.8952 37.2627 60.7576 37.0446C60.5459 36.709 62.2794 28.5957 64.7561 18.3308C64.883 17.8048 65.0258 17.7669 66.882 17.7669C68.6747 17.7669 68.9286 17.8281 69.4439 18.3842C70.0454 19.0333 70.5995 20.5456 70.606 21.5554C70.6123 22.5033 71.0043 22.9576 71.5321 22.6286C71.8303 22.4426 72.198 21.4183 72.6564 19.4957C73.0313 17.9246 73.3426 16.5546 73.3486 16.4511C73.3544 16.3476 68.8025 16.2632 63.2333 16.2632H53.1075L52.4541 19.0827ZM75.8654 16.8699C75.8654 17.3378 76.0343 17.5135 76.6055 17.6391C77.8353 17.909 78.6223 18.692 78.6223 19.6451C78.6223 20.7907 75.2489 35.0742 74.7509 36.0371C74.2486 37.008 73.4343 37.5486 72.1952 37.7336C71.2268 37.8782 70.6023 38.3739 70.6023 38.9982C70.6023 39.2664 71.5446 39.3183 75.4268 39.2637L80.2514 39.1955L80.3273 38.5404C80.3952 37.9564 80.2995 37.8687 79.4436 37.7318C77.8694 37.4802 77.4945 37.0544 77.4945 35.519C77.4945 34.0619 80.6378 19.9165 80.8952 20.216C80.9815 20.3163 81.5887 24.2331 82.2449 28.9198C83.7481 39.6579 83.5772 38.8195 84.2642 38.8195C84.7386 38.8195 85.7875 37.2877 90.6862 29.4416C93.9065 24.2837 96.5754 20.0977 96.617 20.1391C96.7025 20.2246 93.5865 33.7333 93.0175 35.7434C92.5905 37.2526 92.1163 37.6095 90.2764 37.8075C89.1348 37.9303 89.0163 38.0038 88.9441 38.6316L88.8647 39.3208H93.902C98.8955 39.3208 98.9411 39.3158 99.1524 38.7569C99.4343 38.0105 99.2867 37.817 98.4348 37.817C98.0446 37.817 97.4647 37.606 97.1461 37.3479L96.5667 36.8787L97.1088 34.403C98.5639 27.7554 100.473 19.5754 100.708 18.9789C100.986 18.2739 101.7 17.8927 103.246 17.6238C104.025 17.4887 104.186 17.3574 104.186 16.8619V16.2632H100.306H96.4253L95.7614 17.5789C94.8123 19.4602 86.5346 32.8639 86.4687 32.6266C86.3835 32.3211 84.1361 16.794 84.1361 16.512C84.1361 16.3574 82.5704 16.2632 80.0007 16.2632H75.8654V16.8699ZM106.901 16.8822C106.685 17.3556 106.694 17.5917 106.937 17.8847C107.741 18.8539 109.289 17.8692 108.697 16.7644C108.309 16.0383 107.254 16.1078 106.901 16.8822ZM107.57 17.7669C107.484 17.9048 107.597 18.0175 107.82 18.0175C108.043 18.0175 108.156 17.9048 108.071 17.7669C107.986 17.6291 107.873 17.5163 107.82 17.5163C107.768 17.5163 107.655 17.6291 107.57 17.7669Z" fill="black"/>
</svg>
