<svg width="120" height="50" viewBox="0 0 120 50" fill="none" xmlns="http://www.w3.org/2000/svg">
<path d="M22.7195 7H16.0303V31.1674H19.4075V22.7469C20.0659 22.5291 22.9041 21.5255 23.3598 21.3509C29.8181 18.885 31.6598 16.5064 31.6598 12.4096C31.6598 9.53316 29.4859 7 22.7195 7ZM22.6833 20.826C22.2397 21.0267 20.0287 21.937 19.4075 21.7985V7.53092H21.5312C25.3449 7.53092 27.2669 9.03636 27.862 12.808C28.3739 16.0537 26.0374 19.3025 22.6833 20.826Z" fill="black"/>
<path d="M103.059 40.4649L102.657 40.3445C102.272 40.2251 102.031 40.0564 102.031 39.7554C102.031 39.376 102.422 39.2325 102.783 39.2325C103.225 39.2342 103.651 39.4039 103.974 39.7072V39.0398C103.829 38.9193 103.403 38.6965 102.783 38.6965C102.061 38.6965 101.406 39.0277 101.406 39.7734C101.406 40.4529 101.821 40.6877 102.446 40.8774L102.807 40.9858C103.126 41.0862 103.481 41.2498 103.481 41.6111C103.481 41.9724 103.204 42.2132 102.663 42.2132C102.425 42.2104 102.189 42.1595 101.971 42.0634C101.753 41.9674 101.557 41.8282 101.394 41.6542V42.3417C101.55 42.4802 101.996 42.7572 102.681 42.7572C103.584 42.7572 104.1 42.2333 104.1 41.596C104.1 40.9587 103.685 40.6516 103.059 40.4649Z" fill="black"/>
<path d="M31.8066 42.697H34.4472V42.1671H32.4259V40.8082H34.4472V40.3084H32.4259V39.2807H34.4472V38.7507H31.8066V42.697Z" fill="black"/>
<path d="M41.9521 42.697H44.5927V42.1671H42.5714V40.8082H44.5927V40.3084H42.5714V39.2807H44.5927V38.7507H41.9521V42.697Z" fill="black"/>
<path d="M104.292 27.8805H104.222C101.005 29.9058 98.9916 30.3404 95.9868 30.3404H92.9096V19.1058H94.6238C98.5591 19.1058 100.026 19.6447 101.884 20.1826V17.3645C100.026 17.9024 98.5591 18.4414 94.6238 18.4414H92.9096V7.78484H95.8101C98.815 7.78484 100.651 8.36092 103.585 10.054H103.655L103.161 7H89.3799V31.1674H103.514L104.292 27.8805Z" fill="black"/>
<path d="M16.6192 38.7507H16V42.697H18.5141V42.1671H16.6192V38.7507Z" fill="black"/>
<path d="M26.5499 39.2807H28.511V38.7507H25.9307V42.697H26.5499V40.9587H28.5531V40.4529H26.5499V39.2807Z" fill="black"/>
<path d="M56.7422 22.3696V7H53.2988V22.4368C53.2988 27.8474 51.5525 31.1684 47.4165 31.1684C43.2806 31.1684 41.5343 27.8484 41.5343 22.4368V7H38.0908V22.3696C38.0908 28.1796 40.5587 31.5648 47.4165 31.5648C54.2743 31.5648 56.7422 28.1796 56.7422 22.3696Z" fill="black"/>
<path d="M22.3819 38.7507H21.7627V42.697H22.3819V38.7507Z" fill="black"/>
<path d="M55.461 38.7507H54.084V42.697H54.7032V41.4033H55.461C56.4475 41.4033 57.0427 40.9226 57.0427 40.0805C57.0427 39.2144 56.4837 38.7507 55.461 38.7507ZM55.461 40.9045H54.7032V39.2626H55.461C56.0561 39.2626 56.4234 39.5145 56.4234 40.0805C56.4234 40.6466 56.0802 40.9045 55.461 40.9045Z" fill="black"/>
<path d="M73.1544 38.7507H72.5352V42.697H73.1544V38.7507Z" fill="black"/>
<path d="M76.7041 42.697H79.3447V42.1671H77.3233V40.8082H79.3447V40.3084H77.3233V39.2807H79.3447V38.7507H76.7041V42.697Z" fill="black"/>
<path d="M69.2219 39.918C69.2219 39.1723 68.6508 38.7507 67.7666 38.7507H66.3535V42.697H66.9707V41.1032H67.7827L68.5404 42.697H69.2379L68.3718 40.9908C68.6169 40.9403 68.8364 40.805 68.9918 40.6089C69.1473 40.4127 69.2287 40.1681 69.2219 39.918ZM67.7666 40.5914H66.9707V39.2626H67.7586C68.2704 39.2626 68.6187 39.4633 68.6187 39.924C68.6207 40.483 68.1882 40.5914 67.7666 40.5914Z" fill="black"/>
<path d="M85.2566 41.7044L83.3136 38.7507H82.7666V42.697H83.3858V39.8156L85.2686 42.697H85.8698V38.7507H85.2566V41.7044Z" fill="black"/>
<path d="M60.291 42.697H62.9316V42.1671H60.9103V40.8082H62.9316V40.3084H60.9103V39.2807H62.9316V38.7507H60.291V42.697Z" fill="black"/>
<path d="M75.8953 19.8274C79.6148 17.8352 80.7779 15.6653 80.7779 12.4096C80.7779 9.53316 78.6031 7 71.8366 7H65.1475V31.1674H68.5257V22.7469C69.184 22.5291 72.0223 21.5255 72.4769 21.3509L72.765 21.2405L80.251 31.1674H84.4191L75.8953 19.8274ZM71.8005 20.826C71.3569 21.0267 69.1459 21.937 68.5257 21.7985V7.53092H70.6483C74.4621 7.53092 76.3851 9.03636 76.9792 12.808C77.4911 16.0537 75.1546 19.3025 71.8005 20.826Z" fill="black"/>
<path d="M89.1719 40.7299C89.1719 41.9573 89.9116 42.7572 91.133 42.7572C91.4899 42.7685 91.8432 42.6832 92.1557 42.5103V41.8911C91.8134 42.1611 91.5244 42.2213 91.134 42.2213C90.3401 42.2213 89.8102 41.596 89.8102 40.7239C89.8102 39.7614 90.3341 39.2325 91.0798 39.2325C91.4884 39.2428 91.8811 39.3934 92.1918 39.659V39.0217C91.855 38.8052 91.4621 38.6922 91.0617 38.6965C89.9116 38.6965 89.1719 39.4964 89.1719 40.7299Z" fill="black"/>
<path d="M95.5469 42.697H98.1874V42.1671H96.1661V40.8082H98.1874V40.3084H96.1661V39.2807H98.1874V38.7507H95.5469V42.697Z" fill="black"/>
<path d="M50.8609 38.7507H50.1333L49.2551 40.2431L48.3889 38.7507H47.6603L48.8757 40.6938L47.582 42.697H48.3167L49.2551 41.1685L50.1985 42.697H50.9271L49.6395 40.6938L50.8609 38.7507Z" fill="black"/>
</svg>
