<svg width="120" height="50" viewBox="0 0 120 50" fill="none" xmlns="http://www.w3.org/2000/svg">
<path fill-rule="evenodd" clip-rule="evenodd" d="M23.9938 5.14916C21.0292 5.6462 17.8695 7.33401 15.6325 9.61542C12.8566 12.4465 11.4044 15.7632 11.1929 19.7547C10.6364 30.2555 20.7339 38.2265 30.9986 35.3893C32.1653 35.0668 34.0818 34.1524 34.4549 33.7399C34.8194 33.3372 34.6972 32.6819 34.2085 32.4205C33.9269 32.2697 33.6346 32.3478 32.4745 32.8836C30.4898 33.8002 28.9163 34.1241 26.5579 34.1013C24.2435 34.0789 22.6673 33.7152 20.7445 32.7599C17.9362 31.3646 15.927 29.3514 14.5341 26.5369C13.3751 24.1953 13.1667 23.2759 13.1602 20.4813C13.1542 17.8424 13.3769 16.7122 14.3004 14.6938C15.743 11.5417 18.5994 8.86614 21.8087 7.66149C27.5967 5.48892 34.1765 7.38391 37.7955 12.2657C38.7082 13.4968 39.7504 15.6456 40.0395 16.8918C40.2554 17.8226 40.6222 18.151 41.2653 17.9897C42.1008 17.7799 41.9331 16.1456 40.843 13.8722C38.6867 9.37562 34.6716 6.23529 29.7902 5.227C28.5074 4.96201 25.3618 4.91986 23.9938 5.14916ZM53.605 6.25176C52.319 6.67048 51.342 7.43978 50.829 8.43773C50.3526 9.36415 50.4686 10.8632 51.0785 11.6627C51.6747 12.4444 52.3862 12.7814 54.6175 13.3397C55.6468 13.5972 56.6746 13.9296 56.9018 14.0784C57.4811 14.4579 57.6027 15.0741 57.2045 15.6106C56.7076 16.2801 56.2204 16.4635 55.1015 16.403C53.8548 16.3355 53.2943 15.9624 52.9601 14.9779L52.7178 14.2643L51.4294 14.4762C50.7206 14.5928 50.1138 14.7153 50.0807 14.7484C50.0476 14.7815 50.1474 15.1948 50.3022 15.6668C50.7008 16.8805 51.7888 17.9477 52.9615 18.275C54.7784 18.7821 56.8707 18.6923 58.1275 18.0531C59.3759 17.4184 60.1258 16.1859 60.1378 14.7488C60.155 12.7089 59.2314 11.8884 56.0347 11.104C53.8004 10.5557 53.5285 10.4438 53.273 9.96632C52.7986 9.07995 53.7465 8.21037 55.1885 8.2094C56.3302 8.20859 56.8944 8.52429 57.2242 9.34833C57.4183 9.83358 57.5599 9.98957 57.7423 9.91949C57.8804 9.86652 58.3891 9.77674 58.8724 9.7199C59.3559 9.66306 59.789 9.55567 59.835 9.48123C59.9905 9.2298 59.5383 8.06939 59.0579 7.48645C58.2562 6.51384 57.4785 6.21429 55.6245 6.16375C54.7364 6.13969 53.8275 6.17925 53.605 6.25176ZM100.759 8.13883C100.759 9.71311 100.735 9.84827 100.476 9.74137C99.7151 9.42729 98.939 9.34736 98.2156 9.509C96.0387 9.99506 94.8976 11.5605 94.9115 14.0421C94.9272 16.8453 96.4416 18.5812 98.8827 18.5939C99.4369 18.5969 99.9872 18.4796 100.417 18.2671C100.983 17.9869 101.107 17.9716 101.216 18.1673C101.313 18.3398 101.612 18.3866 102.385 18.3501L103.423 18.3013V12.4073V6.5132L102.091 6.46637L100.759 6.41938V8.13883ZM78.2421 8.0069C77.9871 9.83132 77.9903 9.82357 77.4873 9.82357C77.0295 9.82357 77.0208 9.8402 77.0208 10.7117C77.0208 11.5908 77.0257 11.5999 77.5053 11.5999H77.9897L77.9987 14.1432C78.0042 15.669 78.085 16.9103 78.2006 17.2461C78.4858 18.074 79.2817 18.5436 80.3998 18.5436C81.5601 18.5436 82.0267 18.2426 82.0267 17.4943C82.0267 17.1937 82.0855 16.9115 82.1574 16.8671C82.2292 16.8227 82.2838 17.1272 82.2785 17.5438L82.269 18.3013H83.3993H84.5297L84.6104 15.8504C84.6812 13.7022 84.7324 13.3443 85.0242 12.9537C85.4542 12.3779 86.0308 11.9643 86.5886 11.8319C86.96 11.7436 87.0327 11.7791 87.0327 12.0488C87.0327 12.2954 87.1754 12.396 87.6382 12.4756C87.9714 12.5329 88.4405 12.6188 88.6809 12.6663C89.061 12.7415 89.1489 12.6792 89.3536 12.1894C89.6364 11.5127 90.0288 11.2769 90.8725 11.2769C91.5386 11.2769 92.0386 11.6441 92.0386 12.1332C92.0386 12.4682 91.3651 12.8182 90.4238 12.9728C88.1112 13.3523 87.0034 14.0407 86.7788 15.2379C86.3296 17.6328 89.1156 19.3852 91.4224 18.1588C92.1229 17.7862 92.1521 17.7836 92.3359 18.078C92.4928 18.3294 92.7244 18.3821 93.6736 18.3821H94.8214L94.7126 17.938C94.6527 17.6937 94.5534 16.1496 94.4918 14.5065C94.3946 11.9083 94.3368 11.4455 94.0484 10.9544C92.8777 8.96158 88.8971 8.84564 87.5919 10.7665L87.1941 11.3518V10.4212C87.1941 9.80855 87.1228 9.46298 86.985 9.41018C86.6774 9.29213 85.4032 9.7811 84.9783 10.1801L84.6104 10.5259V9.99522C84.6104 9.47041 84.6038 9.46589 84.0049 9.57327C83.6719 9.63302 83.1269 9.75284 82.7938 9.83972L82.1882 9.99748V13.1213C82.1882 16.2244 82.1858 16.2458 81.8249 16.3426C80.5707 16.6786 80.4119 16.3723 80.4119 13.6168V11.6176L81.179 11.5684L81.946 11.5191L81.9944 10.6805L82.0431 9.84198L81.2678 9.7924L80.4927 9.74283L80.4455 8.49135L80.3984 7.23986H79.3738H78.3493L78.2421 8.0069ZM24.2482 8.29401C22.9688 8.57176 21.6454 9.0638 20.6827 9.61978C19.7679 10.148 19.6805 10.2631 19.7335 10.8703C19.7648 11.2273 19.8869 11.3907 20.2057 11.502C20.5575 11.6251 20.8508 11.5469 21.8205 11.0723C22.472 10.7534 23.4413 10.3666 23.9741 10.2131C25.0365 9.90657 27.4786 9.8184 28.8355 10.0374C29.508 10.1459 29.7087 10.1215 29.9255 9.90463C30.239 9.5912 30.2768 8.80155 29.9893 8.57031C29.3466 8.05325 26.0807 7.89612 24.2482 8.29401ZM63.6986 9.39564C62.3015 9.85457 61.3649 10.6148 60.784 11.7613C60.3748 12.5691 60.2884 14.4035 60.6078 15.5024C61.3637 18.1027 64.4808 19.3922 66.9537 18.1274C67.8651 17.6612 68.6314 16.8143 68.8568 16.0235C68.9463 15.7096 68.8652 15.6713 67.8067 15.5281L66.6595 15.3727L66.1237 15.9085C65.6977 16.3345 65.4571 16.4443 64.9497 16.4443C64.1485 16.4443 63.3109 15.9003 63.0231 15.1928L62.8095 14.668H65.8781H68.9467V13.89C68.9467 12.1095 68.014 10.3889 66.6845 9.71683C65.7643 9.2516 64.5385 9.11983 63.6986 9.39564ZM107.336 9.35156C105.026 9.90253 103.683 11.8287 103.864 14.3329C104.051 16.9315 105.864 18.6161 108.425 18.5709C109.958 18.5439 111.122 17.9666 111.86 16.8664C112.149 16.4366 112.385 15.9925 112.385 15.8794C112.385 15.7498 112.043 15.634 111.457 15.5652C110.946 15.5053 110.407 15.4212 110.259 15.3784C110.086 15.3285 109.951 15.4199 109.884 15.6319C109.64 16.4017 108.171 16.6799 107.266 16.1278C106.834 15.8646 106.249 15.0775 106.249 14.7602C106.249 14.7134 107.648 14.6553 109.357 14.6312L112.466 14.5873L112.408 13.6991C112.289 11.8846 111.243 10.1086 110.007 9.62155C109.167 9.29036 108.061 9.17877 107.336 9.35156ZM72.4186 9.44909C70.7345 9.82728 69.8619 10.5837 69.5353 11.9482C69.4362 12.3622 69.4622 12.3809 70.2796 12.4846C70.7455 12.5437 71.2454 12.6254 71.3906 12.6661C71.5703 12.7165 71.6874 12.6085 71.758 12.3273C71.9346 11.6236 72.4191 11.2769 73.226 11.2769C73.9255 11.2769 74.5986 11.6672 74.5986 12.0728C74.5986 12.4048 74.0659 12.7172 73.1856 12.9012C71.0993 13.3379 70.4886 13.5751 69.8753 14.1871C69.3157 14.7455 69.2697 14.8621 69.2697 15.7199C69.2697 16.3742 69.3676 16.8067 69.6007 17.1842C70.4639 18.5805 72.7112 18.9749 74.1689 17.9856L74.7407 17.5976L74.7908 17.9495C74.8371 18.2752 74.9306 18.3013 76.0519 18.3013C77.4211 18.3013 77.3267 18.4578 77.0261 16.6865C76.9357 16.1536 76.8613 14.7694 76.8606 13.6103C76.8593 11.6084 76.838 11.4702 76.4337 10.8467C75.9221 10.0576 75.4433 9.75865 74.3081 9.5195C73.4371 9.33589 72.9957 9.31942 72.4186 9.44909ZM24.2345 11.5322C22.0193 12.1279 19.4638 14.2112 18.4434 16.2531C15.9251 21.2926 18.4218 27.4097 23.7319 29.2107C25.1843 29.7032 27.5043 29.8135 28.8995 29.4563C31.1594 28.8777 32.3718 28.0191 31.9752 27.2781C31.6319 26.6365 31.2373 26.5731 30.3582 27.0186C27.3468 28.5444 24.051 28.0986 21.6004 25.8336C18.9258 23.3617 18.4969 19.1914 20.6118 16.2198C22.0903 14.1424 24.2175 13.0522 26.7891 13.0542C28.1691 13.0551 28.9307 13.2286 30.139 13.8172C31.1239 14.2969 31.7477 14.2298 31.8989 13.6276C31.9526 13.4133 31.9523 13.0986 31.8982 12.928C31.7792 12.5529 30.3985 11.8532 29.1204 11.5204C27.9455 11.2144 25.3932 11.2205 24.2345 11.5322ZM63.9235 11.5186C63.4982 11.7497 62.9719 12.4168 62.9719 12.7246C62.9719 12.8292 63.6064 12.8917 64.6675 12.8917C65.6344 12.8917 66.363 12.8255 66.363 12.7378C66.363 12.3485 65.9361 11.7158 65.5322 11.507C64.9766 11.2197 64.4668 11.2233 63.9235 11.5186ZM107.28 11.6365C105.935 12.6747 106.077 12.8917 108.106 12.8917C109.537 12.8917 109.802 12.8523 109.802 12.6388C109.802 12.2088 109.49 11.7756 108.997 11.5207C108.341 11.1813 107.825 11.216 107.28 11.6365ZM98.0925 11.9729C97.486 12.5794 97.2588 13.5415 97.4387 14.741C97.735 16.7172 99.9441 17.1007 100.664 15.301C101.166 14.0481 100.793 12.0501 99.9756 11.6129C99.3432 11.2745 98.6605 11.405 98.0925 11.9729ZM73.1821 14.4962C72.048 14.8204 71.5293 15.1999 71.5329 15.7023C71.5388 16.5057 72.2527 16.8782 73.2509 16.5988C74.1741 16.3403 74.5986 15.8016 74.5986 14.8884C74.5986 14.0831 74.613 14.087 73.1821 14.4962ZM90.8333 14.4434C89.4844 14.7694 89.1319 15.0336 89.1319 15.7176C89.1319 16.8278 90.4748 17.0854 91.5495 16.1813C91.9717 15.826 92.0386 15.6613 92.0386 14.9766C92.0386 14.5404 91.9842 14.1895 91.9175 14.197C91.8508 14.2044 91.363 14.3153 90.8333 14.4434ZM14.5853 19.7629C14.1937 20.1545 14.179 20.2323 14.2885 21.3374C14.7729 26.2328 17.5859 30.0835 22.0296 31.9333C23.3316 32.4754 26.07 33.0121 26.7117 32.851C27.2054 32.7271 27.5057 32.2065 27.3777 31.6966C27.275 31.2872 26.5073 30.9802 25.5825 30.9786C24.8045 30.9772 23.2644 30.5292 22.0364 29.9474C18.6349 28.3356 16.4087 24.9802 16.0774 20.9658C16.0105 20.1553 15.9119 19.8517 15.6449 19.6336C15.1889 19.2609 15.0733 19.2751 14.5853 19.7629ZM52.6615 34.8664C50.6961 35.8487 49.7564 38.2185 50.2105 41.0481C50.6221 43.6128 52.1016 45.1304 54.3679 45.3124C55.5954 45.4109 56.5997 45.0774 57.4858 44.2769L58.0861 43.7344L58.1911 44.3909C58.2849 44.9776 58.3397 45.0419 58.7061 44.9965L59.1159 44.9458L59.1151 42.2813L59.1143 39.6169L56.9252 39.572L54.7364 39.5271V40.0968V40.6665H56.4392H58.1422L58.0337 41.2721C57.6797 43.2473 56.6246 44.2191 54.8341 44.2191C53.7705 44.2191 53.1936 44.02 52.5819 43.4418C50.9264 41.8767 50.814 38.0458 52.3734 36.3316C53.3815 35.2233 55.5444 35.0641 56.8607 36.0013C57.098 36.1704 57.4504 36.6353 57.6435 37.0343C57.9599 37.6877 58.0506 37.7599 58.5565 37.7599C59.0628 37.7599 59.1077 37.7242 59.0116 37.3965C58.4125 35.3543 57.0226 34.3688 54.7419 34.3688C53.8537 34.3688 53.4773 34.4589 52.6615 34.8664ZM60.3299 34.6423C60.2732 34.6991 60.2267 37.0587 60.2267 39.8861V45.0265H60.7919H61.3571V39.8591C61.3571 37.017 61.3027 34.6864 61.236 34.6798C61.1693 34.6731 60.9615 34.6388 60.774 34.6034C60.5865 34.568 60.3868 34.5856 60.3299 34.6423ZM69.7072 34.631C69.6442 34.694 69.5927 37.0587 69.5927 39.8861V45.0265H70.0771C70.5104 45.0265 70.5616 44.974 70.5616 44.5297V44.0328L71.0452 44.5164C71.8791 45.3503 73.5586 45.478 74.6889 44.7935C76.1251 43.9239 76.7343 41.7743 76.1257 39.7246C75.8372 38.7531 75.0727 37.8065 74.3237 37.4936C73.1743 37.0133 71.5718 37.3264 70.9167 38.1594L70.5717 38.598L70.5264 36.6045C70.4837 34.7381 70.4598 34.6079 70.1512 34.5638C69.9699 34.5378 69.7701 34.5682 69.7072 34.631ZM84.079 34.631C84.016 34.694 83.9645 37.0587 83.9645 39.8861V45.0265H84.4512H84.9379L84.8953 39.8188C84.8535 34.7151 84.846 34.61 84.5231 34.5638C84.3417 34.5378 84.142 34.5682 84.079 34.631ZM64.1617 37.4511C62.8526 37.8306 61.8784 39.8312 62.0592 41.7685C62.2587 43.9036 63.2962 45.0406 65.1531 45.1589C66.3997 45.2382 67.1141 45.0175 67.8133 44.3367C68.4952 43.6725 68.7759 42.9969 68.8936 41.7351C69.0709 39.8375 68.2984 38.1983 66.9348 37.579C66.2389 37.2628 65.0074 37.206 64.1617 37.4511ZM78.7679 37.4338C77.8129 37.7221 77.0237 38.6175 77.0219 39.4151C77.021 39.7968 77.0861 39.8591 77.4851 39.8591C77.8717 39.8591 77.9655 39.7782 78.0462 39.3748C78.1725 38.7436 78.9789 38.2458 79.8766 38.245C80.9017 38.244 81.3228 38.4676 81.541 39.1286C81.8192 39.9715 81.4709 40.4537 80.4957 40.5755C80.0945 40.6255 79.4217 40.71 79.0011 40.7629C78.5804 40.8159 78.0533 40.9538 77.83 41.0693C76.4463 41.785 76.2108 43.5375 77.3519 44.6306C77.8155 45.0748 77.9348 45.1073 79.1021 45.1073C80.1955 45.1073 80.4394 45.0514 81.0197 44.6672C81.6674 44.2387 81.6873 44.2358 81.7887 44.5553C81.9144 44.951 82.6013 45.241 83.1104 45.1131C83.6249 44.9841 83.6299 44.2629 83.1167 44.1901C82.7599 44.1394 82.752 44.0891 82.6727 41.3932C82.6181 39.5384 82.5222 38.5258 82.377 38.271C81.9271 37.4813 80.0518 37.0464 78.7679 37.4338ZM64.3121 38.5608C63.4833 39.0659 63.2172 39.7341 63.2156 41.3125C63.2143 42.4522 63.2752 42.7831 63.5734 43.2628C64.0061 43.9583 64.5246 44.2191 65.4749 44.2191C67.0973 44.2191 67.733 43.4012 67.7343 41.3125C67.7353 39.7345 67.4697 39.068 66.6377 38.5608C66.3525 38.3867 65.8313 38.2454 65.4749 38.2454C65.1185 38.2454 64.5972 38.3867 64.3121 38.5608ZM71.7402 38.5608C70.7632 39.1564 70.3284 40.798 70.7177 42.4207C70.9993 43.5947 71.7347 44.2191 72.8359 44.2191C74.5133 44.2191 75.1664 43.3797 75.1599 41.2317C75.1541 39.2486 74.3959 38.2454 72.903 38.2454C72.5466 38.2454 72.0254 38.3867 71.7402 38.5608ZM79.9275 41.4676C78.7593 41.5894 78.2883 41.7887 77.9172 42.3185C77.5564 42.8336 77.6083 43.368 78.0632 43.8227C78.3845 44.1442 78.6211 44.219 79.3147 44.218C80.7181 44.2164 81.4465 43.5658 81.6348 42.1459C81.7608 41.1965 81.9205 41.26 79.9275 41.4676Z" fill="black"/>
<path fill-rule="evenodd" clip-rule="evenodd" d="M39.0377 7.11874C38.4753 7.56087 38.5395 7.97911 39.3087 8.88115C42.2499 12.3304 43.5616 15.5736 43.7065 19.7547C43.7956 22.3263 43.4775 24.3466 42.6418 26.5169C40.5899 31.8456 35.63 35.9408 29.9003 37.0372C28.2785 37.3476 25.2433 37.3411 23.5709 37.024C16.7184 35.7241 11.3845 30.4031 10.0632 23.5495C9.78437 22.1026 9.7524 19.1271 10.0009 17.7563C10.2054 16.6294 10.0628 16.1827 9.44978 16.0288C8.36979 15.7577 8 16.8935 8 20.4813C8 24.4736 8.90801 27.5084 11.0867 30.7973C12.1399 32.3872 14.2789 34.5964 15.818 35.6838C17.9636 37.1997 20.8683 38.4069 23.5691 38.9051C25.1057 39.1885 28.5582 39.1515 30.205 38.8339C37.9211 37.3458 43.6835 31.624 45.2985 23.8472C45.678 22.0196 45.6757 18.6099 45.2937 16.7673C44.6053 13.4462 42.8855 10.0608 40.7205 7.76466C39.9123 6.90752 39.5052 6.75121 39.0377 7.11874ZM53.8318 19.5678C52.7607 19.8412 51.9898 20.3291 51.1863 21.2419C50.2568 22.2978 49.8906 23.5892 49.8906 25.8102C49.8906 28.1709 50.2523 29.3489 51.3444 30.5437C52.5153 31.8249 53.4199 32.1862 55.4617 32.1876C56.8643 32.1886 57.1932 32.1338 57.9646 31.7705C58.4531 31.5404 59.0853 31.1556 59.3694 30.9153C59.9467 30.427 60.637 29.1128 60.8001 28.1921L60.9073 27.5865H59.605H58.3028L57.9956 28.2728C57.6254 29.1002 57.277 29.419 56.4543 29.6834C55.1909 30.0893 53.5896 29.4495 53.0564 28.3259C52.357 26.8523 52.3924 24.3005 53.1289 23.0894C54.2483 21.2487 57.6835 21.4576 58.0701 23.3901L58.1689 23.8849L59.4798 23.8382L60.7906 23.7917L60.7411 23.2265C60.6706 22.4181 59.9731 21.0543 59.3694 20.544C58.4804 19.7925 57.5385 19.473 56.0343 19.413C55.2396 19.3813 54.3055 19.4469 53.8318 19.5678ZM76.212 20.885V22.0961H77.5039H78.7957V20.885V19.6739H77.5039H76.212V20.885ZM65.1506 22.8871C64.7953 23.0518 64.3976 23.3589 64.2668 23.5698L64.0289 23.9532L63.9438 23.388L63.8587 22.8228H62.7283H61.598V27.3443V31.8658L62.8494 31.9129L64.1009 31.9601L64.1019 29.4907C64.1032 25.594 64.259 25.3377 66.725 25.1724C66.7917 25.168 66.8461 24.583 66.8461 23.8724V22.5806L66.3213 22.5841C66.0326 22.5861 65.5058 22.7224 65.1506 22.8871ZM81.4487 22.8769C81.0872 23.0463 80.5604 23.465 80.278 23.8077C79.8153 24.369 79.7646 24.5361 79.7646 25.5023C79.7646 27.1904 80.3705 27.7207 83.149 28.4643C84.8913 28.9305 84.932 28.9533 84.932 29.4571C84.932 29.9643 84.3076 30.2272 83.351 30.1226C82.581 30.0385 82.0688 29.6693 81.994 29.1442C81.9482 28.8222 81.8586 28.7994 80.7335 28.8236L79.5224 28.8495L79.5316 29.5748C79.5557 31.4784 82.0619 32.6871 84.8043 32.1177C86.5898 31.7471 87.5157 30.7402 87.5157 29.1694C87.5157 28.6452 87.4124 28.0167 87.2863 27.7725C86.984 27.1881 85.7858 26.5648 84.2861 26.2118C82.7667 25.8541 82.1507 25.5525 82.2187 25.1993C82.298 24.7876 82.9962 24.4982 83.6402 24.6103C84.3073 24.7265 84.5907 24.9335 84.7861 25.4474C84.9207 25.8013 85.0013 25.8215 86.1015 25.777L87.2735 25.7295L87.2239 25.245C87.144 24.4623 86.6475 23.6645 85.9208 23.1513C85.2997 22.7125 85.1108 22.668 83.6744 22.6206C82.394 22.5785 81.9853 22.6255 81.4487 22.8769ZM90.0994 22.838C89.3205 23.1755 88.6934 23.8066 88.1894 24.7606C87.8032 25.4916 87.7628 25.7359 87.7625 27.3443C87.7622 28.8945 87.8104 29.2131 88.1412 29.8473C89.0267 31.5454 90.0686 32.1831 91.9565 32.1831C93.4164 32.1831 94.1589 31.8882 95.0568 30.9515C95.4874 30.5022 96.0743 29.4492 96.0743 29.1258C96.0743 29.0784 95.5138 29.0399 94.8289 29.0399C93.6637 29.0399 93.5606 29.0684 93.2293 29.4839C92.9249 29.8657 92.7578 29.928 92.0385 29.928C91.322 29.928 91.1459 29.8629 90.8121 29.4749C90.5925 29.2196 90.4224 28.816 90.4224 28.5501V28.0784L93.2887 28.0343L96.155 27.9902L96.1276 26.9406C96.0538 24.1253 94.5421 22.578 91.8757 22.5885C91.1599 22.5912 90.4336 22.6933 90.0994 22.838ZM67.157 22.9333C67.1503 23.0502 67.1528 24.7081 67.1626 26.6176C67.1792 29.8582 67.2043 30.1373 67.5381 30.8077C67.9999 31.7351 68.7645 32.1403 70.0531 32.1403C70.9838 32.1403 71.771 31.868 72.3769 31.3368C72.6373 31.1086 72.6594 31.1228 72.6594 31.5178C72.6594 31.9438 72.6674 31.9465 73.8731 31.9465H75.0867L75.0439 27.3847L75.0009 22.8228L73.8302 22.7753C73.1862 22.7493 72.6577 22.7857 72.6554 22.8561C72.6533 22.9266 72.6347 24.2923 72.6144 25.891C72.5734 29.1103 72.4967 29.4064 71.6069 29.7781C71.0332 30.0179 70.1541 29.9364 69.9512 29.6246C69.8865 29.5249 69.7972 27.9539 69.7528 26.1332L69.672 22.8228L68.4206 22.7718C67.4723 22.7332 67.1662 22.7723 67.157 22.9333ZM76.326 22.8433C76.2634 22.906 76.212 24.9799 76.212 27.452V31.9465H77.5065H78.8008L78.758 27.3847L78.715 22.8228L77.5775 22.776C76.952 22.7503 76.3889 22.7807 76.326 22.8433ZM91.2875 24.8325C90.8675 25.011 90.4224 25.6156 90.4224 26.0077C90.4224 26.2629 90.5949 26.2947 91.9739 26.2947H93.5256L93.4171 25.8506C93.3575 25.6064 93.1818 25.277 93.0266 25.1188C92.6917 24.7771 91.7734 24.6258 91.2875 24.8325Z" fill="black"/>
</svg>
