<svg width="234" height="234" viewBox="0 0 234 234" fill="none" xmlns="http://www.w3.org/2000/svg">
<path d="M195.723 35.3889H37.7727C33.1178 35.3889 28.6541 37.2262 25.3627 40.4974C22.0713 43.7685 20.2227 48.2049 20.2227 52.8312V148.764C20.2227 153.39 22.0714 157.827 25.3627 161.098C28.654 164.369 33.1178 166.206 37.7727 166.206H67.0227C69.1129 166.206 71.0438 165.098 72.0888 163.299C73.1338 161.501 73.1338 159.284 72.0888 157.485C71.0437 155.687 69.1127 154.578 67.0227 154.578H37.7727C36.221 154.578 34.7334 153.966 33.6357 152.876C32.5389 151.785 31.9226 150.306 31.9226 148.764V76.0876H201.573V148.764C201.573 150.306 200.956 151.785 199.859 152.876C198.762 153.966 197.274 154.578 195.723 154.578H166.473C164.382 154.578 162.451 155.686 161.406 157.485C160.361 159.284 160.361 161.501 161.406 163.299C162.452 165.098 164.383 166.206 166.473 166.206H195.723C200.377 166.206 204.841 164.369 208.133 161.098C211.424 157.827 213.273 153.39 213.273 148.764V52.8312C213.273 48.2049 211.424 43.7686 208.133 40.4974C204.841 37.2261 200.377 35.3889 195.723 35.3889ZM201.573 64.4594H31.9227V52.8312C31.9227 51.2891 32.5389 49.8106 33.6358 48.7197C34.7334 47.6295 36.2211 47.0171 37.7727 47.0171H195.723C197.274 47.0171 198.762 47.6295 199.86 48.7197C200.956 49.8106 201.573 51.2891 201.573 52.8312L201.573 64.4594Z" fill="#D8C49B"/>
<path d="M46.5477 55.7383C46.5477 58.9496 43.9288 61.5524 40.6977 61.5524C37.4665 61.5524 34.8477 58.9496 34.8477 55.7383C34.8477 52.5269 37.4665 49.9242 40.6977 49.9242C43.9288 49.9242 46.5477 52.5269 46.5477 55.7383Z" fill="#D8C49B"/>
<path d="M61.1727 55.7383C61.1727 58.9496 58.5538 61.5524 55.3227 61.5524C52.0915 61.5524 49.4727 58.9496 49.4727 55.7383C49.4727 52.5269 52.0915 49.9242 55.3227 49.9242C58.5538 49.9242 61.1727 52.5269 61.1727 55.7383Z" fill="#D8C49B"/>
<path d="M75.7977 55.7383C75.7977 58.9496 73.1788 61.5524 69.9477 61.5524C66.7165 61.5524 64.0977 58.9496 64.0977 55.7383C64.0977 52.5269 66.7165 49.9242 69.9477 49.9242C73.1788 49.9242 75.7977 52.5269 75.7977 55.7383Z" fill="#D8C49B"/>
<path d="M116.748 122.601C106.663 122.601 96.9908 126.582 89.8597 133.669C82.7285 140.757 78.7227 150.369 78.7227 160.393C78.7227 170.417 82.7285 180.029 89.8597 187.116C96.9908 194.204 106.662 198.185 116.748 198.185C126.834 198.185 136.506 194.204 143.637 187.116C150.768 180.029 154.774 170.417 154.774 160.393C154.774 150.369 150.768 140.757 143.637 133.669C136.506 126.582 126.834 122.601 116.748 122.601ZM116.748 186.556C109.766 186.556 103.071 183.799 98.1333 178.893C93.1967 173.986 90.4232 167.331 90.4232 160.392C90.4232 153.453 93.1967 146.799 98.1333 141.892C103.071 136.985 109.766 134.229 116.748 134.229C123.73 134.229 130.426 136.985 135.363 141.892C140.3 146.799 143.073 153.453 143.073 160.392C143.073 167.331 140.3 173.986 135.363 178.893C130.426 183.799 123.73 186.556 116.748 186.556Z" fill="#D8C49B"/>
<path d="M131.371 146.002C130.273 144.911 128.785 144.297 127.231 144.297C125.679 144.297 124.19 144.911 123.093 146.002L116.746 152.165L110.544 146.002C109.066 144.533 106.911 143.959 104.891 144.497C102.871 145.035 101.293 146.603 100.752 148.61C100.211 150.618 100.788 152.76 102.267 154.229L108.468 160.392L102.267 166.555C101.149 167.646 100.514 169.134 100.5 170.69C100.487 172.247 101.096 173.744 102.194 174.855C103.291 175.965 104.788 176.597 106.354 176.611C107.92 176.624 109.428 176.019 110.544 174.928L116.745 168.619L122.947 174.928C124.451 176.424 126.645 177.007 128.7 176.46C130.756 175.913 132.361 174.317 132.912 172.273C133.463 170.231 132.876 168.051 131.371 166.555L125.023 160.392L131.371 154.229C132.469 153.139 133.086 151.659 133.086 150.116C133.086 148.572 132.469 147.093 131.371 146.002L131.371 146.002Z" fill="#D8C49B"/>
</svg>
