<svg width="64" height="64" viewBox="0 0 64 64" fill="none" xmlns="http://www.w3.org/2000/svg">
<path d="M58.1 28.6223L22.08 6.58728C21.4727 6.21542 20.7772 6.01241 20.0652 5.99922C19.3532 5.98604 18.6506 6.16315 18.03 6.51228C17.4153 6.85599 16.9032 7.35723 16.5464 7.96446C16.1896 8.57169 16.001 9.263 16 9.96728V54.0323C16.0046 55.0887 16.4286 56.1001 17.1787 56.8441C17.9287 57.5881 18.9435 58.0038 20 57.9998C20.7374 57.9995 21.4605 57.7962 22.09 57.4123L58.1 35.3773C58.6788 35.0245 59.1572 34.5287 59.4891 33.9377C59.8211 33.3466 59.9954 32.6802 59.9954 32.0023C59.9954 31.3244 59.8211 30.6579 59.4891 30.0669C59.1572 29.4758 58.6788 28.9801 58.1 28.6273V28.6223Z" fill="#0D2D18"/>
</svg>
