<svg width="24" height="24" viewBox="0 0 24 24" fill="none" xmlns="http://www.w3.org/2000/svg">
<path d="M15.6106 11.6256L11.1106 8.62563C10.9976 8.55025 10.8663 8.50697 10.7306 8.5004C10.595 8.49382 10.4601 8.52421 10.3403 8.58831C10.2206 8.65241 10.1205 8.74783 10.0508 8.86436C9.98104 8.9809 9.94425 9.11419 9.94434 9.25V15.25C9.94425 15.3858 9.98104 15.5191 10.0508 15.6356C10.1205 15.7522 10.2206 15.8476 10.3403 15.9117C10.4601 15.9758 10.595 16.0062 10.7306 15.9996C10.8663 15.993 10.9976 15.9498 11.1106 15.8744L15.6106 12.8744C15.7135 12.8059 15.7978 12.7131 15.8562 12.6042C15.9145 12.4952 15.9451 12.3736 15.9451 12.25C15.9451 12.1264 15.9145 12.0048 15.8562 11.8958C15.7978 11.7869 15.7135 11.6941 15.6106 11.6256ZM11.4443 13.8484V10.6563L13.8425 12.25L11.4443 13.8484ZM22.1628 6.7675C22.0744 6.42189 21.9052 6.10224 21.669 5.83491C21.4328 5.56758 21.1364 5.36024 20.8043 5.23C17.5906 3.98875 12.4756 4 12.1943 4C11.9131 4 6.79809 3.98875 3.58434 5.23C3.25224 5.36024 2.95587 5.56758 2.71967 5.83491C2.48348 6.10224 2.31423 6.42189 2.2259 6.7675C1.98309 7.70313 1.69434 9.41313 1.69434 12.25C1.69434 15.0869 1.98309 16.7969 2.2259 17.7325C2.3141 18.0783 2.48329 18.3981 2.71949 18.6656C2.95569 18.9331 3.25213 19.1406 3.58434 19.2709C6.66309 20.4588 11.4818 20.5 12.1325 20.5H12.2562C12.9068 20.5 17.7284 20.4588 20.8043 19.2709C21.1365 19.1406 21.433 18.9331 21.6692 18.6656C21.9054 18.3981 22.0746 18.0783 22.1628 17.7325C22.4056 16.795 22.6943 15.0869 22.6943 12.25C22.6943 9.41313 22.4056 7.70313 22.1628 6.7675ZM20.7106 17.3613C20.682 17.4763 20.6266 17.5829 20.5489 17.6724C20.4711 17.7618 20.3733 17.8316 20.2634 17.8759C17.2962 19.0216 12.2496 19.0009 12.2009 19.0009H12.1943C12.1437 19.0009 7.1009 19.0197 4.13184 17.8759C4.02193 17.8316 3.92411 17.7618 3.84637 17.6724C3.76864 17.5829 3.71322 17.4763 3.68465 17.3613C3.45684 16.5053 3.19434 14.9284 3.19434 12.25C3.19434 9.57157 3.45684 7.99469 3.67809 7.14344C3.70613 7.02774 3.76131 6.92037 3.83907 6.83022C3.91683 6.74007 4.01494 6.66972 4.12527 6.625C6.98652 5.51969 11.7809 5.5 12.1737 5.5H12.199C12.2496 5.5 17.2971 5.48313 20.2615 6.625C20.3714 6.66936 20.4693 6.73913 20.547 6.82859C20.6247 6.91806 20.6801 7.02467 20.7087 7.13969C20.9318 7.99469 21.1943 9.57157 21.1943 12.25C21.1943 14.9284 20.9318 16.5053 20.7106 17.3566V17.3613Z" fill="#D8C49B"/>
</svg>
