<svg width="24" height="24" viewBox="0 0 24 24" fill="none" xmlns="http://www.w3.org/2000/svg">
<path d="M12.4443 2C10.516 2 8.63091 2.57183 7.02753 3.64317C5.42415 4.71451 4.17447 6.23726 3.43651 8.01884C2.69856 9.80042 2.50548 11.7608 2.88168 13.6521C3.25789 15.5434 4.18649 17.2807 5.55005 18.6443C6.91361 20.0079 8.6509 20.9365 10.5422 21.3127C12.4335 21.6889 14.3939 21.4958 16.1755 20.7578C17.9571 20.0199 19.4798 18.7702 20.5512 17.1668C21.6225 15.5634 22.1943 13.6784 22.1943 11.75C22.1916 9.16498 21.1635 6.68661 19.3356 4.85872C17.5077 3.03084 15.0294 2.00273 12.4443 2ZM13.1943 19.9653V14H15.4443C15.6433 14 15.834 13.921 15.9747 13.7803C16.1153 13.6397 16.1943 13.4489 16.1943 13.25C16.1943 13.0511 16.1153 12.8603 15.9747 12.7197C15.834 12.579 15.6433 12.5 15.4443 12.5H13.1943V10.25C13.1943 9.85218 13.3524 9.47064 13.6337 9.18934C13.915 8.90804 14.2965 8.75 14.6943 8.75H16.1943C16.3933 8.75 16.584 8.67098 16.7247 8.53033C16.8653 8.38968 16.9443 8.19891 16.9443 8C16.9443 7.80109 16.8653 7.61032 16.7247 7.46967C16.584 7.32902 16.3933 7.25 16.1943 7.25H14.6943C13.8987 7.25 13.1356 7.56607 12.573 8.12868C12.0104 8.69129 11.6943 9.45435 11.6943 10.25V12.5H9.44434C9.24543 12.5 9.05466 12.579 8.91401 12.7197C8.77336 12.8603 8.69434 13.0511 8.69434 13.25C8.69434 13.4489 8.77336 13.6397 8.91401 13.7803C9.05466 13.921 9.24543 14 9.44434 14H11.6943V19.9653C9.58009 19.7723 7.62162 18.7717 6.22631 17.1715C4.83101 15.5714 4.10628 13.4949 4.20289 11.3741C4.29949 9.25324 5.20998 7.25127 6.74497 5.7846C8.27997 4.31793 10.3213 3.49947 12.4443 3.49947C14.5674 3.49947 16.6087 4.31793 18.1437 5.7846C19.6787 7.25127 20.5892 9.25324 20.6858 11.3741C20.7824 13.4949 20.0577 15.5714 18.6624 17.1715C17.2671 18.7717 15.3086 19.7723 13.1943 19.9653Z" fill="#D8C49B"/>
</svg>
