<svg width="24" height="24" viewBox="0 0 24 24" fill="none" xmlns="http://www.w3.org/2000/svg">
<path d="M12.0557 7.5C11.1656 7.5 10.2956 7.76392 9.5556 8.25839C8.81558 8.75285 8.2388 9.45566 7.89821 10.2779C7.55761 11.1002 7.4685 12.005 7.64213 12.8779C7.81576 13.7508 8.24435 14.5526 8.87368 15.182C9.50302 15.8113 10.3048 16.2399 11.1778 16.4135C12.0507 16.5872 12.9555 16.4981 13.7777 16.1575C14.6 15.8169 15.3028 15.2401 15.7973 14.5001C16.2917 13.76 16.5557 12.89 16.5557 12C16.5544 10.8069 16.0799 9.66303 15.2363 8.81939C14.3926 7.97575 13.2488 7.50124 12.0557 7.5ZM12.0557 15C11.4623 15 10.8823 14.8241 10.389 14.4944C9.89561 14.1648 9.51109 13.6962 9.28403 13.1481C9.05696 12.5999 8.99755 11.9967 9.11331 11.4147C9.22906 10.8328 9.51479 10.2982 9.93434 9.87868C10.3539 9.45912 10.8885 9.1734 11.4704 9.05764C12.0523 8.94189 12.6555 9.0013 13.2037 9.22836C13.7519 9.45542 14.2204 9.83994 14.5501 10.3333C14.8797 10.8266 15.0557 11.4067 15.0557 12C15.0557 12.7956 14.7396 13.5587 14.177 14.1213C13.6144 14.6839 12.8513 15 12.0557 15ZM16.5557 2.25H7.55566C6.16373 2.25149 4.82924 2.80509 3.845 3.78933C2.86075 4.77358 2.30715 6.10807 2.30566 7.5V16.5C2.30715 17.8919 2.86075 19.2264 3.845 20.2107C4.82924 21.1949 6.16373 21.7485 7.55566 21.75H16.5557C17.9476 21.7485 19.2821 21.1949 20.2663 20.2107C21.2506 19.2264 21.8042 17.8919 21.8057 16.5V7.5C21.8042 6.10807 21.2506 4.77358 20.2663 3.78933C19.2821 2.80509 17.9476 2.25149 16.5557 2.25ZM20.3057 16.5C20.3057 17.4946 19.9106 18.4484 19.2073 19.1516C18.5041 19.8549 17.5502 20.25 16.5557 20.25H7.55566C6.5611 20.25 5.60728 19.8549 4.90401 19.1516C4.20075 18.4484 3.80566 17.4946 3.80566 16.5V7.5C3.80566 6.50544 4.20075 5.55161 4.90401 4.84835C5.60728 4.14509 6.5611 3.75 7.55566 3.75H16.5557C17.5502 3.75 18.5041 4.14509 19.2073 4.84835C19.9106 5.55161 20.3057 6.50544 20.3057 7.5V16.5ZM18.0557 7.125C18.0557 7.3475 17.9897 7.56501 17.8661 7.75002C17.7425 7.93502 17.5667 8.07922 17.3612 8.16436C17.1556 8.24951 16.9294 8.27179 16.7112 8.22838C16.493 8.18498 16.2925 8.07783 16.1352 7.9205C15.9778 7.76316 15.8707 7.56271 15.8273 7.34448C15.7839 7.12625 15.8062 6.90005 15.8913 6.69448C15.9764 6.48891 16.1206 6.31321 16.3056 6.1896C16.4907 6.06598 16.7082 6 16.9307 6C17.229 6 17.5152 6.11853 17.7262 6.3295C17.9371 6.54048 18.0557 6.82663 18.0557 7.125Z" fill="#D8C49B"/>
</svg>
