<svg width="32" height="32" viewBox="0 0 32 32" fill="none" xmlns="http://www.w3.org/2000/svg">
<path fill-rule="evenodd" clip-rule="evenodd" d="M16.0003 9.6665C11.379 9.6665 7.28566 10.6318 4.74566 12.0798C2.74171 13.2226 1.66699 14.7159 1.66699 16.2398C1.66699 17.7638 2.74169 19.2558 4.74566 20.3985C7.28566 21.8465 11.379 22.8118 16.0003 22.8118C20.6217 22.8118 24.715 21.8465 27.255 20.3985C29.2589 19.2558 30.3337 17.7638 30.3337 16.2398C30.3337 14.7159 29.259 13.2225 27.255 12.0798C24.715 10.6318 20.6217 9.6665 16.0003 9.6665ZM16.0003 11.6665C20.2097 11.6665 23.9497 12.4985 26.2643 13.8171C27.4977 14.5211 28.3337 15.3011 28.3337 16.2398C28.3337 17.1771 27.4977 17.9585 26.2643 18.6612C23.9496 19.9798 20.2097 20.8118 16.0003 20.8118C11.791 20.8118 8.05099 19.9798 5.73633 18.6612C4.50299 17.9585 3.66694 17.1773 3.66694 16.2398C3.66694 15.3012 4.50299 14.5212 5.73633 13.8171C8.05102 12.4985 11.791 11.6665 16.0003 11.6665Z" fill="#D8C49B"/>
<path fill-rule="evenodd" clip-rule="evenodd" d="M9.66699 15.9998C9.66699 20.6132 10.5897 24.7025 11.9737 27.2385C13.0764 29.2585 14.5297 30.3332 16.0003 30.3332C17.4709 30.3332 18.9243 29.2585 20.027 27.2385C21.4109 24.7024 22.3337 20.6132 22.3337 15.9998C22.3337 11.3865 21.4109 7.29717 20.027 4.76117C18.9243 2.74117 17.4709 1.6665 16.0003 1.6665C14.5297 1.6665 13.0763 2.7412 11.9737 4.76117C10.5897 7.29722 9.66699 11.3865 9.66699 15.9998ZM11.667 15.9998C11.667 11.7825 12.4643 8.03717 13.7297 5.71984C14.1017 5.03712 14.5084 4.48786 14.955 4.11453C15.287 3.83848 15.6323 3.6665 16.0003 3.6665C16.3684 3.6665 16.7137 3.83848 17.0456 4.11453C17.4923 4.48786 17.899 5.03725 18.2709 5.71984C19.5362 8.03712 20.3337 11.7825 20.3337 15.9998C20.3337 20.2172 19.5364 23.9625 18.2709 26.2798C17.899 26.9626 17.4923 27.5118 17.0456 27.8851C16.7137 28.1612 16.3684 28.3332 16.0003 28.3332C15.6323 28.3332 15.287 28.1612 14.955 27.8851C14.5084 27.5118 14.1017 26.9624 13.7297 26.2798C12.4644 23.9626 11.667 20.2172 11.667 15.9998Z" fill="#D8C49B"/>
</svg>
