<svg width="32" height="32" viewBox="0 0 32 32" fill="none" xmlns="http://www.w3.org/2000/svg">
<path d="M31.7884 13.4888L28.5984 7.10627C28.4809 6.87136 28.3183 6.66189 28.1198 6.48983C27.9213 6.31778 27.6909 6.1865 27.4417 6.10351C27.1925 6.02052 26.9293 5.98743 26.6673 6.00613C26.4053 6.02484 26.1496 6.09497 25.9147 6.21252L22.8059 7.76627L16.2572 6.03377C16.0891 5.99004 15.9127 5.99004 15.7447 6.03377L9.19592 7.76627L6.08717 6.21252C5.85227 6.09497 5.59652 6.02484 5.33452 6.00613C5.07251 5.98743 4.80939 6.02052 4.56017 6.10351C4.31096 6.1865 4.08053 6.31778 3.88206 6.48983C3.68358 6.66189 3.52094 6.87136 3.40342 7.10627L0.213422 13.4875C0.0958669 13.7224 0.0257347 13.9782 0.00703034 14.2402C-0.0116741 14.5022 0.0214157 14.7653 0.10441 15.0145C0.187404 15.2637 0.318677 15.4942 0.490733 15.6926C0.662788 15.8911 0.872255 16.0538 1.10717 16.1713L4.48217 17.86L11.4184 22.8138C11.5206 22.8865 11.6355 22.9395 11.7572 22.97L19.7572 24.97C19.9247 25.012 20.1003 25.0099 20.2668 24.9639C20.4332 24.9179 20.585 24.8296 20.7072 24.7075L27.5909 17.8225L30.8934 16.1713C31.3675 15.9339 31.728 15.5181 31.8956 15.015C32.0632 14.512 32.0242 13.963 31.7872 13.4888H31.7884ZM24.9272 17.66L20.6259 14.215C20.4332 14.0607 20.1903 13.9831 19.9438 13.9972C19.6973 14.0113 19.4648 14.116 19.2909 14.2913C17.0647 16.5338 14.5834 16.25 13.0009 15.25L18.4059 10H22.3822L25.7834 16.8013L24.9272 17.66ZM5.19217 8.00002L7.75092 9.27752L4.55467 15.6588L2.00092 14.3825L5.19217 8.00002ZM19.6922 22.8913L12.4284 21.0763L6.27842 16.6838L9.77842 9.68377L16.0009 8.03502L17.2259 8.35877L11.6009 13.8188L11.5909 13.83C11.3792 14.0418 11.2177 14.2984 11.1184 14.5808C11.019 14.8633 10.9844 15.1645 11.017 15.4622C11.0497 15.7599 11.1487 16.0464 11.3069 16.3007C11.4651 16.5549 11.6783 16.7704 11.9309 16.9313C14.5009 18.5725 17.6022 18.3063 20.0447 16.3063L23.5009 19.0825L19.6922 22.8913ZM27.4422 15.6575L24.2522 9.28252L26.8097 8.00002L30.0009 14.3825L27.4422 15.6575ZM16.4734 27.2413C16.4194 27.4574 16.2947 27.6493 16.1192 27.7865C15.9438 27.9238 15.7275 27.9985 15.5047 27.9988C15.4225 27.9987 15.3407 27.9886 15.2609 27.9688L10.0522 26.6663C9.93034 26.6362 9.81537 26.5832 9.71342 26.51L6.41967 24.1575C6.21715 23.9985 6.08377 23.7675 6.0473 23.5126C6.01084 23.2577 6.0741 22.9986 6.22391 22.7892C6.37373 22.5797 6.59855 22.4362 6.85156 22.3884C7.10457 22.3406 7.36628 22.3922 7.58217 22.5325L10.7209 24.775L15.7509 26.03C16.0082 26.0944 16.2293 26.2583 16.3657 26.4856C16.5022 26.713 16.5427 26.9853 16.4784 27.2425L16.4734 27.2413Z" fill="#D8C49B"/>
</svg>
