<svg width="32" height="32" viewBox="0 0 32 32" fill="none" xmlns="http://www.w3.org/2000/svg">
<path d="M29.7803 28.625C29.6982 28.7277 29.5968 28.8131 29.4817 28.8765C29.3666 28.94 29.2401 28.9801 29.1095 28.9946C28.9789 29.0091 28.8468 28.9977 28.7206 28.9611C28.5943 28.9245 28.4766 28.8634 28.374 28.7813C28.3278 28.7438 23.5215 25 15.999 25C8.47653 25 3.66903 28.75 3.62403 28.7825C3.52135 28.8646 3.40351 28.9256 3.27724 28.9622C3.15097 28.9987 3.01874 29.01 2.8881 28.9954C2.62426 28.966 2.38291 28.833 2.21715 28.6256C2.05139 28.4183 1.9748 28.1535 2.00422 27.8897C2.03364 27.6259 2.16666 27.3845 2.37403 27.2188C2.57778 27.0563 7.18903 23.4363 14.6603 23.0375C14.2716 21.4891 14.1328 19.8885 14.249 18.2963C14.4665 15.5825 15.614 11.9675 19.624 9.23626C18.9398 9.06658 18.2363 8.98716 17.5315 9.00001C15.1565 9.07751 13.664 10.4638 12.969 13.24C12.9154 13.4568 12.7908 13.6494 12.615 13.7872C12.4392 13.9249 12.2224 13.9998 11.999 14C11.9172 14.0004 11.8357 13.9904 11.7565 13.97C11.4993 13.9057 11.2781 13.7418 11.1417 13.5144C11.0053 13.287 10.9648 13.0148 11.029 12.7575C12.1853 8.13876 15.1678 7.08001 17.4665 7.00751C18.3795 6.98764 19.291 7.09065 20.1765 7.31376C19.6978 6.52251 18.9978 5.69751 18.0253 5.28251C16.7753 4.75251 15.254 4.98376 13.4865 5.97126C13.2545 6.10055 12.9805 6.13236 12.725 6.05969C12.4695 5.98702 12.2533 5.81582 12.124 5.58376C11.9947 5.3517 11.9629 5.07778 12.0356 4.82226C12.1083 4.56674 12.2795 4.35055 12.5115 4.22126C14.854 2.91501 16.9765 2.65376 18.8215 3.44626C20.3828 4.11626 21.4128 5.41876 22.0553 6.57126C22.8278 5.36626 23.7903 4.55001 24.854 4.20376C26.3365 3.72001 27.934 4.11376 29.604 5.37501C29.8063 5.53804 29.9371 5.77337 29.9689 6.03119C30.0007 6.28902 29.9309 6.54909 29.7743 6.75637C29.6178 6.96364 29.3867 7.10184 29.13 7.14172C28.8733 7.18159 28.6111 7.12001 28.399 6.97001C27.2853 6.12876 26.3028 5.83751 25.4803 6.10376C24.569 6.39751 23.8715 7.35376 23.434 8.18001C24.3335 8.36235 25.1989 8.68415 25.999 9.13376C27.8253 10.1775 29.999 12.39 29.999 17.0013C29.999 17.2665 29.8937 17.5208 29.7061 17.7084C29.5186 17.8959 29.2642 18.0013 28.999 18.0013C28.7338 18.0013 28.4795 17.8959 28.2919 17.7084C28.1044 17.5208 27.999 17.2665 27.999 17.0013C27.999 14.0688 26.9903 12.0013 24.999 10.8763C24.7671 10.7445 24.527 10.6276 24.2803 10.5263C24.9099 11.8063 25.1307 13.249 24.9128 14.6588C24.7556 15.7018 24.3781 16.6993 23.8053 17.585C23.652 17.8 23.4199 17.9456 23.1596 17.9901C22.8994 18.0346 22.6321 17.9744 22.4161 17.8226C22.2 17.6708 22.0528 17.4397 22.0066 17.1797C21.9603 16.9198 22.0187 16.6521 22.169 16.435C22.2615 16.2988 24.2103 13.3875 21.7615 10.2638C18.3865 12.165 16.5253 14.92 16.2415 18.4625C16.131 19.9972 16.2931 21.5393 16.7203 23.0175C24.5515 23.2438 29.4103 27.0588 29.6203 27.225C29.8263 27.39 29.9588 27.6298 29.9888 27.892C30.0187 28.1543 29.9438 28.4178 29.7803 28.625ZM2.99903 17.5C2.99903 16.8078 3.2043 16.1311 3.58888 15.5555C3.97347 14.9799 4.52009 14.5313 5.15963 14.2664C5.79918 14.0015 6.50291 13.9322 7.18184 14.0673C7.86078 14.2023 8.48442 14.5357 8.9739 15.0251C9.46338 15.5146 9.79673 16.1383 9.93178 16.8172C10.0668 17.4961 9.99751 18.1999 9.73261 18.8394C9.4677 19.4789 9.01909 20.0256 8.44352 20.4102C7.86795 20.7947 7.19126 21 6.49903 21C5.57077 21 4.68053 20.6313 4.02415 19.9749C3.36778 19.3185 2.99903 18.4283 2.99903 17.5ZM4.99903 17.5C4.99903 17.7967 5.087 18.0867 5.25182 18.3334C5.41664 18.58 5.65091 18.7723 5.925 18.8858C6.19909 18.9994 6.50069 19.0291 6.79166 18.9712C7.08263 18.9133 7.34991 18.7704 7.55969 18.5607C7.76947 18.3509 7.91233 18.0836 7.9702 17.7926C8.02808 17.5017 7.99838 17.2001 7.88485 16.926C7.77131 16.6519 7.57906 16.4176 7.33238 16.2528C7.08571 16.088 6.7957 16 6.49903 16C6.1012 16 5.71967 16.158 5.43837 16.4394C5.15706 16.7207 4.99903 17.1022 4.99903 17.5Z" fill="#D8C49B"/>
</svg>
