<svg width="32" height="32" viewBox="0 0 32 32" fill="none" xmlns="http://www.w3.org/2000/svg">
<path d="M32 27.0001C32 27.2654 31.8946 27.5197 31.7071 27.7073C31.5196 27.8948 31.2652 28.0001 31 28.0001H13C12.7348 28.0001 12.4804 27.8948 12.2929 27.7073C12.1054 27.5197 12 27.2654 12 27.0001C12 26.7349 12.1054 26.4806 12.2929 26.293C12.4804 26.1055 12.7348 26.0001 13 26.0001H31C31.2652 26.0001 31.5196 26.1055 31.7071 26.293C31.8946 26.4806 32 26.7349 32 27.0001ZM28.73 23.9626L6.65125 17.7801C5.60193 17.4836 4.67784 16.8532 4.01898 15.9843C3.36012 15.1155 3.0024 14.0556 3 12.9651V6.00015C2.99998 5.68323 3.07527 5.37084 3.21967 5.08873C3.36407 4.80662 3.57344 4.56286 3.83054 4.37755C4.08763 4.19223 4.38509 4.07067 4.69838 4.02287C5.01168 3.97508 5.33185 4.00242 5.6325 4.10265L6.31625 4.33015C6.45965 4.3778 6.59039 4.45733 6.69864 4.56277C6.80689 4.6682 6.88984 4.7968 6.94125 4.9389L8.26625 8.61015L12 9.6739V6.00015C12 5.68323 12.0753 5.37084 12.2197 5.08873C12.3641 4.80662 12.5734 4.56286 12.8305 4.37755C13.0876 4.19223 13.3851 4.07067 13.6984 4.02287C14.0117 3.97508 14.3318 4.00242 14.6325 4.10265L15.3162 4.33015C15.4516 4.37525 15.5757 4.44877 15.6802 4.54579C15.7848 4.64281 15.8674 4.76108 15.9225 4.89265L18.735 11.5964L26.34 13.7214C27.3915 14.0167 28.3178 14.647 28.9784 15.5168C29.639 16.3865 29.9977 17.448 30 18.5401V23.0001C29.9999 23.1545 29.9642 23.3067 29.8955 23.4449C29.8268 23.5831 29.727 23.7035 29.604 23.7968C29.481 23.89 29.3381 23.9535 29.1865 23.9823C29.0348 24.011 28.8786 24.0043 28.73 23.9626ZM28 18.5401C27.9983 17.8847 27.7827 17.2478 27.3861 16.726C26.9895 16.2042 26.4335 15.826 25.8025 15.6489L17.7313 13.3989C17.5859 13.3584 17.4515 13.2855 17.3383 13.1857C17.2251 13.0859 17.1359 12.9618 17.0775 12.8226L14.25 6.0839L14 6.00015V11.0001C14.0001 11.1549 13.9643 11.3076 13.8954 11.4461C13.8265 11.5847 13.7263 11.7054 13.6029 11.7987C13.4794 11.892 13.336 11.9553 13.1839 11.9838C13.0317 12.0123 12.8751 12.005 12.7262 11.9626L7.22625 10.3951C7.07354 10.3514 6.93345 10.2719 6.81759 10.1632C6.70173 10.0545 6.61343 9.91976 6.56 9.77015L5.22375 6.0739L5 6.00015V12.9651C5.00162 13.6195 5.21637 14.2556 5.61174 14.777C6.00711 15.2985 6.56159 15.677 7.19125 15.8551L28 21.6814V18.5401Z" fill="#D8C49B"/>
</svg>
