<svg width="32" height="32" viewBox="0 0 32 32" fill="none" xmlns="http://www.w3.org/2000/svg">
<path d="M28.8297 6.16995C28.4582 5.79842 28.0172 5.5037 27.5319 5.30263C27.0465 5.10155 26.5263 4.99806 26.0009 4.99806C25.4755 4.99806 24.9553 5.10155 24.47 5.30263C23.9846 5.5037 23.5436 5.79842 23.1722 6.16995C22.9204 6.42157 22.7035 6.70576 22.5272 7.01495L18.9997 6.05245C19.0106 5.25665 18.7838 4.47569 18.3484 3.80947C17.913 3.14324 17.2888 2.62204 16.5556 2.31254C15.8224 2.00303 15.0135 1.9193 14.2324 2.07204C13.4513 2.22477 12.7335 2.60705 12.1709 3.16995C11.5702 3.77212 11.1766 4.54981 11.0472 5.39048C10.9177 6.23116 11.0591 7.09122 11.4509 7.8462L7.20841 11.665C6.43868 11.1562 5.51694 10.9287 4.5989 11.021C3.68086 11.1132 2.8228 11.5195 2.16966 12.1712C1.43937 12.896 1.01644 13.8742 0.988754 14.9027C0.961071 15.9313 1.33077 16.9309 2.02101 17.6939C2.71126 18.4568 3.66897 18.9245 4.69509 18.9997C5.72122 19.0748 6.73685 18.7517 7.53091 18.0975L16.2809 24.5175C16.0009 25.2187 15.9251 25.9848 16.0622 26.7274C16.1993 27.4699 16.5438 28.1584 17.0558 28.7133C17.5678 29.2683 18.2265 29.667 18.9556 29.8633C19.6847 30.0597 20.4544 30.0456 21.1759 29.8228C21.8974 29.6 22.541 29.1776 23.0325 28.6043C23.5239 28.0311 23.8431 27.3305 23.953 26.5834C24.063 25.8364 23.9593 25.0735 23.6538 24.383C23.3484 23.6924 22.8538 23.1024 22.2272 22.6812L25.6509 12.9825C25.7659 12.9925 25.8809 12.9975 25.9959 12.9975C26.7869 12.9973 27.56 12.7627 28.2177 12.3233C28.8753 11.8838 29.3879 11.2592 29.6907 10.5285C29.9934 9.79779 30.0728 8.9937 29.9186 8.21791C29.7645 7.44211 29.3838 6.72943 28.8247 6.16995H28.8297ZM13.5797 4.5837C13.8595 4.30422 14.2158 4.11396 14.6037 4.03697C14.9916 3.95998 15.3936 3.99972 15.759 4.15116C16.1243 4.3026 16.4365 4.55894 16.6562 4.88779C16.8758 5.21664 16.9931 5.60324 16.9931 5.9987C16.9931 6.39417 16.8758 6.78076 16.6562 7.10961C16.4365 7.43846 16.1243 7.69481 15.759 7.84625C15.3936 7.99769 14.9916 8.03743 14.6037 7.96044C14.2158 7.88345 13.8595 7.69319 13.5797 7.4137C13.394 7.22763 13.2469 7.00679 13.1467 6.76382C13.0465 6.52084 12.9951 6.2605 12.9956 5.99767C12.9961 5.73484 13.0483 5.47467 13.1494 5.23206C13.2505 4.98944 13.3984 4.76912 13.5847 4.5837H13.5797ZM3.57966 16.415C3.39371 16.2292 3.24619 16.0086 3.14554 15.7658C3.04489 15.523 2.99309 15.2628 2.99309 15C2.99309 14.7371 3.04489 14.4769 3.14554 14.2341C3.24619 13.9913 3.39371 13.7707 3.57966 13.585C3.85945 13.3055 4.21582 13.1152 4.60373 13.0382C4.99163 12.9612 5.39365 13.001 5.75897 13.1524C6.12429 13.3038 6.43652 13.5602 6.65618 13.889C6.87585 14.2179 6.99309 14.6045 6.99309 15C6.99309 15.3954 6.87585 15.782 6.65618 16.1109C6.43652 16.4397 6.12429 16.6961 5.75897 16.8475C5.39365 16.9989 4.99163 17.0387 4.60373 16.9617C4.21582 16.8847 3.85945 16.6944 3.57966 16.415ZM21.4109 27.415C21.0358 27.7901 20.527 28.0008 19.9965 28.0008C19.466 28.0008 18.9573 27.7901 18.5822 27.415C18.207 27.0398 17.9963 26.5311 17.9963 26.0006C17.9963 25.4701 18.207 24.9613 18.5822 24.5862C18.7679 24.4005 18.9884 24.2531 19.2311 24.1526C19.4738 24.0521 19.7339 24.0004 19.9965 24.0004C20.2592 24.0004 20.5193 24.0521 20.762 24.1526C21.0047 24.2531 21.2252 24.4005 21.4109 24.5862C21.5966 24.7719 21.744 24.9924 21.8445 25.2351C21.945 25.4778 21.9968 25.7379 21.9968 26.0006C21.9968 26.2633 21.945 26.5234 21.8445 26.766C21.744 27.0087 21.5966 27.2292 21.4109 27.415ZM20.3422 22.0175C19.3052 21.9271 18.2738 22.2446 17.4672 22.9025L8.71716 16.4825C8.92921 15.9475 9.02398 15.3733 8.99509 14.7986C8.96619 14.224 8.8143 13.6622 8.54966 13.1512L12.7934 9.33245C13.25 9.63505 13.7638 9.84066 14.3031 9.93654C14.8423 10.0324 15.3955 10.0165 15.9284 9.88983C16.4613 9.76315 16.9625 9.52837 17.4009 9.20006C17.8393 8.87175 18.2056 8.45689 18.4772 7.9812L21.9997 8.94495C21.9901 9.60989 22.1465 10.2667 22.4547 10.856C22.7629 11.4453 23.2131 11.9484 23.7647 12.32L20.3422 22.0175ZM27.4122 10.4125C27.2293 10.6101 27.0084 10.7688 26.7628 10.879C26.5171 10.9892 26.2517 11.0486 25.9825 11.0538C25.7133 11.0589 25.4458 11.0097 25.1961 10.909C24.9464 10.8083 24.7196 10.6582 24.5293 10.4677C24.339 10.2773 24.1891 10.0503 24.0887 9.80054C23.9882 9.55074 23.9392 9.28323 23.9446 9.01403C23.95 8.74484 24.0097 8.47951 24.1201 8.23394C24.2305 7.98838 24.3894 7.76764 24.5872 7.58495C24.9623 7.20984 25.471 6.9991 26.0015 6.9991C26.532 6.9991 27.0408 7.20984 27.4159 7.58495C27.791 7.96007 28.0018 8.46884 28.0018 8.99933C28.0018 9.52982 27.791 10.0386 27.4159 10.4137L27.4122 10.4125Z" fill="#D8C49B"/>
</svg>
