<svg width="32" height="32" viewBox="0 0 32 32" fill="none" xmlns="http://www.w3.org/2000/svg">
<path fill-rule="evenodd" clip-rule="evenodd" d="M16.0003 9.66663C11.379 9.66663 7.28566 10.6319 4.74566 12.08C2.74171 13.2227 1.66699 14.716 1.66699 16.24C1.66699 17.7639 2.74169 19.256 4.74566 20.3986C7.28566 21.8467 11.379 22.812 16.0003 22.812C20.6217 22.812 24.715 21.8467 27.255 20.3986C29.2589 19.2559 30.3337 17.7639 30.3337 16.24C30.3337 14.716 29.259 13.2226 27.255 12.08C24.715 10.6319 20.6217 9.66663 16.0003 9.66663ZM16.0003 11.6666C20.2097 11.6666 23.9497 12.4986 26.2643 13.8172C27.4977 14.5212 28.3337 15.3012 28.3337 16.24C28.3337 17.1772 27.4977 17.9586 26.2643 18.6613C23.9496 19.98 20.2097 20.8119 16.0003 20.8119C11.791 20.8119 8.05099 19.98 5.73633 18.6613C4.50299 17.9586 3.66694 17.1774 3.66694 16.24C3.66694 15.3013 4.50299 14.5213 5.73633 13.8172C8.05102 12.4986 11.791 11.6666 16.0003 11.6666Z" fill="#D8C49B"/>
<path fill-rule="evenodd" clip-rule="evenodd" d="M9.66699 16C9.66699 20.6133 10.5897 24.7026 11.9737 27.2386C13.0764 29.2586 14.5297 30.3333 16.0003 30.3333C17.4709 30.3333 18.9243 29.2586 20.027 27.2386C21.4109 24.7026 22.3337 20.6133 22.3337 16C22.3337 11.3866 21.4109 7.29729 20.027 4.76129C18.9243 2.74129 17.4709 1.66663 16.0003 1.66663C14.5297 1.66663 13.0763 2.74132 11.9737 4.76129C10.5897 7.29735 9.66699 11.3866 9.66699 16ZM11.667 16C11.667 11.7826 12.4643 8.03729 13.7297 5.71996C14.1017 5.03724 14.5084 4.48799 14.955 4.11465C15.287 3.8386 15.6323 3.66663 16.0003 3.66663C16.3684 3.66663 16.7137 3.8386 17.0456 4.11465C17.4923 4.48799 17.899 5.03737 18.2709 5.71996C19.5362 8.03724 20.3337 11.7826 20.3337 16C20.3337 20.2173 19.5364 23.9626 18.2709 26.28C17.899 26.9627 17.4923 27.5119 17.0456 27.8853C16.7137 28.1613 16.3684 28.3333 16.0003 28.3333C15.6323 28.3333 15.287 28.1613 14.955 27.8853C14.5084 27.5119 14.1017 26.9625 13.7297 26.28C12.4644 23.9627 11.667 20.2173 11.667 16Z" fill="#D8C49B"/>
</svg>
