<svg width="32" height="32" viewBox="0 0 32 32" fill="none" xmlns="http://www.w3.org/2000/svg">
<path d="M6.5 3C8.2632 3 9.72121 4.3039 9.96387 6H21C22.3261 6 23.5975 6.52716 24.5352 7.46484C25.4728 8.40253 26 9.67392 26 11C26 12.3261 25.4728 13.5975 24.5352 14.5352C23.5975 15.4728 22.3261 16 21 16H9C7.93913 16 6.92202 16.4217 6.17188 17.1719C5.42173 17.922 5 18.9391 5 20C5 21.0609 5.42173 22.078 6.17188 22.8281C6.92202 23.5783 7.93913 24 9 24H21.125C21.3479 23.1417 21.8496 22.3817 22.5508 21.8389C23.252 21.296 24.1132 21.0008 25 21C25.7479 21.0004 26.4807 21.2106 27.1152 21.6064C27.7498 22.0024 28.2608 22.5686 28.5898 23.2402C28.9189 23.912 29.0536 24.6631 28.9775 25.4072C28.9014 26.1513 28.6174 26.859 28.1592 27.4502C27.701 28.0414 27.0863 28.4926 26.3848 28.752C25.6832 29.0113 24.923 29.069 24.1904 28.918C23.4578 28.7669 22.7821 28.4132 22.2402 27.8975C21.6984 27.3817 21.312 26.7243 21.125 26H9C7.4087 26 5.88303 25.3674 4.75781 24.2422C3.63259 23.117 3 21.5913 3 20C3 18.4087 3.63259 16.883 4.75781 15.7578C5.88303 14.6326 7.4087 14 9 14H21C21.7956 14 22.5585 13.6837 23.1211 13.1211C23.6837 12.5585 24 11.7956 24 11C24 10.2044 23.6837 9.44152 23.1211 8.87891C22.5585 8.3163 21.7956 8 21 8H9.66309C9.10135 9.18245 7.89618 10 6.5 10C4.567 10 3 8.433 3 6.5C3 4.567 4.567 3 6.5 3ZM25.7656 23.1523C25.4002 23.001 24.9973 22.9609 24.6094 23.0381C24.2216 23.1153 23.8656 23.3063 23.5859 23.5859C23.3063 23.8656 23.1153 24.2216 23.0381 24.6094C22.9609 24.9973 23.001 25.4002 23.1523 25.7656C23.3037 26.1309 23.5599 26.4434 23.8887 26.6631C24.2176 26.8828 24.6044 27 25 27C25.5304 27 26.039 26.7891 26.4141 26.4141C26.7891 26.039 27 25.5304 27 25C27 24.6044 26.8828 24.2176 26.6631 23.8887C26.4434 23.5599 26.1309 23.3037 25.7656 23.1523ZM6.5 5C5.67157 5 5 5.67157 5 6.5C5 7.32843 5.67157 8 6.5 8C7.32843 8 8 7.32843 8 6.5C8 5.67157 7.32843 5 6.5 5Z" fill="#D8C49B"/>
</svg>
