<svg width="32" height="32" viewBox="0 0 32 32" fill="none" xmlns="http://www.w3.org/2000/svg">
<path d="M15.9307 1.09961C17.8732 1.09961 19.6051 2.00803 20.8438 3.26367C22.0762 4.51313 22.8706 6.15839 22.8711 7.70215C22.8711 8.76404 22.4914 9.74341 21.8584 10.5703C23.1377 10.9836 24.215 11.5308 25.0146 12.1914C25.9705 12.9812 26.5663 13.9635 26.5664 15.0713C26.5663 16.2515 25.9108 17.2682 24.8789 18.0762C27.5754 19.3783 29.2752 21.2997 29.2754 23.5771C29.2753 25.7592 27.6788 27.5988 25.3096 28.8643C22.9235 30.1386 19.6447 30.8994 16 30.8994C12.3554 30.8994 9.0765 30.1386 6.69043 28.8643C4.32107 27.5987 2.72461 25.7585 2.72461 23.5762C2.72491 21.3285 4.38665 19.4238 7.02637 18.1221C5.96008 17.3064 5.28045 16.2738 5.28027 15.0713C5.28041 13.9621 5.87796 12.9787 6.83594 12.1885C7.63768 11.5272 8.71739 10.9786 10 10.5654C9.36913 9.73945 8.99121 8.76178 8.99121 7.70215C8.99138 6.1586 9.78531 4.51318 11.0176 3.26367C12.256 2.00802 13.9882 1.09961 15.9307 1.09961ZM21.8213 19.5996C20.1516 20.1311 18.1333 20.4336 15.9229 20.4336C13.7447 20.4336 11.753 20.1409 10.0977 19.624C8.58364 20.094 7.36421 20.7275 6.52734 21.4277C5.65778 22.1554 5.25503 22.9046 5.25488 23.5771C5.25517 24.6983 6.28838 25.8966 8.30469 26.8457C10.2756 27.7733 13.0114 28.3681 15.999 28.3682C18.987 28.3682 21.7234 27.7734 23.6943 26.8457C25.7108 25.8965 26.743 24.6981 26.7432 23.5771C26.743 22.8968 26.3345 22.1413 25.4512 21.4092C24.6004 20.7041 23.3605 20.0684 21.8213 19.5996ZM12.5742 12.5312C10.9444 12.8242 9.7276 13.2879 8.92676 13.7852C8.06733 14.3189 7.81176 14.8049 7.81152 15.0713C7.8117 15.2723 7.92743 15.5553 8.28613 15.8926C8.63975 16.2248 9.18298 16.5639 9.90723 16.8672C11.3532 17.4727 13.4383 17.9033 15.9229 17.9033C18.4077 17.9033 20.4926 17.4718 21.9385 16.8662C22.663 16.5628 23.207 16.224 23.5605 15.8916C23.9188 15.5545 24.034 15.2722 24.0342 15.0713C24.0339 14.8053 23.7793 14.3203 22.9219 13.7871C22.1225 13.2901 20.9076 12.8266 19.2803 12.5332C18.2843 12.9726 17.1446 13.2285 15.9307 13.2285C14.714 13.2285 13.5717 12.9721 12.5742 12.5312ZM15.9307 3.63086C14.7952 3.63086 13.6876 4.1931 12.8535 5.0166C12.0127 5.84686 11.5218 6.86945 11.5215 7.70215C11.5215 8.46106 11.9549 9.1986 12.751 9.76562C13.546 10.3317 14.6695 10.6973 15.9307 10.6973C17.1916 10.6972 18.3144 10.3316 19.1094 9.76562C19.9056 9.19863 20.3389 8.46122 20.3389 7.70215C20.3386 6.86939 19.8485 5.8468 19.0078 5.0166C18.1738 4.19314 17.0661 3.63091 15.9307 3.63086Z" fill="#D8C49B"/>
</svg>
